<svg xmlns="http://www.w3.org/2000/svg" xmlns:xlink="http://www.w3.org/1999/xlink" viewBox="0 0 698.88 500.89"><defs><linearGradient id="ff19b977-d159-4d31-88ae-6e1abfed908e" x1="102.23" y1="174.19" x2="622.12" y2="174.19" gradientUnits="userSpaceOnUse"><stop offset="0" stop-color="#351700"/><stop offset="1" stop-color="#1a2c00"/></linearGradient></defs><g id="e3a86a51-f4f2-465f-8740-ccba35f9de04" data-name="Layer 2"><g id="b54f4c16-3c80-45f5-9dd8-4694b56be937" data-name="Layer 1"><path d="M192.82,278.67h66.5v69.72H102.23V0H253.29V69.72H192.82v66.06h56.6v66.28h-56.6Zm92.53,69.72H376V0h-90.6ZM622.12,122.87v122q0,46.92-4.41,62.73t-15.38,24.75q-11,8.92-27.12,12.48t-48.63,3.55H412.31V0H480.1q65.63,0,88.76,6t35.19,19.8a62.74,62.74,0,0,1,15.06,30.67Q622.13,73.38,622.12,122.87Zm-90.59-20q0-23.67-1.51-30.34a14.38,14.38,0,0,0-6.88-9.79q-5.39-3.12-20.23-3.12V288.78q19.57,0,24.1-7.85t4.52-42.72Z" style="fill:url(#ff19b977-d159-4d31-88ae-6e1abfed908e)"/><path d="M692.36,404.15a12.66,12.66,0,0,0-10-4.78c-8.22,0-12.35,5.8-14.2,8.53-15.92-1.7-32.14-25.07-39.55-37.22,27.75-6.07,42.24-25.19,42.24-41.93,0-15.95-7.62-27.53-18.12-27.53a13.27,13.27,0,0,0-6,1.42c3.23-6.53,4.87-11.49,4.87-15.41,0-16.37-13.09-29.07-24.34-29.07a13.18,13.18,0,0,0-13.37,13.28c0,6.14-15.33,31.25-23.57,44.74-6.84,11.19-13.9,22.76-19.67,33.55q-1.94,2.5-3.93,5a23.38,23.38,0,0,0-4.31-8.2,12.2,12.2,0,0,0,7.67-5.83,13.64,13.64,0,0,0,1.77-6.93c0-9.28-9.67-27-24.83-27-11.61,0-24.47,9-34.4,18-3-6.86-8.94-11.8-11.84-14.21l-.86-.73a14.74,14.74,0,0,0-9.55-3.54h-.09c2.93-6.65,4.36-12.12,4.36-16.6,0-12.77-9.47-22-22.51-22-9,0-19.59,5.9-27.71,15.39a61,61,0,0,0-14.35,39.69c0,.31,0,.63,0,.94-3.83-8.35-11.72-16.95-22.27-16.95-15.58,0-33.48,16.43-42.82,26.3a16.22,16.22,0,0,0-1.5,1.6l-.43.47c-.49-13.53-6.5-22.71-17.18-26.4,8.94-15.68,10.86-22.36,10.86-27.32,0-17.59-15.54-29.26-25.82-29.26a12.39,12.39,0,0,0-12.7,12.33c0,8.59-20.73,41.76-33.11,61.58l-4.09,6.55a29.15,29.15,0,0,0-7.88-18c-4.72-5.08-10.41-8-15.61-8a12.51,12.51,0,0,0-12.71,11.63c-.09,1.24-1.16,4.34-4.13,9.59a26.49,26.49,0,0,0-6.66-13c-4.78-5.15-11-8.23-16.77-8.23a12.93,12.93,0,0,0-9.65,4c-4.19-6.76-11.59-12.62-20.57-12.62-2.5,0-4.63.21-8.75,2.91v-.42c0-10.14-11.2-25.77-26.1-25.77a13.59,13.59,0,0,0-7.6,2.14,40,40,0,0,0,2.28-12.51c0-21-12-42.22-39-42.22-24,0-50.12,8.61-71.67,23.63C14.14,261.11.93,280.9.93,298.63c0,21.12,17,35.87,41.4,35.87a43.52,43.52,0,0,0,13.89-2.21c-9.85,16.11-19.14,35.35-19.14,52.47,0,18.39,13.5,26.66,23.09,26.66s14.61-7,14.61-13.53c.15-1.29,2.34-5.84,7.5-13.47-.07.73-.11,1.44-.11,2.13,0,17,11.42,24.59,22.73,24.59a21.82,21.82,0,0,0,3.72-.29l1.81-.32a6.6,6.6,0,0,0,4.06-2.42l1.14-1.45c4.75-6,11.74-14,20.14-23-.13,1.68-.19,3.34-.19,5,0,40.36,32.73,65.34,63.06,65.34,15.05,0,24.75-6,30.24-11,4.37-4,7.85-9,9.12-13.07a7,7,0,0,0,.23-.69c2.24-8.28.18-13.82-2-17.11l-.25-.35c-.28-.37-.58-.7-.89-1a22.62,22.62,0,0,0,2.48.14c4.57,0,11.2-1.34,22.56-11.13,4.39,6.75,11.07,11.17,17.37,11.17a15.12,15.12,0,0,0,10-4.5l4.82,1.85c-6,.81-13.48,5-16.87,8.73-9.88,10.78-9.86,30.53,0,43.13,8,10.13,22.39,15.27,42.84,15.27,30,0,70.89-11.43,104.09-29.13.14-.08,13.62-7.26,29.65-14.28,11.38,18.24,29.63,24.8,42.26,24.8,18.15,0,26.87-10,29.84-14.51A31.16,31.16,0,0,0,530,429.78c.33-1.56,3-15.52-6.44-26.78-.45-.54-.93-1.06-1.42-1.57l1-.93c4.31,5.49,10.79,10.36,18.39,10.36,4.32,0,10.5-1.19,20.67-9.79a20.41,20.41,0,0,0,16.41,9.32,14.39,14.39,0,0,0,14.74-14.49c.17-.83,1.37-4.41,4.89-11.47,14.83,29.67,33.23,58,57.75,58,23.56,0,39.19-18,39.19-30A13.18,13.18,0,0,0,692.36,404.15ZM87,288.52q-4.45,5.91-9,12a21.69,21.69,0,0,0-1.72-5.92,22.69,22.69,0,0,0-6.12-8.52,17.57,17.57,0,0,0-10.8-4.05,14.53,14.53,0,0,0-3.23.36A13.92,13.92,0,0,0,46,291.11c-2.67,6.5,1.48,11.42,2.85,13l.86,1.06c-.4,0-.86.05-1.39.05-2.88,0-6.3-.44-6.3-2.56,0-25.45,47.76-52,64.3-52,2.89,0,4.58.8,5.1,1.23C110.74,257,95.36,277.42,87,288.52ZM222.08,405.07c-7.78,0-10.71,6.67-11.82,9.18-3.61,8.21-6.75,10.84-12.93,10.84-10.89,0-23.07-14-23.07-32.68,0-.22,0-.44,0-.66a25.29,25.29,0,0,0,6,11.38,24.24,24.24,0,0,0,18.05,7.73c6,0,12.67-3.46,20.29-10.54a25.89,25.89,0,0,0,4.12,4.78C222.51,405.09,222.3,405.07,222.08,405.07Zm208.84-64.39a12.57,12.57,0,0,0,1.26-3.05,28.86,28.86,0,0,0,3.24,6.9c-2.46,3.35-5.11,6.79-7.86,10.2a23.47,23.47,0,0,0-4.31-8.22A12.25,12.25,0,0,0,430.92,340.68Zm12.3,65.13c-10,3.88-19.86,8-28.66,11.73-6.63,2.8-12.36,5.21-17.1,7.06-24.91,9.76-53.67,15.82-75,15.82-14.48,0-19.18-2.83-20.06-3.47a6.38,6.38,0,0,1-.11-1.54,11.67,11.67,0,0,1,3.4.77c.51.21,1.21.58,1.9.93,2.26,1.17,4.82,2.5,8.19,2.5a11.89,11.89,0,0,0,9-4.07c1.46-1.68,5.78-7.84-.11-16.41-3-4.3-8.18-7.25-13.9-9,9.89-2,20.46-7,31.57-14.91,4.89,9.15,14.15,15.62,23.07,15.62,3.46,0,8.65-1.25,18.57-10.36,4.31,5.49,10.79,10.36,18.39,10.36,7.25,0,17.57-3.43,39.15-28.87,1.5-1.76,3-3.53,4.38-5.28a82.93,82.93,0,0,0-3,21.4A72.7,72.7,0,0,0,443.22,405.81ZM503.36,426l-.06.14c-.15.33-.43.95-.54,1.13-.59.8-3.93,1.75-6.17,1.75-2.46,0-8.06-.95-11.28-9a45.76,45.76,0,0,1,10.21-1.5,10.43,10.43,0,0,1,2.18.18,14.43,14.43,0,0,1,5,2.35C503.54,422.53,503.42,425,503.36,426Z"/><path d="M696.06,411.42a12.68,12.68,0,0,0-10-4.77c-8.22,0-12.35,5.8-14.19,8.53-15.93-1.7-32.15-25.07-39.56-37.22,27.75-6.07,42.24-25.19,42.24-41.93,0-15.95-7.62-27.53-18.12-27.53a13.27,13.27,0,0,0-6,1.42c3.23-6.53,4.87-11.49,4.87-15.41,0-16.37-13.09-29.07-24.34-29.07a13.18,13.18,0,0,0-13.37,13.28c0,6.14-15.33,31.25-23.57,44.74-6.84,11.19-13.9,22.76-19.67,33.55q-1.93,2.5-3.93,5a23.38,23.38,0,0,0-4.31-8.2,12.2,12.2,0,0,0,7.67-5.83,13.69,13.69,0,0,0,1.77-6.93c0-9.28-9.67-27-24.83-27-11.6,0-24.47,9-34.41,18-3-6.87-8.93-11.8-11.83-14.21l-.86-.73a14.74,14.74,0,0,0-9.55-3.54H494c2.93-6.65,4.36-12.12,4.36-16.6,0-12.77-9.47-22-22.51-22-9,0-19.59,5.9-27.71,15.39A61,61,0,0,0,433.81,330c0,.31,0,.63,0,.94C430,322.59,422.1,314,411.55,314c-15.58,0-33.48,16.43-42.82,26.3a15.18,15.18,0,0,0-1.5,1.6l-.43.47c-.49-13.53-6.5-22.71-17.18-26.4,8.94-15.68,10.86-22.36,10.86-27.32,0-17.59-15.54-29.26-25.82-29.26A12.39,12.39,0,0,0,322,271.72c0,8.59-20.73,41.76-33.11,61.58l-4.09,6.55a29.15,29.15,0,0,0-7.88-18c-4.72-5.08-10.41-8-15.61-8a12.51,12.51,0,0,0-12.71,11.63c-.09,1.24-1.16,4.33-4.13,9.59a26.45,26.45,0,0,0-6.66-13c-4.78-5.15-11.05-8.23-16.77-8.23a12.93,12.93,0,0,0-9.65,4c-4.19-6.76-11.59-12.62-20.57-12.62-2.5,0-4.63.21-8.75,2.91v-.42c0-10.14-11.2-25.77-26.1-25.77a13.59,13.59,0,0,0-7.6,2.14,40,40,0,0,0,2.28-12.51c0-21-12.05-42.22-39-42.22-24,0-50.12,8.61-71.67,23.63C17.84,268.39,4.63,288.18,4.63,305.91c0,21.12,17,35.87,41.4,35.87a43.25,43.25,0,0,0,13.89-2.22C50.07,355.68,40.78,374.92,40.78,392c0,18.39,13.5,26.66,23.09,26.66s14.61-7,14.61-13.54c.15-1.28,2.34-5.83,7.5-13.46-.07.73-.11,1.44-.11,2.13,0,17,11.42,24.59,22.73,24.59a21.82,21.82,0,0,0,3.72-.29l1.81-.32a6.6,6.6,0,0,0,4.06-2.42l1.14-1.45c4.75-6,11.74-14,20.14-23-.13,1.68-.19,3.34-.19,5,0,40.35,32.73,65.34,63.06,65.34,15,0,24.75-6,30.24-11,4.37-4.05,7.85-9,9.12-13.07a5.08,5.08,0,0,0,.23-.69c2.24-8.28.18-13.82-2-17.11l-.25-.35c-.28-.37-.58-.7-.89-1,.82.08,1.64.14,2.48.14,4.57,0,11.2-1.35,22.56-11.13,4.39,6.75,11.07,11.17,17.37,11.17a15.17,15.17,0,0,0,10-4.5l4.82,1.85c-6,.81-13.48,5-16.87,8.73-9.88,10.78-9.86,30.53,0,43.12,8,10.14,22.39,15.28,42.84,15.28,30,0,70.89-11.43,104.09-29.13.14-.08,13.62-7.26,29.65-14.28,11.38,18.24,29.63,24.8,42.26,24.8,18.15,0,26.87-10.05,29.84-14.51a31.22,31.22,0,0,0,5.83-12.48c.33-1.56,3-15.52-6.44-26.78-.45-.54-.93-1.06-1.42-1.57l1-.93c4.31,5.49,10.79,10.36,18.39,10.36,4.32,0,10.5-1.19,20.67-9.79a20.41,20.41,0,0,0,16.41,9.32,14.39,14.39,0,0,0,14.74-14.49c.17-.83,1.37-4.41,4.89-11.47,14.83,29.67,33.23,58,57.75,58,23.56,0,39.19-18,39.19-30A13.23,13.23,0,0,0,696.06,411.42ZM90.72,295.8q-4.45,5.91-9,12A21.69,21.69,0,0,0,80,301.9a22.86,22.86,0,0,0-6.12-8.53,17.64,17.64,0,0,0-10.8-4,14.53,14.53,0,0,0-3.23.36,13.93,13.93,0,0,0-10.11,8.69c-2.66,6.51,1.48,11.43,2.85,13.05l.86,1.06c-.4,0-.86.05-1.39.05-2.88,0-6.31-.45-6.31-2.56,0-25.45,47.77-52,64.31-52.05,2.89,0,4.58.8,5.1,1.23C114.44,264.27,99.06,284.7,90.72,295.8ZM225.78,412.34c-7.78,0-10.71,6.68-11.82,9.19-3.61,8.21-6.75,10.84-12.93,10.84-10.89,0-23.07-14-23.07-32.68,0-.22,0-.44,0-.66a25.29,25.29,0,0,0,6,11.38,24.24,24.24,0,0,0,18,7.73c6,0,12.67-3.46,20.29-10.54a25.89,25.89,0,0,0,4.12,4.78C226.21,412.37,226,412.34,225.78,412.34ZM434.62,348a12.91,12.91,0,0,0,1.26-3,28.61,28.61,0,0,0,3.24,6.89c-2.46,3.36-5.11,6.8-7.86,10.21a23.47,23.47,0,0,0-4.31-8.22A12.25,12.25,0,0,0,434.62,348Zm12.3,65.13c-10,3.88-19.86,8-28.66,11.73-6.63,2.79-12.36,5.21-17.1,7.06-24.91,9.76-53.67,15.82-75,15.82-14.48,0-19.18-2.83-20.06-3.47a6.38,6.38,0,0,1-.11-1.54,11.36,11.36,0,0,1,3.4.77c.51.21,1.21.58,1.9.93,2.26,1.17,4.82,2.5,8.19,2.5a11.89,11.89,0,0,0,9-4.07c1.46-1.68,5.78-7.84-.11-16.41-3-4.3-8.18-7.25-13.9-9,9.89-2,20.46-7,31.57-14.91,4.89,9.15,14.15,15.62,23.07,15.62,3.46,0,8.65-1.25,18.57-10.36,4.31,5.49,10.79,10.36,18.39,10.36,7.25,0,17.57-3.43,39.15-28.87,1.5-1.76,3-3.53,4.38-5.28a82.93,82.93,0,0,0-3,21.4A72.7,72.7,0,0,0,446.92,413.09Zm60.14,20.17-.06.14c-.15.33-.43,1-.54,1.13-.59.8-3.93,1.75-6.17,1.75-2.46,0-8.06-.95-11.28-9a45.76,45.76,0,0,1,10.21-1.5,10.43,10.43,0,0,1,2.18.18,14.64,14.64,0,0,1,5,2.34C507.25,429.8,507.12,432.26,507.06,433.26Z"/><path d="M198.64,450.39c-28.59,0-59.45-23.6-59.45-61.72a65.05,65.05,0,0,1,2.06-16c-11.89,12.33-22.15,23.76-28.46,31.76l-1.13,1.44a3,3,0,0,1-1.85,1.1l-1.81.32a18.2,18.2,0,0,1-3.1.24c-8.82,0-19.11-5.5-19.11-21,0-5.65,2.73-13.55,8.16-23.63-15.48,18.93-22.78,31.64-22.78,34.87,0,4.86-3.86,10-11,10-8.09,0-19.48-7.15-19.48-23.05,0-19.67,12.86-42.93,28-65-5.78,7-15.34,11.13-26.37,11.13-22.25,0-37.79-13.26-37.79-32.25,0-16.55,12.64-35.23,33.81-50,21-14.6,46.33-23,69.6-23,26.09,0,35.34,20.8,35.34,38.61,0,6.3-2.4,14-7.44,23.64,11.19-9.66,13.82-9.66,16.38-9.66,12.42,0,22.49,13.41,22.49,22.16,0,1.28,0,4-3.95,11.07,11.25-9.94,13.59-9.94,16.31-9.94,11.8,0,20.69,12.45,20.69,20.53,0,5.87-4.27,11.76-13.15,23.46-1.11,1.46-2.29,3-3.51,4.55-9.12,11.79-20.46,26.44-20.46,42.32,0,21.39,14.06,36.3,26.68,36.3,8.76,0,12.7-5,16.24-13,1.08-2.46,3.09-7,8.51-7a13.51,13.51,0,0,1,11,5.25l.2.28c1.74,2.61,3.36,7.1,1.47,14.06a4.13,4.13,0,0,1-.14.42c-1,3.4-4.25,8-8.17,11.64C221.41,444.93,212.53,450.39,198.64,450.39ZM59.38,285.66a13.8,13.8,0,0,1,8.47,3.2A19.13,19.13,0,0,1,73,296c1.41,3.07,3.23,9.64-.75,18.15-.32.68-.66,1.36-1,2,6.19-8.83,12.66-17.43,18.72-25.49,11.23-14.92,25.2-33.48,25.2-39.11,0-2.58-3.76-4.53-8.74-4.54-18,.07-67.92,27.83-67.92,55.66,0,5.1,5.39,6.17,9.92,6.17,4,0,5.83-.89,6.2-1.72.22-.47.11-1.74-2.91-5.33-1.23-1.46-4.12-4.89-2.25-9.39a10.39,10.39,0,0,1,7.52-6.49A10.84,10.84,0,0,1,59.38,285.66Z" style="fill:#fff"/><path d="M300.89,407.57c-11.05-2.53-13.19-5.41-14.38-6.47a9.49,9.49,0,0,1-9,6.19c-6.23,0-13.06-5.81-16.38-13.31-12.49,11.67-19.12,13.27-23.55,13.27-7.23,0-13.55-4.11-17.34-11.27-.27-.51-.52-1-.76-1.56-8.35,8.62-15.29,12.83-21.14,12.83a20.68,20.68,0,0,1-15.4-6.57c-3.06-3.31-6.54-9.35-5.76-19.3.49-6.77,5.63-15.63,14.68-30.71,6.52-10.87,15.46-25.75,15.93-32.11a9.22,9.22,0,0,1,9.54-8.37c4.67,0,10.08,2.7,14.12,7.07a22.82,22.82,0,0,1,6.12,17.45,26.09,26.09,0,0,1-2.26,8.13c9.22-12.95,12.95-21,13.18-24.4a8.93,8.93,0,0,1,9.11-8.26c4.14,0,9,2.55,13,6.83a25.38,25.38,0,0,1,6.9,19.32c-.28,3.8-2,8.35-5.07,14,3.1-4,6.1-8.15,8.81-12.23a12.3,12.3,0,0,1,2.32-2.6l4.72-7.56c14.23-22.78,33.66-53.88,33.66-63.5a8.81,8.81,0,0,1,9.09-8.71c7.83,0,22.2,9.73,22.2,25.64,0,4.16-1.61,10.7-12.76,29.63,12.37,2.15,19.12,11.18,19.12,25.89a52.19,52.19,0,0,1-.8,8.94c2.36-3,4.91-6,7.54-8.85a13.22,13.22,0,0,1,1.31-1.39c7.25-7.66,25.49-25.25,40.28-25.25,13.21,0,21.22,16.26,21.22,23.41a10.1,10.1,0,0,1-1.29,5.13,8.62,8.62,0,0,1-7.55,4.38,10.58,10.58,0,0,0-4.4,1.4A20.15,20.15,0,0,1,425,362c0,.52,0,1-.06,1.6,5.31-6.2,10.48-12.76,15-19.06-4.09-4.88-6.16-12.19-6.16-21.78,0-30.94,23.13-51.47,38.44-51.47,10.95,0,18.9,7.75,18.9,18.42,0,5.43-2.59,13-7.7,22.58a12.57,12.57,0,0,1,7-2.37,11.22,11.22,0,0,1,7.25,2.72l.14.13.58.48.13.11c3.41,2.84,11.33,9.43,12.28,18.16,9-8.88,23.79-21.15,36.27-21.15,13.2,0,21.22,16.26,21.22,23.41a10.2,10.2,0,0,1-1.29,5.13,8.64,8.64,0,0,1-7.56,4.38,10.55,10.55,0,0,0-4.39,1.4A20.14,20.14,0,0,1,564.17,362c0,.52,0,1-.06,1.6,3.26-3.82,6.52-7.84,9.63-11.87,5.74-10.78,12.84-22.4,19.7-33.64,10.17-16.65,24.1-39.46,24.1-46.62a9.5,9.5,0,0,1,9.76-9.66c9.38,0,20.72,11.35,20.72,25.45,0,8.43-9.86,24.45-27.29,52l-.51.8c2-1.43,4.15-3.09,6.46-5,12-9.94,16.1-17,16.1-18.68,0-7.93,5.16-11.54,10-11.54,8.4,0,14.5,10.06,14.5,23.91,0,16.27-15.5,35-44.36,39.31C630.79,382,650,411.58,670,411.61a17.51,17.51,0,0,0,1.07-1.48c1.57-2.32,4.82-7.15,11.34-7.15a9.07,9.07,0,0,1,7.17,3.41,9.66,9.66,0,0,1,2,6.1c0,9.28-13.51,26.34-35.58,26.34-23.66,0-42.37-30.71-57.66-62.41-6.33,11.72-8.55,18-8.6,19.26a10.87,10.87,0,0,1-11.12,11.1c-5.74,0-12.35-4-15.39-11.45-11.26,10.47-17.48,11.92-21.69,11.92-7.24,0-14-5.8-17.82-12.29a93.49,93.49,0,0,1-7.11,6.41,26.11,26.11,0,0,1,4.17,4c8.34,9.94,6,22.31,5.67,23.68a27.62,27.62,0,0,1-5.23,11.15c-2.63,4-10.4,13-26.9,13-13.52,0-31-8-40.76-25.77-17.56,7.5-32.7,15.59-32.86,15.68-32.7,17.43-72.89,28.7-102.38,28.7-19.29,0-32.75-4.68-40-13.9-8.72-11.09-8.82-29.06-.22-38.44,4.54-4.95,11.35-7.56,19.71-7.56s19.44,2.91,23.84,9.31c4.3,6.25,1.69,10.47.36,12a8.25,8.25,0,0,1-6.26,2.82c-2.49,0-4.45-1-6.53-2.09-.75-.38-1.52-.78-2.17-1a14.93,14.93,0,0,0-5.47-1.08,6.77,6.77,0,0,0-2.32.32c-.59.84-1,4.83,0,6.76.76,1.44,6.4,5.18,23.19,5.18,21.79,0,51.05-6.15,76.35-16.06,4.77-1.87,10.53-4.29,17.19-7.1,9.59-4,20.37-8.56,31.21-12.7a66.64,66.64,0,0,1-.74-10.06c0-15.2,5.6-30.89,11.66-43.43-4,5.53-11.23,15.38-19.37,25-20.75,24.46-30.35,27.6-36.4,27.6-7.23,0-14-5.8-17.81-12.29-11.1,10.94-16.22,12.29-19.15,12.29-8.13,0-17.87-6.9-21.59-17.59-15.63,11.89-30,17.91-42.88,17.91m179.82,9.91c3.55,14,13,15.13,15.88,15.13,2.2,0,7.57-.86,9.2-3.4a14.71,14.71,0,0,0,.82-1.64l.3-.67c0-.19,0-.39,0-.57.09-1.45.34-5.23-1.52-7.77a17.75,17.75,0,0,0-6.91-3.39,14,14,0,0,0-3-.27C491.83,414.9,486.85,415.76,480.71,417.48Zm1.56-30.2a71.14,71.14,0,0,0-2.34,10.3c2.25-.52,4.37-1,6.39-1.31A27.45,27.45,0,0,1,482.27,387.28ZM309.94,357c-.49.74-4.7,7.17-9.14,14.52,8.78-4,16.36-13,21-21.36a51.82,51.82,0,0,0,5.88-14.77c-1.36.89-3.09,2.1-5.28,3.74C315.65,349.05,310.92,355.61,309.94,357Z" style="fill:#fff"/><path d="M230.66,415.74a10.54,10.54,0,0,0-8.58-4.05c-3.46,0-4.73,2.9-5.76,5.23-3.38,7.69-8,14.8-19,14.8-14,0-29.69-16.14-29.69-39.31,0-16.91,11.68-32,21.07-44.14,1.22-1.57,2.4-3.09,3.51-4.56,8.24-10.85,12.54-16.74,12.54-21.63,0-6.92-7.92-17.52-17.68-17.52-2.93,0-6,0-37.25,31,9.6-11.84,21.88-28.32,21.88-35.17,0-7.38-8.92-19.14-19.48-19.14-2.53,0-5.88,0-30.23,23.57C132.1,290,140.28,275,140.28,264.28c0-17.21-8.49-35.59-32.33-35.59-22.67,0-47.41,8.17-67.88,22.43S7.56,283.07,7.56,298.63c0,17.22,14.3,29.24,34.77,29.24,12.52,0,22.93-5.75,27.16-15,3.46-7.38,2-13,.7-15.7a16.06,16.06,0,0,0-4.28-6,10.82,10.82,0,0,0-6.53-2.5,8,8,0,0,0-1.83.21,7.5,7.5,0,0,0-5.37,4.71c-1.16,2.8.66,5,1.77,6.29,2.45,2.91,4.56,5.94,3.36,8.5-1,2.33-4.05,3.5-9,3.5-3.89,0-12.93-.89-12.93-9.18,0-30,51.64-58.59,70.94-58.68,6.91,0,11.74,3.13,11.74,7.56,0,6.64-13.12,24.07-25.8,40.92C70.65,321.29,43.7,357.11,43.7,384.76c0,13.82,9.63,20,16.47,20,5.24,0,8-3.53,8-7,0-5.44,12-24.49,35.08-50.38,5.34-6,10.32-11.32,14.88-16-14.37,19.48-29.32,42.72-29.32,55.09,0,13.25,8.32,18,16.1,18a14.61,14.61,0,0,0,2.58-.2l1.81-.31,1.14-1.45c8.76-11.11,23.77-27.23,38.12-41.62a68.26,68.26,0,0,0-6.35,27.73c0,36.26,29.3,58.71,56.44,58.71,12.92,0,21.12-5,25.74-9.26,3.67-3.4,6.74-7.87,7.43-10.64h0c1.6-5.87.33-9.51-1-11.53Z" style="fill:#5b522b"/><path d="M300.48,404.09c13.17,0,28.56-6.29,45.07-19.66,1.95,12.21,12.4,19.8,19.81,19.8,4.09,0,10.78-4.83,20-14.4,2.51,6.43,9.32,14.4,17,14.4,5,0,13.93-2.75,34.1-26.53,11.86-14,21.88-28.51,22.3-29.12l.09-.15.38-.61a59.45,59.45,0,0,0,6.4-1c-7.78,13.83-16.15,33-16.15,51.25a62.76,62.76,0,0,0,1.12,12c-11.56,4.35-23.11,9.21-33.43,13.55-6.69,2.82-12.47,5.25-17.26,7.12-25.62,10-55.3,16.27-77.45,16.27-16.43,0-24.13-3.51-25.85-6.79-1.58-3-1.1-9,.84-10.56a7.27,7.27,0,0,1,4.16-.93,18.1,18.1,0,0,1,6.64,1.31c.75.31,1.58.74,2.38,1.16,1.9,1,3.39,1.75,5.15,1.75a5.29,5.29,0,0,0,4-1.78c1.31-1.51,2.27-4.17-.57-8.31-3.62-5.26-13.49-8-21.36-8-7.49,0-13.54,2.28-17.49,6.58-7.55,8.24-7.37,24.7.37,34.55,6.65,8.46,19.31,12.74,37.63,12.74,29,0,68.66-11.12,101-28.34.18-.1,16.94-9.05,35.68-16.89,8.79,18.26,26.09,26.63,39.36,26.63,15.07,0,22-8,24.45-11.75a24.58,24.58,0,0,0,4.74-10c.27-1.23,2.39-12.27-5-21.12a23.43,23.43,0,0,0-7.19-5.7q5.4-3.54,13.27-11.73c2.51,6.43,9.33,14.4,17,14.4,4,0,10.49-1.75,23.25-14.61,1.29,8.82,7.77,14.14,13.83,14.14a7.83,7.83,0,0,0,8.11-8.09c0-2.7,4.34-12.64,11.82-25.83,15.52,33,34.42,66,57.45,66,19.88,0,32.57-15.32,32.57-23.33a6.69,6.69,0,0,0-1.39-4.23,6.09,6.09,0,0,0-4.81-2.27c-4.91,0-7.37,3.65-8.84,5.82s-2,2.81-3.53,2.81c-23.14,0-44.06-34.36-51.92-49,28.71-2.71,46.15-20.39,46.15-36.87,0-11.91-4.94-20.9-11.49-20.9-3.45,0-6.94,2.64-6.94,8.53,0,3.27-5.38,11.24-17.19,21a105.35,105.35,0,0,1-17.94,12.22c2.48-4,5-8,7.52-12C634.82,311.33,645,294.82,645,287.23c0-13-10.58-22.44-17.71-22.44a6.48,6.48,0,0,0-6.74,6.65c0,8-13,29.35-24.55,48.19-6.89,11.3-14,23-19.73,33.71-6.67,8.67-13.23,16.25-18.63,22,2-4.36,3.51-9,3.51-13.32A17.1,17.1,0,0,0,548.61,345c4.44-3.07,8.21-4.78,10.83-4.78a5.66,5.66,0,0,0,4.94-2.87,7.21,7.21,0,0,0,.89-3.63c0-6.06-7.07-20.4-18.21-20.4-14.56,0-33.74,19.57-39.28,25.57-11.28,12.22-23.34,29.53-23.34,41.45a24.83,24.83,0,0,0,7.73,18.13,100.76,100.76,0,0,0-15.7,3.06c1.77-24.91,20.52-51.27,28-59.69a12.86,12.86,0,0,0,3.39-9.65c-.59-7.71-8.06-13.92-11.25-16.58l-.72-.61-.11-.09a8.29,8.29,0,0,0-5.34-2,10.49,10.49,0,0,0-6.11,2.37c-.33.23-.66.47-1,.67-1.08.62-4.19,2.27-8,4.28,6.23-10.07,12.78-22.55,12.78-30.54,0-8.93-6.69-15.41-15.89-15.41-14.27,0-35.43,20.35-35.43,48.46,0,11.68,3.21,18,7.05,21.48a286.51,286.51,0,0,1-25.32,31c2-4.34,3.48-8.91,3.48-13.26A17.1,17.1,0,0,0,409.4,345c4.44-3.07,8.21-4.78,10.83-4.78a5.66,5.66,0,0,0,4.94-2.87,7.21,7.21,0,0,0,.89-3.63c0-6.06-7.07-20.4-18.21-20.4-14,0-32.54,18.43-38.17,24.39a9.94,9.94,0,0,0-1.13,1.21,143.11,143.11,0,0,0-12.14,15c-1.47,1.56-3,3.12-4.57,4.66a58.62,58.62,0,0,0,4.66-21.76c0-10.44-3.7-22.86-21.12-23.36,12.88-21.3,14.77-28.27,14.77-32.16,0-13.82-12.6-22.63-19.19-22.63a5.76,5.76,0,0,0-6.07,5.7c0,10.49-18.9,40.72-34.08,65l-5,8.06a9.34,9.34,0,0,0-2.1,2.24c-9.7,14.62-23.49,30.39-33,39.86,2.11-3.41,4.45-7,6.5-10.21,10.1-15.65,16.76-26.42,17.27-33.3a22.46,22.46,0,0,0-6.11-17.05c-3.36-3.62-7.48-5.87-10.75-5.87a5.92,5.92,0,0,0-6.1,5.46c-.46,6.51-9.37,21.18-23.84,39.24-5.9,7.37-11.48,13.77-16.11,18.78,2-3.27,4.16-6.59,6-9.41,10.27-16,16.54-26.13,17-32.77a19.92,19.92,0,0,0-5.32-15.18c-3.45-3.72-8.12-6.11-11.92-6.11a6.16,6.16,0,0,0-6.54,5.59c-.52,7.06-9.3,21.68-16.35,33.43-8.55,14.26-13.82,23.3-14.25,29.39-.7,8.87,2.31,14.15,5,17a17.7,17.7,0,0,0,13.19,5.6c6.67,0,15.1-7.41,22.35-15.54a25.58,25.58,0,0,0,2.21,5.88c3.25,6.14,8.6,9.66,14.68,9.66,4.16,0,11-1.91,24.9-15.75,1.81,8.56,9.16,15.8,15,15.8a6.67,6.67,0,0,0,6.72-6.64c.15-.5.5-1.39.92-2.4a25.38,25.38,0,0,0,9,7.33m30.38-51c-6.36,11.31-17.41,23.35-30,24.77,5.59-9.73,12.35-20.06,13-21.12.63-.87,5.56-7.69,12.76-18.26,6.69-5.07,9.66-6.48,10.81-6.87C331.6,332.63,330.61,340.65,324.46,351.61ZM380,375.14a149.05,149.05,0,0,1,11.32-13.8c2.11-2.29,4.21-4.44,6.26-6.43C393.49,360.31,386.35,368.47,380,375.14ZM510,426.52c0,.4-.07.82-.13,1.22s-.32.69-.48,1.05a15.71,15.71,0,0,1-1,2c-2.52,3.92-9.33,4.78-11.74,4.79-2.75,0-15.95-1-19.42-20.26,7.67-2.32,13.83-3.49,18.35-3.49a16.43,16.43,0,0,1,3.7.36,20.16,20.16,0,0,1,8.42,4.24C510.39,419.93,510.08,424.7,510,426.52Zm9.27-51.38a152.38,152.38,0,0,1,11.32-13.8c2.11-2.29,4.21-4.45,6.27-6.43C532.7,360.31,525.56,368.47,519.24,375.14Z" style="fill:#5b522b"/><path d="M229.91,411.52a10.55,10.55,0,0,0-8.58-4c-3.46,0-4.73,2.9-5.76,5.23-3.38,7.69-8,14.8-19,14.8-14.05,0-29.7-16.14-29.7-39.3,0-16.92,11.69-32,21.08-44.14,1.22-1.57,2.4-3.1,3.5-4.56C199.7,328.65,204,322.75,204,317.86c0-6.92-7.92-17.52-17.68-17.52-2.92,0-5.94,0-37.24,31,9.6-11.84,21.87-28.31,21.87-35.16,0-7.39-8.91-19.15-19.47-19.15-2.53,0-5.89,0-30.23,23.57,10.09-14.88,18.28-29.83,18.28-40.57,0-17.21-8.49-35.59-32.33-35.59-22.67,0-47.42,8.18-67.89,22.44S6.8,278.85,6.8,294.41c0,17.22,14.3,29.25,34.78,29.25,12.51,0,22.93-5.76,27.16-15,3.46-7.37,2-13,.7-15.7a16.16,16.16,0,0,0-4.28-6,10.82,10.82,0,0,0-6.54-2.49,7.88,7.88,0,0,0-1.82.21,7.48,7.48,0,0,0-5.37,4.7c-1.17,2.81.66,5,1.77,6.29,2.45,2.91,4.55,5.94,3.36,8.51-1,2.32-4.06,3.5-9,3.5-3.88,0-12.92-.9-12.92-9.18,0-30,51.64-58.6,70.94-58.68,6.91,0,11.74,3.12,11.74,7.55,0,6.64-13.12,24.07-25.8,40.93C69.9,317.07,43,352.89,43,380.54c0,13.83,9.63,20,16.47,20,5.24,0,8-3.53,8-7,0-5.44,12-24.49,35.09-50.37,5.33-6,10.32-11.32,14.88-16C103,346.72,88.05,370,88.05,382.34c0,13.24,8.32,18,16.1,18a16.19,16.19,0,0,0,2.57-.19l1.82-.32,1.14-1.45c8.75-11.1,23.77-27.23,38.11-41.62a68.26,68.26,0,0,0-6.34,27.73c0,36.27,29.29,58.71,56.43,58.71,12.93,0,21.13-5,25.75-9.26,3.67-3.4,6.74-7.86,7.42-10.64h0c1.59-5.88.33-9.52-1-11.53Z" style="fill:#fff"/><path d="M300.13,400.34c13.17,0,28.16-6.76,44.67-20.13,1.95,12.21,12.39,19.81,19.81,19.81,4.08,0,10.78-4.84,20-14.4,2.51,6.42,9.33,14.4,17,14.4,5,0,13.93-2.75,34.1-26.53,11.86-14,21.87-28.52,22.29-29.13l.1-.14.37-.62a59.07,59.07,0,0,0,6.4-1c-7.77,13.83-16.14,33-16.14,51.26a63.74,63.74,0,0,0,1.11,12c-11.55,4.34-23.1,9.2-33.42,13.54-6.69,2.82-12.47,5.25-17.26,7.13-25.63,10-55.31,16.27-77.46,16.27-16.42,0-24.12-3.51-25.85-6.8-1.57-3-1.09-9,.85-10.55a7.22,7.22,0,0,1,4.16-.94,18,18,0,0,1,6.63,1.31c.76.32,1.59.75,2.39,1.16,1.89,1,3.39,1.75,5.15,1.75a5.3,5.3,0,0,0,4-1.78c1.31-1.51,2.27-4.17-.57-8.31-3.62-5.26-13.49-8-21.36-8-7.49,0-13.54,2.28-17.49,6.59-7.55,8.23-7.37,24.7.37,34.54,6.65,8.46,19.31,12.75,37.63,12.75,29,0,68.65-11.13,100.95-28.35.18-.09,16.95-9.05,35.68-16.88,8.79,18.25,26.1,26.62,39.37,26.62,15.07,0,22-8,24.44-11.74a24.64,24.64,0,0,0,4.75-10c.26-1.23,2.38-12.27-5-21.11a23.44,23.44,0,0,0-7.19-5.71q5.4-3.52,13.27-11.72c2.51,6.42,9.33,14.4,17,14.4,4,0,10.5-1.76,23.26-14.61,1.29,8.81,7.77,14.14,13.82,14.14a7.84,7.84,0,0,0,8.12-8.1c0-2.69,4.34-12.64,11.82-25.83,15.52,33,34.42,66,57.44,66,19.89,0,32.57-15.32,32.57-23.33a6.64,6.64,0,0,0-1.38-4.22,6.07,6.07,0,0,0-4.81-2.27c-4.92,0-7.38,3.64-8.85,5.82s-2,2.81-3.53,2.81c-23.13,0-44.05-34.37-51.91-49,28.71-2.7,46.15-20.39,46.15-36.86,0-11.92-4.94-20.91-11.5-20.91-3.45,0-6.93,2.64-6.93,8.53,0,3.27-5.38,11.24-17.19,21a105,105,0,0,1-18,12.22c2.49-4,5-8,7.53-11.94,16.63-26.32,26.83-42.84,26.83-50.42,0-13-10.58-22.45-17.72-22.45a6.48,6.48,0,0,0-6.74,6.65c0,8-13,29.36-24.54,48.19-6.9,11.3-14,23-19.73,33.71-6.67,8.67-13.23,16.25-18.63,21.95,2-4.36,3.51-8.95,3.51-13.32a17.13,17.13,0,0,0-12.55-16.94c4.43-3.07,8.2-4.78,10.82-4.78a5.62,5.62,0,0,0,4.94-2.87,7.15,7.15,0,0,0,.89-3.63c0-6-7.06-20.4-18.2-20.4-14.56,0-33.75,19.57-39.28,25.57-11.28,12.23-23.34,29.54-23.34,41.45a24.85,24.85,0,0,0,7.73,18.14,100.61,100.61,0,0,0-15.7,3c1.76-24.91,20.52-51.26,28-59.68a12.9,12.9,0,0,0,3.4-9.66c-.59-7.7-8.06-13.92-11.25-16.58-.29-.24-.54-.44-.73-.61l-.11-.09a8.25,8.25,0,0,0-5.33-2,10.49,10.49,0,0,0-6.11,2.36c-.33.24-.67.47-1,.67-1.08.62-4.2,2.27-8,4.28,6.23-10.07,12.77-22.55,12.77-30.54,0-8.92-6.68-15.4-15.89-15.4-14.26,0-35.42,20.34-35.42,48.45,0,11.68,3.2,18.05,7.05,21.49a287.3,287.3,0,0,1-25.32,31c2-4.34,3.48-8.91,3.48-13.26a17.12,17.12,0,0,0-12.55-16.94c4.44-3.07,8.21-4.78,10.83-4.78a5.64,5.64,0,0,0,4.94-2.87,7.15,7.15,0,0,0,.89-3.63c0-6-7.07-20.4-18.21-20.4-14,0-32.54,18.43-38.17,24.4a9.85,9.85,0,0,0-1.13,1.2,143.19,143.19,0,0,0-12.14,15c-1.48,1.56-3,3.11-4.58,4.65a58.59,58.59,0,0,0,4.67-21.75c0-10.45-3.7-22.86-21.13-23.37C347.5,288,349.4,281,349.4,277.16c0-13.82-12.6-22.64-19.19-22.64a5.77,5.77,0,0,0-6.08,5.7c0,10.49-18.89,40.73-34.07,65q-2.55,4.08-5,8.07a9.16,9.16,0,0,0-2.1,2.24c-9.71,14.61-23.5,30.38-33,39.86,2.1-3.42,4.45-7.05,6.49-10.21,10.11-15.66,16.77-26.43,17.28-33.31a22.46,22.46,0,0,0-6.11-17.05c-3.36-3.62-7.49-5.87-10.76-5.87a5.93,5.93,0,0,0-6.1,5.46c-.45,6.52-9.36,21.19-23.83,39.24C221,361,215.4,367.44,210.77,372.45c2-3.26,4.16-6.58,6-9.4,10.28-16,16.55-26.13,17-32.78a19.9,19.9,0,0,0-5.33-15.18c-3.44-3.71-8.12-6.11-11.91-6.11a6.17,6.17,0,0,0-6.54,5.59c-.52,7.07-9.3,21.69-16.35,33.44-8.56,14.25-13.82,23.3-14.26,29.39-.7,8.87,2.32,14.15,5,17a17.7,17.7,0,0,0,13.19,5.6c6.67,0,15.1-7.42,22.34-15.55a25.61,25.61,0,0,0,2.22,5.88c3.25,6.15,8.6,9.67,14.68,9.67,4.15,0,11-1.91,24.9-15.75,1.8,8.56,9.16,15.79,15,15.79a6.66,6.66,0,0,0,6.72-6.64c.15-.5.49-1.38.91-2.39a25.61,25.61,0,0,0,9,7.33m30.37-51c-6.35,11.31-17.41,23.35-30,24.78,5.58-9.73,12.35-20.07,13-21.12.63-.87,5.56-7.7,12.77-18.27,6.69-5.07,9.65-6.47,10.81-6.87C330.84,328.41,329.86,336.43,323.7,347.39Zm55.58,23.53a153.79,153.79,0,0,1,11.32-13.79q3.18-3.45,6.27-6.44C392.74,356.09,385.6,364.25,379.28,370.92ZM509.21,422.3c0,.41-.07.82-.12,1.23s-.32.69-.48,1.05a16.23,16.23,0,0,1-1,2c-2.52,3.92-9.33,4.79-11.74,4.79-2.76,0-15.95-1-19.42-20.26,7.67-2.31,13.83-3.48,18.35-3.48a16.33,16.33,0,0,1,3.69.36,20.19,20.19,0,0,1,8.42,4.23C509.64,415.71,509.33,420.48,509.21,422.3Zm9.28-51.38a150.39,150.39,0,0,1,11.32-13.79c2.11-2.3,4.21-4.45,6.27-6.44C532,356.09,524.8,364.26,518.49,370.92Z" style="fill:#fff"/><path d="M221.33,412.29c-1.47,0-4.89,20-24.75,20-17.09,0-34.52-18.72-34.52-44.12,0-20.84,15.47-38.26,25.57-51.62,6.67-8.79,11.56-15.3,11.56-18.72,0-4.4-5.87-12.7-12.87-12.7-1.14,0-4.39,0-41.35,37.12-15,15-29.63,30.29-34.52,35.17,6.51-12.54,18.4-28.49,30.77-44.12,0,0,24.91-29.8,24.91-37.12,0-4.89-7-14.33-14.65-14.33s-69.2,65.29-69.2,65.29c0-7,52.43-62.36,52.43-87.11,0-9.28-3.26-30.77-27.51-30.77-46.25,0-95.58,35.82-95.58,65.12,0,13.52,11.24,24.43,30,24.43,10.09,0,19.21-4.4,22.79-12.21,2.45-5.21,1.79-9.28.66-11.73a11.57,11.57,0,0,0-2.93-4.23c-.17-.16-2.28-1.79-4.24-1.3a2.67,2.67,0,0,0-2,1.79c-.33.65,8.46,7.65,5,15-2.11,4.72-7.32,6.35-13.35,6.35-10.42,0-17.74-5.05-17.74-14,0-32.84,54.05-63.41,75.77-63.5,10.54,0,16.54,5.87,16.54,12.37,0,20.35-74.4,89.39-74.4,133.18,0,15.47,14.81,17.75,14.81,13,0-17.75,70.67-95.41,84-95.41,0,0-53.73,62.85-53.73,84.18,0,15.3,13,13,13,13,17.59-22.3,58.94-63.5,72.46-73.27a151,151,0,0,0-13.52,16c-7.81,10.26-18.56,26.7-18.56,46.4,0,34.36,28.33,53.89,51.61,53.89,11.4,0,18.56-4.39,22.47-8a23.49,23.49,0,0,0,6-8.14c0-.17,1.62-4.89-.33-7.82A5.68,5.68,0,0,0,221.33,412.29Z" style="fill:#514a2f"/><path d="M681.61,406.6c-5.21,0-4.72,8.62-12.38,8.62-32.72,0-59.59-58.28-59.59-58.28,30,0,49-17.1,49-32.4,0-15.47-8.79-20.19-8.79-12.38,0,13.19-36.15,39.89-44.78,39.89a8.79,8.79,0,0,1-4.07-1.46c16.45-26.87,38.43-58.94,38.43-67.57,0-13.84-14.82-21.33-14.82-15.8,0,14.35-28.72,53.74-45,84.51-13.72,17.91-30.07,35-34.1,35-5.21,0,10.1-17.09,10.1-29s-13.35-14.33-11.56-11.4c1.63,2.93-32.08,40.22-36,40.22-11.73,0,31.58-55.36,50.63-55.36,3.58,0-2.77-17.26-12.37-17.26-18.24,0-57.8,43.31-57.8,62.2,0,11.56,9.44,19.05,15.3,19.05,6,0,26.54-24.1,26.54-24.1s-2.77,6-2.77,9.93c0,4.07,6.52,14.17,13.19,14.17,7.37,0,19.49-12,30.25-24.62a37,37,0,0,0-2.41,11.59c0,12.54,12.54,15.8,12.54,9.28,0-5.53,8.63-22.14,17.1-36.14,6.35,12.7,30.28,71.47,57,71.47C677.05,426.78,686.82,406.6,681.61,406.6Z" style="fill:#514a2f"/><path d="M501.57,399.32c-7.08-1.49-18.19.62-30.76,4.43,0-.88-.05-1.77-.05-2.69,0-28.17,21.82-58.13,29.31-66.59,7.33-8.31-5.54-17.75-8.14-20-2.77-2.28-4.72.16-7,1.47-3.42,1.95-25.08,13.18-25.08,13.18s22.64-30.44,22.64-43.63c0-6.68-5.05-10.58-11.08-10.58-11.23,0-30.61,18.07-30.61,43.63,0,13.91,4.81,18.58,9.1,20-14.35,21.61-38.59,48.24-43.61,48.24-5.21,0,10.09-17.09,10.09-29s-13.35-14.33-11.56-11.4c1.63,2.93-32.07,40.22-36,40.22-11.72,0,31.59-55.36,50.64-55.36,3.58,0-2.77-17.26-12.38-17.26-8.89,0-22.85,10.31-34.83,23.05a5.27,5.27,0,0,0-.78.84,137.37,137.37,0,0,0-12.08,15,175.36,175.36,0,0,1-28.34,24.31c10.91-12.22,19.86-28.82,19.86-44.45,0-17.26-10.91-18.56-17.42-18.56a23.4,23.4,0,0,0-8.63,1.79c9.44-15,19.7-32.4,19.7-38.75,0-13.68-15.63-20.36-15.63-16.94,0,13.21-22.35,47.5-40.4,76.54a4.37,4.37,0,0,0-1.61,1.45c-14.49,21.82-41.35,50.48-46.24,50.48-9.76,0,27.19-44,28.17-57.15s-13-20.52-13.35-16.77c-1.3,18.72-51,73.75-55,73.75-10.75,0,27.51-45.59,28.49-58.61s-13.84-18.72-14.16-15c-1.14,15.3-29.8,51.45-30.61,62.85-1,12.37,6.35,17.42,13.35,17.42,9.93,0,29.31-27.19,29.31-27.19-6.52,8.46-1.8,27.19,9.93,27.19,8,0,22.14-14.12,33.95-27.92-2.9,5.78-4.65,10.34-4.65,13.1,0,10.91,12.54,19.05,12.54,12.54,0-1.3,3.58-9,4.72-11.72,4.07,6.35,8.79,13.51,16.94,14l-.17.32c17.19,0,36.13-13.43,50.74-27a23.17,23.17,0,0,0-1.57,7.59c0,11.56,9.45,19.05,15.31,19.05,6,0,26.54-24.1,26.54-24.1s-2.77,6-2.77,9.93c0,4.07,6.51,14.17,13.19,14.17,14.81,0,48.84-48.36,52.42-53.57a7.21,7.21,0,0,0,1.12-2.64,57.36,57.36,0,0,0,20.54-4.85c-7.82,11.89-22.15,36.8-22.15,59.76a56.69,56.69,0,0,0,1.95,15c-20.21,7.38-41.42,17-54.57,22.11-45.92,18-101.14,22.82-109.33,7.23-2.39-4.54-2.05-13.25,2.11-16.56,3.58-2.85,10.8-2.34,15.66-.3,2.69,1.12,5.46,3,6,2.41s-.67-2.07-.9-2.41c-3.63-5.27-23.22-9.75-31.33-.91-6.05,6.6-5.56,20.47.61,28.31,16.65,21.19,83.4,9.32,132.52-16.86,0,0,19.61-10.52,40.53-18.9,6.93,18.75,23.6,28.06,36.79,28.06,12.78,0,18.46-6.46,20.52-9.72a20,20,0,0,0,4-8.25c.11-.5,2-9.84-4-17C509.73,401,503.66,399.76,501.57,399.32ZM291.18,377.13a8.47,8.47,0,0,1-5.05-1.31c6.19-11.72,16.61-27.51,16.61-27.51s5.21-7.17,13.19-18.89c5.53-4.23,11.72-8.47,14.81-8.47C345.07,321,323.09,377.13,291.18,377.13Zm162-59.27c0-8,11.4-23.93,16.93-23.93s-4.56,15.46-14,32.72A13.33,13.33,0,0,1,453.18,317.86ZM514,422.61a24.28,24.28,0,0,1-.3,2.51c-.5.72-1.05,2.49-2.09,4.11-4.4,6.85-15.13,7-15.79,7-8.79,0-22.48-5.88-24.75-28.45,11.44-3.76,22-6,28.47-4.44A24.42,24.42,0,0,1,510.41,409h0C514.58,413.9,514.17,420.33,514,422.61Z" style="fill:#514a2f"/><path d="M60.78,311.76a9.29,9.29,0,0,0,3.89-4.27,8.45,8.45,0,0,0,.78-3.72,18.92,18.92,0,0,1-1.08,2.86A17.78,17.78,0,0,1,60.78,311.76Z" style="fill:none"/><path d="M333.75,322.26c-3.25.47-9,4.44-14.21,8.41-8,11.73-13.19,18.89-13.19,18.89S296,365.24,289.81,377a12.46,12.46,0,0,0,1.27.07C320,377,340.74,330.94,333.75,322.26Z" style="fill:none"/><path d="M456.79,319.12a15.11,15.11,0,0,0,.73,4.7c7-12.5,13.77-23.64,14.05-28C465.68,298.8,456.79,312.07,456.79,319.12Z" style="fill:none"/><path d="M514,431.29a19.24,19.24,0,0,1-1.89,2.46,12,12,0,0,0,3.15-3.27c1-1.62,1.59-3.39,2.09-4.1.11-.64.19-1.3.25-2A20.12,20.12,0,0,1,514,431.29Z" style="fill:none"/><path d="M511.53,429.13c1-1.62,1.59-3.39,2.09-4.11a24.28,24.28,0,0,0,.3-2.51c.15-2.28.56-8.71-3.61-13.65h0a22.66,22.66,0,0,0-6.15-4l-1-.26c-6.5-1.52-17,.68-28.47,4.44,1.54,15.43,8.43,23.06,15.44,26.34a21.64,21.64,0,0,0,5.59.76C496.4,436.13,507.13,436,511.53,429.13Z" style="fill:none"/><path d="M683,408.72c.13-1.3-.3-2.12-1.34-2.12-5.21,0-4.72,8.62-12.38,8.62a29.8,29.8,0,0,1-8.67-1.33A31.58,31.58,0,0,0,673,416.58C679.2,416.58,680,410.83,683,408.72Z" style="fill:#6e6128"/><path d="M337.12,315.37a26.5,26.5,0,0,1,6,.6,20.86,20.86,0,0,0-9.75-2,21.22,21.22,0,0,0-3.12.27l-1.79,2.87A23.35,23.35,0,0,1,337.12,315.37Z" style="fill:#6e6128"/><path d="M310.2,421.75c2.29,1.09,4.42,2.45,5,2-.73-.37-1.49-.76-2.26-1.08A21.31,21.31,0,0,0,310.2,421.75Z" style="fill:#6e6128"/><path d="M287,382.45c-.27.64-.66,1.55-1.11,2.57,3.15,4.51,6.92,8.65,12.27,9.78C293.33,392.24,290,387.13,287,382.45Z" style="fill:#6e6128"/><path d="M505.19,400.57c.5.11,1.23.26,2.1.51a26.16,26.16,0,0,0-5.82-1.86c-6.38-1.34-16,.24-27.09,3.36,0,.82,0,1.64.05,2.42C487,401.19,498.11,399.08,505.19,400.57Z" style="fill:#6e6128"/><path d="M287.33,450.07c-6.16-7.84-6.65-21.71-.6-28.31,5.33-5.81,15.62-5.87,23.08-3.73-7.29-3.33-20.51-4.49-26.8,2.37-6.05,6.6-5.56,20.47.61,28.31,3,3.77,7.5,6.48,13.25,8.27A23.77,23.77,0,0,1,287.33,450.07Z"/><path d="M187.82,379c.82-11.4,29.47-47.54,30.61-62.85.08-.91,1-1.26,2.4-1.08-3.12-1.74-6-1.89-6.11-.27-1.14,15.3-29.8,51.45-30.61,62.85-.85,10.69,4.51,15.9,10.5,17.12C190.32,392.44,187.16,387.43,187.82,379Z"/><path d="M230.48,369.26s-2.73,3.83-6.66,8.61c0,7.73,4.15,16,11.24,17.09C227.41,390.37,225.08,376.29,230.48,369.26Z"/><path d="M60.78,311.76a17.78,17.78,0,0,0,3.59-5.13,18.92,18.92,0,0,0,1.08-2.86c-.13-5.83-6.1-10.72-5.83-11.26a2.7,2.7,0,0,1,2-1.79,3,3,0,0,1,.51-.06c-.2-.19-2.29-1.78-4.22-1.29a2.68,2.68,0,0,0-2,1.79c-.32.65,8.47,7.65,5.05,15-2.12,4.72-7.33,6.35-13.35,6.35a26.62,26.62,0,0,1-6.64-.8,23.36,23.36,0,0,0,10.35,2.15A18.81,18.81,0,0,0,60.78,311.76Z"/><path d="M155.19,283.23a9.69,9.69,0,0,1,1.78.19,11.32,11.32,0,0,0-5.49-1.54c-5.27,0-36.11,31-54.79,50.25C90.42,340.38,86,346.49,86,348.52,86,348.52,147.54,283.23,155.19,283.23Z"/><path d="M96.58,383.69c0-21.33,53.73-84.18,53.73-84.18-1.76,0-4.52,1.36-8,3.75-12.71,15.39-49.47,61.43-49.47,79.08,0,9.56,5.09,12.26,8.9,12.93C99,393.62,96.58,390.3,96.58,383.69Z"/><path d="M51.48,381.9c0-43.8,74.4-112.83,74.4-133.18,0-5.19-3.83-9.95-10.73-11.68,4.55,2.27,7,6.16,7,10.32,0,20.35-74.41,89.39-74.41,133.18,0,10,6.19,14.49,10.57,15.13C54.82,393.62,51.48,389.25,51.48,381.9Z"/><path d="M225,413.65h.3a6,6,0,0,0-4-1.37c-1.47,0-4.89,20-24.75,20a24.73,24.73,0,0,1-6.9-1,26.14,26.14,0,0,0,10.61,2.37C220.16,433.68,223.57,413.65,225,413.65Z"/><path d="M148.68,343.64c37-37.12,40.21-37.12,41.35-37.12a8.45,8.45,0,0,1,1.43.12,10.31,10.31,0,0,0-5.14-1.48c-1.14,0-4.4,0-41.36,37.12-8.22,8.22-16.33,16.53-22.79,23.17a149.37,149.37,0,0,0-8,13.36C119.05,373.92,133.7,358.62,148.68,343.64Z"/><path d="M15.33,295.77c0-29.31,49.34-65.13,95.58-65.13a32.47,32.47,0,0,1,8.85,1.15,29.71,29.71,0,0,0-12.57-2.5c-46.24,0-95.57,35.82-95.57,65.12,0,10.41,6.68,19.25,18.29,22.77C20.6,313,15.33,305,15.33,295.77Z"/><path d="M150,385.81c0-19.7,10.75-36.15,18.56-46.4a150,150,0,0,1,13.52-16c-4,2.9-10.49,8.58-18.06,15.7-7.73,10.32-17.73,26.28-17.73,45.3,0,27.35,18,45.3,37,51.49C165.67,428.73,150,411.37,150,385.81Z"/><path d="M244.32,389.94c4.88,0,31.75-28.66,46.24-50.47a13.94,13.94,0,0,1,1.82-2.27c18.05-29.05,40.19-62.51,40.19-75.72,0-.7.66-1,1.7-.85-3-1.63-5.42-1.86-5.42-.51,0,13.21-22.35,47.5-40.4,76.54a4.37,4.37,0,0,0-1.61,1.45c-13,19.63-36.07,44.77-44.12,49.63C242.54,389.14,243,389.94,244.32,389.94Z"/><path d="M204.1,389.78c4.07,0,53.73-55,55-73.76.06-.64.53-.95,1.24-1-2.6-1.61-4.82-1.85-5-.38-1.2,17.2-43.22,65.06-53.19,72.71C202.08,388.91,202.62,389.78,204.1,389.78Z"/><path d="M392,382.29c0-3.91,2.77-9.93,2.77-9.93s-2.68,3.14-6.38,7.15a11.85,11.85,0,0,0-.1,1.42c0,3.91,6,13.35,12.39,14.09C395.85,392.1,392,385.42,392,382.29Z"/><path d="M334.36,322.21a4.3,4.3,0,0,0-.61.05c7,8.68-13.77,54.76-42.67,54.76a12.46,12.46,0,0,1-1.27-.07l-.06.13a8.49,8.49,0,0,0,5,1.3C326.7,378.38,348.68,322.21,334.36,322.21Z"/><path d="M372.45,387.82c3.91,0,37.61-37.28,36-40.21-.53-.86.25-1.25,1.61-1.09-3.2-1.85-6.24-1.77-5.33-.27,1.48,2.67-26.28,33.77-34.24,39.35C370.44,387,371,387.82,372.45,387.82Z"/><path d="M352.92,377.4a23.13,23.13,0,0,1,1.56-7.58q-2.5,2.32-5.18,4.62a15,15,0,0,0-.1,1.61c0,10.67,8.05,17.86,13.9,18.9A20.07,20.07,0,0,1,352.92,377.4Z"/><path d="M363,354.07a137.26,137.26,0,0,1,12.07-15,4.48,4.48,0,0,1,.79-.83c12-12.75,25.93-23.05,34.83-23.05a8.74,8.74,0,0,1,1,.07,9.16,9.16,0,0,0-4.74-1.43c-8.89,0-22.85,10.31-34.83,23a5.27,5.27,0,0,0-.78.84,137.37,137.37,0,0,0-12.08,15,178.6,178.6,0,0,1-16.91,15.74,93.05,93.05,0,0,1-7.72,9.92A175.35,175.35,0,0,0,363,354.07Z"/><path d="M269.72,381.64c0-2.77,1.74-7.33,4.64-13.11-2.55,3-5.22,6-7.91,8.87a12.17,12.17,0,0,0-.45,2.88c0,8.44,7.49,15.21,10.89,14.84A17.32,17.32,0,0,1,269.72,381.64Z"/><path d="M531.3,382.39c0-3.91,2.77-9.93,2.77-9.93s-2.68,3.14-6.38,7.15a10.26,10.26,0,0,0-.11,1.42c0,3.91,6,13.35,12.4,14.1C535.16,392.2,531.3,385.52,531.3,382.39Z"/><path d="M572.33,383.53a37,37,0,0,1,2.4-11.6c-1.9,2.24-3.85,4.46-5.8,6.59a24.16,24.16,0,0,0-.32,3.65c0,8.13,5.27,12.35,9,12.55C574.82,392.86,572.33,389.12,572.33,383.53Z"/><path d="M492.22,377.5c0-18.88,39.57-62.19,57.8-62.19a8.59,8.59,0,0,1,1,.07,9.1,9.1,0,0,0-4.73-1.43c-18.24,0-57.8,43.31-57.8,62.2,0,10.67,8,17.86,13.89,18.9A20.09,20.09,0,0,1,492.22,377.5Z"/><path d="M602,356.66l-1.71,2.86c7.87,16.84,27.52,60.5,49.87,66.56C627.11,415.57,607.6,367.94,602,356.66Z"/><path d="M549.21,388.09c4,0,20.37-17.09,34.1-35,16.3-30.78,45-70.17,45-84.51,0-1.31.83-1.88,2.1-1.82-3.1-1.88-5.82-1.9-5.82.46,0,14.35-28.72,53.74-45,84.51-11.39,14.86-24.57,29.14-31,33.58C547.89,387.05,547.93,388.09,549.21,388.09Z"/><path d="M511.76,387.92c3.91,0,37.61-37.28,36-40.21-.52-.86.25-1.25,1.61-1.09-3.19-1.85-6.24-1.77-5.32-.27,1.48,2.67-26.28,33.77-34.24,39.35C509.74,387.12,510.35,387.92,511.76,387.92Z"/><path d="M653.57,313.52c0-1.77.46-2.89,1.15-3.4-2.34-2.73-4.86-2.14-4.86,2,0,13.19-36.15,39.89-44.78,39.89h-.18a8.38,8.38,0,0,0,3.9,1.37C617.43,353.41,653.57,326.71,653.57,313.52Z"/><path d="M457.52,323.82a11.69,11.69,0,0,0,2.2,4.09c9.45-17.26,19.54-32.73,14-32.73a5,5,0,0,0-2.16.62C471.29,300.18,464.47,311.32,457.52,323.82Z"/><path d="M404.49,432.3c13.16-5.15,34.36-14.73,54.58-22.11a56.83,56.83,0,0,1-1.95-15c0-23,14.33-47.87,22.14-59.75a56.28,56.28,0,0,1-6,2.27c-8,12.86-19.82,35.3-19.82,56.13a56.75,56.75,0,0,0,2,15c-20.21,7.38-41.42,17-54.57,22.11C364.33,445.21,322,451.2,302,445.27,320,453.32,365.61,447.53,404.49,432.3Z"/><path d="M460.38,414.3l-2.7,1.1a42.72,42.72,0,0,0,26.15,24.07A43.4,43.4,0,0,1,460.38,414.3Z"/><path d="M409.9,388c5,0,29.26-26.64,43.61-48.24-4.28-1.4-9.09-6.08-9.09-20,0-25.57,19.37-43.64,30.61-43.64a12.81,12.81,0,0,1,2.42.23,12,12,0,0,0-6.14-1.58c-11.23,0-30.61,18.07-30.61,43.63,0,13.91,4.81,18.58,9.1,20-12.4,18.66-32.15,41.05-40.55,46.82C408.58,387,408.62,388,409.9,388Z"/><path d="M517.58,424.41l.06-.54c.14-2.28.56-8.71-3.62-13.66h0a24.21,24.21,0,0,0-9.86-5.36,22.66,22.66,0,0,1,6.15,4h0c4.17,4.94,3.76,11.37,3.61,13.65a24.28,24.28,0,0,1-.3,2.51c-.5.72-1,2.49-2.09,4.11-4.4,6.85-15.13,7-15.79,7a21.64,21.64,0,0,1-5.59-.76,22.17,22.17,0,0,0,9.3,2.11c.53,0,7.61-.1,12.64-3.73a19.24,19.24,0,0,0,1.89-2.46A20.12,20.12,0,0,0,517.58,424.41Z"/><path d="M488.54,317.16c1.34-.77,2.57-1.92,3.92-2.28l-.63-.54c-2.77-2.28-4.72.16-7,1.47-2.1,1.19-11,5.87-17.65,9.32-2.22,3.21-3.71,5.22-3.71,5.22S485.12,319.12,488.54,317.16Z"/><path d="M197.88,440.15c-25.69,0-53.42-21.29-53.42-55.7,0-21.19,12.48-38.92,17.92-46.15C144.5,355,120,380.45,107.31,396.48a1.8,1.8,0,0,1-1.11.66c-.24.05-6.1,1-10.53-2.7-3.06-2.57-4.61-6.64-4.61-12.1,0-18,35.76-63.12,49.2-79.43-8.75,5.9-23.76,20.08-39.33,37.5-21.85,24.46-36.54,45.82-36.54,53.16,0,2-1.54,4-5,4a12.7,12.7,0,0,1-8.76-4.09c-2.14-2.21-4.7-6.26-4.7-12.94,0-26.64,26.62-62,48-90.44,14.17-18.83,26.41-35.09,26.41-42.74,0-5.07-4.62-10.54-14.75-10.56-10.81,0-29.73,8.09-45,19.12-10.83,7.85-29,23.81-29,42.57,0,9,8.24,12.19,15.94,12.19,6.2,0,10.14-1.78,11.71-5.28,2.15-4.61-1.87-9.38-3.81-11.67-1-1.21-1.76-2.1-1.27-3.24a4.48,4.48,0,0,1,3.28-2.89c2.53-.64,5.11,1.11,5.78,1.71a13.56,13.56,0,0,1,3.41,4.91c1,2.14,2.29,6.81-.69,13.17-3.74,8.17-13.11,13.25-24.43,13.25-18.7,0-31.77-10.78-31.77-26.23,0-14.58,11.68-31.41,31.23-45,20-13.92,44.09-21.9,66.16-21.9,21.62,0,29.32,16.83,29.32,32.58,0,16.77-22.1,45.64-38.23,66.73l-3.73,4.88c20.09-20.83,50.81-51.6,56.92-51.6,8.49,0,16.46,10.07,16.46,16.14,0,7.59-21.1,33.22-25.33,38.28-7.34,9.27-15.88,20.35-22.75,30.75,6.63-6.82,15.17-15.57,23.83-24.24,37.49-37.65,40.71-37.65,42.63-37.65,8,0,14.67,8.91,14.67,14.51,0,3.92-4.31,9.78-11.92,19.82-1.11,1.46-2.28,3-3.49,4.53-9.67,12.5-21.71,28-21.71,46,0,24.93,17.24,42.31,32.71,42.31,14.44,0,19.38-11.21,21.75-16.59,1-2.22,1.51-3.43,3-3.43a7.48,7.48,0,0,1,6.17,2.84c1.05,1.58,2,4.36.68,9.15l0,.12h0c-.37,1.53-2.65,5.48-6.55,9.09C217.37,435.55,209.84,440.15,197.88,440.15ZM178.34,320.29a1.84,1.84,0,0,1,1.37.61,1.81,1.81,0,0,1-.06,2.44,149.49,149.49,0,0,0-13.35,15.77c-7.84,10.28-18.22,26.13-18.22,45.34,0,32.17,25.85,52.09,49.8,52.09,10.8,0,17.52-4.08,21.25-7.51a23.39,23.39,0,0,0,5.5-7.26,1.2,1.2,0,0,1,.06-.24c1-3.65.33-5.4-.14-6.12a3.5,3.5,0,0,0-2.37-1.25c-.17.36-.37.81-.54,1.21-2.26,5.13-8.26,18.76-25.06,18.76-17.54,0-36.32-18.46-36.32-45.93,0-19.18,12.45-35.27,22.46-48.2,1.2-1.55,2.37-3.05,3.46-4.5,5.51-7.26,11.2-14.75,11.2-17.64,0-3.49-5.23-10.89-11.06-10.89-.85,0-6.27,2.64-40.07,36.59-9.54,9.53-18.92,19.18-25.77,26.23-3.9,4-7,7.16-8.75,8.94a1.81,1.81,0,0,1-2.88-2.11c7.1-13.68,20.28-30.92,31-44.41,9.5-11.37,24.52-31.15,24.52-36,0-3.92-6.21-12.52-12.85-12.52-4.93.5-38.66,33.72-67.88,64.72a1.81,1.81,0,0,1-3.12-1.24c0-2.92,4.58-9,14.94-22.58,14.93-19.51,37.48-49,37.48-64.53,0-6.79-1.85-29-25.7-29-47.41,0-93.77,36.25-93.77,63.31C13.43,307.73,25,317,41.58,317c6.36,0,12-1.77,16-4.85a20.86,20.86,0,0,1-10,2.11c-11.87,0-19.55-6.2-19.55-15.8,0-20.37,19.1-37.25,30.49-45.5,16-11.61,35.39-19.76,47.08-19.81,12.06,0,18.36,7.15,18.36,14.18,0,8.85-12,24.77-27.13,44.91-21.06,28-47.28,62.83-47.28,88.27,0,8,4.35,12.07,8.07,13.14,2,.57,3,.11,3.13-.06,0-10.11,19.36-35.35,37.47-55.62,17.17-19.21,40.14-41.65,48.36-41.65a1.8,1.8,0,0,1,1.37,3c-.53.63-53.3,62.58-53.3,83,0,4.34,1.12,7.48,3.33,9.33a10,10,0,0,0,7,2c18.07-22.73,58.88-63.29,72.34-73A1.8,1.8,0,0,1,178.34,320.29ZM58.09,291.19l.18.21c1.91,2.27,6,7.17,5.17,12.74,1.43-4.12.63-7,0-8.47a10,10,0,0,0-2.45-3.61l-.12-.11a3.86,3.86,0,0,0-2.52-.83A.86.86,0,0,0,58.09,291.19Z" style="fill:#8b7e40"/><path d="M655.23,428.59c-24.82,0-46.53-46.64-55.8-66.56l-1.36-2.91c-9,15.19-15.11,28.25-15.11,32.33a4.82,4.82,0,0,1-5.11,5.08,10.3,10.3,0,0,1-7.37-3.77,15.6,15.6,0,0,1-3.67-10.59,25.94,25.94,0,0,1,.43-4.53c-11.79,13-20.48,19.36-26.47,19.36-7.74,0-15-11-15-16a13.57,13.57,0,0,1,.2-2.23c-7.05,7.75-17.44,18.2-22.17,18.2-6.81,0-17.11-8.31-17.11-20.85,0-20.34,40.67-64,59.61-64,9.14,0,15.19,12.37,15.19,17.38a4.17,4.17,0,0,1-.49,2.13,2.63,2.63,0,0,1-2.33,1.36c-11.69,0-35.3,24.51-45.78,40.72-4.58,7.08-5.18,10.22-5,11h0c4.56-1.78,32.56-32.84,34.31-38a2.36,2.36,0,0,1,.35-2.35c1.33-1.65,4.22-.85,5.39-.43a14.3,14.3,0,0,1,9.44,13.76c0,6.75-4.31,14.55-7.78,20.81-1.12,2-2.44,4.42-3.06,5.93C551,382,564.08,369,578.07,350.75c5.68-10.71,12.84-22.43,19.76-33.76,12.28-20.12,25-40.92,25-49.77a3.52,3.52,0,0,1,1.11-2.72,3.76,3.76,0,0,1,2.61-.92c5.17,0,14.71,8,14.71,19.44,0,7.09-12.22,26.42-26.37,48.8-3.78,6-7.67,12.15-11.31,18.05a4,4,0,0,0,1.51.37c8.42,0,43-26.53,43-38.08,0-4.07,2-5.51,3.92-5.51,4.08,0,8.49,6.83,8.49,17.89,0,16-19.14,33.08-48,34.15,5.57,11.05,29.34,54.73,56.72,54.73,3.24,0,4.53-1.92,6-4.14s3-4.49,6.35-4.49a3,3,0,0,1,2.45,1.13,3.7,3.7,0,0,1,.73,2.35C684.79,414.48,673.62,428.59,655.23,428.59Zm-57-75.09h.07a1.8,1.8,0,0,1,1.54,1c.74,1.47,1.67,3.47,2.85,6,8.2,17.64,30,64.48,52.52,64.48a28.83,28.83,0,0,0,23.47-11.33,11.78,11.78,0,0,0,2.47-5.21c-1,.18-1.69,1.05-2.91,2.86-1.64,2.42-3.87,5.73-9,5.73-33.49,0-60.11-56.92-61.23-59.34a1.8,1.8,0,0,1,1.64-2.56c28.24,0,47.2-15.82,47.2-30.59,0-7.26-2.06-11.87-3.82-13.6a2,2,0,0,0-1-.68h0a4.92,4.92,0,0,0-.3,1.9c0,14.55-37.15,41.7-46.59,41.7a10.41,10.41,0,0,1-5-1.7,1.81,1.81,0,0,1-.65-2.52c3.93-6.42,8.22-13.2,12.36-19.75,12.69-20.07,25.8-40.83,25.8-46.87A17.77,17.77,0,0,0,630,268.63a6.61,6.61,0,0,0-3.59-1.43v0c0,9.87-11.82,29.23-25.52,51.65-6.92,11.34-14.08,23.06-19.72,33.71a2.13,2.13,0,0,1-.16.25c-8.93,11.65-29.37,35.71-35.54,35.71a2.74,2.74,0,0,1-2.5-1.31c-1.18-2,.47-5,3.47-10.42,3.09-5.59,7.32-13.24,7.32-19.06a10.65,10.65,0,0,0-4-8.63,10,10,0,0,0-4-2,8.11,8.11,0,0,1-1.12,2.62c-4,6.75-31.52,38.63-36.67,38.63a3.68,3.68,0,0,1-2.83-1.12,3.91,3.91,0,0,1-1-2.76c0-6.1,10.29-20.53,20.47-31.63,6.31-6.9,21.95-22.71,33.16-23.44a18.39,18.39,0,0,0-3.55-8.4c-1.42-2-4.35-5.27-8-5.27-16.75,0-56,42.33-56,60.39,0,10.69,8.73,17.24,13.49,17.24,3.21,0,15.56-12.18,25.17-23.46a1.79,1.79,0,0,1,2.34-.35,1.82,1.82,0,0,1,.68,2.28c-.73,1.57-2.61,6.3-2.61,9.17,0,3.18,5.79,12.36,11.38,12.36,3.17,0,11.14-3.11,28.87-24a1.81,1.81,0,0,1,3.09,1.76,35.25,35.25,0,0,0-2.31,11c0,7.5,4.92,10.75,7.43,10.75,1.32,0,1.49-.74,1.49-1.47,0-8,14.46-32.28,17.36-37.08A1.82,1.82,0,0,1,598.25,353.5Zm83.36,54.9h0v0Z" style="fill:#8b7e40"/><path d="M292.62,326.83c16.18-25.9,34.52-55.26,34.52-66.61a2.57,2.57,0,0,1,1.13-2.16,3.41,3.41,0,0,1,1.94-.53c4.94,0,16.18,7.42,16.18,19.63,0,5.12-5.55,16.49-17.43,35.63a22.65,22.65,0,0,1,4.55-.48c12.76,0,19.23,6.85,19.23,20.37,0,10.95-4.43,23.5-12.2,35.16A177.62,177.62,0,0,0,358,351.68a139.52,139.52,0,0,1,12.1-15,6.21,6.21,0,0,1,.93-1c10.72-11.39,25.81-23.54,36.07-23.54,9.14,0,15.19,12.37,15.19,17.38a4.17,4.17,0,0,1-.48,2.13,2.65,2.65,0,0,1-2.33,1.36c-11.7,0-35.3,24.51-45.79,40.72-4.58,7.08-5.18,10.22-5,11h0c4.56-1.78,32.56-32.84,34.31-38a2.38,2.38,0,0,1,.35-2.35c1.34-1.65,4.22-.85,5.4-.43a14.31,14.31,0,0,1,9.43,13.76c0,6.75-4.31,14.55-7.77,20.81-1.13,2-2.46,4.45-3.07,5.95,5.87-3.24,25.93-24.78,39.85-45.24-4.13-2.31-8.2-7.86-8.2-20.76,0-25.93,19.66-45.44,32.41-45.44,7.47,0,12.88,5.21,12.88,12.39,0,10-12,28.85-18.63,38.58,6.66-3.47,16.23-8.48,18.37-9.7.42-.24.83-.53,1.24-.81,1.81-1.26,4.55-3.16,7.81-.48l.82.69c2.9,2.41,9.68,8.06,10.18,14.5a9.83,9.83,0,0,1-2.66,7.42c-8,9.08-28.85,38.51-28.85,65.4v.28c13.39-3.89,23-5.13,29.37-3.79h0l-.37,1.77.38-1.77c2.17.46,8.77,1.85,13.46,7.44,6.62,7.88,4.49,18.1,4.39,18.54a21.56,21.56,0,0,1-4.25,8.91c-2.06,3.22-8.22,10.48-22,10.48-12.94,0-30-8.63-37.81-27.51-19.95,8.13-38.47,18-38.66,18.13-31.46,16.77-70.7,28-99.47,28-16.15,0-29-3.53-35.32-11.57-6.8-8.63-7.05-23.53-.52-30.65,5.06-5.52,13.21-5.83,17.61-5.52,7.29.51,14.24,3.29,16.54,6.62.63.93,2.11,3.08.77,4.62s-3.14.54-5.48-.67c-.85-.44-1.73-.89-2.6-1.26-4.34-1.82-10.87-2.32-13.84.05-3.32,2.65-3.74,10.31-1.63,14.31,7.3,13.91,61.34,9.84,107.07-8.07,4.83-1.89,10.63-4.33,17.35-7.16,11-4.63,23.43-9.86,35.73-14.4a59,59,0,0,1-1.6-13.9c0-20.6,11.12-42.53,19.47-56.1a58.4,58.4,0,0,1-14.68,2.93,11.55,11.55,0,0,1-1,1.87c-3.86,5.62-37.87,54.4-53.95,54.4-7.75,0-15-11-15-16a13.62,13.62,0,0,1,.21-2.23c-7,7.75-17.44,18.2-22.17,18.2-6.82,0-17.11-8.31-17.11-20.85a18.41,18.41,0,0,1,.15-2.28c-13.23,11.49-31,23.46-47.52,23.46a1.78,1.78,0,0,1-1.19-.45c-7.14-1-11.67-6.52-15.26-11.88v0a78.28,78.28,0,0,0-3.23,8,4.2,4.2,0,0,1-1,2.87,3.54,3.54,0,0,1-2.75,1.17c-4.79,0-12.42-7.63-12.42-16.67a14.44,14.44,0,0,1,.62-3.82c-12.57,13.58-22,20.44-28.12,20.44-5.12,0-9.6-3.13-12.29-8.59a24,24,0,0,1-2.4-11.22c-6.76,8.31-17.4,19.81-24.55,19.81a14.71,14.71,0,0,1-11-4.63c-2.24-2.43-4.79-6.95-4.17-14.74.4-5.7,6.63-16.07,13.83-28.07,7.59-12.65,16.2-27,16.77-34.76.13-1.44,1.27-3,4.06-2.79,5.23.43,14.54,7,13.71,18-.47,6.37-8.29,18.52-16.57,31.38-5.72,8.89-14.29,22.2-13.84,25.24,5.76-3.09,52.11-54.16,53.35-72A2.92,2.92,0,0,1,257.2,312c4.31.35,14.36,7.67,13.47,19.67-.49,6.63-8.78,19.47-16.8,31.89-5.54,8.58-13,20.21-13,23.29,4.34-1.07,29.25-26.53,44.6-49.64m3,2c-13.45,20.24-41.4,51.27-47.75,51.27a3.23,3.23,0,0,1-3-1.63c-1.85-3.4,2.36-10.54,13.16-27.26,7.41-11.48,15.81-24.49,16.23-30.2a16.17,16.17,0,0,0-5.37-13,10.88,10.88,0,0,0-4.45-2.69c-1.41,11.43-17.31,32.46-26.8,44.15-5.25,6.44-25.69,30.52-30,30.52a3.46,3.46,0,0,1-3.25-1.74c-2-3.67,2.71-11.69,13.93-29.13,7.31-11.36,15.6-24.23,16-29.69a13.62,13.62,0,0,0-5.49-11.91,9.85,9.85,0,0,0-5.12-2.26c-.92,8.65-9.21,22.45-17.23,35.82-6.38,10.63-13,21.63-13.33,26.48-.41,5.15.71,9.3,3.23,12a11.12,11.12,0,0,0,8.32,3.47c6.42,0,20-15.56,27.38-25.8.16-.24.32-.46.49-.68a1.81,1.81,0,0,1,2.91,2.15l-.43.58c-2.85,4.28-2.95,11.51-.16,17.17,1.21,2.46,4,6.58,9.05,6.58,3.44,0,12.26-3.54,32.58-27.29a1.81,1.81,0,0,1,3,2c-3,5.89-4.46,10-4.46,12.29a15.46,15.46,0,0,0,6.19,11.86,5.25,5.25,0,0,0,2.67,1.2,1.76,1.76,0,0,0,.06-.52c0-1.13.93-3.43,3.53-9.35.54-1.23,1-2.32,1.33-3.06a1.81,1.81,0,0,1,3.19-.29c3.83,6,8.16,12.73,15.52,13.17a1.77,1.77,0,0,1,.9.31c17-.63,35.59-14.65,48.34-26.46a1.81,1.81,0,0,1,2.93,1.93,21.39,21.39,0,0,0-1.46,7c0,10.69,8.74,17.24,13.5,17.24,3.2,0,15.55-12.18,25.16-23.46a1.81,1.81,0,0,1,3,1.93c-.73,1.57-2.6,6.3-2.6,9.17,0,3.18,5.78,12.36,11.38,12.36,12,0,40.84-38.1,50.93-52.78a5.41,5.41,0,0,0,.83-1.92,1.81,1.81,0,0,1,1.72-1.5,55.87,55.87,0,0,0,19.86-4.7,1.81,1.81,0,0,1,2.25,2.65c-8.16,12.4-21.85,36.54-21.85,58.76a55.33,55.33,0,0,0,1.89,14.56,1.82,1.82,0,0,1-1.13,2.17c-12.71,4.64-25.67,10.09-37.1,14.9-6.74,2.84-12.56,5.29-17.43,7.2C357.45,450,299.1,456.54,290,439.11c-2.82-5.35-2.29-14.94,2.58-18.82,3-2.34,7.73-2.77,12.16-2.05a32.21,32.21,0,0,0-5.55-.88c-.62,0-1.33-.07-2.1-.07-3.87,0-9.23.76-12.59,4.43-5.37,5.85-5,18.72.69,26,16.25,20.67,83.36,7.65,130.25-17.35.19-.1,19.94-10.65,40.7-19a1.86,1.86,0,0,1,1.41,0,1.8,1.8,0,0,1,1,1c6.83,18.47,23,26.88,35.1,26.88,8.1,0,13.1-2.68,16.1-5.43-5.6,4.11-13.42,4.16-13.82,4.16-10.86,0-24.32-7.87-26.55-30.07a1.81,1.81,0,0,1,1.24-1.9c13.42-4.41,23.33-5.92,29.45-4.48a25.85,25.85,0,0,1,11.7,6.1,1.14,1.14,0,0,1,.11.11c4.64,5.5,4.18,12.6,4,14.94h0a24.57,24.57,0,0,1-.29,2.55,19.71,19.71,0,0,0,.74-2.52c0-.09,1.86-8.91-3.63-15.45-3.89-4.63-9.37-5.79-11.44-6.22l.37-1.77-.37,1.77c-6-1.27-16.07.21-29.86,4.39a1.8,1.8,0,0,1-2.33-1.66c0-.9-.05-1.82-.05-2.76,0-33.76,29.46-67.45,29.76-67.79a6.26,6.26,0,0,0,1.75-4.76c-.38-4.91-6.34-9.87-8.88-12l-.85-.72c-1-.82-1.51-.62-3.41.7-.49.34-1,.68-1.5,1-3.42,1.94-24.26,12.76-25.14,13.22A1.81,1.81,0,0,1,458.4,328c.23-.3,22.28-30.12,22.28-42.56,0-6.06-4.65-8.78-9.27-8.78-10.11,0-28.8,17.25-28.8,41.83,0,10.27,2.72,16.59,7.85,18.26a1.84,1.84,0,0,1,1.15,1.13,1.8,1.8,0,0,1-.21,1.59c-12.57,18.92-38.31,49.05-45.11,49.05a2.71,2.71,0,0,1-2.5-1.31c-1.19-2,.46-5,3.47-10.42,3.08-5.59,7.32-13.24,7.32-19.06a10.65,10.65,0,0,0-4-8.63,10.07,10.07,0,0,0-4-2,8.11,8.11,0,0,1-1.12,2.62c-4,6.75-31.51,38.63-36.67,38.63a3.69,3.69,0,0,1-2.83-1.12,3.91,3.91,0,0,1-1-2.76c0-6.1,10.3-20.53,20.47-31.63,6.31-6.9,22-22.71,33.17-23.44a18.66,18.66,0,0,0-3.55-8.4c-1.42-2-4.35-5.27-8-5.27-7.52,0-20.68,8.82-33.51,22.48l-.16.15a3,3,0,0,0-.49.52l-.12.15a135.28,135.28,0,0,0-11.92,14.79,1.63,1.63,0,0,1-.17.2,176.22,176.22,0,0,1-28.65,24.57,1.81,1.81,0,0,1-2.36-2.7c12.15-13.6,19.4-29.76,19.4-43.24,0-14.85-8.34-16.76-15.61-16.76a21.78,21.78,0,0,0-7.94,1.66,1.81,1.81,0,0,1-2.22-2.64c12.89-20.44,19.42-33.15,19.42-37.78a16.87,16.87,0,0,0-6.46-12.94,14.21,14.21,0,0,0-5.59-3c-.87,12.86-18.23,40.65-35,67.55M473.05,409c3.05,24.13,19.47,25.38,22.79,25.38.1,0,10.35-.07,14.27-6.17a18.93,18.93,0,0,0,1.25-2.45c.22-.5.42-.94.64-1.33.1-.65.18-1.32.22-2h0c.14-2.17.51-7.92-3.14-12.3a22.9,22.9,0,0,0-9.93-5.1C493.89,403.86,485.11,405.19,473.05,409ZM291.18,378.93a10.3,10.3,0,0,1-6.1-1.64,1.8,1.8,0,0,1-.55-2.31c6.16-11.67,16.59-27.51,16.7-27.67s5.33-7.35,13.2-18.91a1.77,1.77,0,0,1,.4-.42c8-6.11,12.9-8.83,15.91-8.83a5.55,5.55,0,0,1,4.91,2.62,10.7,10.7,0,0,1,1.37,5.8C337,342.89,317.66,378.93,291.18,378.93ZM288.62,375a9.2,9.2,0,0,0,2.56.31c23.95,0,42.22-33.91,42.22-47.75a7.09,7.09,0,0,0-.8-3.85,2,2,0,0,0-1.86-1c-1.16,0-4.45,1-13.49,7.92-7.81,11.47-13,18.62-13.05,18.69S294.75,363.71,288.62,375Zm167.49-46.55a1.81,1.81,0,0,1-1.31-.56,15.14,15.14,0,0,1-3.43-10c0-8.42,11.58-25.74,18.74-25.74a3.15,3.15,0,0,1,2.9,1.53c1.85,3.16-1.68,9.68-9.85,24.1-1.79,3.16-3.63,6.42-5.47,9.77a1.77,1.77,0,0,1-1.35.92A.9.9,0,0,1,456.11,328.46Zm13.8-32.7c-4.56.64-14.92,14.89-14.92,22.1a13.18,13.18,0,0,0,1,5.22c1.35-2.43,2.69-4.8,4-7.11C464.45,308.13,469.93,298.46,469.91,295.76Z" style="fill:#8b7e40"/><path d="M126.39,436.54a6.63,6.63,0,1,1-6.63-6.63A6.62,6.62,0,0,1,126.39,436.54Z"/><path d="M141.91,438.34a2.81,2.81,0,1,1-2.81-2.81A2.81,2.81,0,0,1,141.91,438.34Z"/><path d="M667.2,381.15a2.84,2.84,0,1,1-2.84-2.84A2.84,2.84,0,0,1,667.2,381.15Z"/><path d="M691.57,362a10.4,10.4,0,1,1-10.4-10.4A10.4,10.4,0,0,1,691.57,362Z"/><path d="M684.79,381.15a5.57,5.57,0,1,1-5.57-5.57A5.57,5.57,0,0,1,684.79,381.15Z"/><path d="M19.63,333.82A9.82,9.82,0,1,1,9.81,324,9.81,9.81,0,0,1,19.63,333.82Z"/><path d="M26.26,345.21a3,3,0,1,1-3-3A3,3,0,0,1,26.26,345.21Z"/><path d="M7.56,352.13a2.93,2.93,0,1,1-2.93-2.92A2.93,2.93,0,0,1,7.56,352.13Z"/><path d="M558.15,431a2.72,2.72,0,1,1-2.72-2.71A2.71,2.71,0,0,1,558.15,431Z"/><path d="M578.22,425.79a7.13,7.13,0,1,1-7.12-7.12A7.12,7.12,0,0,1,578.22,425.79Z"/><path d="M571.1,441.59a2.49,2.49,0,1,1-2.49-2.49A2.49,2.49,0,0,1,571.1,441.59Z"/><path d="M364.87,493.4a5.36,5.36,0,1,1-.82-7.53A5.36,5.36,0,0,1,364.87,493.4Z"/><path d="M372.92,499.86a2.75,2.75,0,1,1-.42-3.86A2.75,2.75,0,0,1,372.92,499.86Z"/><path d="M164.65,402l.78.46a49.6,49.6,0,0,0-4.61-3,37.72,37.72,0,0,0-9.72-3.82c-2.56-.62-5.2-1.18-7.88-1.69,4.52,1.54,6.15,2.51,7,3.13,1.61.34,3.2.69,4.75,1.06A37.72,37.72,0,0,1,164.65,402Z"/></g></g></svg>