<svg xmlns="http://www.w3.org/2000/svg" xmlns:xlink="http://www.w3.org/1999/xlink" viewBox="0 0 123.68 126.8"><defs><linearGradient id="a68e0346-cbcf-478e-8c90-83eb34cc4408" x1="99.89" y1="123.25" x2="34.92" y2="10.71" gradientUnits="userSpaceOnUse"><stop offset="0" stop-color="#ff0a0f"/><stop offset="1" stop-color="#3535ff"/></linearGradient></defs><g style="isolation:isolate"><g id="eb49994a-8346-4f0a-991f-029325954912" data-name="Layer 2"><g id="e4ec150b-ca96-4ee1-8b70-19739c4c78eb" data-name="Object"><path d="M123,89.33a42.84,42.84,0,0,0-1.78-6.87c-2.51-7.15-7.77-13.17-10.69-20.18-3.7-8.88-4.6-18.33,1.87-26.45a50.63,50.63,0,0,0,4.94-7.57c3.24-5.85,1.66-13.2-2.41-18.49C109.17,2.29,97,.32,87,.06c-17-.46-35.81,1.87-50.33,9.68-7,3.79-12.79,9.84-11.33,17.17.58,2.94,2.24,5.65,3.53,8.44,3.24,7-.45,14.18-6,19.67C11.08,66.65-8.26,79.91,3.84,96.46,15,111.73,40,113.72,59.07,109.92c7.18-1.43,13.8-4.51,21.11-5.49,4.42-.6,9.64.33,11.87,3.54,1.16,1.67,1.32,3.67,1.8,5.55,3.05,12,21.57,2.68,26-3.54S124.17,96.16,123,89.33Z" style="fill:url(#a68e0346-cbcf-478e-8c90-83eb34cc4408)"/><path d="M114.66,38.48V38c.36-.09.39-.47.18-.74a3.86,3.86,0,0,0-.6-.44,1,1,0,0,1-.35-.47V8.5l-.11,0V36.39a1,1,0,0,1-.35.47,3.44,3.44,0,0,0-.6.44c-.21.27-.18.65.18.74v.44s-2.38.55-3.11,2.22h7.87C117,39,114.66,38.48,114.66,38.48Z" style="fill:#ff6d67"/><path d="M117.87,47.39V42H109.8v5.41ZM116,44.16l.19-.27H116a2.27,2.27,0,0,1,.58-1.13,2.19,2.19,0,0,1,.58,1.13H117l.19.27v2.91H116Zm-3.35,0,.17-.27h-.17v-.08c0-.81,1.2-1.58,1.2-1.58S115,43,115,43.81v.08h-.19l.19.28v2.9h-2.41Zm-2.13,0h0l.19-.28h-.18a2.26,2.26,0,0,1,.59-1.13,2.27,2.27,0,0,1,.58,1.13h-.16l.17.26v2.92H110.5Z" style="fill:#ff6d67"/><path d="M113,50.89v.44c-.36.09-.39.47-.18.73a2.65,2.65,0,0,0,.6.44,1,1,0,0,1,.4.59,1,1,0,0,1,.41-.59,2.9,2.9,0,0,0,.6-.44c.21-.26.18-.64-.18-.73v-.44s2.37-.55,3.1-2.21H109.9C110.64,50.34,113,50.89,113,50.89Z" style="fill:#ff6d67"/><path d="M109.5,41.73h8.67a.39.39,0,0,0,0-.78H109.5a.39.39,0,1,0,0,.78Zm8.51-.55a.16.16,0,1,1,0,.32.16.16,0,0,1,0-.32Zm-.83,0a.16.16,0,1,1-.16.16A.16.16,0,0,1,117.18,41.18Zm-.84,0a.16.16,0,1,1-.16.16A.16.16,0,0,1,116.34,41.18Zm-.83,0a.16.16,0,0,1,0,.32.16.16,0,0,1,0-.32Zm-.84,0a.16.16,0,1,1-.16.16A.16.16,0,0,1,114.67,41.18Zm-.84,0a.16.16,0,1,1,0,.32.16.16,0,0,1,0-.32Zm-.83,0a.16.16,0,1,1-.16.16A.16.16,0,0,1,113,41.18Zm-.84,0a.16.16,0,1,1,0,.32.16.16,0,1,1,0-.32Zm-.83,0a.16.16,0,0,1,0,.32.16.16,0,1,1,0-.32Zm-.84,0a.16.16,0,1,1-.16.16A.16.16,0,0,1,110.49,41.18Zm-.84,0a.16.16,0,1,1,0,.32.16.16,0,0,1,0-.32Z" style="fill:#ff6d67"/><path d="M118.17,47.64H109.5a.39.39,0,1,0,0,.77h8.67a.39.39,0,0,0,0-.77Zm-8.52.54a.15.15,0,0,1-.15-.15.16.16,0,0,1,.15-.16.16.16,0,0,1,.16.16A.16.16,0,0,1,109.65,48.18Zm.84,0a.16.16,0,0,1-.16-.15.16.16,0,1,1,.32,0A.16.16,0,0,1,110.49,48.18Zm.84,0a.16.16,0,0,1-.16-.15.16.16,0,0,1,.16-.16.16.16,0,0,1,.15.16A.15.15,0,0,1,111.33,48.18Zm.83,0a.16.16,0,1,1,0-.31.16.16,0,0,1,.16.16A.16.16,0,0,1,112.16,48.18Zm.84,0a.16.16,0,0,1-.16-.15.16.16,0,0,1,.32,0A.16.16,0,0,1,113,48.18Zm.83,0a.15.15,0,0,1-.15-.15.16.16,0,0,1,.15-.16A.16.16,0,0,1,114,48,.16.16,0,0,1,113.83,48.18Zm.84,0a.16.16,0,0,1-.16-.15.16.16,0,0,1,.32,0A.16.16,0,0,1,114.67,48.18Zm.84,0a.16.16,0,0,1-.16-.15.16.16,0,0,1,.16-.16.16.16,0,0,1,.15.16A.15.15,0,0,1,115.51,48.18Zm.83,0a.16.16,0,0,1-.16-.15.16.16,0,0,1,.32,0A.16.16,0,0,1,116.34,48.18Zm.84,0A.16.16,0,0,1,117,48a.16.16,0,0,1,.32,0A.16.16,0,0,1,117.18,48.18Zm.83,0a.15.15,0,0,1-.15-.15.16.16,0,0,1,.15-.16.16.16,0,0,1,.16.16A.16.16,0,0,1,118,48.18Z" style="fill:#ff6d67"/><path d="M29.13,32.84v-.42a.42.42,0,0,0,.18-.71,3.19,3.19,0,0,0-.59-.43,1.08,1.08,0,0,1-.34-.45V16.25l-.1,0V30.83a1.08,1.08,0,0,1-.34.45,3.12,3.12,0,0,0-.58.43.41.41,0,0,0,.17.71v.42s-2.3.54-3,2.15h7.62C31.43,33.38,29.13,32.84,29.13,32.84Z" style="fill:#ff6d67"/><path d="M32.24,41.48V36.24H24.42v5.24Zm-1.83-3.12.18-.27h-.17A2.24,2.24,0,0,1,31,37a2.18,2.18,0,0,1,.56,1.1h-.17l.18.27v2.81H30.41Zm-3.25,0,.17-.26h-.17V38c0-.78,1.17-1.53,1.17-1.53s1.17.75,1.17,1.53v.08h-.18l.18.27v2.81H27.16Zm-2.06,0h0l.18-.27h-.17a2.24,2.24,0,0,1,.57-1.1,2.18,2.18,0,0,1,.56,1.1h-.15l.16.26v2.82H25.1Z" style="fill:#ff6d67"/><path d="M27.53,44.87v.43c-.35.08-.38.46-.17.71a3.12,3.12,0,0,0,.58.43.92.92,0,0,1,.39.56,1,1,0,0,1,.39-.56,3.19,3.19,0,0,0,.59-.43.42.42,0,0,0-.18-.71v-.43s2.3-.53,3-2.14H24.52C25.24,44.34,27.53,44.87,27.53,44.87Z" style="fill:#ff6d67"/><path d="M24.13,36h8.4a.37.37,0,1,0,0-.74h-8.4a.37.37,0,0,0,0,.74Zm8.25-.52a.15.15,0,1,1,0,.3.15.15,0,0,1,0-.3Zm-.81,0a.15.15,0,1,1,0,.3.15.15,0,1,1,0-.3Zm-.81,0a.15.15,0,1,1,0,.3.15.15,0,0,1,0-.3Zm-.81,0a.15.15,0,1,1,0,.3.15.15,0,1,1,0-.3Zm-.81,0a.15.15,0,1,1,0,.3.15.15,0,1,1,0-.3Zm-.81,0a.15.15,0,1,1,0,.3.15.15,0,0,1,0-.3Zm-.81,0a.15.15,0,1,1,0,.3.15.15,0,0,1,0-.3Zm-.81,0a.15.15,0,1,1,0,.3.15.15,0,1,1,0-.3Zm-.81,0a.15.15,0,1,1,0,.3.15.15,0,0,1,0-.3Zm-.81,0a.15.15,0,1,1,0,.3.15.15,0,0,1,0-.3Zm-.81,0a.15.15,0,1,1,0,.3.15.15,0,1,1,0-.3Z" style="fill:#ff6d67"/><path d="M32.53,41.73h-8.4a.37.37,0,1,0,0,.74h8.4a.37.37,0,1,0,0-.74Zm-8.25.52a.15.15,0,0,1-.15-.15.15.15,0,0,1,.15-.15.14.14,0,0,1,.15.15A.15.15,0,0,1,24.28,42.25Zm.81,0a.15.15,0,0,1-.15-.15.15.15,0,0,1,.15-.15.14.14,0,0,1,.15.15A.15.15,0,0,1,25.09,42.25Zm.81,0a.15.15,0,0,1-.15-.15A.15.15,0,0,1,25.9,42a.14.14,0,0,1,.15.15A.15.15,0,0,1,25.9,42.25Zm.81,0a.15.15,0,0,1-.15-.15.15.15,0,0,1,.15-.15.14.14,0,0,1,.15.15A.15.15,0,0,1,26.71,42.25Zm.81,0a.15.15,0,0,1-.15-.15.15.15,0,0,1,.15-.15.14.14,0,0,1,.15.15A.15.15,0,0,1,27.52,42.25Zm.81,0a.15.15,0,0,1-.15-.15.15.15,0,0,1,.15-.15.15.15,0,0,1,.16.15A.16.16,0,0,1,28.33,42.25Zm.81,0A.15.15,0,0,1,29,42.1a.15.15,0,0,1,.15-.15.15.15,0,0,1,.16.15A.16.16,0,0,1,29.14,42.25Zm.81,0a.15.15,0,0,1-.15-.15A.15.15,0,0,1,30,42a.15.15,0,0,1,.16.15A.16.16,0,0,1,30,42.25Zm.81,0a.15.15,0,0,1-.15-.15.15.15,0,0,1,.15-.15.15.15,0,0,1,.16.15A.16.16,0,0,1,30.76,42.25Zm.81,0a.15.15,0,0,1-.15-.15.15.15,0,0,1,.15-.15.15.15,0,0,1,.16.15A.16.16,0,0,1,31.57,42.25Zm.81,0a.15.15,0,0,1-.15-.15.15.15,0,0,1,.15-.15.15.15,0,0,1,.16.15A.16.16,0,0,1,32.38,42.25Z" style="fill:#ff6d67"/><path d="M86.75,4.69a.13.13,0,0,0,.13-.13h0a.13.13,0,1,0-.13.13Z" style="fill:#fff"/><path d="M86.75,5.16A.13.13,0,0,0,86.88,5h0a.13.13,0,1,0-.13.13Z" style="fill:#fff"/><path d="M86.75,3.28a.12.12,0,0,0,.13-.12h0A.12.12,0,0,0,86.75,3a.13.13,0,0,0-.13.13A.12.12,0,0,0,86.75,3.28Z" style="fill:#fff"/><path d="M86.75,4.22a.13.13,0,0,0,.13-.13h0a.13.13,0,1,0-.13.13Z" style="fill:#fff"/><path d="M86.75,3.75a.13.13,0,0,0,.13-.13h0a.13.13,0,0,0-.26,0A.13.13,0,0,0,86.75,3.75Z" style="fill:#fff"/><path d="M86.75,6.1A.13.13,0,0,0,86.88,6h0a.13.13,0,1,0-.13.13Z" style="fill:#fff"/><path d="M86.75,8.06a.13.13,0,0,0,.13-.13h0a.12.12,0,0,0-.13-.12.13.13,0,1,0,0,.26Z" style="fill:#fff"/><path d="M86.75,7.51a.13.13,0,0,0,.13-.13h0a.12.12,0,0,0-.13-.12.13.13,0,1,0,0,.26Z" style="fill:#fff"/><path d="M86.75,8.61a.13.13,0,0,0,.13-.13h0a.13.13,0,0,0-.13-.13.13.13,0,0,0,0,.26Z" style="fill:#fff"/><path d="M86.75,2.81a.12.12,0,0,0,.13-.12h0a.12.12,0,0,0-.13-.12.13.13,0,0,0-.13.13A.12.12,0,0,0,86.75,2.81Z" style="fill:#fff"/><path d="M86.75,6.57a.13.13,0,0,0,.13-.13h0a.13.13,0,0,0-.13-.13.13.13,0,1,0,0,.26Z" style="fill:#fff"/><path d="M86.75,7a.13.13,0,0,0,.13-.13h0a.12.12,0,0,0-.13-.12.13.13,0,1,0,0,.26Z" style="fill:#fff"/><path d="M86.75,5.63a.13.13,0,0,0,.13-.13h0a.13.13,0,1,0-.13.13Z" style="fill:#fff"/><path d="M86.75,9.16A.13.13,0,0,0,86.88,9h0a.13.13,0,1,0-.13.13Z" style="fill:#fff"/><path d="M86.75.94a.13.13,0,0,0,.13-.13h0a.13.13,0,1,0-.13.13Z" style="fill:#fff"/><path d="M86.75,1.88a.13.13,0,0,0,.13-.13h0a.12.12,0,0,0-.13-.12.13.13,0,1,0,0,.26Z" style="fill:#fff"/><path d="M86.75,1.41a.13.13,0,0,0,.13-.13h0a.13.13,0,0,0-.13-.13.13.13,0,0,0,0,.26Z" style="fill:#fff"/><path d="M86.75.47a.13.13,0,0,0,.13-.13h0a.13.13,0,0,0-.26,0A.13.13,0,0,0,86.75.47Z" style="fill:#fff"/><path d="M86.75,2.35a.13.13,0,0,0,.13-.13h0a.12.12,0,0,0-.13-.12.13.13,0,1,0,0,.26Z" style="fill:#fff"/><path d="M86.75,19a.13.13,0,0,0,.13-.13h0a.13.13,0,1,0-.13.13Z" style="fill:#fff"/><path d="M86.75,18.55a.13.13,0,0,0,.13-.13h0a.13.13,0,1,0-.13.13Z" style="fill:#fff"/><path d="M86.75,16.32a.12.12,0,0,0,.13-.12h0a.12.12,0,0,0-.13-.12.13.13,0,0,0-.13.13A.12.12,0,0,0,86.75,16.32Z" style="fill:#fff"/><path d="M86.75,18.12a.13.13,0,0,0,.13-.13h0a.13.13,0,0,0-.13-.13.13.13,0,0,0,0,.26Z" style="fill:#fff"/><path d="M86.75,16.82a.13.13,0,0,0,.13-.13h0a.13.13,0,1,0-.13.13Z" style="fill:#fff"/><path d="M86.75,17.25a.12.12,0,0,0,.13-.12h0a.13.13,0,0,0-.13-.13.13.13,0,0,0-.13.14A.12.12,0,0,0,86.75,17.25Z" style="fill:#fff"/><path d="M86.75,17.69a.13.13,0,0,0,.13-.13h0a.12.12,0,0,0-.13-.12.13.13,0,0,0,0,.26Z" style="fill:#fff"/><path d="M86.75,21.14a.12.12,0,0,0,.13-.12h0a.13.13,0,0,0-.13-.13.13.13,0,0,0-.13.14A.12.12,0,0,0,86.75,21.14Z" style="fill:#fff"/><path d="M86.75,19.41a.12.12,0,0,0,.13-.12h0a.12.12,0,0,0-.13-.12.13.13,0,0,0-.13.13A.12.12,0,0,0,86.75,19.41Z" style="fill:#fff"/><path d="M86.75,20.71a.13.13,0,0,0,.13-.13h0a.13.13,0,1,0-.13.13Z" style="fill:#fff"/><path d="M86.75,9.71a.13.13,0,0,0,.13-.13h0a.13.13,0,1,0-.13.13Z" style="fill:#fff"/><path d="M86.75,19.85a.13.13,0,0,0,.13-.13h0a.12.12,0,0,0-.13-.12.13.13,0,0,0,0,.26Z" style="fill:#fff"/><path d="M86.75,20.28a.13.13,0,0,0,.13-.13h0a.13.13,0,1,0-.13.13Z" style="fill:#fff"/><path d="M86.75,11.36a.12.12,0,0,0,.13-.12h0a.12.12,0,0,0-.13-.12.13.13,0,0,0-.13.13A.12.12,0,0,0,86.75,11.36Z" style="fill:#fff"/><path d="M86.75,11.92a.13.13,0,0,0,.13-.13h0a.12.12,0,0,0-.13-.12.13.13,0,0,0,0,.26Z" style="fill:#fff"/><path d="M86.75,10.26a.13.13,0,0,0,.13-.13h0a.13.13,0,1,0-.13.13Z" style="fill:#fff"/><path d="M86.75,12.47a.13.13,0,0,0,.13-.13h0a.12.12,0,0,0-.13-.12.13.13,0,0,0,0,.26Z" style="fill:#fff"/><path d="M86.75,10.81a.13.13,0,0,0,.13-.13h0a.13.13,0,1,0-.26,0A.13.13,0,0,0,86.75,10.81Z" style="fill:#fff"/><path d="M86.75,15.77a.13.13,0,0,0,.13-.13h0a.13.13,0,1,0-.26,0A.13.13,0,0,0,86.75,15.77Z" style="fill:#fff"/><path d="M86.75,14.67a.13.13,0,0,0,.13-.13h0a.13.13,0,1,0-.13.13Z" style="fill:#fff"/><path d="M86.75,15.22a.13.13,0,0,0,.13-.13h0a.13.13,0,1,0-.13.13Z" style="fill:#fff"/><path d="M86.75,13a.13.13,0,0,0,.13-.13h0a.13.13,0,0,0-.13-.13.13.13,0,0,0,0,.26Z" style="fill:#fff"/><path d="M86.75,13.57a.13.13,0,0,0,.13-.13h0a.13.13,0,1,0-.13.13Z" style="fill:#fff"/><path d="M86.75,14.12a.13.13,0,0,0,.13-.13h0a.13.13,0,1,0-.13.13Z" style="fill:#fff"/><path d="M88.7,22.75s0,0,0,0l-1.38-.07-.47-1.25v0h0a.07.07,0,0,0-.07-.06.06.06,0,0,0-.06.06,0,0,0,0,0,0,0l-.48,1.25-1.38.07s0,0,0,0a.06.06,0,0,0,0,0l1.08.87L85.53,25s0,0,0,.05a0,0,0,0,0,0,0l1.16-.75,1.16.75h0A0,0,0,0,0,88,25l-.36-1.33,1.08-.87S88.71,22.76,88.7,22.75Z" style="fill:#fff"/><path d="M56,20.61a.11.11,0,0,0,.11-.11h0a.1.1,0,0,0-.11-.1.11.11,0,0,0,0,.22Z" style="fill:#fff"/><path d="M56,21a.11.11,0,0,0,.11-.11h0a.11.11,0,0,0-.11-.11.11.11,0,0,0-.11.12A.11.11,0,0,0,56,21Z" style="fill:#fff"/><path d="M56,19.39a.11.11,0,0,0,.11-.12h0a.11.11,0,0,0-.22,0A.11.11,0,0,0,56,19.39Z" style="fill:#fff"/><path d="M56,20.2a.11.11,0,0,0,.11-.11h0a.11.11,0,1,0-.11.11Z" style="fill:#fff"/><path d="M56,19.79a.11.11,0,0,0,.11-.11h0a.11.11,0,1,0-.11.11Z" style="fill:#fff"/><path d="M56,21.83a.11.11,0,0,0,.11-.11h0a.11.11,0,1,0-.11.11Z" style="fill:#fff"/><path d="M56,23.54a.11.11,0,0,0,.11-.12h0a.11.11,0,1,0-.22,0A.11.11,0,0,0,56,23.54Z" style="fill:#fff"/><path d="M56,23.06A.11.11,0,0,0,56.1,23h0a.11.11,0,0,0-.11-.11.11.11,0,0,0-.11.12A.11.11,0,0,0,56,23.06Z" style="fill:#fff"/><path d="M56,24a.11.11,0,0,0,.11-.12h0a.11.11,0,0,0-.22,0A.11.11,0,0,0,56,24Z" style="fill:#fff"/><path d="M56,19a.11.11,0,0,0,.11-.11h0a.11.11,0,0,0-.11-.11.12.12,0,0,0-.11.12A.11.11,0,0,0,56,19Z" style="fill:#fff"/><path d="M56,22.24a.11.11,0,0,0,.11-.11h0A.1.1,0,0,0,56,22a.11.11,0,0,0,0,.22Z" style="fill:#fff"/><path d="M56,22.65a.11.11,0,0,0,.11-.11h0a.11.11,0,0,0-.11-.11.12.12,0,0,0-.11.12A.11.11,0,0,0,56,22.65Z" style="fill:#fff"/><path d="M56,21.43a.11.11,0,0,0,.11-.12h0a.11.11,0,1,0-.22,0A.11.11,0,0,0,56,21.43Z" style="fill:#fff"/><path d="M56,24.49a.11.11,0,0,0,.11-.11h0a.11.11,0,1,0-.11.11Z" style="fill:#fff"/><path d="M56,17.35a.11.11,0,0,0,.11-.11h0a.11.11,0,0,0-.11-.11.11.11,0,0,0-.11.12A.11.11,0,0,0,56,17.35Z" style="fill:#fff"/><path d="M56,18.16a.11.11,0,0,0,.11-.11h0a.11.11,0,1,0-.11.11Z" style="fill:#fff"/><path d="M56,17.75a.11.11,0,0,0,.11-.11h0a.11.11,0,1,0-.11.11Z" style="fill:#fff"/><path d="M56,16.94a.11.11,0,0,0,.11-.11h0a.11.11,0,0,0-.11-.11.12.12,0,0,0-.11.12A.11.11,0,0,0,56,16.94Z" style="fill:#fff"/><path d="M56,16.53a.11.11,0,0,0,.11-.11h0a.1.1,0,0,0-.11-.11.11.11,0,0,0,0,.22Z" style="fill:#fff"/><path d="M56,16.12A.11.11,0,0,0,56.1,16h0a.11.11,0,1,0-.11.11Z" style="fill:#fff"/><path d="M56,15.72a.11.11,0,0,0,.11-.12h0a.11.11,0,0,0-.22,0A.11.11,0,0,0,56,15.72Z" style="fill:#fff"/><path d="M56,15.31a.11.11,0,0,0,.11-.11h0a.11.11,0,0,0-.11-.11.11.11,0,0,0-.11.12A.11.11,0,0,0,56,15.31Z" style="fill:#fff"/><path d="M56,14.9a.11.11,0,0,0,.11-.11h0a.11.11,0,0,0-.11-.11.12.12,0,0,0-.11.12A.11.11,0,0,0,56,14.9Z" style="fill:#fff"/><path d="M56,14.49a.11.11,0,0,0,.11-.11h0a.11.11,0,1,0-.11.11Z" style="fill:#fff"/><path d="M56,14.08A.11.11,0,0,0,56.1,14h0a.11.11,0,1,0-.11.11Z" style="fill:#fff"/><path d="M56,13.68a.11.11,0,0,0,.11-.12h0a.11.11,0,1,0-.22,0A.11.11,0,0,0,56,13.68Z" style="fill:#fff"/><path d="M56,13.27a.11.11,0,0,0,.11-.11h0A.11.11,0,0,0,56,13a.12.12,0,0,0-.11.12A.11.11,0,0,0,56,13.27Z" style="fill:#fff"/><path d="M56,12.86a.11.11,0,0,0,.11-.11h0a.1.1,0,0,0-.11-.11.11.11,0,0,0,0,.22Z" style="fill:#fff"/><path d="M56,12.45a.11.11,0,0,0,.11-.11h0a.11.11,0,1,0-.11.11Z" style="fill:#fff"/><path d="M56,12a.11.11,0,0,0,.11-.11h0A.11.11,0,1,0,56,12Z" style="fill:#fff"/><path d="M56,11.64a.11.11,0,0,0,.11-.11h0a.11.11,0,0,0-.11-.11.11.11,0,0,0-.11.12A.11.11,0,0,0,56,11.64Z" style="fill:#fff"/><path d="M56,11.23a.11.11,0,0,0,.11-.11h0A.11.11,0,0,0,56,11a.12.12,0,0,0-.11.12A.11.11,0,0,0,56,11.23Z" style="fill:#fff"/><path d="M56,10.82a.11.11,0,0,0,.11-.11h0A.1.1,0,0,0,56,10.6a.11.11,0,1,0,0,.22Z" style="fill:#fff"/><path d="M56,10.41a.11.11,0,0,0,.11-.11h0a.11.11,0,1,0-.11.11Z" style="fill:#fff"/><path d="M56,10a.11.11,0,0,0,.11-.12h0a.11.11,0,1,0-.22,0A.11.11,0,0,0,56,10Z" style="fill:#fff"/><path d="M56,9.6a.11.11,0,0,0,.11-.11h0A.11.11,0,0,0,56,9.37a.11.11,0,0,0-.11.12A.11.11,0,0,0,56,9.6Z" style="fill:#fff"/><path d="M56,9.19a.11.11,0,0,0,.11-.11h0A.11.11,0,0,0,56,9a.12.12,0,0,0-.11.12A.11.11,0,0,0,56,9.19Z" style="fill:#fff"/><path d="M56,8.78a.11.11,0,0,0,.11-.11h0A.1.1,0,0,0,56,8.56a.11.11,0,1,0,0,.22Z" style="fill:#fff"/><path d="M56,8.37a.11.11,0,0,0,.11-.11h0a.11.11,0,1,0-.11.11Z" style="fill:#fff"/><path d="M56,8a.11.11,0,0,0,.11-.12h0a.11.11,0,0,0-.22,0A.11.11,0,0,0,56,8Z" style="fill:#fff"/><path d="M56,7.56a.11.11,0,0,0,.11-.11h0A.11.11,0,0,0,56,7.33a.11.11,0,0,0-.11.12A.11.11,0,0,0,56,7.56Z" style="fill:#fff"/><path d="M56,7.15A.11.11,0,0,0,56.1,7h0a.1.1,0,0,0-.11-.1.11.11,0,1,0,0,.22Z" style="fill:#fff"/><path d="M56,6.74a.11.11,0,0,0,.11-.11h0a.11.11,0,1,0-.11.11Z" style="fill:#fff"/><path d="M56,6.33a.11.11,0,0,0,.11-.11h0a.11.11,0,1,0-.11.11Z" style="fill:#fff"/><path d="M56,5.93a.11.11,0,0,0,.11-.11h0A.11.11,0,0,0,56,5.7a.11.11,0,0,0-.11.12A.11.11,0,0,0,56,5.93Z" style="fill:#fff"/><path d="M56,5.52a.11.11,0,0,0,.11-.11h0A.11.11,0,0,0,56,5.29a.12.12,0,0,0-.11.12A.11.11,0,0,0,56,5.52Z" style="fill:#fff"/><path d="M56,5.11A.11.11,0,0,0,56.1,5h0A.1.1,0,0,0,56,4.89a.11.11,0,1,0,0,.22Z" style="fill:#fff"/><path d="M56,4.7a.11.11,0,0,0,.11-.11h0A.11.11,0,1,0,56,4.7Z" style="fill:#fff"/><path d="M56,4.29a.1.1,0,0,0,.11-.11h0a.11.11,0,0,0-.22,0A.1.1,0,0,0,56,4.29Z" style="fill:#fff"/><path d="M56,3.89a.11.11,0,0,0,.11-.11h0A.11.11,0,0,0,56,3.66a.11.11,0,0,0-.11.12A.11.11,0,0,0,56,3.89Z" style="fill:#fff"/><path d="M56,3.48a.11.11,0,0,0,.11-.11h0A.11.11,0,0,0,56,3.25a.12.12,0,0,0-.11.12A.11.11,0,0,0,56,3.48Z" style="fill:#fff"/><path d="M56,3.07A.11.11,0,0,0,56.1,3h0A.1.1,0,0,0,56,2.85a.11.11,0,0,0,0,.22Z" style="fill:#fff"/><path d="M56,18.57a.11.11,0,0,0,.11-.11h0a.1.1,0,0,0-.11-.11.11.11,0,0,0,0,.22Z" style="fill:#fff"/><path d="M56,33a.1.1,0,0,0,.11-.11h0a.11.11,0,0,0-.22,0A.1.1,0,0,0,56,33Z" style="fill:#fff"/><path d="M56,32.66a.11.11,0,0,0,.11-.11h0a.11.11,0,0,0-.11-.11.12.12,0,0,0-.11.12A.11.11,0,0,0,56,32.66Z" style="fill:#fff"/><path d="M56,30.72a.11.11,0,0,0,.11-.11h0a.11.11,0,1,0-.11.11Z" style="fill:#fff"/><path d="M56,32.28a.11.11,0,0,0,.11-.11h0a.11.11,0,1,0-.11.11Z" style="fill:#fff"/><path d="M56,31.16A.11.11,0,0,0,56.1,31h0a.11.11,0,0,0-.22,0A.11.11,0,0,0,56,31.16Z" style="fill:#fff"/><path d="M56,31.53a.11.11,0,0,0,.11-.11h0a.1.1,0,0,0-.11-.11.11.11,0,1,0,0,.22Z" style="fill:#fff"/><path d="M56,31.91a.11.11,0,0,0,.11-.11h0a.11.11,0,0,0-.11-.11.11.11,0,0,0-.11.12A.11.11,0,0,0,56,31.91Z" style="fill:#fff"/><path d="M56,34.91a.11.11,0,0,0,.11-.11h0a.11.11,0,1,0-.11.11Z" style="fill:#fff"/><path d="M56,33.41a.11.11,0,0,0,.11-.11h0a.1.1,0,0,0-.11-.11.11.11,0,1,0,0,.22Z" style="fill:#fff"/><path d="M56,34.54a.11.11,0,0,0,.11-.11h0a.11.11,0,0,0-.11-.11.11.11,0,0,0-.11.12A.11.11,0,0,0,56,34.54Z" style="fill:#fff"/><path d="M56,25a.11.11,0,0,0,.11-.11h0A.11.11,0,1,0,56,25Z" style="fill:#fff"/><path d="M56,33.79a.11.11,0,0,0,.11-.12h0a.11.11,0,0,0-.22,0A.11.11,0,0,0,56,33.79Z" style="fill:#fff"/><path d="M56,34.16a.11.11,0,0,0,.11-.11h0a.11.11,0,1,0-.11.11Z" style="fill:#fff"/><path d="M56,26.41a.11.11,0,0,0,.11-.11h0a.1.1,0,0,0-.11-.11.11.11,0,0,0,0,.22Z" style="fill:#fff"/><path d="M56,26.89a.11.11,0,0,0,.11-.11h0a.1.1,0,0,0-.11-.11.11.11,0,0,0,0,.22Z" style="fill:#fff"/><path d="M56,25.45a.11.11,0,0,0,.11-.11h0a.11.11,0,1,0-.11.11Z" style="fill:#fff"/><path d="M56,27.37a.11.11,0,0,0,.11-.11h0a.11.11,0,0,0-.11-.11.12.12,0,0,0-.11.12A.11.11,0,0,0,56,27.37Z" style="fill:#fff"/><path d="M56,25.93a.11.11,0,0,0,.11-.11h0a.11.11,0,1,0-.11.11Z" style="fill:#fff"/><path d="M56,30.24a.11.11,0,0,0,.11-.11h0a.11.11,0,1,0-.11.11Z" style="fill:#fff"/><path d="M56,29.29a.11.11,0,0,0,.11-.11h0a.11.11,0,0,0-.11-.11.11.11,0,0,0-.11.12A.11.11,0,0,0,56,29.29Z" style="fill:#fff"/><path d="M56,29.77a.11.11,0,0,0,.11-.12h0a.11.11,0,0,0-.22,0A.11.11,0,0,0,56,29.77Z" style="fill:#fff"/><path d="M56,27.85a.11.11,0,0,0,.11-.11h0a.11.11,0,0,0-.11-.11.12.12,0,0,0-.11.12A.11.11,0,0,0,56,27.85Z" style="fill:#fff"/><path d="M56,28.33a.11.11,0,0,0,.11-.11h0A.11.11,0,0,0,56,28.1a.12.12,0,0,0-.11.12A.11.11,0,0,0,56,28.33Z" style="fill:#fff"/><path d="M56,28.81a.11.11,0,0,0,.11-.11h0a.11.11,0,0,0-.11-.11.11.11,0,0,0-.11.12A.11.11,0,0,0,56,28.81Z" style="fill:#fff"/><path d="M59.36,37.55a.08.08,0,0,0-.07,0l-2.38-.12-.83-2.16,0,0h0a.11.11,0,0,0-.11-.11.11.11,0,0,0-.11.12s0,0,0,0l-.82,2.16-2.38.12a.08.08,0,0,0-.07,0,.07.07,0,0,0,0,.08l1.85,1.5-.62,2.3a.07.07,0,0,0,0,.08.06.06,0,0,0,.08,0l2-1.3,2,1.3h.08a.07.07,0,0,0,0-.08l-.62-2.3,1.85-1.5A.07.07,0,0,0,59.36,37.55Zm-1.8,2.68V40l.07.28Zm.1.16.08.3h-.18v-.36Zm0,.57,0,.09-.24-.16.18-.11Zm-.13-.77L57.19,40l.29-.16Zm0,.09v.43l-.24.13-.5-.32v-.24l.37-.21ZM56,40.06l-.16.1L55.56,40l.31-.18L56,40l0,0Zm-1.4-.53,0,0,0,0Zm.11.07.37.21v.42l-.37.22-.31-.19.15-.57Zm-.26-2,.21.12-.1.18H54.3v-.3Zm1.45.84v.42l-.37.21-.37-.21V38.4l.37-.21Zm-.29-.26.29-.17v.33Zm-.45,1.62v-.42l.37-.21.37.21v.42l-.37.22Zm.29.26-.29.17v-.33Zm-.29-.77v-.33l.29.16Zm.45-.17.29-.16v.33Zm-.47-.76L55,38.14l.11-.18.31.18ZM55,37.53v.33h-.21l-.1-.18.27-.15Zm-.37.09-.11-.07h.26Zm-.31.52-.11.18-.31-.18.31-.18Zm-.13-.26-.37.21-.37-.21v-.27l.74,0Zm-1.11-.26h.29v.22l-.31-.18Zm.29.31v.12L53,37.73h0Zm.08,0,.29.17-.15.08-.14-.11Zm.37.22.37.21v.31l-.53-.43Zm.45.58v-.35h.21l.1.17-.31.18Zm.26-.42,0,0h-.2l.1-.17a0,0,0,0,0,0,0l-.1-.18h.2s0,0,0,0l.1-.17.11.17s0,0,0,0H55l-.1.18a0,0,0,0,0,0,0l.1.17h-.2l0,0-.11.18Zm.26.07H55v.35l-.31-.18ZM55,40.69h-.16l-.1-.18.31-.18v.32Zm.05-1-.28-.17.28-.16Zm-.7.62.28.17-.1.18H54.3v-.24Zm-.09.44.11.18-.11.18-.11-.06.07-.27Zm.09,0h.2l0,0,.1-.17.11.17,0,0h.05l-.48.31.06-.1s0,0,0,0Zm.78-.49.37-.21.24.14-.61.39Zm.23-3.21.27-.69.24.13v.43l-.37.21Zm.06.13-.13.07,0-.12ZM56,35.38l.09.23-.15-.08Zm.64,2h-.2l0,0-.1.18-.1-.18,0,0H56l.1-.17a0,0,0,0,0,0,0L56,37h.2a.05.05,0,0,0,0,0l.1-.17.1.17s0,0,0,0h.18v0l-.09.15v0ZM56.3,39.5l-.37-.21v-.42l.37-.21.36.21v.42Zm.36-.11v.36h-.2l-.11-.18Zm-.42.18-.1.18h-.21v-.36Zm-.31-.8v-.32l.28.16Zm.45-.16.28-.16v.32Zm-.08,0-.37-.21v-.42l.37-.21.36.21v.42Zm-.37-.73v-.36h.21l.1.18Zm.42-.18.11-.18h.2v.36Zm-.42-.73v-.36l.31.18-.1.18Zm.53,0-.11-.18.13-.07.1.25Zm-.16-.24-.37-.21V36l.25-.14.27.69ZM55.93,36v-.33l.19.11,0,.09Zm-.08.14v.33l-.21-.12,0-.11Zm-.12,0,.12-.31V36Zm.14,1,.11.18-.11.18-.31-.18ZM56,39.83h.2l0,0,.1-.18.1.18,0,0h.2l-.1.17v0l.1.18h-.2s0,0,0,0l0,0-.32-.21v0a0,0,0,0,0,0,0Zm.5.47h.2v.17l-.22-.15Zm.26-.1-.1-.18.1-.18L57,40Zm-.1-3,0-.07.09.23,0,0Zm.12.77.29.17-.29.16Zm0,1,.29.16-.29.17Zm0-.1V38.4l.37-.21.37.21v.42l-.37.21Zm.93-1.26.2.12-.1.18h-.21v-.3Zm.17,0H58l-.07,0Zm-.23.57-.11.18-.31-.18L57.5,38Zm0,.28h.21l.1.17-.31.18Zm.5-.09,0,0-.1.18-.1-.18a.05.05,0,0,0,0,0h-.2l.1-.17a0,0,0,0,0,0,0l-.1-.18h.2s0,0,0,0l.1-.17.1.17s0,0,0,0h.2l-.1.18v0l.09.15,0,0Zm.06.09-.06,0,0,0Zm.2-.16-.07-.12.1-.18.2.11Zm0-.4h-.2L58,37.68l.17-.09h.14Zm-.81-.31v.33l-.37.21-.37-.21v-.42l0,0,0,0a.07.07,0,0,0,.06,0Zm-2.29-.07,0-.09.26-.15.37.22v.42l-.37.21-.37-.21v-.36h0A.08.08,0,0,0,55.19,37.48ZM53,37.63v0l0,0,0,0Zm1.4,1.2.29-.17.37.21v.42l-.37.21-.09,0,.09-.33a.08.08,0,0,0,0-.08Zm-.26,2.33.08.05-.12.07Zm3.76.1,0-.08a.05.05,0,0,0,0,0h-.07l-.09-.06.06-.12s0,0,0,0l-.1-.17h.18l.13.51Zm-.39-1.56v.06l-.37.22-.37-.22v-.42l.37-.21.25.14ZM57.35,39a.07.07,0,0,0,0,.08v0l-.14-.08.29-.16h0Zm1.26-1-.23-.14V37.6l.71,0Z" style="fill:#fff"/><path d="M25.19,23.24a.25.25,0,0,1-.14-.06A.2.2,0,0,1,25,23a.2.2,0,0,1,.06-.14.21.21,0,0,1,.28,0,.2.2,0,0,1,.06.14.21.21,0,0,1-.2.21Z" style="fill:#fff"/><path d="M27.94,23.28a.22.22,0,0,1,.21-.2h0a.2.2,0,0,1,.21.2h0a.2.2,0,0,1-.21.2h0A.2.2,0,0,1,27.94,23.28Zm.75,0a.19.19,0,0,1,.19-.21h0a.21.21,0,0,1,.21.2h0a.2.2,0,0,1-.2.2h0A.19.19,0,0,1,28.69,23.28Zm-1.29.19h0a.21.21,0,0,1-.19-.21h0a.2.2,0,0,1,.21-.19h0a.19.19,0,0,1,.19.2h0a.2.2,0,0,1-.2.2Zm2-.22a.19.19,0,0,1,.19-.21h0a.19.19,0,0,1,.21.18h0a.19.19,0,0,1-.19.21h0s0,0,0,0h0A.21.21,0,0,1,29.43,23.25Zm-2.79.17a.19.19,0,0,1-.18-.21h0a.2.2,0,0,1,.22-.19h0a.2.2,0,0,1,.18.22h0a.2.2,0,0,1-.2.18h0Zm3.53-.22a.2.2,0,0,1,.18-.22h0a.2.2,0,0,1,.22.18h0a.2.2,0,0,1-.18.22h0A.2.2,0,0,1,30.17,23.2Zm-4.45-.08A.22.22,0,0,1,26,23h0a.21.21,0,0,1,.17.23h0a.2.2,0,0,1-.22.17h0A.21.21,0,0,1,25.72,23.12Zm5.19,0a.2.2,0,0,1,.18-.22h0a.19.19,0,0,1,.22.17h0a.19.19,0,0,1-.17.22h0A.21.21,0,0,1,30.91,23.12Zm.74-.1a.2.2,0,0,1,.16-.23h0a.21.21,0,0,1,.23.17h0a.21.21,0,0,1-.17.23h0A.2.2,0,0,1,31.65,23Zm.73-.12a.2.2,0,0,1,.16-.23h0a.21.21,0,0,1,.24.16h0a.2.2,0,0,1-.16.23h0A.19.19,0,0,1,32.38,22.9Zm.73-.14a.21.21,0,0,1,.15-.24h0a.21.21,0,0,1,.24.16h0a.19.19,0,0,1-.15.23h0A.2.2,0,0,1,33.11,22.76Zm.73-.16a.2.2,0,0,1,.14-.25h0a.2.2,0,0,1,.25.14h0a.2.2,0,0,1-.15.24h0A.19.19,0,0,1,33.84,22.6Zm.72-.19a.19.19,0,0,1,.13-.24h0a.19.19,0,0,1,.25.13h0a.2.2,0,0,1-.14.25h0A.19.19,0,0,1,34.56,22.41Zm.71-.2A.2.2,0,0,1,35.4,22h0a.19.19,0,0,1,.25.13h0a.19.19,0,0,1-.13.25h-.06A.21.21,0,0,1,35.27,22.21ZM36,22a.19.19,0,0,1,.12-.25h0a.2.2,0,0,1,.26.12h0a.21.21,0,0,1-.13.26h-.06A.19.19,0,0,1,36,22Zm.7-.24a.2.2,0,0,1,.12-.26h0a.19.19,0,0,1,.25.12h0a.2.2,0,0,1-.11.26h-.07A.21.21,0,0,1,36.68,21.74Zm.69-.27a.2.2,0,0,1,.11-.26h0a.2.2,0,0,1,.26.11h0a.19.19,0,0,1-.11.26h0l-.07,0h0A.22.22,0,0,1,37.37,21.47Zm.69-.28a.2.2,0,0,1,.1-.26h0a.2.2,0,0,1,.27.1h0a.2.2,0,0,1-.11.26h0a.11.11,0,0,1-.08,0h0A.19.19,0,0,1,38.06,21.19Zm.68-.3a.2.2,0,0,1,.09-.27h0a.21.21,0,0,1,.27.1h0A.19.19,0,0,1,39,21h0a.15.15,0,0,1-.09,0h0A.2.2,0,0,1,38.74,20.89Zm.67-.32a.2.2,0,0,1,.09-.27h0a.2.2,0,0,1,.27.09h0a.2.2,0,0,1-.09.27h0l-.09,0h0A.2.2,0,0,1,39.41,20.57Zm.66-.34a.21.21,0,0,1,.08-.27h0a.2.2,0,0,1,.27.08h0a.19.19,0,0,1-.08.27h0a.16.16,0,0,1-.09,0h0A.21.21,0,0,1,40.07,20.23Zm.65-.35a.21.21,0,0,1,.08-.28h0a.2.2,0,0,1,.27.08h0A.19.19,0,0,1,41,20h0l-.1,0h0A.22.22,0,0,1,40.72,19.88Zm.65-.37a.21.21,0,0,1,.06-.28h0a.2.2,0,0,1,.28.07h0a.2.2,0,0,1-.07.27h0a.19.19,0,0,1-.1,0h0A.19.19,0,0,1,41.37,19.51Zm.63-.39a.21.21,0,0,1,.06-.28h0a.21.21,0,0,1,.28.06h0a.21.21,0,0,1-.06.28h0a.23.23,0,0,1-.11,0h0A.2.2,0,0,1,42,19.12Zm.62-.41a.2.2,0,0,1,.06-.27h0a.21.21,0,0,1,.28,0h0a.21.21,0,0,1-.06.28h0a.2.2,0,0,1-.11,0h0A.21.21,0,0,1,42.62,18.71Zm.62-.41a.19.19,0,0,1,0-.28h0a.19.19,0,0,1,.28.05h0a.19.19,0,0,1,0,.27h0a.19.19,0,0,1-.12,0h0A.21.21,0,0,1,43.24,18.3Zm.6-.44a.19.19,0,0,1,0-.27h0a.19.19,0,0,1,.28,0h0a.2.2,0,0,1,0,.28h0a.24.24,0,0,1-.12,0h0A.18.18,0,0,1,43.84,17.86Zm.6-.44a.19.19,0,0,1,0-.28h0a.2.2,0,0,1,.28,0h0a.2.2,0,0,1,0,.28h0a.2.2,0,0,1-.13,0h0A.18.18,0,0,1,44.44,17.42ZM45,17a.19.19,0,0,1,0-.28h0a.2.2,0,0,1,.28,0h0a.2.2,0,0,1,0,.28h0a.2.2,0,0,1-.13,0h0A.19.19,0,0,1,45,17Zm.57-.47a.21.21,0,0,1,0-.29h0a.19.19,0,0,1,.28,0h0a.19.19,0,0,1,0,.28h0a.21.21,0,0,1-.13,0h0A.23.23,0,0,1,45.59,16.49Zm.56-.49a.2.2,0,0,1,0-.28h0a.19.19,0,0,1,.28,0h0a.21.21,0,0,1,0,.29h0a.24.24,0,0,1-.14.05h0A.23.23,0,0,1,46.15,16Zm.56-.5a.19.19,0,0,1,0-.28h0a.21.21,0,0,1,.29,0h0a.2.2,0,0,1,0,.28h0a.2.2,0,0,1-.14.06h0A.19.19,0,0,1,46.71,15.5Zm.54-.51a.19.19,0,0,1,0-.28h0a.19.19,0,0,1,.28,0h0a.19.19,0,0,1,0,.28h0a.24.24,0,0,1-.14.05h0A.2.2,0,0,1,47.25,15Zm.53-.52a.2.2,0,0,1,0-.28h0a.21.21,0,0,1,.29,0h0a.19.19,0,0,1,0,.28h0a.2.2,0,0,1-.14.06h0A.18.18,0,0,1,47.78,14.47Zm.52-.53a.19.19,0,0,1,0-.28h0a.2.2,0,0,1,.28,0h0a.22.22,0,0,1,0,.29h0a.2.2,0,0,1-.14.06h0A.2.2,0,0,1,48.3,13.94Zm.51-.54a.19.19,0,0,1,0-.28h0a.21.21,0,0,1,.29,0h0a.2.2,0,0,1,0,.28h0a.23.23,0,0,1-.15.07h0A.16.16,0,0,1,48.81,13.4Zm.5-.55a.19.19,0,0,1,0-.28h0a.2.2,0,0,1,.28,0h0a.22.22,0,0,1,0,.29h0a.22.22,0,0,1-.15.06h0A.15.15,0,0,1,49.31,12.85Zm.48-.56a.2.2,0,0,1,0-.28h0a.2.2,0,0,1,.28,0h0a.2.2,0,0,1,0,.28h0a.2.2,0,0,1-.16.07h0A.18.18,0,0,1,49.79,12.29Zm.48-.56a.2.2,0,0,1,0-.28h0a.21.21,0,0,1,.29,0h0a.2.2,0,0,1,0,.28h0a.17.17,0,0,1-.15.07h0A.22.22,0,0,1,50.27,11.73Zm.47-.58a.19.19,0,0,1,0-.28h0a.19.19,0,0,1,.28,0h0a.19.19,0,0,1,0,.28h0a.21.21,0,0,1-.15.08h0A.21.21,0,0,1,50.74,11.15Zm.46-.58a.2.2,0,0,1,0-.28h0a.2.2,0,0,1,.28,0h0a.2.2,0,0,1,0,.28h0a.21.21,0,0,1-.16.08h0A.19.19,0,0,1,51.2,10.57Zm.45-.59a.2.2,0,0,1,0-.28h0a.19.19,0,0,1,.28,0h0a.18.18,0,0,1,0,.27h0a.19.19,0,0,1-.16.09h0A.28.28,0,0,1,51.65,10Zm.44-.6A.21.21,0,0,1,52,9.1h0a.21.21,0,0,1,.28,0h0a.21.21,0,0,1,0,.28h0a.18.18,0,0,1-.16.08h0A.24.24,0,0,1,52.09,9.38Zm.43-.61a.2.2,0,0,1-.05-.28h0a.2.2,0,0,1,.28-.05h0a.21.21,0,0,1,0,.28h0a.2.2,0,0,1-.17.09h0A.15.15,0,0,1,52.52,8.77Zm.42-.61a.19.19,0,0,1,0-.28h0a.19.19,0,0,1,.27,0h0a.21.21,0,0,1,.06.28h0a.22.22,0,0,1-.17.09h0A.21.21,0,0,1,52.94,8.16Zm.41-.62a.2.2,0,0,1-.06-.27h0a.2.2,0,0,1,.28-.06h0a.2.2,0,0,1,.06.27h0a.21.21,0,0,1-.17.09h0A.2.2,0,0,1,53.35,7.54Zm.4-.62a.21.21,0,0,1-.06-.28h0A.21.21,0,0,1,54,6.58h0a.2.2,0,0,1,.06.27h0a.19.19,0,0,1-.17.1h0A.23.23,0,0,1,53.75,6.92Zm.4-.63A.2.2,0,0,1,54.08,6h0A.21.21,0,0,1,54.36,6h0a.19.19,0,0,1,.06.27h0a.19.19,0,0,1-.17.1h0A.19.19,0,0,1,54.15,6.29Zm.38-.64a.21.21,0,0,1-.07-.27h0a.21.21,0,0,1,.28-.07h0a.21.21,0,0,1,.07.27h0a.2.2,0,0,1-.18.1h0A.19.19,0,0,1,54.53,5.65ZM54.91,5a.2.2,0,0,1-.08-.27h0a.2.2,0,0,1,.28-.07h0a.19.19,0,0,1,.07.27h0A.19.19,0,0,1,55,5h0A.17.17,0,0,1,54.91,5Zm.37-.64a.19.19,0,0,1-.08-.27h0A.19.19,0,0,1,55.47,4h0a.2.2,0,0,1,.08.27h0a.2.2,0,0,1-.18.1h0A.15.15,0,0,1,55.28,4.37Zm.36-.65a.19.19,0,0,1-.08-.27h0a.19.19,0,0,1,.27-.08h0a.21.21,0,0,1,.08.27h0a.22.22,0,0,1-.18.1h0A.15.15,0,0,1,55.64,3.72Z" style="fill:#fff"/><path d="M56,3.27a.17.17,0,0,1-.14-.06.21.21,0,0,1,0-.28.21.21,0,0,1,.29,0,.17.17,0,0,1,.06.14.21.21,0,0,1-.2.2Z" style="fill:#fff"/><path d="M74.65,11.59a.2.2,0,0,1-.2-.2h0a.2.2,0,0,1,.2-.2h0a.22.22,0,0,1,.2.21h0a.2.2,0,0,1-.2.2h0C74.54,11.59,74.65,11.6,74.65,11.59Zm.55-.19a.21.21,0,0,1,.2-.21h0a.2.2,0,0,1,.2.2h0a.2.2,0,0,1-.2.2h0A.19.19,0,0,1,75.2,11.4Zm-1.5,0a.22.22,0,0,1,.21-.2h0a.2.2,0,0,1,.19.21h0a.19.19,0,0,1-.21.19h0A.21.21,0,0,1,73.7,11.37Zm2.25,0a.19.19,0,0,1,.19-.21h0a.2.2,0,0,1,.21.19h0a.21.21,0,0,1-.19.21h0A.19.19,0,0,1,76,11.38Zm-2.81.15a.19.19,0,0,1-.18-.21h0a.19.19,0,0,1,.21-.19h0a.2.2,0,0,1,.18.22h0a.19.19,0,0,1-.2.18h0Zm3.56-.19a.2.2,0,0,1,.18-.22h0a.21.21,0,0,1,.22.19h0a.21.21,0,0,1-.19.21h0A.19.19,0,0,1,76.7,11.34Zm-4.31.12a.2.2,0,0,1-.18-.22h0a.19.19,0,0,1,.22-.17h0a.2.2,0,0,1,.18.22h0a.2.2,0,0,1-.2.17h0Zm5-.18a.2.2,0,0,1,.18-.22h0a.19.19,0,0,1,.22.17h0a.2.2,0,0,1-.18.22h0A.2.2,0,0,1,77.44,11.28Zm-5.8.09a.19.19,0,0,1-.17-.22h0a.19.19,0,0,1,.22-.17h0a.19.19,0,0,1,.17.22h0a.2.2,0,0,1-.2.18h0Zm6.55-.18a.19.19,0,0,1,.17-.22h0a.19.19,0,0,1,.22.17h0a.19.19,0,0,1-.17.22h0A.2.2,0,0,1,78.19,11.19Zm-7.3.07a.2.2,0,0,1-.16-.23h0a.19.19,0,0,1,.23-.16h0a.2.2,0,0,1,.16.23h0a.19.19,0,0,1-.2.16h0Zm8-.17a.19.19,0,0,1,.16-.23h0a.2.2,0,0,1,.23.16h0a.2.2,0,0,1-.16.23h0A.2.2,0,0,1,78.93,11.09Zm-8.78,0a.21.21,0,0,1-.16-.24h0a.19.19,0,0,1,.23-.15h0a.2.2,0,0,1,.16.23h0a.19.19,0,0,1-.19.16h0ZM79.67,11a.2.2,0,0,1,.16-.23h0a.19.19,0,0,1,.23.16h0a.2.2,0,0,1-.16.23h0A.19.19,0,0,1,79.67,11ZM69.41,11a.19.19,0,0,1-.15-.24h0a.2.2,0,0,1,.24-.15h0a.21.21,0,0,1,.15.24h0a.2.2,0,0,1-.2.15h0Zm11-.16a.2.2,0,0,1,.15-.23h0a.19.19,0,0,1,.24.15h0a.2.2,0,0,1-.15.24h0A.2.2,0,0,1,80.4,10.81Zm.73-.16a.2.2,0,0,1,.15-.24h0a.19.19,0,0,1,.24.14h0a.19.19,0,0,1-.14.24h0A.21.21,0,0,1,81.13,10.65Zm-12.45.14h0a.2.2,0,0,1-.15-.24h0a.21.21,0,0,1,.25-.15h0a.19.19,0,0,1,.14.24h0a.2.2,0,0,1-.19.15h0Zm13.18-.33a.19.19,0,0,1,.14-.24h0a.19.19,0,0,1,.24.14h0a.19.19,0,0,1-.14.24h0A.19.19,0,0,1,81.86,10.46ZM68,10.59a.2.2,0,0,1-.14-.25h0a.2.2,0,0,1,.25-.13h0a.18.18,0,0,1,.13.24h0a.19.19,0,0,1-.19.15h0Zm14.63-.33a.2.2,0,0,1,.13-.25h0a.2.2,0,0,1,.25.13h0a.2.2,0,0,1-.13.25h-.06A.21.21,0,0,1,82.58,10.26Zm-15.35.11a.19.19,0,0,1-.13-.25h0a.19.19,0,0,1,.25-.13h0a.19.19,0,0,1,.13.25h0a.21.21,0,0,1-.19.14h-.06ZM83.3,10a.2.2,0,0,1,.12-.26h0a.2.2,0,0,1,.25.13h0a.19.19,0,0,1-.12.25h-.07A.18.18,0,0,1,83.3,10Zm-16.79.09a.2.2,0,0,1-.12-.26h0a.2.2,0,0,1,.26-.12h0a.21.21,0,0,1,.12.25h0a.2.2,0,0,1-.19.14h-.07ZM84,9.8a.21.21,0,0,1,.12-.26h0a.2.2,0,0,1,.26.12h0a.2.2,0,0,1-.12.26h-.07A.21.21,0,0,1,84,9.8Zm-18.2.06h0a.2.2,0,0,1-.11-.26h0A.2.2,0,0,1,66,9.49h0a.2.2,0,0,1,.11.26h0a.21.21,0,0,1-.19.13h0Zm18.91-.32a.2.2,0,0,1,.11-.26h0a.2.2,0,0,1,.26.12h0a.21.21,0,0,1-.11.26H84.9A.21.21,0,0,1,84.71,9.54Zm-19.61,0a.19.19,0,0,1-.1-.26h0a.2.2,0,0,1,.26-.11h0a.2.2,0,0,1,.11.26h0a.22.22,0,0,1-.19.13h0Zm20.3-.31A.2.2,0,0,1,85.51,9h0a.2.2,0,0,1,.27.11h0a.21.21,0,0,1-.11.26h-.08A.22.22,0,0,1,85.4,9.27Zm-21,0a.21.21,0,0,1-.1-.27h0a.21.21,0,0,1,.27-.1h0a.21.21,0,0,1,.1.27h0a.21.21,0,0,1-.18.11h-.09ZM86.1,9a.2.2,0,0,1,.1-.27h0a.2.2,0,0,1,.26.11h0a.19.19,0,0,1-.1.26h0l-.08,0h0A.2.2,0,0,1,86.1,9ZM63.73,9a.19.19,0,0,1-.09-.26h0a.19.19,0,0,1,.26-.09h0a.2.2,0,0,1,.1.26h0a.21.21,0,0,1-.18.11h0A.15.15,0,0,1,63.73,9Zm23.05-.28a.19.19,0,0,1,.1-.26h0a.19.19,0,0,1,.26.1h0a.19.19,0,0,1-.09.26h0l-.09,0h0A.19.19,0,0,1,86.78,8.67ZM63.05,8.62h0A.2.2,0,0,1,63,8.34h0a.21.21,0,0,1,.27-.08h0a.2.2,0,0,1,.09.27h0a.21.21,0,0,1-.18.11h0Zm24.41-.27a.19.19,0,0,1,.09-.26h0a.2.2,0,0,1,.27.09h0a.2.2,0,0,1-.09.27h0l-.09,0h0A.19.19,0,0,1,87.46,8.35ZM62.39,8.26h0A.21.21,0,0,1,62.31,8h0a.21.21,0,0,1,.28-.07h0a.19.19,0,0,1,.07.27h0a.19.19,0,0,1-.17.1h0ZM88.13,8a.2.2,0,0,1,.09-.27h0a.2.2,0,0,1,.27.09h0a.2.2,0,0,1-.09.27h0l-.09,0h0A.21.21,0,0,1,88.13,8ZM61.74,7.88a.19.19,0,0,1-.07-.27h0a.19.19,0,0,1,.27-.07h0a.19.19,0,0,1,.07.27h0a.21.21,0,0,1-.17.1h0A.17.17,0,0,1,61.74,7.88Zm27.05-.2a.2.2,0,0,1,.09-.27h0a.19.19,0,0,1,.27.08h0a.21.21,0,0,1-.08.27h0l-.1,0h0A.22.22,0,0,1,88.79,7.68Zm-27.7-.19A.21.21,0,0,1,61,7.21h0a.21.21,0,0,1,.28-.06h0a.2.2,0,0,1,.06.27h0a.21.21,0,0,1-.17.1h0A.2.2,0,0,1,61.09,7.49Zm28.36-.17A.21.21,0,0,1,89.53,7h0a.2.2,0,0,1,.27.08h0a.2.2,0,0,1-.08.27h0l-.1,0h0A.22.22,0,0,1,89.45,7.32Zm-29-.24a.21.21,0,0,1-.06-.28h0a.21.21,0,0,1,.28-.06h0a.2.2,0,0,1,0,.28h0a.18.18,0,0,1-.16.09h0A.2.2,0,0,1,60.46,7.08ZM90.1,7a.22.22,0,0,1,.07-.28h0a.22.22,0,0,1,.28.07h0a.22.22,0,0,1-.07.28h0l-.11,0h0A.21.21,0,0,1,90.1,7Zm-30.27-.3h0a.19.19,0,0,1-.05-.28h0a.19.19,0,0,1,.27,0h0a.2.2,0,0,1,0,.28h0a.19.19,0,0,1-.16.09h0A.19.19,0,0,1,59.83,6.65Zm30.92-.09a.2.2,0,0,1,.06-.27h0a.21.21,0,0,1,.28.06h0a.2.2,0,0,1-.07.28h0a.19.19,0,0,1-.1,0h0A.19.19,0,0,1,90.75,6.56Zm.63-.39a.21.21,0,0,1,.06-.28h0a.21.21,0,0,1,.28.06h0a.21.21,0,0,1-.06.28h0a.2.2,0,0,1-.11,0h0A.21.21,0,0,1,91.38,6.17Zm-32.16,0h0a.22.22,0,0,1,0-.28h0a.2.2,0,0,1,.28,0h0a.19.19,0,0,1,0,.28h0a.21.21,0,0,1-.16.08h0A.19.19,0,0,1,59.22,6.21ZM92,5.76a.2.2,0,0,1,.06-.27h0a.2.2,0,0,1,.28,0h0a.21.21,0,0,1-.06.28h0a.2.2,0,0,1-.11,0h0A.21.21,0,0,1,92,5.76Zm-33.39,0a.2.2,0,0,1,0-.28h0a.2.2,0,0,1,.28,0h0a.21.21,0,0,1,0,.29h0a.18.18,0,0,1-.15.07h0A.2.2,0,0,1,58.62,5.75Zm34-.4a.19.19,0,0,1,0-.28h0a.21.21,0,0,1,.28,0h0a.21.21,0,0,1-.06.28h0a.2.2,0,0,1-.11,0h0A.21.21,0,0,1,92.64,5.35ZM58,5.28A.21.21,0,0,1,58,5h0a.2.2,0,0,1,.28,0h0a.19.19,0,0,1,0,.28h0a.2.2,0,0,1-.16.07h0A.17.17,0,0,1,58,5.28Zm35.21-.36a.21.21,0,0,1,0-.28h0a.21.21,0,0,1,.28.05h0a.21.21,0,0,1,0,.28h0a.21.21,0,0,1-.11,0h0A.2.2,0,0,1,93.25,4.92ZM57.46,4.78a.2.2,0,0,1,0-.28h0a.22.22,0,0,1,.29,0h0a.2.2,0,0,1,0,.29h0a.2.2,0,0,1-.15.06h0A.17.17,0,0,1,57.46,4.78Zm36.4-.3a.19.19,0,0,1,0-.27h0a.2.2,0,0,1,.28,0h0a.21.21,0,0,1,0,.28h0a.16.16,0,0,1-.12,0h0A.19.19,0,0,1,93.86,4.48Zm-37-.2a.21.21,0,0,1,0-.29h0a.2.2,0,0,1,.28,0h0a.21.21,0,0,1,0,.29h0a.2.2,0,0,1-.14.06h0A.24.24,0,0,1,56.9,4.28ZM94.46,4a.22.22,0,0,1,0-.28h0a.19.19,0,0,1,.28,0h0a.2.2,0,0,1,0,.28h0a.2.2,0,0,1-.13,0h0A.21.21,0,0,1,94.46,4Zm-38.1-.29a.19.19,0,0,1,0-.28h0a.19.19,0,0,1,.28,0h0a.19.19,0,0,1,0,.28h0a.2.2,0,0,1-.14.06h0A.2.2,0,0,1,56.36,3.75Zm38.7-.16a.19.19,0,0,1,0-.28h0a.2.2,0,0,1,.28,0h0a.2.2,0,0,1,0,.28h0a.19.19,0,0,1-.12,0h0A.2.2,0,0,1,95.06,3.59Zm.59-.47a.19.19,0,0,1,0-.27h0a.2.2,0,0,1,.28,0h0a.2.2,0,0,1,0,.28h0a.19.19,0,0,1-.12,0h0A.21.21,0,0,1,95.65,3.12Zm.59-.46a.21.21,0,0,1,0-.29h0a.2.2,0,0,1,.28,0h0a.2.2,0,0,1,0,.28h0a.24.24,0,0,1-.13,0h0A.2.2,0,0,1,96.24,2.66Zm.57-.48a.2.2,0,0,1,0-.28h0a.21.21,0,0,1,.29,0h0a.2.2,0,0,1,0,.28h0a.19.19,0,0,1-.13,0h0A.23.23,0,0,1,96.81,2.18Zm.57-.49a.2.2,0,0,1,0-.28h0a.2.2,0,0,1,.28,0h0a.19.19,0,0,1,0,.28h0a.15.15,0,0,1-.13.05h0A.19.19,0,0,1,97.38,1.69Z" style="fill:#fff"/><path d="M98,1.35a.25.25,0,0,1-.14-.06.2.2,0,0,1-.06-.14A.2.2,0,0,1,97.87,1a.21.21,0,0,1,.28,0,.2.2,0,0,1,.06.15.2.2,0,0,1-.06.14A.25.25,0,0,1,98,1.35Z" style="fill:#fff"/><path d="M118.49,23.24a.19.19,0,0,1-.14-.24h0a.19.19,0,0,1,.24-.14h0a.19.19,0,0,1,.14.24h0a.19.19,0,0,1-.19.15h-.05Zm-.73-.2h0a.21.21,0,0,1-.13-.25h0a.2.2,0,0,1,.25-.14h0a.21.21,0,0,1,.13.25h0a.18.18,0,0,1-.19.14h-.06Zm-.71-.23a.19.19,0,0,1-.13-.25h0a.19.19,0,0,1,.25-.13h0a.2.2,0,0,1,.13.25h0a.2.2,0,0,1-.19.14h-.06Zm-.71-.25h0a.19.19,0,0,1-.11-.25h0a.19.19,0,0,1,.25-.12h0a.19.19,0,0,1,.12.25h0a.21.21,0,0,1-.19.13h-.06Zm-.71-.27a.19.19,0,0,1-.11-.25h0a.2.2,0,0,1,.26-.12h0a.2.2,0,0,1,.11.26h0a.21.21,0,0,1-.19.13h0Zm-.69-.28a.21.21,0,0,1-.11-.26h0a.2.2,0,0,1,.27-.11h0a.21.21,0,0,1,.1.26h0A.2.2,0,0,1,115,22h-.07Zm-.69-.31h0a.19.19,0,0,1-.1-.26h0a.2.2,0,0,1,.27-.1h0a.2.2,0,0,1,.1.26h0a.21.21,0,0,1-.19.12h0Zm-.68-.33a.19.19,0,0,1-.09-.26h0a.2.2,0,0,1,.27-.09h0a.19.19,0,0,1,.09.26h0a.19.19,0,0,1-.18.12h0A.16.16,0,0,1,113.57,21.37ZM112.9,21a.2.2,0,0,1-.08-.27h0a.19.19,0,0,1,.27-.08h0a.19.19,0,0,1,.08.27h0a.19.19,0,0,1-.17.1h0Zm-.65-.37a.2.2,0,0,1-.08-.27h0a.21.21,0,0,1,.28-.08h0a.22.22,0,0,1,.07.28h0a.21.21,0,0,1-.17.1h0A.17.17,0,0,1,112.25,20.66Zm-.65-.38a.2.2,0,0,1-.07-.28h0a.21.21,0,0,1,.28-.06h0a.19.19,0,0,1,.06.27h0a.19.19,0,0,1-.17.1h0A.19.19,0,0,1,111.6,20.28Zm-.64-.4h0a.22.22,0,0,1-.06-.28h0a.21.21,0,0,1,.28-.06h0a.21.21,0,0,1,.06.28h0a.2.2,0,0,1-.17.09h0A.23.23,0,0,1,111,19.88Zm-.62-.42a.21.21,0,0,1,0-.28h0a.2.2,0,0,1,.28-.05h0a.19.19,0,0,1,.05.27h0a.21.21,0,0,1-.17.09h0A.2.2,0,0,1,110.34,19.46Zm-.61-.44a.21.21,0,0,1,0-.28h0a.21.21,0,0,1,.28,0h0A.21.21,0,0,1,110,19h0a.19.19,0,0,1-.16.09h0A.21.21,0,0,1,109.73,19Zm-.6-.46a.2.2,0,0,1,0-.28h0a.2.2,0,0,1,.28,0h0a.19.19,0,0,1,0,.28h0a.21.21,0,0,1-.16.08h0A.18.18,0,0,1,109.13,18.56Zm-.59-.47a.2.2,0,0,1,0-.28h0a.2.2,0,0,1,.28,0h0a.2.2,0,0,1,0,.28h0a.21.21,0,0,1-.15.08h0A.21.21,0,0,1,108.54,18.09ZM108,17.6a.19.19,0,0,1,0-.28h0a.2.2,0,0,1,.28,0h0a.22.22,0,0,1,0,.29h0a.22.22,0,0,1-.15.06h0A.15.15,0,0,1,108,17.6Zm-.56-.5a.19.19,0,0,1,0-.28h0a.21.21,0,0,1,.29,0h0a.2.2,0,0,1,0,.28h0a.18.18,0,0,1-.15.07h0A.16.16,0,0,1,107.41,17.1Zm-.55-.51a.22.22,0,0,1,0-.29h0a.21.21,0,0,1,.29,0h0a.19.19,0,0,1,0,.28h0a.2.2,0,0,1-.14.06h0A.24.24,0,0,1,106.86,16.59Zm-.54-.53a.2.2,0,0,1,0-.28h0a.19.19,0,0,1,.28,0h0a.19.19,0,0,1,0,.28h0a.2.2,0,0,1-.14.06h0A.22.22,0,0,1,106.32,16.06Zm-.52-.55h0a.19.19,0,0,1,0-.28h0a.21.21,0,0,1,.29,0h0a.2.2,0,0,1,0,.28h0a.2.2,0,0,1-.14.06h0A.19.19,0,0,1,105.8,15.51Zm-.5-.55h0a.19.19,0,0,1,0-.28h0a.19.19,0,0,1,.28,0h0a.2.2,0,0,1,0,.28h0a.18.18,0,0,1-.13,0h0A.2.2,0,0,1,105.3,15Zm-.49-.57a.19.19,0,0,1,0-.28h0a.2.2,0,0,1,.28,0h0a.2.2,0,0,1,0,.28h0a.24.24,0,0,1-.13.05h0A.18.18,0,0,1,104.81,14.39Zm-.48-.58a.19.19,0,0,1,0-.28h0a.2.2,0,0,1,.28,0h0a.2.2,0,0,1,0,.28h0a.2.2,0,0,1-.13,0h0A.18.18,0,0,1,104.33,13.81Zm-.47-.59a.2.2,0,0,1,0-.28h0a.2.2,0,0,1,.28,0h0a.21.21,0,0,1,0,.29h0a.25.25,0,0,1-.12,0h0A.21.21,0,0,1,103.86,13.22Zm-.45-.6h0a.2.2,0,0,1,0-.28h0a.19.19,0,0,1,.28,0h0a.19.19,0,0,1,0,.28h0a.19.19,0,0,1-.12,0h0A.21.21,0,0,1,103.41,12.62ZM103,12a.2.2,0,0,1,0-.28h0a.21.21,0,0,1,.28,0h0a.21.21,0,0,1,0,.28h0a.2.2,0,0,1-.11,0h0A.21.21,0,0,1,103,12Zm-.42-.62a.2.2,0,0,1,0-.28h0a.2.2,0,0,1,.28.05h0a.2.2,0,0,1-.06.28h0a.15.15,0,0,1-.11,0h0A.2.2,0,0,1,102.55,11.39Zm-.41-.63a.2.2,0,0,1,.06-.28h0a.2.2,0,0,1,.27.06h0a.21.21,0,0,1-.06.28h0a.19.19,0,0,1-.1,0h0A.19.19,0,0,1,102.14,10.76Zm-.4-.64a.19.19,0,0,1,.06-.27h0a.21.21,0,0,1,.28.06h0a.2.2,0,0,1-.07.28h0a.19.19,0,0,1-.1,0h0A.21.21,0,0,1,101.74,10.12Zm-.39-.65a.2.2,0,0,1,.08-.27h0a.21.21,0,0,1,.27.07h0a.22.22,0,0,1-.07.28h0l-.1,0h0A.21.21,0,0,1,101.35,9.47ZM101,8.82h0a.2.2,0,0,1,.08-.27h0a.19.19,0,0,1,.27.08h0a.19.19,0,0,1-.08.27h0a.15.15,0,0,1-.09,0h0A.2.2,0,0,1,101,8.82Zm-.36-.66a.2.2,0,0,1,.09-.27h0A.21.21,0,0,1,101,8h0a.2.2,0,0,1-.09.27h0a.14.14,0,0,1-.09,0h0A.21.21,0,0,1,100.62,8.16Zm-.34-.67h0a.2.2,0,0,1,.09-.27h0a.2.2,0,0,1,.27.09h0a.2.2,0,0,1-.09.27h0a.15.15,0,0,1-.09,0h0A.19.19,0,0,1,100.28,7.49ZM100,6.82a.2.2,0,0,1,.09-.27h0a.21.21,0,0,1,.27.09h0a.2.2,0,0,1-.09.27h0l-.09,0h0A.19.19,0,0,1,100,6.82Zm-.32-.68a.2.2,0,0,1,.1-.27h0A.21.21,0,0,1,100,6h0a.21.21,0,0,1-.11.27h-.08A.2.2,0,0,1,99.63,6.14Zm-.3-.69a.2.2,0,0,1,.1-.27h0a.2.2,0,0,1,.26.11h0a.19.19,0,0,1-.1.26h0l-.08,0h0A.2.2,0,0,1,99.33,5.45ZM99,4.75h0a.21.21,0,0,1,.11-.27h0a.21.21,0,0,1,.27.11h0a.2.2,0,0,1-.12.26h0l-.07,0h0A.19.19,0,0,1,99,4.75Zm-.28-.69h0a.19.19,0,0,1,.11-.25h0a.2.2,0,0,1,.26.11h0a.2.2,0,0,1-.11.26H99A.2.2,0,0,1,98.76,4.06Zm-.26-.71h0a.2.2,0,0,1,.12-.26h0a.2.2,0,0,1,.25.12h0a.2.2,0,0,1-.12.26h-.07A.19.19,0,0,1,98.5,3.35Zm-.25-.71a.21.21,0,0,1,.13-.26h0a.21.21,0,0,1,.25.13h0a.2.2,0,0,1-.13.25h-.06A.21.21,0,0,1,98.25,2.64ZM98,1.92a.2.2,0,0,1,.13-.25h0a.22.22,0,0,1,.26.13h0a.2.2,0,0,1-.14.25h-.06A.21.21,0,0,1,98,1.92Z" style="fill:#fff"/><path d="M119,23.36a.17.17,0,0,1-.14-.06.2.2,0,0,1-.06-.14.17.17,0,0,1,.06-.14.19.19,0,0,1,.28,0,.17.17,0,0,1,.06.14.21.21,0,0,1-.2.2Z" style="fill:#fff"/><g style="opacity:0.5"><path d="M36.61,17.77a.21.21,0,0,1-.21-.2.2.2,0,0,1,.2-.2h0a.2.2,0,0,1,0,.4Zm-.76,0a.21.21,0,0,1-.21-.2.2.2,0,0,1,.2-.2h0a.2.2,0,1,1,0,.4Zm1.55,0a.21.21,0,0,1-.22-.19.18.18,0,0,1,.18-.2v0a.19.19,0,0,1,.22.16A.2.2,0,0,1,37.4,17.75Zm-2.31,0h0a.19.19,0,0,1-.19-.2.22.22,0,0,1,.25-.19.2.2,0,0,1,0,.39Zm3.07,0a.22.22,0,0,1-.22-.2.18.18,0,0,1,.18-.2v0a.2.2,0,0,1,.22.17A.21.21,0,0,1,38.16,17.72Zm-3.83,0a.21.21,0,0,1-.19-.22.19.19,0,0,1,.21-.17l0,.19,0-.19a.18.18,0,0,1,.19.19A.21.21,0,0,1,34.33,17.68Zm4.53,0a.19.19,0,0,1-.19-.17.21.21,0,1,1,.42,0A.22.22,0,0,1,38.86,17.67Zm-5.29-.06a.2.2,0,0,1-.18-.22.19.19,0,0,1,.2-.18l0,.2,0-.2a.19.19,0,0,1,.19.2A.21.21,0,0,1,33.57,17.61Zm6,0a.18.18,0,0,1-.18-.17.19.19,0,0,1,.17-.22.2.2,0,0,1,.24.19A.21.21,0,0,1,39.61,17.59Zm-6.79-.07h0a.2.2,0,0,1-.17-.23.19.19,0,0,1,.22-.17h0a.21.21,0,0,1,.17.23A.2.2,0,0,1,32.82,17.52Zm7.61,0-.07-.39a.2.2,0,0,1,.07.39Zm-8.36-.09h0a.2.2,0,0,1-.17-.23.18.18,0,0,1,.22-.16h0a.21.21,0,0,1,.17.23A.2.2,0,0,1,32.07,17.4Zm9.11,0-.07-.4a.2.2,0,0,1,.07.4Zm-.79-.08Zm-9.07,0h-.06A.2.2,0,0,1,31.1,17a.2.2,0,0,1,.24-.16h0a.2.2,0,0,1,.13.25A.21.21,0,0,1,31.32,17.27Zm10.61,0a.22.22,0,0,1-.22-.17.17.17,0,0,1,.15-.22l0,.2,0-.2a.18.18,0,0,1,.24.13.21.21,0,0,1-.14.25Zm-.79-.06Zm-10.56-.07h0a.21.21,0,0,1-.15-.25.19.19,0,0,1,.23-.14l-.05.19.05-.19a.2.2,0,0,1,.16.23A.2.2,0,0,1,30.58,17.11Zm12.09,0a.23.23,0,0,1-.22-.17.19.19,0,0,1,.15-.22l0,.2,0-.2a.2.2,0,0,1,.24.13.21.21,0,0,1-.14.26Zm-12.83-.16h0a.22.22,0,0,1-.16-.25.18.18,0,0,1,.24-.14l-.06.19.06-.19a.18.18,0,0,1,.15.23A.2.2,0,0,1,29.84,16.92Zm13.52,0a.18.18,0,0,1-.19-.14.21.21,0,0,1,.14-.25h0a.21.21,0,0,1,.23.17.21.21,0,0,1-.17.23Zm.82-.21-.13-.38a.21.21,0,0,1,.25.13A.2.2,0,0,1,44.18,16.7Zm-15.13,0a.2.2,0,0,1-.13-.26.2.2,0,0,1,.24-.13h0Zm15.05-.18h0Zm.8,0-.12-.38a.2.2,0,1,1,.12.38Zm-16.51,0-.07,0,.14-.37a.2.2,0,0,1,.12.26A.21.21,0,0,1,28.39,16.46Zm16.44-.16h0Zm.81-.05-.09-.18-.06-.19a.2.2,0,0,1,.26.11A.22.22,0,0,1,45.64,16.25Zm-.09-.18h0Zm.81-.08-.09-.18-.06-.19a.21.21,0,0,1,.25.12A.19.19,0,0,1,46.36,16Zm-.09-.18Zm.69-.06a.18.18,0,0,1-.17-.11.22.22,0,0,1,.1-.28h0a.2.2,0,0,1,.25.13.2.2,0,0,1-.14.25Zm.7-.29a.2.2,0,0,1-.17-.11.22.22,0,0,1,.1-.28h0a.2.2,0,0,1,.24.13.2.2,0,0,1-.13.25A.15.15,0,0,1,47.66,15.46Zm.7-.3a.19.19,0,0,1-.17-.12.2.2,0,0,1,.1-.27l0,0a.2.2,0,0,1,.25.14.2.2,0,0,1-.14.25Zm.71-.34a.21.21,0,0,1-.18-.11.2.2,0,0,1,.09-.27h0a.2.2,0,1,1,.18.36Zm.68-.34a.2.2,0,0,1-.18-.11.21.21,0,0,1,.08-.27h0a.2.2,0,1,1,.18.36Zm.68-.37a.22.22,0,0,1-.18-.1.19.19,0,0,1,.08-.26l.09.18-.09-.18a.2.2,0,0,1,.27.06.21.21,0,0,1-.06.28Zm.67-.37a.23.23,0,0,1-.19-.1.19.19,0,0,1,.08-.26l.09.17L51,13.38a.19.19,0,0,1,.27.06.21.21,0,0,1-.06.28Zm.64-.38a.19.19,0,0,1-.17-.09.19.19,0,0,1,0-.27h0a.2.2,0,1,1,.2.34A.19.19,0,0,1,51.74,13.36Zm.64-.4a.2.2,0,0,1-.17-.09.19.19,0,0,1,.06-.27h0a.2.2,0,0,1,.28.07.21.21,0,0,1-.07.27A.23.23,0,0,1,52.38,13Zm.64-.42a.19.19,0,0,1-.17-.09.19.19,0,0,1,0-.27h0a.21.21,0,0,1,.27.07.19.19,0,0,1-.07.27A.19.19,0,0,1,53,12.54Zm.75-.47-.13-.15-.11-.17a.19.19,0,0,1,.27.05A.18.18,0,0,1,53.77,12.07Zm-.13-.15Zm.75-.29-.14-.15-.1-.17a.2.2,0,0,1,.24.32Zm-.14-.15h0Zm.62-.26a.21.21,0,0,1-.17-.08.2.2,0,0,1,0-.28h0a.2.2,0,0,1,.28.05.21.21,0,0,1-.06.28A.21.21,0,0,1,54.87,11.22Zm.73-.52-.26-.31a.2.2,0,0,1,.28,0A.2.2,0,0,1,55.6,10.7Zm-.14-.15h0Zm.73-.33-.26-.31a.2.2,0,0,1,.28,0A.2.2,0,0,1,56.19,10.22Zm-.14-.15h0Zm50.48-.14a.21.21,0,0,1-.21-.2.2.2,0,0,1,.2-.2h0a.2.2,0,0,1,0,.4Zm-.76,0h0a.18.18,0,0,1-.18-.2.22.22,0,0,1,.25-.19.2.2,0,0,1,0,.4Zm1.55,0a.21.21,0,0,1-.22-.19.18.18,0,0,1,.18-.2v0a.19.19,0,0,1,.22.16A.21.21,0,0,1,107.32,9.91Zm-2.31,0h0a.19.19,0,0,1-.19-.2.22.22,0,0,1,.25-.19.21.21,0,0,1,.17.23A.2.2,0,0,1,105,9.88Zm3.07,0a.22.22,0,0,1-.22-.2.18.18,0,0,1,.18-.2v0a.18.18,0,0,1,.21.16A.21.21,0,0,1,108.08,9.88Zm.69-.06a.21.21,0,0,1-.19-.18.2.2,0,0,1,.18-.22.2.2,0,0,1,.24.19A.22.22,0,0,1,108.77,9.82Zm-4.52,0a.22.22,0,0,1-.19-.23.18.18,0,0,1,.21-.17l0,.2,0-.2a.19.19,0,0,1,.19.2A.21.21,0,0,1,104.25,9.81ZM56.64,9.76a.17.17,0,0,1-.15-.07.19.19,0,0,1,0-.27l.13.16-.12-.16a.18.18,0,0,1,.27,0,.21.21,0,0,1,0,.29A.23.23,0,0,1,56.64,9.76Zm53,0-.07-.39a.19.19,0,0,1,.23.16A.2.2,0,0,1,109.59,9.72Zm-6.09,0h0a.22.22,0,0,1-.17-.23.2.2,0,0,1,.23-.17h0a.2.2,0,0,1,0,.4Zm6.84-.11-.07-.4a.2.2,0,0,1,.23.17A.2.2,0,0,1,110.34,9.61Zm-7.59,0h0a.22.22,0,0,1-.17-.23.2.2,0,0,1,.23-.17h0a.19.19,0,0,1,.16.23A.19.19,0,0,1,102.75,9.6Zm6.8-.08ZM102,9.46h-.06a.18.18,0,0,1-.16-.22.21.21,0,0,1,.24-.17h0a.21.21,0,0,1,.13.26A.21.21,0,0,1,102,9.46Zm9.09,0a.22.22,0,0,1-.22-.17.18.18,0,0,1,.15-.22l0,.2,0-.2a.2.2,0,0,1,.24.13.22.22,0,0,1-.14.26Zm-.79-.05Zm1.48-.1a.19.19,0,0,1-.19-.15.21.21,0,0,1,.14-.25h0a.19.19,0,0,1,.23.16.2.2,0,0,1-.16.23Zm-10.52,0h0a.21.21,0,0,1-.16-.25.19.19,0,0,1,.23-.14l0,.19.06-.19a.2.2,0,0,1,0,.4Zm-44.06,0a.2.2,0,0,1-.15-.06.19.19,0,0,1,0-.28l0,0a.2.2,0,0,1,.25.32A.24.24,0,0,1,57.2,9.28Zm55.31-.16a.21.21,0,0,1-.19-.15.2.2,0,0,1,.15-.24h0a.2.2,0,1,1,.06.39Zm-12,0h0a.21.21,0,0,1-.15-.25.19.19,0,0,1,.23-.14l-.06.2.06-.2a.2.2,0,0,1,.16.23A.21.21,0,0,1,100.52,9.11Zm-.73-.21h-.06a.21.21,0,0,1-.13-.25.19.19,0,0,1,.24-.14h0a.19.19,0,0,1,.12.25A.2.2,0,0,1,99.79,8.9Zm13.54,0-.13-.38a.2.2,0,0,1,.25.13A.2.2,0,0,1,113.33,8.89ZM57.76,8.77a.22.22,0,0,1-.15-.06.22.22,0,0,1,0-.29l0,0a.2.2,0,0,1,.28,0,.19.19,0,0,1,0,.28A.18.18,0,0,1,57.76,8.77Zm55.49-.06h0ZM99.07,8.66H99a.21.21,0,0,1-.11-.26.19.19,0,0,1,.24-.12h0a.19.19,0,0,1,.1.26A.18.18,0,0,1,99.07,8.66Zm-.72-.25-.07,0a.21.21,0,0,1-.12-.26A.21.21,0,0,1,98.41,8h0a.2.2,0,0,1-.08.39Zm-40-.16a.2.2,0,0,1-.14-.06.21.21,0,0,1,0-.29l0,0a.2.2,0,1,1,.25.31A.16.16,0,0,1,58.31,8.25Zm39.34-.12h-.06a.22.22,0,0,1-.11-.28.18.18,0,0,1,.25-.09l-.09.17.09-.17a.19.19,0,0,1,.12.24A.2.2,0,0,1,97.65,8.13Zm-.7-.3h-.06a.21.21,0,0,1-.11-.27.18.18,0,0,1,.25-.1l-.09.18L97,7.45a.19.19,0,0,1,.12.24A.2.2,0,0,1,97,7.83ZM58.85,7.7a.19.19,0,0,1-.14,0,.2.2,0,0,1,0-.28h0a.2.2,0,0,1,.28.28A.2.2,0,0,1,58.85,7.7Zm37.41-.19a.15.15,0,0,1-.09,0,.2.2,0,0,1-.1-.27.21.21,0,0,1,.27-.09h0a.2.2,0,0,1,.08.26A.18.18,0,0,1,96.26,7.51Zm-.69-.33-.09,0a.21.21,0,0,1-.09-.27.19.19,0,0,1,.26-.09h0a.2.2,0,0,1,.09.27A.19.19,0,0,1,95.57,7.18Zm-36.18,0a.24.24,0,0,1-.14-.05.2.2,0,0,1,0-.27l.15.14-.15-.15a.2.2,0,0,1,.28,0,.21.21,0,0,1,0,.29A.23.23,0,0,1,59.39,7.15ZM94.9,6.82a.2.2,0,0,1-.11,0,.19.19,0,0,1-.08-.26A.2.2,0,0,1,95,6.44l0,0a.21.21,0,0,1,.06.28A.21.21,0,0,1,94.9,6.82Zm-35-.22a.19.19,0,0,1-.13,0,.18.18,0,0,1,0-.27l.14.14-.14-.15a.2.2,0,0,1,.3.26A.2.2,0,0,1,59.91,6.6Zm34.33-.15a.2.2,0,0,1-.11,0A.19.19,0,0,1,94,6.16a.21.21,0,0,1,.28-.09l0,0a.18.18,0,0,1,.05.27A.18.18,0,0,1,94.24,6.45ZM75.31,6.09a.2.2,0,0,1-.21-.2.19.19,0,0,1,.2-.2h0a.2.2,0,1,1,0,.4Zm-.76,0h0a.19.19,0,0,1-.19-.2.23.23,0,0,1,.26-.19.19.19,0,0,1,.16.23A.19.19,0,0,1,74.55,6.07Zm19,0a.18.18,0,0,1-.1,0l.21-.35-.11.17.11-.16a.19.19,0,0,1,.06.27A.2.2,0,0,1,93.58,6.06Zm-17.48,0a.22.22,0,0,1-.22-.2.17.17,0,0,1,.18-.19v0a.18.18,0,0,1,.21.16A.2.2,0,0,1,76.1,6.06ZM60.43,6a.24.24,0,0,1-.14,0,.19.19,0,0,1,0-.27l.14.14-.14-.14a.19.19,0,0,1,.28,0,.21.21,0,0,1,0,.29A.23.23,0,0,1,60.43,6ZM73.79,6a.2.2,0,0,1-.19-.22.18.18,0,0,1,.21-.17l0,.19,0-.19a.18.18,0,0,1,.19.19A.21.21,0,0,1,73.79,6Zm3,0a.21.21,0,0,1-.19-.18.21.21,0,0,1,.18-.22.21.21,0,0,1,.24.2A.21.21,0,0,1,76.79,6ZM73,5.91h0a.21.21,0,0,1-.17-.23.21.21,0,0,1,.22-.17h0a.2.2,0,0,1,.16.23A.19.19,0,0,1,73,5.91Zm4.57,0a.2.2,0,0,1-.22-.16.18.18,0,0,1,.14-.22l0,.19,0-.2a.2.2,0,0,1,.24.13.22.22,0,0,1-.14.26Zm-5.32-.1h-.06a.18.18,0,0,1-.16-.22.21.21,0,0,1,.24-.17h0a.21.21,0,0,1,.13.26A.21.21,0,0,1,72.29,5.77Zm6,0a.19.19,0,0,1-.18-.15.2.2,0,0,1,.14-.25h0a.19.19,0,0,1,.23.16.2.2,0,0,1-.16.23Zm14.65-.07a.17.17,0,0,1-.1,0l.2-.34-.11.16.12-.16a.21.21,0,0,1,.06.28A.21.21,0,0,1,92.94,5.66ZM71.55,5.59h0a.21.21,0,0,1-.16-.25.19.19,0,0,1,.24-.14l-.06.19.06-.19a.19.19,0,0,1,.15.23A.2.2,0,0,1,71.55,5.59Zm7.56-.08L79,5.13a.21.21,0,0,1,.25.13A.19.19,0,0,1,79.11,5.51Zm-18.18,0a.17.17,0,0,1-.13,0,.18.18,0,0,1,0-.27l.14.14-.14-.14a.19.19,0,0,1,.28,0,.21.21,0,0,1,0,.29A.23.23,0,0,1,60.93,5.47Zm9.89-.09h0l.1-.39-.06.19L70.88,5a.2.2,0,0,1,.13.24A.2.2,0,0,1,70.82,5.38Zm8.22,0Zm.81-.06-.09-.18L79.7,4.9A.19.19,0,0,1,80,5,.2.2,0,0,1,79.85,5.27Zm12.46,0a.2.2,0,0,1-.13,0,.22.22,0,0,1,0-.28.19.19,0,0,1,.27,0h0a.2.2,0,0,1,0,.28A.21.21,0,0,1,92.31,5.24ZM70.1,5.13l-.08,0a.2.2,0,0,1-.11-.25.19.19,0,0,1,.25-.12h0a.22.22,0,0,1,.11.27A.22.22,0,0,1,70.1,5.13Zm9.66,0h0ZM80.45,5a.19.19,0,0,1-.17-.12.2.2,0,0,1,.1-.27l0,0a.2.2,0,1,1,.11.39Zm-19-.11a.2.2,0,0,1-.13,0,.2.2,0,0,1,0-.28h0a.21.21,0,0,1,.28,0,.21.21,0,0,1,0,.29A.2.2,0,0,1,61.43,4.91Zm8-.06h-.06a.22.22,0,0,1-.11-.28.17.17,0,0,1,.25-.09l-.09.17.09-.17a.19.19,0,0,1,.12.24A.21.21,0,0,1,69.4,4.85Zm22.28,0a.17.17,0,0,1-.12,0,.2.2,0,0,1,0-.28.19.19,0,0,1,.26-.05l0,0a.2.2,0,0,1,0,.28A.2.2,0,0,1,91.68,4.8ZM81.16,4.69A.21.21,0,0,1,81,4.58a.2.2,0,0,1,.09-.27h0a.2.2,0,0,1,.18.36ZM68.7,4.54l-.09,0a.21.21,0,0,1-.09-.28.2.2,0,0,1,.26-.09h0a.2.2,0,0,1,.09.27A.19.19,0,0,1,68.7,4.54Zm22.37-.19a.2.2,0,0,1-.11,0l.1-.17L91.19,4l-.13.16L91.19,4a.22.22,0,0,1,0,.28A.21.21,0,0,1,91.07,4.35Zm-29.15,0a.2.2,0,0,1-.13,0,.2.2,0,0,1,0-.28h0a.2.2,0,0,1,.28,0,.2.2,0,0,1,0,.28A.24.24,0,0,1,61.92,4.33Zm19.93,0a.2.2,0,0,1-.18-.11A.17.17,0,0,1,81.74,4l.09.17L81.74,4A.19.19,0,0,1,82,4a.21.21,0,0,1-.06.29ZM68,4.2a.17.17,0,0,1-.11,0,.19.19,0,0,1-.08-.26.2.2,0,0,1,.27-.09l0,0a.21.21,0,0,1,.06.28A.2.2,0,0,1,68,4.2ZM82.49,4a.21.21,0,0,1-.17-.09.2.2,0,0,1,.06-.27h0a.21.21,0,0,1,.28.06.2.2,0,0,1-.07.28A.2.2,0,0,1,82.49,4Zm8-.07a.21.21,0,0,1-.13-.05.2.2,0,0,1,0-.28.19.19,0,0,1,.27,0h0a.2.2,0,0,1-.12.35ZM67.36,3.83a.27.27,0,0,1-.12,0,.21.21,0,0,1-.08-.27.2.2,0,0,1,.28-.08h0a.2.2,0,0,1,0,.28A.19.19,0,0,1,67.36,3.83Zm-5-.09a.2.2,0,0,1-.13,0,.2.2,0,0,1,0-.28h0a.2.2,0,0,1,.28,0,.22.22,0,0,1,0,.29A.24.24,0,0,1,62.4,3.74Zm20.73-.19A.24.24,0,0,1,83,3.46.22.22,0,0,1,83,3.18h0a.22.22,0,0,1,.28.07.21.21,0,0,1-.07.28A.2.2,0,0,1,83.13,3.55ZM66.7,3.44a.19.19,0,0,1-.1,0l.21-.35-.11.17.11-.16a.2.2,0,0,1,.06.27A.21.21,0,0,1,66.7,3.44Zm23.18,0a.15.15,0,0,1-.13-.05.19.19,0,0,1,0-.28.19.19,0,0,1,.27,0h0a.2.2,0,0,1-.12.35Zm-27-.27a.2.2,0,0,1-.13,0,.2.2,0,0,1,0-.28h0a.2.2,0,0,1,.28,0,.19.19,0,0,1,0,.28A.2.2,0,0,1,62.87,3.14Zm20.88,0A.21.21,0,0,1,83.59,3a.2.2,0,0,1,0-.27l0,0a.19.19,0,0,1,.27.06.2.2,0,0,1-.17.31ZM66.07,3a.28.28,0,0,1-.13,0,.22.22,0,0,1,0-.28.19.19,0,0,1,.27-.05h0a.2.2,0,0,1,0,.28A.18.18,0,0,1,66.07,3Zm23.22-.1a.2.2,0,0,1-.14-.06.2.2,0,0,1,.26-.3l0,0a.21.21,0,0,1,0,.28A.2.2,0,0,1,89.29,2.92Zm-4.8-.32-.26-.31a.19.19,0,0,1,.28,0A.2.2,0,0,1,84.49,2.6Zm-19,0a.15.15,0,0,1-.11,0l.1-.17.13-.16-.13.16.13-.15a.2.2,0,0,1,0,.27A.19.19,0,0,1,65.45,2.58Zm-2-.13-.17-.1-.16-.13a.22.22,0,0,1,.28,0A.19.19,0,0,1,63.5,2.45Zm20.85,0h0Zm4.38,0a.22.22,0,0,1-.13,0,.22.22,0,0,1,0-.3.2.2,0,0,1,.27,0l-.14.15.14-.15a.2.2,0,0,1,0,.28A.2.2,0,0,1,88.73,2.41Zm-25.4-.06Zm21.61-.2a.23.23,0,0,1-.15-.07.18.18,0,0,1,0-.27l.12.15-.12-.15a.19.19,0,0,1,.28,0,.21.21,0,0,1,0,.29A.24.24,0,0,1,84.94,2.15Zm-20.09,0a.21.21,0,0,1-.13,0A.2.2,0,1,1,65,1.75h0A.2.2,0,0,1,65,2,.18.18,0,0,1,64.85,2.11Zm23.33-.22a.18.18,0,0,1-.13,0,.23.23,0,0,1,0-.3.2.2,0,0,1,.28,0l-.15.14.15-.14a.2.2,0,0,1,0,.28A.18.18,0,0,1,88.18,1.89ZM64,1.84l-.18-.1-.15-.13a.22.22,0,0,1,.28,0A.2.2,0,0,1,64,1.84Zm-.18-.1h0ZM85.5,1.66a.2.2,0,0,1-.14-.06.19.19,0,0,1,0-.28l0,0a.2.2,0,0,1,.28,0,.2.2,0,0,1,0,.28A.15.15,0,0,1,85.5,1.66Zm-21.23,0a.24.24,0,0,1-.13-.05.22.22,0,0,1,0-.29.18.18,0,0,1,.27,0l-.14.14.14-.14a.19.19,0,0,1,0,.28A.24.24,0,0,1,64.27,1.62Zm23.36-.26a.21.21,0,0,1-.16-.08A.2.2,0,0,1,87.76,1l0,0a.19.19,0,0,1,0,.28A.18.18,0,0,1,87.63,1.36Zm-1.58-.22a.22.22,0,0,1-.15-.06.22.22,0,0,1,0-.29l0,0a.2.2,0,0,1,.25.31A.18.18,0,0,1,86.05,1.14Zm1-.33A.19.19,0,0,1,87,.73a.19.19,0,0,1,0-.28.21.21,0,0,1,.29,0l0,0a.2.2,0,0,1,0,.28A.21.21,0,0,1,87.1.81ZM86.59.57a.19.19,0,0,1-.14,0,.18.18,0,0,1,0-.27l.14.14L86.44.25a.19.19,0,0,1,.28,0,.22.22,0,0,1,0,.29A.27.27,0,0,1,86.59.57Z" style="fill:#fff"/></g><ellipse cx="28.07" cy="120.78" rx="18.32" ry="4.5" style="fill:#2c3052;opacity:0.1"/><ellipse cx="75.62" cy="122.3" rx="18.32" ry="4.5" style="fill:#2c3052;opacity:0.1"/><path d="M15.84,119.15a3.56,3.56,0,0,0-1.43.81,1.19,1.19,0,0,0-.15,1.51,1.64,1.64,0,0,0,.67.41,10.56,10.56,0,0,0,4.57.52,4.82,4.82,0,0,0,2.7-.9,2.12,2.12,0,0,0,.66-2.57,3.12,3.12,0,0,0-2-1.17,2.7,2.7,0,0,0-2.29.25A16.31,16.31,0,0,1,15.84,119.15Z" style="fill:#603913"/><path d="M36.45,119.09a3.44,3.44,0,0,1,1.43.81,1.19,1.19,0,0,1,.15,1.51,1.52,1.52,0,0,1-.67.4,10.56,10.56,0,0,1-4.57.52,4.87,4.87,0,0,1-2.71-.89,2.13,2.13,0,0,1-.65-2.58,3.12,3.12,0,0,1,2-1.17,2.7,2.7,0,0,1,2.29.26A17.2,17.2,0,0,0,36.45,119.09Z" style="fill:#603913"/><path d="M40.5,94.64a2.23,2.23,0,0,1,.27.56,2.72,2.72,0,0,1,1.43.48A11.8,11.8,0,0,0,45,96.75a6.7,6.7,0,0,1-1.53,2.91,2.85,2.85,0,0,1-.83.68,2.49,2.49,0,0,1-1.55.18,7.71,7.71,0,0,1-2.74-1.31c-.9-.59-1.73-1.27-2.58-1.94a9.58,9.58,0,0,1-2-2,6.09,6.09,0,0,1-.85-3.62A3.2,3.2,0,0,1,34,89.32c.63-.52,2-1.08,2.72-.3a10.31,10.31,0,0,1,.76,1.34c.37.6.74,1.2,1.1,1.8l.76,1.25a4.06,4.06,0,0,0,.54.9c.07.06.17,0,.26.07A.64.64,0,0,1,40.5,94.64Z" style="fill:#95c3ff"/><path d="M12.46,82.81a1.06,1.06,0,0,0-.41,1.08,2.67,2.67,0,0,0,.82,1.61,4.06,4.06,0,0,0,1.58.92,2.81,2.81,0,0,0,1.74.11.78.78,0,0,0,.53-.4.85.85,0,0,0-.13-.75,3.34,3.34,0,0,0-.83-1c-.46-.37-1-.47-1.5-.8S13.17,82.4,12.46,82.81Z" style="fill:#ffc49c"/><path d="M37,106.31c.34,3,.7,6,1.13,9a4.31,4.31,0,0,1-.25,2.82,3.92,3.92,0,0,1-2.29,1.45c-5.06,1.55-10.52,1-15.73.05-2.07-.37-4.23-.83-5.79-2.23a2.1,2.1,0,0,1-.68-1,2.48,2.48,0,0,1,0-.94c.32-3.49.73-7,1-10.46s.84-7,.2-10.36a22.59,22.59,0,0,1-.72-4.3c0-5,6.66-6.21,10.51-6.19a26.85,26.85,0,0,1,6.86.83c1.49.4,3.6,1,4.37,2.45.56,1.11.26,2.51.18,3.7A44.49,44.49,0,0,0,36,97.84C36.32,100.65,36.64,103.48,37,106.31Z" style="fill:#56aef3"/><path d="M21.75,97.54c-.64-.06-1.15,1.11-1.32,1.56-.28.75-.34,2.22.72,2.44a.41.41,0,0,0,.22,0c.33-.11.57-1.17.67-1.48.2-.6.7-2.07-.1-2.46A.49.49,0,0,0,21.75,97.54Z" style="fill:#808285"/><path d="M40.36,97a.49.49,0,0,0-.38-.22l-.18,0c-.14,0-.3-.11-.36-.12s-.29.05-.43.06a.61.61,0,0,0-.18,0c-.09,0-.4,0-.43.15s.25.14.33.15A1.43,1.43,0,0,0,39,97a.33.33,0,0,0,.17,0h0a1.54,1.54,0,0,0,.37,0h0c0,.07.25.08.31.09l.29,0a.48.48,0,0,0,.17,0s0,0,0,0Z" style="fill:#d84a19"/><path d="M38.78,96.83a1.39,1.39,0,0,0-1,.24,1.92,1.92,0,0,0-.51,1.08,2.11,2.11,0,0,0,.06,1.45,1.45,1.45,0,0,0,.89.63,3.69,3.69,0,0,0,1.1.06,3.91,3.91,0,0,0,1.18-.22,1.57,1.57,0,0,0,.86-.8,1.69,1.69,0,0,0,0-1.21,1.81,1.81,0,0,0-1.1-1.13,1.52,1.52,0,0,0-.6,0A6.61,6.61,0,0,1,38.78,96.83Z" style="fill:#ef7f2b"/><path d="M39.23,96.81a.55.55,0,0,0-.18.06.33.33,0,0,1,.14,0,.9.9,0,0,0,.54,0s-.1,0-.15,0a0,0,0,0,0,0,0h-.16C39.33,96.85,39.29,96.81,39.23,96.81Z" style="fill:#3c2415"/><path d="M37.5,97.72c0,.14-.07.27-.11.41a3.27,3.27,0,0,0-.14.62,1.38,1.38,0,0,0,.81,1.35,2.67,2.67,0,0,0,.8.11,4.86,4.86,0,0,0,1.08,0c-.55-.16-1.18.07-1.69-.2a1.54,1.54,0,0,1-.31-.21,2.06,2.06,0,0,1-.3-.29,1.15,1.15,0,0,1-.17-1.17c.06-.12.14-.23.19-.36s.16-.61.38-.82a.94.94,0,0,1,.71-.18,1.36,1.36,0,0,0-.82.1A1.14,1.14,0,0,0,37.5,97.72Z" style="fill:#e35317;opacity:0.14;mix-blend-mode:multiply"/><path d="M40.47,97.09v0s0,0,0,0-.06,0-.06,0S40.44,97.08,40.47,97.09Z" style="fill:#f1f2f2;opacity:0.26;mix-blend-mode:overlay"/><path d="M40.59,97.2s0,0,0,0,.07,0,0,0Z" style="fill:#f1f2f2;opacity:0.26;mix-blend-mode:overlay"/><path d="M41.3,98.18s0,0,0,0,0,0,0,0Z" style="fill:#f1f2f2;opacity:0.26;mix-blend-mode:overlay"/><path d="M40.75,97.32s0,0,0,0,.07,0,0,0Z" style="fill:#f1f2f2;opacity:0.54;mix-blend-mode:overlay"/><path d="M40.92,97.56s0,0,0,0,.07,0,0,0Z" style="fill:#f1f2f2;opacity:0.54;mix-blend-mode:multiply"/><path d="M41.28,98.1s0,0,0,0,0,0,0,0Z" style="fill:#f1f2f2;opacity:0.54;mix-blend-mode:multiply"/><path d="M40.89,97.42s0,0,0,0,.07,0,0,0Z" style="fill:#f1f2f2;opacity:0.78;mix-blend-mode:multiply"/><path d="M41.26,98.29s0,0,0,0,.06,0,0,0Z" style="fill:#f1f2f2;opacity:0.78;mix-blend-mode:multiply"/><path d="M40.54,97.11s0,0,0,0,.07,0,0,0Z" style="fill:#f1f2f2;opacity:0.78;mix-blend-mode:multiply"/><path d="M40.54,97.24s0,0,0,0,.06,0,0,0Z" style="fill:#f1f2f2;opacity:0.78;mix-blend-mode:multiply"/><path d="M40.67,97.23s0,0,0,0,.07,0,0,0Z" style="fill:#f1f2f2;opacity:0.78;mix-blend-mode:multiply"/><path d="M40.68,97.33s0,0,0,0,.07,0,0,0Z" style="fill:#f1f2f2;opacity:0.78;mix-blend-mode:multiply"/><path d="M40.82,97.48s0,0,0,0,.07,0,0,0Z" style="fill:#f1f2f2;opacity:0.78;mix-blend-mode:multiply"/><path d="M41.18,98s0,0,0,0,.06,0,0,0Z" style="fill:#f1f2f2;opacity:0.78;mix-blend-mode:multiply"/><path d="M40.56,97.46s0,0,0,0,.07,0,0,0Z" style="fill:#f1f2f2;opacity:0.78;mix-blend-mode:multiply"/><path d="M40.73,97.46s0,0,0,0,.07,0,0,0Z" style="fill:#f1f2f2;opacity:0.54;mix-blend-mode:overlay"/><path d="M40.59,97.32s0,0,0,0,.07,0,0,0Z" style="fill:#f1f2f2;opacity:0.26;mix-blend-mode:overlay"/><path d="M41.2,98.05s0,0,0,0,.07,0,0,0Z" style="fill:#f1f2f2;opacity:0.26;mix-blend-mode:overlay"/><path d="M40.5,97.17s0,0,0,0,.07,0,0,0Z" style="fill:#f1f2f2;opacity:0.26;mix-blend-mode:overlay"/><path d="M40.38,97.11l.08,0,.11,0a.76.76,0,0,1,.39.24,1.17,1.17,0,0,0-.35-.31,1.22,1.22,0,0,0-.36-.18l-.17,0h-.3s-.08,0-.1,0h.15A1.08,1.08,0,0,1,40,97,.86.86,0,0,1,40.38,97.11Z" style="fill:#e35317;opacity:0.14;mix-blend-mode:multiply"/><path d="M41.25,99.08a1.55,1.55,0,0,1-.33.62,2,2,0,0,1-1.14.55,6.52,6.52,0,0,0,.63-.18,1.72,1.72,0,0,0,.44-.19,1.6,1.6,0,0,0,.27-.25,1.71,1.71,0,0,0,.21-.26,1.08,1.08,0,0,0,.15-.52,1.58,1.58,0,0,0-.4-1.14,1.16,1.16,0,0,1,.14.24.92.92,0,0,1,.08.27,2.18,2.18,0,0,1,0,.51A2,2,0,0,1,41.25,99.08Z" style="fill:#e35317;opacity:0.14;mix-blend-mode:multiply"/><path d="M42.31,97.65a.39.39,0,0,0-.35-.07l-.14.06c-.11,0-.27,0-.31,0s-.21.11-.33.15H41c-.07,0-.31.12-.3.22s.24,0,.3,0a1.55,1.55,0,0,0,.23-.06.36.36,0,0,0,.12-.08h0a.94.94,0,0,0,.29-.06h0c.06,0,.22,0,.27,0l.23-.07a.25.25,0,0,0,.12-.08s0,0,0,0S42.32,97.66,42.31,97.65Z" style="fill:#ffc326"/><path d="M41,97.9a1.14,1.14,0,0,0-.69.43,1.57,1.57,0,0,0-.13,1,1.78,1.78,0,0,0,.42,1.13,1.19,1.19,0,0,0,.86.26,2.73,2.73,0,0,0,.88-.23,2.85,2.85,0,0,0,.87-.48,1.25,1.25,0,0,0,.48-.84,1.4,1.4,0,0,0-.35-1,1.44,1.44,0,0,0-1.15-.6,1.31,1.31,0,0,0-.47.16A5.72,5.72,0,0,1,41,97.9Z" style="fill:#fca825"/><path d="M41.37,97.77a.27.27,0,0,0-.12.09h.12a.76.76,0,0,0,.42-.12.13.13,0,0,0-.12,0s0,0,0,0l0,0-.1,0S41.42,97.75,41.37,97.77Z" style="fill:#4f4728"/><path d="M40.25,98.92c0,.12,0,.24,0,.36a2.29,2.29,0,0,0,.05.52,1.13,1.13,0,0,0,1,.85,2.17,2.17,0,0,0,.66-.11,4,4,0,0,0,.84-.32c-.48,0-.92.36-1.38.28a1.51,1.51,0,0,1-.3-.1,1.83,1.83,0,0,1-.32-.14.94.94,0,0,1-.42-.88c0-.11,0-.22.05-.33a2,2,0,0,1,.09-.74A.78.78,0,0,1,41,98a1.19,1.19,0,0,0-.62.29A.93.93,0,0,0,40.25,98.92Z" style="fill:#fca825;opacity:0.14;mix-blend-mode:multiply"/><path d="M42.41,97.67h0a0,0,0,0,1,0,0s0,0,0,0S42.39,97.67,42.41,97.67Z" style="fill:#f1f2f2;opacity:0.26;mix-blend-mode:overlay"/><path d="M42.54,97.73s0,0,0,0,.06,0,0,0Z" style="fill:#f1f2f2;opacity:0.26;mix-blend-mode:overlay"/><path d="M43.35,98.32s0,0,0,0,.05,0,0,0Z" style="fill:#f1f2f2;opacity:0.26;mix-blend-mode:overlay"/><path d="M42.69,97.78s0,0,0,0,.05,0,0,0Z" style="fill:#f1f2f2;opacity:0.54;mix-blend-mode:overlay"/><path d="M42.89,97.92s0,0,0,0,.06,0,0,0Z" style="fill:#f1f2f2;opacity:0.54;mix-blend-mode:multiply"/><path d="M43.31,98.26s0,0,0,0,.05,0,0,0Z" style="fill:#f1f2f2;opacity:0.54;mix-blend-mode:multiply"/><path d="M42.83,97.82s0,0,0,0,.06,0,0,0Z" style="fill:#f1f2f2;opacity:0.78;mix-blend-mode:multiply"/><path d="M43.35,98.41s0,0,0,0,.06,0,0,0Z" style="fill:#f1f2f2;opacity:0.78;mix-blend-mode:multiply"/><path d="M42.48,97.67s0,0,0,0,.06,0,0,0Z" style="fill:#f1f2f2;opacity:0.78;mix-blend-mode:multiply"/><path d="M42.51,97.77s0,0,0,0,.05,0,0,0Z" style="fill:#f1f2f2;opacity:0.78;mix-blend-mode:multiply"/><path d="M42.61,97.73s0,0,0,0,.06,0,0,0Z" style="fill:#f1f2f2;opacity:0.78;mix-blend-mode:multiply"/><path d="M42.64,97.81s0,0,0,0,0,0,0,0Z" style="fill:#f1f2f2;opacity:0.78;mix-blend-mode:multiply"/><path d="M42.79,97.88s0,0,0,0,.05,0,0,0Z" style="fill:#f1f2f2;opacity:0.78;mix-blend-mode:multiply"/><path d="M43.2,98.16s0,0,0,0,.06,0,0,0Z" style="fill:#f1f2f2;opacity:0.78;mix-blend-mode:multiply"/><path d="M42.58,97.93s0,0,0,0,.06,0,0,0Z" style="fill:#f1f2f2;opacity:0.78;mix-blend-mode:multiply"/><path d="M42.71,97.89s0,0,0,0,0,0,0,0Z" style="fill:#f1f2f2;opacity:0.54;mix-blend-mode:overlay"/><path d="M42.57,97.82s0,0,0,0,.06,0,0,0Z" style="fill:#f1f2f2;opacity:0.26;mix-blend-mode:overlay"/><path d="M43.23,98.24s0,0,0,0,.05,0,0,0Z" style="fill:#f1f2f2;opacity:0.26;mix-blend-mode:overlay"/><path d="M42.46,97.73s0,0,0,0,.06,0,0,0Z" style="fill:#f1f2f2;opacity:0.26;mix-blend-mode:overlay"/><path d="M42.35,97.71l.08,0h.09a.6.6,0,0,1,.37.09.78.78,0,0,0-.35-.15,1,1,0,0,0-.33,0,.35.35,0,0,0-.14,0l-.24.06s-.06,0-.07,0l.12,0,.16,0A.81.81,0,0,1,42.35,97.71Z" style="fill:#fca825;opacity:0.14;mix-blend-mode:multiply"/><path d="M43.54,99a1.25,1.25,0,0,1-.1.57,1.66,1.66,0,0,1-.76.72,5,5,0,0,0,.45-.3,1.29,1.29,0,0,0,.3-.27,2.2,2.2,0,0,0,.15-.26,1.17,1.17,0,0,0,.1-.26.93.93,0,0,0,0-.44,1.3,1.3,0,0,0-.61-.8,1.37,1.37,0,0,1,.18.16.64.64,0,0,1,.13.19,1.72,1.72,0,0,1,.14.4A2.54,2.54,0,0,1,43.54,99Z" style="fill:#fca825;opacity:0.14;mix-blend-mode:multiply"/><path d="M29.15,97.64a4.25,4.25,0,0,1,3,2.62.2.2,0,0,1-.21.31,18.63,18.63,0,0,1-6.45,0,2.68,2.68,0,0,1-1.11-.39c-1.26-.89.54-2,1.35-2.36A5.27,5.27,0,0,1,29.15,97.64Z" style="fill:#8e4216"/><path d="M24.7,98.4s.63.18,1,1.22a2.26,2.26,0,0,0-.59-1.51Z" style="fill:#c48958"/><path d="M25.82,97.86S26.4,98,27,99.2a2.08,2.08,0,0,0-.58-1.6,4.81,4.81,0,0,0-.74.24Z" style="fill:#c48958"/><path d="M27.37,97.45A1.69,1.69,0,0,1,28.52,99s.29-.53-.36-1.53Z" style="fill:#c48958"/><path d="M27.1,97.64a5.55,5.55,0,0,0-1.46.34,4,4,0,0,0-1.35.89.79.79,0,0,0-.29.56.58.58,0,0,0,.21.38,1.19,1.19,0,0,0,.38.21,9.27,9.27,0,0,0,4.25.48c.24,0,.59,0,.75-.24a1.18,1.18,0,0,0,.26-.75,1.8,1.8,0,0,0-.2-.71,2.29,2.29,0,0,0-.74-.89A2.53,2.53,0,0,0,27.1,97.64Z" style="fill:#c48958;opacity:0.26;mix-blend-mode:overlay"/><path d="M29.54,97.9a.12.12,0,0,0-.13.12.14.14,0,0,0,.12.14.17.17,0,0,0,.16-.1.1.1,0,0,0,0-.12.2.2,0,0,0-.13-.06Z" style="fill:#c48958;opacity:0.26;mix-blend-mode:overlay"/><path d="M30.34,98.66s0,0,0,0a0,0,0,0,0,0,0s0,0,.05,0v0l0,0Z" style="fill:#c48958;opacity:0.26;mix-blend-mode:overlay"/><path d="M24.84,99.23s0,0,0,0,0,0,0,0,0,0,.05,0a0,0,0,0,0,0,0l0,0Z" style="fill:#c48958;opacity:0.26;mix-blend-mode:overlay"/><path d="M31.49,100.38a0,0,0,0,0,0,.08s0,0,0,0a0,0,0,0,0,0,0Z" style="fill:#c48958;opacity:0.26;mix-blend-mode:overlay"/><path d="M31.73,100.35a0,0,0,0,0,0,.08s0,0,0,0a0,0,0,0,0,0,0Z" style="fill:#c48958;opacity:0.26;mix-blend-mode:overlay"/><path d="M31.29,99.1a0,0,0,1,0,0,.08.05.05,0,0,0,.05,0,0,0,0,0,0,0,0,0,0,0,0,0,0,0Z" style="fill:#c48958;opacity:0.26;mix-blend-mode:overlay"/><path d="M31.36,100.48s0,0,0,0,0,0,0,0a.05.05,0,0,0,.05,0,0,0,0,0,0,0,0h-.05Z" style="fill:#c48958;opacity:0.26;mix-blend-mode:overlay"/><path d="M31.83,100.18a0,0,0,0,0,0,0s0,0,0,0,0,0,0,0,0,0,0,0l0,0Z" style="fill:#c48958;opacity:0.26;mix-blend-mode:overlay"/><path d="M30.1,98.19a.1.1,0,0,0-.09.07.11.11,0,0,0,0,.11.14.14,0,0,0,.12,0,.11.11,0,0,0,.07-.13.1.1,0,0,0-.12-.08Z" style="fill:#c48958;opacity:0.26;mix-blend-mode:overlay"/><path d="M31.58,100.11a.09.09,0,0,0-.09.07.11.11,0,0,0,0,.11.14.14,0,0,0,.12,0,.13.13,0,0,0,.08-.13.11.11,0,0,0-.12-.08Z" style="fill:#c48958;opacity:0.26;mix-blend-mode:overlay"/><path d="M24.45,99a.08.08,0,0,0-.08.07.11.11,0,0,0,0,.11.14.14,0,0,0,.12,0,.13.13,0,0,0,.08-.13.11.11,0,0,0-.12-.08Z" style="fill:#c48958;opacity:0.26;mix-blend-mode:overlay"/><path d="M24.52,99.36a.1.1,0,0,0-.09.07.11.11,0,0,0,0,.11.14.14,0,0,0,.12,0,.13.13,0,0,0,.08-.13.11.11,0,0,0-.12-.08Z" style="fill:#c48958;opacity:0.26;mix-blend-mode:overlay"/><path d="M30.38,98.44a.07.07,0,0,0-.08.07.09.09,0,0,0,.08.08.1.1,0,0,0,.09-.07s0-.09-.06-.08Z" style="fill:#c48958;opacity:0.26;mix-blend-mode:overlay"/><path d="M24.63,99.19a.07.07,0,0,0-.08.07.08.08,0,0,0,.08.08.1.1,0,0,0,.09-.07s0-.09-.06-.08Z" style="fill:#c48958;opacity:0.26;mix-blend-mode:overlay"/><path d="M30.56,98.57s0,.08,0,.11a.06.06,0,0,0,.08,0,.11.11,0,0,0,.06-.07.09.09,0,0,0,0-.07s0,0-.06,0Z" style="fill:#c48958;opacity:0.26;mix-blend-mode:overlay"/><path d="M24.75,99.38s-.05.09,0,.12a.06.06,0,0,0,.08,0,.13.13,0,0,0,.06-.07.08.08,0,0,0,0-.07,0,0,0,0,0-.06,0Z" style="fill:#c48958;opacity:0.26;mix-blend-mode:overlay"/><path d="M31.7,100a.13.13,0,0,0,0,.12.08.08,0,0,0,.08,0,.11.11,0,0,0,.06-.07s0,0,0-.07a0,0,0,0,0-.06,0Z" style="fill:#c48958;opacity:0.26;mix-blend-mode:overlay"/><path d="M34.26,97.67c-.08-.06-.41,0-.52,0a5.77,5.77,0,0,1-.58-.08,2.11,2.11,0,0,1-1-.38A2.5,2.5,0,0,1,34.26,97.67Z" style="fill:#c11f1f"/><path d="M31.2,97.35a1.3,1.3,0,0,0-.34.43,2.94,2.94,0,0,0,.07,2.16,2.43,2.43,0,0,0,.34.75,1,1,0,0,0,.67.45c.15,0,.31,0,.46,0a3.17,3.17,0,0,1,.41.12,1.08,1.08,0,0,0,.73,0,1.73,1.73,0,0,0,.74-.75l.39-.59a3.27,3.27,0,0,0,.52-1.06,1.1,1.1,0,0,0-.29-1.08,1.41,1.41,0,0,0-.9-.27,3.38,3.38,0,0,1-1-.07c-.29-.09-.54-.27-.83-.35A1.12,1.12,0,0,0,31.2,97.35Z" style="fill:#e52c2c"/><path d="M33.15,96.58a1.2,1.2,0,0,0,.23.11,1,1,0,0,0-.17.42s-.05.37,0,.37a.42.42,0,0,1-.15,0h0c0-.06,0-.12,0-.18s0-.1,0-.15S33.16,96.59,33.15,96.58Z" style="fill:#603913"/><path d="M30.92,98a.78.78,0,0,0,0,.34.33.33,0,0,0,.19.25.49.49,0,0,0,.43-.1,1.36,1.36,0,0,0,.66-.72.54.54,0,0,0,0-.43C31.82,96.69,31,97.64,30.92,98Z" style="fill:#e52c2c;opacity:0.44;mix-blend-mode:screen"/><path d="M34.82,99.64a7.78,7.78,0,0,1-.66,1,1.57,1.57,0,0,1-.85.66,3.1,3.1,0,0,1-.9-.12,3,3,0,0,0-.31,0h-.21a.22.22,0,0,0,.27-.21.21.21,0,0,0,.21.24.27.27,0,0,0,.23-.24s0,.15,0,.21,0,0,0,0a1,1,0,0,0,1-.16,3,3,0,0,0,.69-.82,5.07,5.07,0,0,0,.55-1,1.67,1.67,0,0,0,.09-1.1.56.56,0,0,0-.14-.25,1,1,0,0,0-.17-.1l-.16-.07c.06,0,.13,0,.19,0a1.17,1.17,0,0,1,.46.88A2.31,2.31,0,0,1,34.82,99.64Z" style="fill:#939598;opacity:0.14;mix-blend-mode:multiply"/><path d="M36.23,96.41a2.38,2.38,0,0,0-.32.66,3.92,3.92,0,0,1-.57,1,8,8,0,0,0-.74.9,1.44,1.44,0,0,0,.1,1.59,1.7,1.7,0,0,0,.93.5,2.44,2.44,0,0,0,1.17,0,1.49,1.49,0,0,0,.94-.66,2,2,0,0,0,.08-1.5,6,6,0,0,1-.3-1.51,2.12,2.12,0,0,0,0-.94.72.72,0,0,0-1-.26A.71.71,0,0,0,36.23,96.41Z" style="fill:#bcbc15"/><path d="M36.89,96.17c-.06,0-.12.07-.12.13a.17.17,0,0,0,.14.15.21.21,0,0,0,.19,0,.2.2,0,0,0,.09-.16C37.17,96.14,37,96.14,36.89,96.17Z" style="fill:#81d39a;opacity:0.41000000000000003;mix-blend-mode:multiply"/><path d="M37.07,95.41a.09.09,0,0,1,0-.06c.06,0,.16,0,.22,0a2.41,2.41,0,0,0-.21.5.8.8,0,0,0,0,.26.38.38,0,0,1,0,.1.11.11,0,0,1-.06.07.06.06,0,0,1-.08,0v0A4,4,0,0,1,37.07,95.41Z" style="fill:#603913"/><path d="M37.24,96.4v0a4.15,4.15,0,0,1,0,1.61,2.1,2.1,0,0,0,.12.7s0,.06,0,.06,0-.05,0-.08l-.05-.31c.05,0,.09,0,.1.09a4.51,4.51,0,0,1,.17.89,1.73,1.73,0,0,1-.08.85,1.4,1.4,0,0,1-.22.32c-.1.12-.25.15-.36.27s.17,0,.21-.06a1.56,1.56,0,0,1,.28-.16c0,.05,0,.09-.09.12A2.54,2.54,0,0,1,37,101c-.09,0-.32.17-.42.15a.91.91,0,0,0,.56-.16l.28-.19a.53.53,0,0,0,.19-.25,2,2,0,0,0,.21-.67,2.4,2.4,0,0,0-.19-1.09,3.4,3.4,0,0,1-.23-.94,6.79,6.79,0,0,1,0-.78,1.83,1.83,0,0,0,0-.47s-.15-.38-.2-.23A.11.11,0,0,0,37.24,96.4Z" style="fill:#81d39a;opacity:0.41000000000000003;mix-blend-mode:multiply"/><path d="M36,96.87a4,4,0,0,1-.44.91,1.61,1.61,0,0,0-.17.28.09.09,0,0,0,.09,0,4.42,4.42,0,0,0,.57-1.1,1.38,1.38,0,0,1,.2-.38c.09-.11.21-.14.31-.23s0,0,0,0,0,0,0,0l-.07,0A1.16,1.16,0,0,0,36,96.87Z" style="fill:#81d39a;opacity:0.41000000000000003;mix-blend-mode:multiply"/><path d="M34.91,98.6a3.5,3.5,0,0,0-.24.3,1.42,1.42,0,0,0-.27.86,1.29,1.29,0,0,0,.34.84.47.47,0,0,0,.33.19,1.54,1.54,0,0,1-.53-.66,1.07,1.07,0,0,1,0-.84.28.28,0,0,1,.08-.11l-.07.34a.27.27,0,0,0,0,.09.08.08,0,0,0,.07,0,1.33,1.33,0,0,1,.49-1c.06,0,.14-.1.15-.18a.19.19,0,0,0-.16.09l-.21.23a.14.14,0,0,1,0-.14c.14-.2.36-.34.47-.55,0,0-.09,0-.11,0a1.46,1.46,0,0,0-.09.13Z" style="fill:#81d39a;opacity:0.41000000000000003;mix-blend-mode:multiply"/><path d="M37.49,100a1.79,1.79,0,0,1-.71.83,1.45,1.45,0,0,1-.55.22,1,1,0,0,1-.59-.11s-.06,0,0-.08a1.38,1.38,0,0,1,.27.08.9.9,0,0,0,.83-.19c-.07,0-.14,0-.2.06a.66.66,0,0,1-.46.05c0-.05.08-.07.13-.08a1,1,0,0,0,.8-.57.55.55,0,0,1,.14-.22c0,.16-.16.29-.13.44a.92.92,0,0,0,.41-.5,1.62,1.62,0,0,0,.07-.44.3.3,0,0,1,0,.16s0,0,0-.06l0-.48s0,0,0,0A1.79,1.79,0,0,1,37.49,100Z" style="fill:#81d39a;opacity:0.41000000000000003;mix-blend-mode:multiply"/><path d="M34.91,100.57a.86.86,0,0,0,.57.29l-.17-.08a1.31,1.31,0,0,1-.28-.17,1.39,1.39,0,0,1-.15-.19,2,2,0,0,1-.18-.32c0-.1-.05-.2-.08-.3s0,0,0,0,0,0,0,0A1.43,1.43,0,0,0,34.91,100.57Z" style="fill:#81d39a;opacity:0.23;mix-blend-mode:multiply"/><path d="M24.78,102.07a2.87,2.87,0,0,0,.4.18,5.93,5.93,0,0,0,2,.28c1,0,2,0,3-.07,1.19-.08,2.39-.22,3.58-.29,3.34-.2,6.73.12,10-.59a2.77,2.77,0,0,0,1.6-.71,6.2,6.2,0,0,0,1-1.71l-4.59.55c-2.46.29-4.92.59-7.4.68s-4.9,0-7.34-.1l-1.78-.07-.9,0c-.37,0-.84-.2-1.19-.08A3.29,3.29,0,0,0,24.78,102.07Z" style="fill:#c2b59b"/><path d="M46,98.52c.33,0,.71,0,.74.33s-.25.47-.51.57a14.81,14.81,0,0,1-3.46.66c-1.31.19-2.62.33-3.94.45-2.61.22-5.23.32-7.85.42h0a40.77,40.77,0,0,1-7-.42,1.59,1.59,0,0,1-1.14-.5c-.44-.7.57-.58,1-.51a48.82,48.82,0,0,0,10.81.24,66.51,66.51,0,0,0,11.19-1.21A1.08,1.08,0,0,1,46,98.52Z" style="fill:#939598"/><path d="M29.23,63.92c3.42.77,7.46,2.41,9.51,5.34a16.52,16.52,0,0,1,3,11c-.94,8.8-10.48,14.18-18.6,10.93-3.64-1.46-6.74-3.39-8.5-7a17,17,0,0,1-1.17-10.29,14.82,14.82,0,0,1,2.06-5.82,10,10,0,0,1,2.92-2.88C21.6,63.22,25.62,63.11,29.23,63.92Z" style="fill:#ffc49c"/><path d="M40.71,72.61a7.14,7.14,0,0,1-2.59-2.67,4,4,0,0,0-2.69-2.07,3.37,3.37,0,0,0-1.51-.09c-1.35.25-2.24,1.5-3.31,2.37-1.91,1.55-4.55,1.89-7,1.75a8.62,8.62,0,0,0-2.27,0,4.92,4.92,0,0,0-2.7,1.75,9,9,0,0,0-1.9,5.94A5.62,5.62,0,0,1,16.67,81a11.35,11.35,0,0,1-.47,1.22A4.61,4.61,0,0,0,16,85c.07.32.1.78-.22.85s-.38-.13-.51-.3a9.82,9.82,0,0,1-2.38-5c-.21-2.47,1.18-4.78,2.69-6.75A26.23,26.23,0,0,1,23,66.85a15,15,0,0,1,9.8-2A6.84,6.84,0,0,1,35.88,66a12,12,0,0,1,1.58,1.61,6.13,6.13,0,0,0,1.6,1.32c1.24.76,1.61,2.35,1.7,3.7Z" style="fill:#231f20"/><path d="M27.14,68.36A24.17,24.17,0,0,0,21.46,71a24.71,24.71,0,0,0-4.7,3.82,23.28,23.28,0,0,0-1.92,2.29c-.31.41-.6.83-.88,1.26-.11.17-.82,1.07-.75,1.24a10.36,10.36,0,0,1-.68-3.25,15.07,15.07,0,0,1,.54-4.27,15.23,15.23,0,0,1,1.78-4.52,14.68,14.68,0,0,1,5.37-4.67,13.87,13.87,0,0,1,7.39-1.26,15.5,15.5,0,0,1,7.23,2.19A10.71,10.71,0,0,1,37.48,66a10.4,10.4,0,0,1,.91,1.36,3.25,3.25,0,0,1,.39.68,5.56,5.56,0,0,0,.16.72,11.68,11.68,0,0,0-5.73-1.3A18.91,18.91,0,0,0,27.14,68.36Z" style="fill:#fff"/><path d="M19.19,68.07h0" style="fill:none"/><path d="M23.67,98.32l.78.21a.59.59,0,0,1,.27.12.46.46,0,0,1-.09.68,1.2,1.2,0,0,1-.77.16,1.76,1.76,0,0,0-.79.05c-.11,0-.23.14-.22.27a.37.37,0,0,0,.09.16l.73,1a5,5,0,0,0,.72.8,3.14,3.14,0,0,0,1.64.64,1.12,1.12,0,0,1,.36.09.27.27,0,0,1,.14.3,5.92,5.92,0,0,1-4.14-.4,2.55,2.55,0,0,1-1.72-1.45c-.26-.82-.65-1.5,0-2.3A1.74,1.74,0,0,1,22,98a5,5,0,0,1,1.48.25Z" style="fill:#ffc49c"/><path d="M31.13,92.76a15.37,15.37,0,0,1-2.53.17,19.23,19.23,0,0,1-2.84-.14,17.92,17.92,0,0,1-2.14-.5,12.52,12.52,0,0,1-1.7-.56,6.45,6.45,0,0,1-3.1-3,44,44,0,0,0,7.35,2.09,15.13,15.13,0,0,0,7.56-.47c.65-.23,1.29-.52,1.92-.81l1.44-.67A6.5,6.5,0,0,0,35.69,90a15.58,15.58,0,0,1-1.29,1.28A7.7,7.7,0,0,1,31.13,92.76Z" style="fill:#939598;opacity:0.2;mix-blend-mode:multiply"/><path d="M35.43,79.39a1.18,1.18,0,0,1,.79.75,1.15,1.15,0,0,1,0,1,.69.69,0,0,1-.95.15,1.13,1.13,0,0,1-.45-1.06,1,1,0,0,1,.2-.66.45.45,0,0,1,.57-.1.11.11,0,0,1-.11.19.26.26,0,0,0-.36.14,1.13,1.13,0,0,0-.09.49.93.93,0,0,0,.34.81A.47.47,0,0,0,36,81a1,1,0,0,0,0-.78,1,1,0,0,0-.65-.65c-.14,0-.08-.24,0-.21Z" style="fill:#231f20"/><path d="M26.68,81.09a1.27,1.27,0,0,1,.6.71.72.72,0,0,1-.22.87.84.84,0,0,1-1.22-.81.9.9,0,0,1,.6-.79c.13,0,.19.16.06.2a.69.69,0,0,0-.44.73.66.66,0,0,0,.58.56.56.56,0,0,0,.35-.11.46.46,0,0,0,.12-.45,1,1,0,0,0-.54-.72.11.11,0,0,1,.11-.19Z" style="fill:#231f20"/><path d="M32.15,86.41a2.37,2.37,0,0,1-.23,1.21,1,1,0,0,1-1,.55,1,1,0,0,1-.72-.68,2.34,2.34,0,0,1-.09-1,9.55,9.55,0,0,0,2.14-.09" style="fill:#fff"/><path d="M26.5,81.26a.8.8,0,0,1-.95-.65c0-.13.19-.19.21,0a.58.58,0,0,0,.69.49c.13,0,.19.18.05.21Z" style="fill:#231f20"/><path d="M26,81.63a1.26,1.26,0,0,1-.72-.1.63.63,0,0,1-.34-.48.11.11,0,0,1,.19-.08l0,0c.08.11-.07.26-.15.15l0,0,.19-.08c0,.38.56.38.84.37s.14.2,0,.21Z" style="fill:#231f20"/><path d="M35.65,79.51a1.83,1.83,0,0,0,.5-.21.83.83,0,0,0,.23-.52c0-.14.23-.08.21.06a1,1,0,0,1-.29.61,1.81,1.81,0,0,1-.6.27c-.13,0-.18-.16-.05-.21Z" style="fill:#231f20"/><path d="M36,79.85a.72.72,0,0,0,.88-.61c0-.14.24-.08.21.06a.93.93,0,0,1-1.14.75.1.1,0,1,1,.05-.2Z" style="fill:#231f20"/><path d="M32.22,86.49a4.22,4.22,0,0,1-2.31.11l.14-.11c-.06.61.17,1.76,1,1.67s1-1.15,1-1.81c0-.14.23-.14.22,0a2.31,2.31,0,0,1-.74,1.85,1,1,0,0,1-.89.13,1.18,1.18,0,0,1-.63-.65,2.41,2.41,0,0,1-.19-1.19.11.11,0,0,1,.14-.1,4,4,0,0,0,2.2-.11c.13,0,.19.17,0,.21Z" style="fill:#231f20"/><path d="M31.05,82.71a.86.86,0,0,1,1.38,0,1,1,0,0,1-.28,1.52,1.34,1.34,0,0,1-1.11,0c-.13-.05-.07-.26.06-.21a1.12,1.12,0,0,0,1,0,.86.86,0,0,0,.35-.78.71.71,0,0,0-.49-.61.62.62,0,0,0-.71.24c-.07.12-.26,0-.18-.11Z" style="fill:#231f20"/><path d="M26.62,76.9a2,2,0,0,0-1.83.2,2.45,2.45,0,0,0-.53.67,4,4,0,0,0-.19.43l-.09.24a.76.76,0,0,1,0,.11v0c0,.06,0,.05-.05,0h-.07c.14,0,.19.16.06.21a.12.12,0,0,1-.15-.07c0-.08,0-.16,0-.24s.13-.36.2-.53a2.87,2.87,0,0,1,.59-.9,1.72,1.72,0,0,1,.92-.46,3,3,0,0,1,1.23.11.11.11,0,0,1-.06.21Z" style="fill:#231f20"/><path d="M34.77,75.29a2.49,2.49,0,0,1,1.88.36,2.46,2.46,0,0,1,1,1.43c0,.13-.17.19-.21.06a2.26,2.26,0,0,0-.91-1.31,2.29,2.29,0,0,0-1.71-.33c-.13,0-.19-.19-.06-.21Z" style="fill:#231f20"/><path d="M36.23,80.81a.66.66,0,0,1-.52.6.71.71,0,0,1-.61-.4,1.25,1.25,0,0,1-.19-.88C35.16,78.88,36.36,80,36.23,80.81Z" style="fill:#231f20"/><path d="M27,81.41a1.16,1.16,0,0,1,.25,1c-.15.27-.6.23-.83.1a.8.8,0,0,1-.44-.68.82.82,0,0,1,.15-.42,1.09,1.09,0,0,1,.13-.17A.56.56,0,0,1,27,81.41Z" style="fill:#231f20"/><path d="M26.74,82.92a1.09,1.09,0,0,1,.63.65.5.5,0,0,1-.06.49.74.74,0,0,1-.38.2,3.93,3.93,0,0,1-2.51-.17c-.75-.31-1.06-1.15-.16-1.42A4.57,4.57,0,0,1,26.74,82.92Z" style="fill:#ff8868;opacity:0.47000000000000003"/><path d="M37.93,81a.76.76,0,0,1,.78.24.79.79,0,0,1-.06.77,1.36,1.36,0,0,1-.6.44,4.94,4.94,0,0,1-1.07.34,1.26,1.26,0,0,1-1.11-.2C34.48,81.35,37.54,81.06,37.93,81Z" style="fill:#ff8868;opacity:0.47000000000000003"/><path d="M14,90.66a11,11,0,0,0,1.53,4.26,26.07,26.07,0,0,0,2.27,3.67,11.07,11.07,0,0,0,3.2,2.86,2.44,2.44,0,0,1-.62-1.39,3.69,3.69,0,0,1,.73-1.93,1.09,1.09,0,0,1,.66-.52c.28,0,.62.19.57.47a1.31,1.31,0,0,0-.21-1.3,5.32,5.32,0,0,0-1-.94,2.34,2.34,0,0,1-.81-1.09c-.08-.3-.08-.65-.3-.86s-.47-.2-.62-.4a.89.89,0,0,1-.11-.36c-.07-.4-.11-.82-.14-1.23s0-1.1-.07-1.65a3.52,3.52,0,0,0-.2-1.12,2.21,2.21,0,0,0-.82-.87,18.61,18.61,0,0,1-2-2,6,6,0,0,0-1.83,2.44C14.15,88.9,13.83,90.66,14,90.66Z" style="fill:#95c3ff"/><path d="M26,72.26c-1.8.21-3.77.36-5.07,1.61a5.38,5.38,0,0,0-1.14,1.72,8,8,0,0,0-.65,3.28c0,.85.17,1.71.17,2.56,0,.67-.09,1.34,0,2a4.3,4.3,0,0,0,2.23,3.33A27.24,27.24,0,0,1,24.48,88a12.64,12.64,0,0,1,1.7,1.73,6.5,6.5,0,0,0,5.56,1.82,10.6,10.6,0,0,1-5.53.48,21.63,21.63,0,0,1-5.32-1.72,10.2,10.2,0,0,1-4.49-3.23,3.7,3.7,0,0,0-.67-.84,4.35,4.35,0,0,0-1.33-.5,3.52,3.52,0,0,1-1-.56,1.41,1.41,0,0,1-.55-.83.71.71,0,0,1,.45-.81,1.09,1.09,0,0,1,.91.4l1.71,1.52a8,8,0,0,1,0-3.26c.13-.47.35-.92.47-1.4.61-2.39.06-4.62,1.66-6.78a7,7,0,0,1,4-2.72c1.86-.37,3.8.13,5.68-.37a15.91,15.91,0,0,0,3.9-2,6.51,6.51,0,0,1-2.15,2.34A8.23,8.23,0,0,1,26,72.26Z" style="fill:#ff8868;opacity:0.21;mix-blend-mode:multiply"/><path d="M18.82,73.21a35.78,35.78,0,0,0-5.25,7.33A10.78,10.78,0,0,1,13,72.87,20.79,20.79,0,0,1,16.15,66,12.87,12.87,0,0,0,16.6,70C16.71,70.27,18.56,73.49,18.82,73.21Z" style="fill:#939598;opacity:0.2;mix-blend-mode:multiply"/><path d="M14.69,105c-.11,1.35-.27,2.69-.44,4-.28,2.16-.59,4.31-.83,6.48a1.51,1.51,0,0,0,.09,1,3.79,3.79,0,0,0,.88,1,6.85,6.85,0,0,0,1.52,1,11.79,11.79,0,0,0,2.32.73,47.57,47.57,0,0,0,12.86,1.19,6.13,6.13,0,0,1-1.44-.38,11.9,11.9,0,0,1-1.18-.44c-.91-.33-1.82-.68-2.71-1.07a19.82,19.82,0,0,1-4.9-2.89c-3.19-2.67-4.19-6.77-3.9-10.78.16-2.14.78-4.23.61-6.39a9.37,9.37,0,0,0,3.36,3,2.19,2.19,0,0,1-.08-2.77,8.51,8.51,0,0,1-3.45-3.36c-.78-1.22-1.62-2.28-1.66-3.82a2.93,2.93,0,0,1,.92-2.32,2.36,2.36,0,0,1,2.44-.21l-2.79-2.19a.45.45,0,0,0-.3-.13.5.5,0,0,0-.19.1,5,5,0,0,0-1.57,1.92c-.66,1.58-.19,3.26.13,4.85a36.85,36.85,0,0,1,.49,7.63C14.87,102.4,14.8,103.7,14.69,105Z" style="fill:#3290e5;opacity:0.5"/><path d="M45.7,98v.67l1,0a1.94,1.94,0,0,0-.26-1.35,1.91,1.91,0,0,0-1.1-.81c-.61-.16-1,.2-1.21.73-.11.27-.19.56-.28.84s-.36.67-.27.93.74.12.95,0A3,3,0,0,0,45.7,98Z" style="fill:#ffc49c"/><path d="M59.33,98l-.95-.16a1.26,1.26,0,0,1-.86-.39.36.36,0,0,1-.07-.26c.06-.23.37-.23.6-.22A18.63,18.63,0,0,0,60,96.66a5.65,5.65,0,0,1,1.94.36,1,1,0,0,1,.51.3.87.87,0,0,1,.14.42,10.86,10.86,0,0,1,.13,1.13.57.57,0,0,1,0,.26.72.72,0,0,1-.19.2,7,7,0,0,1-2.81,1.34,3.7,3.7,0,0,1-2.62-.54.77.77,0,0,1-.32-.71c.08-.32.44-.46.76-.55l1.2-.35C59,98.45,59.28,98.32,59.33,98Z" style="fill:#ffc49c"/><path d="M88.39,120.5a3.44,3.44,0,0,1,1.43.81,1.19,1.19,0,0,1,.15,1.51,1.52,1.52,0,0,1-.67.4,10.56,10.56,0,0,1-4.57.52,4.87,4.87,0,0,1-2.71-.89,2.14,2.14,0,0,1-.65-2.58,3.12,3.12,0,0,1,2-1.17,2.7,2.7,0,0,1,2.29.26A17.2,17.2,0,0,0,88.39,120.5Z" style="fill:#6f4d58"/><path d="M67,120.13a3.44,3.44,0,0,0-1.43.81,1.2,1.2,0,0,0-.15,1.51,1.64,1.64,0,0,0,.67.4,10.27,10.27,0,0,0,4.57.52,4.87,4.87,0,0,0,2.71-.89,2.13,2.13,0,0,0,.65-2.58,3.06,3.06,0,0,0-2-1.16,2.64,2.64,0,0,0-2.28.25A16.78,16.78,0,0,1,67,120.13Z" style="fill:#6f4d58"/><path d="M64.73,94.3a1.82,1.82,0,0,0-.27.56,2.62,2.62,0,0,0-1.43.47,12,12,0,0,1-2.75,1.07,6.58,6.58,0,0,0,1.52,2.91,3.21,3.21,0,0,0,.83.69,2.57,2.57,0,0,0,1.55.17,7.39,7.39,0,0,0,2.74-1.31c.91-.59,1.74-1.27,2.58-1.94a9.3,9.3,0,0,0,2-1.94,6.05,6.05,0,0,0,.86-3.62A3.22,3.22,0,0,0,71.26,89c-.62-.51-2-1.07-2.71-.3A11.67,11.67,0,0,0,67.78,90c-.36.6-.73,1.2-1.09,1.81-.26.41-.51.83-.76,1.25a5.27,5.27,0,0,1-.54.89c-.07.06-.17.05-.27.07A.63.63,0,0,0,64.73,94.3Z" style="fill:#ff6d67"/><path d="M90.63,81.76a1.09,1.09,0,0,1,.71.92A2.71,2.71,0,0,1,91,84.46a4.21,4.21,0,0,1-1.25,1.34,2.9,2.9,0,0,1-1.63.61.84.84,0,0,1-.63-.23.88.88,0,0,1-.09-.76,3.44,3.44,0,0,1,.5-1.2c.34-.49.87-.75,1.21-1.2S89.83,81.57,90.63,81.76Z" style="fill:#ffc49c"/><path d="M66.61,107c-.35,3-.71,6-1.13,9a4.29,4.29,0,0,0,.25,2.82A3.87,3.87,0,0,0,68,120.32c5.06,1.56,10.52,1,15.73.05a11.93,11.93,0,0,0,4.84-1.7c1.71-1.13,2.2-1.81,1.58-3.92-2.06-7.08-1.67-14.63-2.79-21.93a11.46,11.46,0,0,0-1.71-5.06c-1.53-2.13-4-2.85-6.45-2.83-3.15,0-6,.16-8.33,2.45-3.25,3.18-2.93,7-3.28,11.16C67.26,101.35,66.94,104.17,66.61,107Z" style="fill:#ff6d67"/><path d="M79.29,100.28c.78-.06,1.4,1.23,1.61,1.73.35.83.42,2.44-.88,2.68a.61.61,0,0,1-.27,0c-.41-.13-.7-1.29-.82-1.63-.25-.65-.86-2.28.12-2.71A1.05,1.05,0,0,1,79.29,100.28Z" style="fill:#ff463b"/><path d="M72.51,93.5a13.29,13.29,0,0,0,2.52.17,18,18,0,0,0,2.84-.14A19,19,0,0,0,80,93a12.12,12.12,0,0,0,1.7-.57,6.33,6.33,0,0,0,3.1-3,43.71,43.71,0,0,1-7.35,2.1,15.32,15.32,0,0,1-7.55-.47c-.66-.23-1.29-.53-1.92-.82l-1.44-.66c1.49.69,1.2,1.81,1.16,3.21,0,1.89-.17,3.78-.37,5.66a19.67,19.67,0,0,0,.9-3.35A3.64,3.64,0,0,1,69.68,93C70.57,92.5,71.53,93.33,72.51,93.5Z" style="fill:#f26161"/><path d="M74.35,64.62c-3.42.76-7.46,2.4-9.51,5.34a16.45,16.45,0,0,0-3,11c.94,8.79,10.48,14.18,18.6,10.92,3.64-1.46,6.74-3.38,8.5-7a17,17,0,0,0,1.17-10.29A14.92,14.92,0,0,0,88,68.8a9.9,9.9,0,0,0-2.92-2.88C82,63.91,78,63.81,74.35,64.62Z" style="fill:#ffc49c"/><path d="M62.93,73.35l1.45-1.89a6.68,6.68,0,0,1,2.88-2.53,1.2,1.2,0,0,0-.43.78c.11-.29.47-.39.78-.45L70,68.8l2.6,3.63c-.17-.67-.33-1.34-.5-2a7.37,7.37,0,0,0,3.62,2.44,15.78,15.78,0,0,0,4.38.63,4,4,0,0,1-1.32-1.09c.84.65,2,.41,3.1.52a4.62,4.62,0,0,1,3.42,2.18,7.19,7.19,0,0,1,.78,4c-.06,1.37-.29,2.73-.24,4.1.19-.41.37-.82.55-1.23a12.51,12.51,0,0,0,.87,2.16,6,6,0,0,1,.32,3.07,4.71,4.71,0,0,1,1-1.52,7.62,7.62,0,0,0,.93-1.1,7.93,7.93,0,0,0,1.22-3.38c.21-2.47-1.18-4.79-2.69-6.76a26,26,0,0,0-7.45-6.87,15,15,0,0,0-9.79-2A6.84,6.84,0,0,0,67.7,66.7a11.53,11.53,0,0,0-1.58,1.62,6.26,6.26,0,0,1-1.6,1.31c-1.43.88-1.47,2.59-1.83,4Z" style="fill:#262626"/><path d="M76.44,69.05a23.81,23.81,0,0,1,5.68,2.64,24.33,24.33,0,0,1,4.7,3.82,24.63,24.63,0,0,1,1.92,2.28c.31.41.6.83.88,1.26.11.17.82,1.08.75,1.25A10.42,10.42,0,0,0,91.05,77a15,15,0,0,0-.54-4.26,15.29,15.29,0,0,0-1.78-4.53,14.68,14.68,0,0,0-5.37-4.67A14,14,0,0,0,76,62.32a15.5,15.5,0,0,0-7.23,2.19,11.17,11.17,0,0,0-2.64,2.2,12.6,12.6,0,0,0-.92,1.37,4,4,0,0,0-.38.67,5.21,5.21,0,0,1-.16.72,11.79,11.79,0,0,1,5.73-1.3A18.91,18.91,0,0,1,76.44,69.05Z" style="fill:#7f5967"/><path d="M84.39,68.77h0" style="fill:none"/><path d="M77.22,101.26l-1,.23a.57.57,0,0,0-.21,1,2.74,2.74,0,0,0,1.79.1.85.85,0,0,1-.22.62,5.12,5.12,0,0,1-2.75,1.83c-.25.07-.56.2-.54.45s.3.31.52.3a1.1,1.1,0,0,1,.65.06.35.35,0,0,0,.15.39.85.85,0,0,0,.45.09,2.57,2.57,0,0,0,1.31-.37c0,.1.12.15.22.15,1.72.07,2.46-1.24,3.6-2.25a.81.81,0,0,0,.21-.24.68.68,0,0,0,0-.4,3.37,3.37,0,0,0-1-2.24.55.55,0,0,0-.23-.14.88.88,0,0,0-.28,0,15.52,15.52,0,0,0-2.45.33Z" style="fill:#ffc49c"/><path d="M68.32,83.94a1.48,1.48,0,0,0,.44,1.2,2.55,2.55,0,0,0,1.9.55A1.85,1.85,0,0,0,72,85a1.44,1.44,0,0,0,.16-1,28.84,28.84,0,0,1-4-.09" style="fill:#fff"/><path d="M68,83.89a14.2,14.2,0,0,0,4.27.1l-.25-.1a1.53,1.53,0,0,1-1.84,1.66,1.83,1.83,0,0,1-1.89-1.8c0-.14-.42-.14-.4,0a2,2,0,0,0,1.37,1.84,3.26,3.26,0,0,0,1.65.13A2,2,0,0,0,72,85.07a1.46,1.46,0,0,0,.35-1.18c0-.07-.12-.12-.25-.1a13.53,13.53,0,0,1-4.07-.11c-.24,0-.35.17-.1.21Z" style="fill:#231f20"/><path d="M70.7,81.22a.86.86,0,0,0-1.39,0,1,1,0,0,0,.29,1.51,1.32,1.32,0,0,0,1.1,0c.13,0,.07-.26-.06-.21a1.09,1.09,0,0,1-1,0,.88.88,0,0,1-.35-.78.75.75,0,0,1,.49-.61.62.62,0,0,1,.71.24.11.11,0,0,0,.19-.11Z" style="fill:#231f20"/><path d="M75.37,76.53a2,2,0,0,1,1.83.2,2.19,2.19,0,0,1,.53.67,3.3,3.3,0,0,1,.19.43l.09.23a.49.49,0,0,0,0,.11v0c0,.06,0,0,0,0h.07a.11.11,0,0,0-.06.21.12.12,0,0,0,.15-.07.29.29,0,0,0,0-.24c-.06-.17-.13-.35-.2-.53a2.81,2.81,0,0,0-.59-.9,1.72,1.72,0,0,0-.92-.46,2.85,2.85,0,0,0-1.23.12.11.11,0,0,0,.06.21Z" style="fill:#231f20"/><path d="M68.05,75.26a2.47,2.47,0,0,0-1.87.36,2.54,2.54,0,0,0-1,1.44c0,.13.18.19.21,0a2.28,2.28,0,0,1,.92-1.3A2.24,2.24,0,0,1,68,75.47c.13,0,.19-.18,0-.21Z" style="fill:#231f20"/><path d="M67.92,78.89a1.05,1.05,0,0,0-.2-.66.49.49,0,0,0-.32-.16.11.11,0,0,0-.12-.07,1,1,0,0,0-.26.11,1.73,1.73,0,0,1-.46-.2.83.83,0,0,1-.23-.52c0-.14-.23-.08-.21.06a1,1,0,0,0,.29.61,1.25,1.25,0,0,0,.4.2,1.2,1.2,0,0,0-.17.21.73.73,0,0,1-.83-.62c0-.14-.23-.08-.21.06a.92.92,0,0,0,.92.78l0,.06a1.14,1.14,0,0,0,0,1,.69.69,0,0,0,1,.16A1.16,1.16,0,0,0,67.92,78.89Z" style="fill:#231f20"/><path d="M76,79l0,0a.12.12,0,0,0,0,.1c-.08.31-.52.33-.79.31a.75.75,0,0,0-.15-.16.78.78,0,0,0,.59-.64c0-.14-.19-.19-.21-.06a.58.58,0,0,1-.68.5.11.11,0,0,0-.12.05.09.09,0,0,0-.12,0,1.24,1.24,0,0,0-.6.71.73.73,0,0,0,.22.87.85.85,0,0,0,1.22-.82.78.78,0,0,0,0-.21,1.17,1.17,0,0,0,.58-.12.63.63,0,0,0,.33-.47A.11.11,0,0,0,76,79Z" style="fill:#231f20"/><path d="M74.5,81.7a1.17,1.17,0,0,0-.64.65.55.55,0,0,0,.06.5.74.74,0,0,0,.38.2,3.93,3.93,0,0,0,2.51-.17c.75-.31,1.07-1.16.17-1.42A4.56,4.56,0,0,0,74.5,81.7Z" style="fill:#ff8868;opacity:0.47000000000000003"/><path d="M65.87,80.06a.8.8,0,0,0-.78.24.74.74,0,0,0,.06.77,1.33,1.33,0,0,0,.59.44,4.75,4.75,0,0,0,1.07.34,1.28,1.28,0,0,0,1.11-.19C69.31,80.4,66.26,80.1,65.87,80.06Z" style="fill:#ff8868;opacity:0.47000000000000003"/><path d="M89.1,92.84a11.47,11.47,0,0,1-1.88,4.68,27.58,27.58,0,0,1-2.79,4,13,13,0,0,1-3.92,3.15,2.57,2.57,0,0,0,.76-1.53,3.89,3.89,0,0,0-.89-2.12,2.23,2.23,0,0,0-.64-.62c-.5-.29-1.26.21-1.19.52-.25-.45.24-1,.57-1.39a6.23,6.23,0,0,1,1.24-1,2.6,2.6,0,0,0,1-1.2c.11-.33.1-.71.37-.94s.58-.23.76-.45a.77.77,0,0,0,.14-.39,12.45,12.45,0,0,0,.17-1.35c0-.61,0-1.22.09-1.82a3.46,3.46,0,0,1,.25-1.23c.2-.46.59-.66,1-1A21.27,21.27,0,0,0,86.6,88a6.7,6.7,0,0,1,2.24,2.68C88.9,90.89,89.3,92.84,89.1,92.84Z" style="fill:#ff6d67"/><path d="M77.55,73c1.69.19,3.61.31,5,1.49a5.36,5.36,0,0,1,1.15,2.31,13,13,0,0,1,.75,3.09,9,9,0,0,1-.68,4.7,12,12,0,0,1-3.32,4A17.05,17.05,0,0,1,76,91.42a9.52,9.52,0,0,1-5.16.69,15.88,15.88,0,0,0,4.48.81A14.28,14.28,0,0,0,80,92.08a17.57,17.57,0,0,0,4.69-2.57,22,22,0,0,0,2.08-1.78A11.55,11.55,0,0,1,88.51,86a7.28,7.28,0,0,1,.71-.31,2.79,2.79,0,0,0,1.34-1.35c.21-.47.23-1.14-.22-1.39a1,1,0,0,0-.54-.1,2.19,2.19,0,0,0-1,.3,1.27,1.27,0,0,1-.37.18.67.67,0,0,1-.65-.31,4.78,4.78,0,0,1-.57-1.47c-.61-2.39-.06-4.61-1.66-6.77a7.05,7.05,0,0,0-4-2.73c-1.86-.37-3.8.14-5.68-.37a15.57,15.57,0,0,1-3.9-2A6.46,6.46,0,0,0,74.06,72,8.53,8.53,0,0,0,77.55,73Z" style="fill:#ff8868;opacity:0.21;mix-blend-mode:multiply"/><path d="M84.76,73.9A35.85,35.85,0,0,1,90,81.24a10.73,10.73,0,0,0,.56-7.67,23.27,23.27,0,0,0-1.93-5,9.51,9.51,0,0,0-1.16-1.84,5.45,5.45,0,0,0-.87-.79c-.18-.13-.77-.36-.86-.53a7.92,7.92,0,0,1,.84,4.78,7.38,7.38,0,0,1-.71,2.34C85.8,72.73,84.93,74.09,84.76,73.9Z" style="fill:#7f5b68;opacity:0.30000000000000004;mix-blend-mode:multiply"/><path d="M88.48,106.57c.21,1.94.49,3.87.88,5.78s1.21,4.62-.59,6.13a5.81,5.81,0,0,1-1.67.88c-4.82,1.8-10.1,1.79-15.25,1.75a23.52,23.52,0,0,0,9.09-3.28c3.81-2.28,5-7.25,4.73-11.38-.08-1.08-.28-2.15-.44-3.22a9.64,9.64,0,0,1-.16-1.42c0-.3.15-.59-.14-.81-.72.64-1.34,1.4-2.07,2q-.56.49-1.14.93c-.17.13-1.08.59-1.12.76.13-.59.57-1,.56-1.63,0-1-.94-3.32-2.29-2.63a9.28,9.28,0,0,1,2.59-2.56,12.59,12.59,0,0,0-1.89,2c.38.23.66.59,1.05.81,1,.57,2.49-1.11,2.91-1.93a.89.89,0,0,0-.41-1.24c.45-.23,1,.39,1.45.18a.79.79,0,0,0,.34-.4,7.52,7.52,0,0,0,.59-1.44c-.29,0-.67-.2-.57-.47s.28-.21.44-.28c.46-.2.62-.76.73-1.24.28-1.26.46-3.21-1.44-3.25-.58,0-1.15.35-1.7.18a15.14,15.14,0,0,0,2.26-1.56c.31-.25,1-1.08,1.5-.94a1,1,0,0,1,.48.38,6.36,6.36,0,0,1,1.59,2.49,5.62,5.62,0,0,1,.15,1.36,5.23,5.23,0,0,1-.09,1.25,11.76,11.76,0,0,1-.93,1.92,5.69,5.69,0,0,0,0,3.17c.19,1.27.21,2.57.28,3.85S88.35,105.28,88.48,106.57Z" style="fill:#f26161"/><path d="M63.24,73.13a39.53,39.53,0,0,1,3.32-3.28,2.07,2.07,0,0,0-.28,1c0-.24.2-.43.42-.54a7.86,7.86,0,0,1,4.55-.72c-.43-.33-.71-.87-1.21-1.09a2,2,0,0,0-.69-.12C66.63,68.31,63.61,70.32,63.24,73.13Z" style="fill:#ff8868;opacity:0.21;mix-blend-mode:multiply"/></g></g></g></svg>