<svg xmlns="http://www.w3.org/2000/svg" viewBox="0 0 465.11 466.81"><g id="ac4a92e2-9e73-4a02-a77b-4c43baae14eb" data-name="Layer 2"><g id="ba435029-2f70-484e-a3e5-fe6097766dc6" data-name="OBJECTS"><circle cx="227.92" cy="248.01" r="188.48" style="fill:#234453"/><circle cx="227.92" cy="259.47" r="145.38" transform="translate(-116.72 237.16) rotate(-45)" style="fill:#2d5266"/><path d="M73.58,340q-2.83-10.09-5.68-20.19Q61.18,296,54.35,272.12q-3.85-13.49-7.69-27a.94.94,0,0,0-.91-.69.77.77,0,0,0-.91.26.94.94,0,0,0-.41,1.06q6.81,24,13.6,47.93t13.65,47.69v.05q3.34,11.71,6.68,23.43l2.09-.59Q77,352.15,73.58,340Z" style="fill:#9dbf5c"/><path d="M27.35,189.33l4.13-.09A1.51,1.51,0,0,0,32.82,188c.2-.63.38-1.27.52-1.91a2.29,2.29,0,0,0,.1-.23c.26-.72.49-1.43.8-2.13.6-1.36,1.3-2.68,2-4,1.51-2.76,3.14-5.48,4.9-8.09.67-1-.14-2.66-1.48-2.11-2,.83-4,1.77-6,2.79q.86-5.1,1.68-10.2c.18-1.15-1.24-2.27-2.24-1.43a25.06,25.06,0,0,0-7.27,27.63A1.53,1.53,0,0,0,27.35,189.33Z" style="fill:#9dc05c"/><path d="M26.24,191.47,23,192.88a1.32,1.32,0,0,1-1.49-.47c-.38-.43-.75-.87-1.09-1.32l-.16-.15c-.46-.47-.9-.95-1.39-1.38-1-.86-2-1.65-3-2.42-2.17-1.63-4.42-3.18-6.74-4.6-.89-.55-.84-2.14.41-2.19,1.9-.07,3.81,0,5.71.05q-2.49-3.71-5-7.42c-.55-.83.16-2.22,1.25-1.92a21.62,21.62,0,0,1,15.59,19.11A1.32,1.32,0,0,1,26.24,191.47Z" style="fill:#9dc05c"/><path d="M45,244.87c10-4.25,23.68-34.59,20.73-41s-31.95-20.09-39.6-18.37-22.4,32.61-20,38.71S38.52,247.62,45,244.87Z" style="fill:#689047"/><path d="M40.8,227.92c2,1.29,4,2.6,6,3.86l3.2,2c1.3.81,2.49,1.67,4,1a2.91,2.91,0,0,0,1-.69,1.53,1.53,0,0,0,1.16-.61,28,28,0,0,0,4.31-7.59c.58-1.39,1.1-2.82,1.55-4.27s1.13-3.17.6-4.72-2.33-2.33-3.68-3a28.5,28.5,0,0,0-4.3-1.75,14.3,14.3,0,0,0-4.38-.93c-2,.07-3,2-4,3.4-2.31,3-4.44,6.24-6.64,9.37C38.79,225.3,39.65,227.17,40.8,227.92Z" style="fill:#9dc05c"/><path d="M33.2,206.7a54.68,54.68,0,0,1,12.62,5.35A2.62,2.62,0,0,0,49.21,211a1.58,1.58,0,0,0,.8-.86A98.23,98.23,0,0,0,54,197.37a4.14,4.14,0,0,0,0-3.17,6.51,6.51,0,0,0-2.44-2A24.1,24.1,0,0,0,46.05,190a19.46,19.46,0,0,0-2.64-.61c-1.13-.19-2.8-.6-3.86,0a5.6,5.6,0,0,0-1.35,1.48c-.34.42-.68.83-1,1.27-.65.9-1.28,1.83-1.89,2.77-1.19,1.82-2.29,3.68-3.32,5.58a8.67,8.67,0,0,0-1.4,3.28C30.53,205.32,31.72,206.26,33.2,206.7Z" style="fill:#9dc05c"/><path d="M17.11,234.67c3.16,2.27,9.41,6,13.41,6.14,1.9.05,2.63-1.42,3.27-2.9.35-.8.73-1.59,1.09-2.38l2.46-3.65,1.83-2.7c.62-.93,1.38-1.84,1.2-3-.23-1.45-1.42-2-2.67-2.43-.48-.17-1-.32-1.44-.48C32.64,221.58,29,220,25.49,218.1a1.73,1.73,0,0,0-2,.31,37.59,37.59,0,0,0-6.79,10.27,11.81,11.81,0,0,0-1.11,2.83A3.15,3.15,0,0,0,17.11,234.67Z" style="fill:#9dc05c"/><path d="M11,210.61l3.19,2.26c3.21,2.27,9.62,9.14,12.42,2.57.46-1.09,1-2.17,1.48-3.23,1-1.93,2.12-3.74,3.08-5.65,1-2.13-1.86-3.41-3.33-4.32a46.27,46.27,0,0,0-5.61-3q-1.38-.6-2.79-1.14a10,10,0,0,0-3.28-.95,2.66,2.66,0,0,0-2.32,1.65c-.53,1-1,2-1.46,3a48.91,48.91,0,0,0-2.23,6.06A2.21,2.21,0,0,0,11,210.61Z" style="fill:#9dc05c"/><path d="M38.54,242a6.55,6.55,0,0,0,2.12,1.31,8.73,8.73,0,0,0,2.2.53.73.73,0,0,0,.67-.39.83.83,0,0,0,.07-.56v0a.77.77,0,0,0-.55-.54l-.49-.14-.23-.08-.09,0a8.16,8.16,0,0,1-.89-.44c-.28-.16-.57-.32-.84-.51l-.16-.11-.08-.06-.2-.17-.23-.17a1,1,0,0,0-1.14-.12,1,1,0,0,0-.42.58A.91.91,0,0,0,38.54,242Z" style="fill:#9dc05c"/><path d="M39.86,240.63h0C40.05,240.78,39.9,240.66,39.86,240.63Z" style="fill:#d0db85"/><path d="M39.83,240.61h0Z" style="fill:#d0db85"/><path d="M38,238.76a1.09,1.09,0,0,0,.52.4,1.06,1.06,0,0,0,.25.09h.09l.21,0c.33.05.66.06,1,.08a.8.8,0,0,0,.57-.24.78.78,0,0,0,.21-.45.81.81,0,0,0-.1-.51.79.79,0,0,0-.48-.36l-.42-.05a5.41,5.41,0,0,0-.58-.07,2.18,2.18,0,0,0-.57,0,1.3,1.3,0,0,0-.6.29.7.7,0,0,0-.17.37A.63.63,0,0,0,38,238.76Z" style="fill:#9dc05c"/><path d="M10.76,225.58A2.83,2.83,0,0,0,12,226.86a2.61,2.61,0,0,0,.71.3,2.15,2.15,0,0,0,.76,0,.69.69,0,0,0,.42-.15.63.63,0,0,0,.24-.36.72.72,0,0,0-.33-.78l-.15-.1.15.11a3.37,3.37,0,0,0-.38-.28l-.27-.18.18.14-.45-.31a3.59,3.59,0,0,1-.36-.32l-.18-.18a1.83,1.83,0,0,0-.26-.21,1.08,1.08,0,0,0-.47-.11.59.59,0,0,0-.5.05.62.62,0,0,0-.29.51v0A.75.75,0,0,0,10.76,225.58Z" style="fill:#9dc05c"/><path d="M59.51,201.69a1,1,0,0,0,.56.42h0a7.86,7.86,0,0,1,1.19.61c.19.12.36.27.56.37a4.09,4.09,0,0,0,.75.31.59.59,0,0,0,.71-.73,1.71,1.71,0,0,0-.23-.47,2.72,2.72,0,0,0-.34-.42,3.79,3.79,0,0,0-.45-.34l-.35-.23c-.23-.14-.46-.27-.7-.39l-.38-.18a1.24,1.24,0,0,0-.9-.15A.81.81,0,0,0,59.51,201.69Z" style="fill:#9dc05c"/><path d="M56.77,203.2a1.21,1.21,0,0,0,.21.25,1.49,1.49,0,0,0,.38.28q.24.14.48.24l.44.16a1.77,1.77,0,0,0,.46.07l.27,0a1.05,1.05,0,0,0,.57-.19.77.77,0,0,0,.33-.44.71.71,0,0,0-.09-.55,1.12,1.12,0,0,0-.39-.39l-.23-.1a2.93,2.93,0,0,0-.4-.19l-.11,0-.42-.2a3.89,3.89,0,0,0-.42-.19.72.72,0,0,0-.33-.06,1.15,1.15,0,0,0-.26,0,.62.62,0,0,0-.22.1.44.44,0,0,0-.38.45s0,0,0,.08A.91.91,0,0,0,56.77,203.2Z" style="fill:#9dc05c"/><path d="M24.49,190.37h0a.73.73,0,0,0,.2.26l.11.1a1.26,1.26,0,0,0,.53.32l.29,0,.35.06a1.93,1.93,0,0,0,.43.09h.22a1,1,0,0,0,.47-.14.87.87,0,0,0,.36-.44.9.9,0,0,0,.06-.46.85.85,0,0,0-.27-.53,2.88,2.88,0,0,0-.34-.27,1.52,1.52,0,0,0-.42-.16,4,4,0,0,0-.59-.1,1.78,1.78,0,0,0-.46,0,1.26,1.26,0,0,0-.65.35l-.13.1-.06.06a.62.62,0,0,0-.16.35l0,0A.3.3,0,0,0,24.49,190.37Z" style="fill:#9dc05c"/><path d="M14.87,174.31a1.27,1.27,0,0,0,.26.43c.06.08.13.15.19.22a11.84,11.84,0,0,0,.92.81l1.85,1.61a.69.69,0,0,0,.95-1l-1.71-1.7c-.28-.28-.54-.58-.84-.83a2.43,2.43,0,0,0-.67-.44c-.09,0-.18-.07-.27-.09a.57.57,0,0,0-.22,0l-.24,0c-.16,0-.36.16-.33.33a.07.07,0,0,0,0,.05A.92.92,0,0,0,14.87,174.31Z" style="fill:#d0db85"/><path d="M13.28,175.09l.2.16a1.72,1.72,0,0,0,.35.25l.24.11.16.06a.43.43,0,0,0,.25,0h.1l.1,0a.39.39,0,0,0,.38-.14.38.38,0,0,0,0-.41l0-.08a.14.14,0,0,1,0-.06V175a.34.34,0,0,0,0-.17.49.49,0,0,0-.14-.21l-.17-.21a1.64,1.64,0,0,0-.33-.26l-.22-.16a.53.53,0,0,0-.25-.12.67.67,0,0,0-.42,0l-.16.07a.58.58,0,0,0-.18.17.47.47,0,0,0-.08.14.59.59,0,0,0,0,.23A.76.76,0,0,0,13.28,175.09Z" style="fill:#d0db85"/><path d="M30,167.65a1.11,1.11,0,0,0,.12.27.74.74,0,0,1,0,.14.2.2,0,0,0,.33.08l.13-.12.18-.12a.79.79,0,0,0,.28-.18l.15-.16a1.66,1.66,0,0,0,.33-.56,7.28,7.28,0,0,1,.48-.92c.08-.15.18-.29.27-.43l.06-.07h0l.16-.21a6.3,6.3,0,0,0,.37-.53.92.92,0,0,0,.19-.72.35.35,0,0,0-.35-.41.66.66,0,0,0-.44,0,1.38,1.38,0,0,0-.34.18,2.29,2.29,0,0,0-.52.41,8,8,0,0,0-.77,1,7.21,7.21,0,0,0-.55.92A1.63,1.63,0,0,0,30,167.65Z" style="fill:#d0db85"/><path d="M30.59,170.52a.21.21,0,0,0,.35.08l.19-.18a.81.81,0,0,0,.12-.14v0h0l0,0a1.89,1.89,0,0,1,.2-.2,2.16,2.16,0,0,0,.21-.29,2.6,2.6,0,0,0,.25-.33c.06-.11.13-.21.19-.31s.24-.42.38-.62a.52.52,0,0,0-.09-.6.51.51,0,0,0-.6-.06,2.22,2.22,0,0,0-.67.46,2.62,2.62,0,0,0-.22.25,1.57,1.57,0,0,0-.19.26,1.11,1.11,0,0,0-.07.16c-.06.15-.12.29-.17.44a1.64,1.64,0,0,0,0,.44,1.86,1.86,0,0,0,0,.41C30.52,170.32,30.56,170.42,30.59,170.52Z" style="fill:#d0db85"/><path d="M55.29,231.45l.21-.07a1.34,1.34,0,0,0,.37-.25,2.41,2.41,0,0,0,.41-.54l.62-1,.29-.46a3.64,3.64,0,0,0,.32-.62,2.38,2.38,0,0,0,.14-.54,1.15,1.15,0,0,0,0-.41.75.75,0,0,0-.07-.12c-.06-.08-.08-.1,0-.06s0,0,0,0a.19.19,0,0,0-.18-.1h0a.59.59,0,0,0-.23,0,.86.86,0,0,0-.28.11,2.27,2.27,0,0,0-.49.44,6.88,6.88,0,0,0-.67,1.07l-.55,1a2.65,2.65,0,0,0-.27.62,1.15,1.15,0,0,0-.06.37c0,.1,0,.2.06.3A.37.37,0,0,0,55.29,231.45Z" style="fill:#d0db85"/><path d="M54.25,228.52a.46.46,0,0,0,.21.18.45.45,0,0,0,.55-.2c0-.06.09-.12.13-.19l.26-.27a1.42,1.42,0,0,0,.2-.28l.07-.1.16-.2A.69.69,0,0,0,56,227a.62.62,0,0,0-.19-.45.64.64,0,0,0-.45-.18.66.66,0,0,0-.46.19l-.32.42a1.53,1.53,0,0,0-.25.45c0,.12-.05.24-.07.35a2.66,2.66,0,0,0-.07.39A.45.45,0,0,0,54.25,228.52Z" style="fill:#d0db85"/><path d="M28.08,237.79a.63.63,0,0,0,.34.23.78.78,0,0,0,.34,0,.67.67,0,0,0,.39-.31,1.88,1.88,0,0,1,.12-.18.6.6,0,0,0,.09-.13c0-.08.07-.17.11-.26l-.08.18a3.05,3.05,0,0,1,.34-.61l-.05.07a.75.75,0,0,0,.17-.32l0-.19,0-.2-.08-.19a.64.64,0,0,0-.2-.2.61.61,0,0,0-.35-.14.34.34,0,0,0-.2,0,.71.71,0,0,0-.28.09h0l-.15.12,0,0-.05.07-.2.27a2.75,2.75,0,0,0-.17.29.61.61,0,0,1-.07.14l-.06.16a.54.54,0,0,0,0,.21s0,.09,0,.14,0,.21,0,.32A.66.66,0,0,0,28.08,237.79Z" style="fill:#d0db85"/><path d="M40.39,197.06a.53.53,0,0,0,.58,0,2.16,2.16,0,0,0,.73-.5,4.15,4.15,0,0,0,.55-.79,6.79,6.79,0,0,0,.39-.87l.14-.36a1.41,1.41,0,0,0,0-.58.74.74,0,0,0-.38-.64h0a.42.42,0,0,0-.42-.08c-.63,0-.81.76-1,1.29-.13.3-.29.58-.43.87a5.28,5.28,0,0,0-.27.6c0,.16-.08.33-.13.49A.53.53,0,0,0,40.39,197.06Z" style="fill:#d0db85"/><path d="M38.07,195.57l0,.05a2.27,2.27,0,0,0,.18.25.88.88,0,0,0,.33.18.7.7,0,0,0,.38,0,.79.79,0,0,0,.33-.19.83.83,0,0,0,.17-.32l-.05.14a.27.27,0,0,1,.06-.12.57.57,0,0,0,.11-.26.7.7,0,0,0,0-.14.43.43,0,0,1,0-.11.69.69,0,0,0,0-.32.65.65,0,0,0-.11-.32l-.13-.16a.65.65,0,0,0-.27-.17.46.46,0,0,0-.21,0,.58.58,0,0,0-.32,0l-.21.09a.76.76,0,0,0-.29.3,1.48,1.48,0,0,0-.14.32l0,.07v0a.25.25,0,0,0,0,.12.56.56,0,0,0,0,.34A2,2,0,0,0,38.07,195.57Z" style="fill:#d0db85"/><path d="M14.55,206.8a.47.47,0,0,0,.39.22.44.44,0,0,0,.39-.23l.07-.1-.08.11c.06-.09.12-.17.17-.26l.08-.12.06-.08a1.8,1.8,0,0,0,.08-.21c.06-.12.13-.24.2-.36a1.28,1.28,0,0,0,.23-.29l.07-.14a.55.55,0,0,0,.09-.37.64.64,0,0,1,0-.07v0a.25.25,0,0,0-.15-.36h-.05a.59.59,0,0,0-.14-.06h0l-.13-.05a.6.6,0,0,0-.35,0l-.11,0a1.22,1.22,0,0,0-.48.3,3.12,3.12,0,0,0-.39.56,1.38,1.38,0,0,0-.21.79A1.4,1.4,0,0,0,14.55,206.8Z" style="fill:#d0db85"/><path d="M291.05,210.68c-9.75-1.88-35.9-13.75-32.54-65.84A15.57,15.57,0,0,1,254,125.38c5.65-12.29,21.68-7.86,21.68-7.86s-7.17-8.41.21-16.41,27,4.78,27,4.78-5.5-7.6,4.14-11.56,27.69,13.51,30.38,21.27c0,0,20,6.14,20.92,37.15,1,33.61-18.48,53-35.27,56.47A107.27,107.27,0,0,1,291.05,210.68Z" style="fill:#542f33"/><path d="M358.41,152.75a61,61,0,0,0-1.51-12c-.14.65-.28,1.29-.45,1.93-1,3.79-2.95,7.75-6.59,9.22s-7.93-.1-10.63-2.92-4-6.67-4.92-10.47a62.64,62.64,0,0,1-11.85,4c-2,.45-4.16.78-5.95-.19s-2.59-3.79-1-5A68.07,68.07,0,0,1,302,141.92c-1.95.44-4.08.78-5.88-.11-2.87-1.42-3.5-5.16-3.78-8.35L270.42,149c-3.42,2.42-7.19,4.95-11.37,4.71a6.1,6.1,0,0,1-.83-.11c0,44.65,23.65,55.29,32.83,57a107.06,107.06,0,0,0,32.09-1.45C339.93,205.73,359.45,186.36,358.41,152.75Z" style="fill:#432528"/><path d="M286.81,222.18c-5.68,1.12-31.51,9-42.7,20.31s-18.86,48-20.09,60.35L250.2,316s-5.52,62.88-9.11,77.35c0,0,84.16,12.13,124.11-14.44,0,0-9.63-31.46-9.89-51.93l24.49-13.6c-1-22.68-8.72-60.89-18.29-70.84s-39.32-16.38-39.32-16.38-24.35-5.56-26.54-5.18S286.81,222.18,286.81,222.18Z" style="fill:#fff"/><path d="M290,201.61l-3.2,20.57s13.26,14.51,35.38,4l-2.44-28.32Z" style="fill:#ffc2a2"/><path d="M318.76,276.59a16.53,16.53,0,0,1-7.31-8.89c-1.4-4.09-1.45-17.41-2.74-21.37s-4.66-3.49-5-1-3.27,26-2.61,32.13,8.23,15.65,8.23,15.65Z" style="fill:#ffc2a2"/><path d="M319.63,274.64c-4-2.21-14.25,16.5-12.65,19.34.5.9,35.71,35.66,51,39.19s25.93-13.81,21.12-23.2C376.19,304.28,328.41,279.53,319.63,274.64Z" style="fill:#fff"/><path d="M285.48,273.79a16,16,0,0,0,7.93-7.69c1.83-3.78,3.59-16.67,5.29-20.34s4.78-2.8,4.78-.33-.31,25.54-1.72,31.44S292.11,291,292.11,291Z" style="fill:#ffc2a2"/><path d="M285.45,271.59c4-1.64,11.09,17.75,9.24,20.31-.58.8-37.71,30-52.36,31.52S220,306.8,225.72,298.31C229.16,293.17,276.67,275.21,285.45,271.59Z" style="fill:#fff"/><path d="M288.22,213.1c2.84,2.32,6.57,3.66,10.14,4.76,5.62,1.74,11.39,3.26,17.28,3.34a31.88,31.88,0,0,0,6.08-.52l-1.94-22.49-30.91,10.75Z" style="fill:#de9a7e"/><path d="M339.08,167.29s8.28,1.05,7.69,8.76c-.85,11-9.85,11-9.85,11s-6.92,32.25-34.63,28.69-28.45-33.51-28.45-33.51-8.88-1.58-8.2-9.61c.8-9.52,8-9.69,8-9.69a137,137,0,0,1,13.7-15.42s-2.51,4.61.86,6.91,15.49-4.24,15.49-4.24-1.72,4.36,1.69,5.84,18.46-6.36,18.46-6.36S330.65,165.67,339.08,167.29Z" style="fill:#ffc2a2"/><path d="M341.53,176.65v-.07s0-.18,0-.2,0-.13,0-.2a4.13,4.13,0,0,1,.15-.5c.05-.15.11-.3.17-.45s0,0,0,0a2.53,2.53,0,0,1,.13-.22,4,4,0,0,1,.27-.44l.12-.17,0,0,0,0a5.51,5.51,0,0,1,.75-.7,1.29,1.29,0,0,0-1.5-2.07,7.28,7.28,0,0,0-2.08,9.64,1.52,1.52,0,0,0,1.66.74,2.9,2.9,0,0,0,1.81-1.68,2.75,2.75,0,0,0,0-2.16A2.64,2.64,0,0,0,341.53,176.65Z" style="fill:#de9a7e"/><path d="M273.58,174.09a6.94,6.94,0,0,0-1.15-3.5,8.27,8.27,0,0,0-1.32-1.57c-.62-.55-1.35-1.21-2.24-1a1,1,0,0,0-.71,1.17,1.48,1.48,0,0,0,.59.88l.07.06.28.26c.14.13.27.28.4.42l.18.23h0l.06.09a6.4,6.4,0,0,1,.59,1s0,.07,0,.11l0,.09-.25.1a2.78,2.78,0,0,0-1.33,1,2.39,2.39,0,0,0-.13,2.41,2.52,2.52,0,0,0,2.14,1.31,2.67,2.67,0,0,0,2.2-1.11A3.23,3.23,0,0,0,273.58,174.09Z" style="fill:#de9a7e"/><path d="M337.49,115.6c-2.69-7.76-20.73-25.23-30.38-21.27S303,105.89,303,105.89s-19.66-12.78-27-4.78-.21,16.41-.21,16.41-16-4.43-21.68,7.86a16.21,16.21,0,0,0-1.49,9.85,16.7,16.7,0,0,1,8.69-10.33c6.07-3,13.16-2.84,19.9-2.42a23.35,23.35,0,0,1-3.13-6.62,7.87,7.87,0,0,1,1.33-6.94c2.8-3.21,7.92-2.44,12-1.16a108.56,108.56,0,0,1,14.44,5.7,8.23,8.23,0,0,1,1.41-8.72,9.2,9.2,0,0,1,8.51-2.74c3.29.65,6,2.94,8.33,5.33a61.28,61.28,0,0,1,6.12,7.33,16.89,16.89,0,0,0,2.81,3.37,17.33,17.33,0,0,0,5.21,2.51,49.85,49.85,0,0,1,13.94,8C345.92,118.2,337.49,115.6,337.49,115.6Z" style="fill:#723f46"/><path d="M336.67,166.43c-7.29-3.72-12.87-16.75-12.87-16.75s-15.06,7.83-18.46,6.36-1.69-5.84-1.69-5.84-12.11,6.54-15.49,4.24-.86-6.91-.86-6.91a141.93,141.93,0,0,0-13.46,15.09A40.58,40.58,0,0,0,284,155.18c1.51,2.62,5.22,2.82,8.16,2.15a24.33,24.33,0,0,0,8.39-3.67,7.73,7.73,0,0,0,6.19,6,12.13,12.13,0,0,0,5.82-.81,59.71,59.71,0,0,0,9.92-4.89c1.3,4,4.77,7,8.29,9.37A22.84,22.84,0,0,0,336.67,166.43Z" style="fill:#de9a7e"/><path d="M329.66,129.87c-1.51-.88-3.69.46-5.22.79-2.46.54-6.92.13-7.24-3.21a1.83,1.83,0,0,0-2.65-1.62,70.32,70.32,0,0,1-11.39,4.26c-1.42.35-3.6.58-4.46-1s-.38-3.21-1.24-4.68a1.52,1.52,0,0,0-2-.6q-6.69,4.46-13.67,8.45c-2.28,1.31-4.58,2.6-6.86,3.91a40,40,0,0,0-6.54,4.12c-.31.27,0,.72.35.66a30.34,30.34,0,0,0,7.3-2.74c2.4-1.11,4.73-2.31,7.05-3.57,4.17-2.28,8.25-4.71,12.28-7.23.24,1.37.16,2.8,1.18,4a6.55,6.55,0,0,0,5.54,2.12,28.55,28.55,0,0,0,7-1.81c1.78-.6,3.52-1.28,5.26-2a8.14,8.14,0,0,0,4.62,4.21,10.49,10.49,0,0,0,4.94.51,14.34,14.34,0,0,0,5.39-1.48C330.34,132.38,331,130.66,329.66,129.87Z" style="fill:#723f46"/><path d="M350.13,143.64a18.14,18.14,0,0,1-4.09-2,16.72,16.72,0,0,1-2-1.24,17.15,17.15,0,0,1-1.36-1.27,25.07,25.07,0,0,1-4.49-7.06,1,1,0,0,0-1.84.71,21.19,21.19,0,0,0,4.13,8.85,10.55,10.55,0,0,0,4.2,3,8.42,8.42,0,0,0,5.43-.16A.43.43,0,0,0,350.13,143.64Z" style="fill:#723f46"/><path d="M350,137.81s.05,0,.05,0l-.05,0Z" style="fill:#723f46"/><path d="M350.29,137l-.26-.1h0l-.05-.07a1.43,1.43,0,0,0-.55-.38l-.14-.09-.14-.12a4.83,4.83,0,0,0-.64-.44l-1-.63-.53-.35-.18-.15-.07-.06c-.14-.13-.27-.24-.42-.36.28.23,0,0,0,0a5.44,5.44,0,0,1-.42-.41,6.14,6.14,0,0,1-.42-.47c0-.06-.06-.08-.06-.09l0,0a3.17,3.17,0,0,0-.28-.34,3.19,3.19,0,0,1-.33-.4l-.1-.13-.15-.25a2.23,2.23,0,0,0-.44-.47l-.24-.16s-.12-.14-.14-.15a.23.23,0,0,0-.36,0c0,.06-.2.35,0,.12a1,1,0,0,0-.26.32,1.44,1.44,0,0,0-.19.7,6.63,6.63,0,0,0,.23,1.46,4.73,4.73,0,0,0,.68,1.39,6.41,6.41,0,0,0,1,1.21,6.28,6.28,0,0,0,2.73,1.58,3.19,3.19,0,0,0,1.11.08l.25,0c.11,0,.11,0,0,0l.34,0a1.47,1.47,0,0,0,.75-.28l.05,0h0l.05,0,.27-.08A.36.36,0,0,0,350.29,137Z" style="fill:#723f46"/><path d="M331.63,124.75a16.59,16.59,0,0,1-8.76-2.77,10.39,10.39,0,0,1-2.82-3.39c-.73-1.28-1.77-2.41-3.38-2.18s-3,1.48-4.47,2.1a17.72,17.72,0,0,1-5.72,1.41,12.63,12.63,0,0,1-9.85-3.46,1.39,1.39,0,0,0-1.9-.06,75.1,75.1,0,0,1-13.33,8.28c-2.36,1.14-4.77,2.13-7.23,3-1.24.46-2.48.91-3.73,1.32a20.71,20.71,0,0,0-3.47,1.23.79.79,0,0,0,.35,1.48c2.5,0,5.29-1,7.64-1.83a74.91,74.91,0,0,0,7.62-3.08,78.29,78.29,0,0,0,13-7.74c5.65,5,13.9,4.27,20.25.82.27-.15.83-.65,1.15-.6s.49.47.68.82a13.82,13.82,0,0,0,1.4,2.14,12.32,12.32,0,0,0,3.67,3,8.83,8.83,0,0,0,9.1.12A.36.36,0,0,0,331.63,124.75Z" style="fill:#723f46"/><path d="M304.44,246.21c-.12-.59-.91-.41-1,.11-.39,2.73-.09,5.67-.19,8.43-.1,2.91-.29,5.81-.6,8.71s-.67,5.6-1.08,8.38c-.38,2.62-1.37,5.56-.69,8.15a.3.3,0,0,0,.54.09c1.58-2.14,1.64-5.32,2-7.9.4-2.89.65-5.77.83-8.67s.32-5.81.37-8.72S305,249,304.44,246.21Z" style="fill:#de9a7e"/><path d="M293.92,283.8c-1.16-4.69-3.28-9.46-6.91-12.76-.61-.55-1.32-1.27-2.17-1.07a1.53,1.53,0,0,1-.25-.06c-.22-.08-.38.15-.36.34,0,0,0,.05,0,.08a.86.86,0,0,0-.14.18c-1.59.74-3.11,1.67-4.66,2.48q-2.64,1.39-5.32,2.73c-3.56,1.79-7.16,3.49-10.78,5.16q-3,1.38-6,2.68l0-.33c.08-1.07.17-2.13.27-3.19.19-2.12.45-4.24.63-6.36s.36-4.23.57-6.35c.1-1.06.21-2.11.31-3.17a6.9,6.9,0,0,0,0-2.79.27.27,0,0,0-.48-.08,6.65,6.65,0,0,0-.81,2.66c-.19.89-.35,1.78-.52,2.68-.34,1.95-.68,3.9-1,5.86s-.53,3.93-.74,5.9a45.79,45.79,0,0,1-.61,5.87,1.51,1.51,0,0,0,0,.3l-2.62,1.12-5.27,2.16a36.06,36.06,0,0,0-5.69,2.49.41.41,0,0,0,.29.75,28.77,28.77,0,0,0,5.7-1.72c1.88-.66,3.74-1.35,5.6-2.07q5.55-2.16,11-4.53c3.66-1.59,7.27-3.29,10.86-5A101.88,101.88,0,0,0,285,272.53c.41.38.88.73,1.18,1.05a18.65,18.65,0,0,1,2.32,3.13,27.59,27.59,0,0,1,2.85,7.06c.63,2.38,1.48,5.37,1.16,7.84s-3.46,4.42-5.35,5.91q-3.5,2.76-7.12,5.33a184.58,184.58,0,0,1-16.91,10.57q-4.25,2.37-8.59,4.53c-2.87,1.42-6.11,2.61-8.63,4.6-.32.26,0,.67.34.63,2.83-.32,5.56-1.7,8.15-2.82s5.42-2.52,8.07-3.89a154.93,154.93,0,0,0,14.94-8.87,160.78,160.78,0,0,0,14.17-10.47c1.87-1.58,3.35-3.39,3.45-5.93A28.17,28.17,0,0,0,293.92,283.8Z" style="fill:#c8d2db"/><path d="M360.9,294.05c-1.3-1.12-3.26-1.5-4.85-2.11-1.3-.5-2.58-1-3.86-1.54-.08-.57-.21-1.14-.33-1.73-.24-1.27-.5-2.54-.77-3.81-.55-2.62-1.16-5.22-1.83-7.82s-1.35-5-2.11-7.47-1.29-5.06-2.48-7.23c-.23-.42-1-.3-1,.23a50.66,50.66,0,0,0,1.56,7.17c.58,2.52,1.12,5.06,1.65,7.59s1,5.07,1.53,7.61c.24,1.27.48,2.54.71,3.82l.06.4q-4.7-2-9.27-4.25c-3.61-1.78-7.15-3.69-10.66-5.68-1.92-1.09-4-1.86-5.9-3.06-2-1.33-3.13-4-5.67-2.56a13.24,13.24,0,0,0-2.89,3,39.64,39.64,0,0,0-3.63,4.91,36.35,36.35,0,0,0-2.71,5.31,22,22,0,0,0-1.8,5.85.89.89,0,0,0,1.11,1,.78.78,0,0,0,.05.14c4.7,8.89,12.92,15.73,20.9,21.59,4.54,3.33,9.22,6.48,13.95,9.54q3.72,2.42,7.52,4.73,1.89,1.15,3.81,2.29c1.11.66,2,1.29,3.35,1.12.65-.09.78-.85.59-1.34-.51-1.24-1.86-1.77-3-2.41-1.27-.75-2.55-1.51-3.81-2.28-2.38-1.44-4.73-2.91-7.07-4.4-4.54-2.91-9-5.91-13.4-9.05a126.93,126.93,0,0,1-11.54-9.15,72.71,72.71,0,0,1-10-11.35.77.77,0,0,0-.45-.3c.63-1.7,1-3.5,1.68-5.19a38.81,38.81,0,0,1,2.56-5.17,37.32,37.32,0,0,1,3.16-4.55c.8-1,1.73-1.88,2.59-2.82a.57.57,0,0,0,.11.11,154.66,154.66,0,0,0,20.12,11.91q5.08,2.55,10.31,4.79l.78.32a.73.73,0,0,0,.05.09,1.29,1.29,0,0,0,1.41.51c1,.43,2.07.87,3.11,1.28,1.66.66,3.71,1.86,5.51,1.82C360.93,295.84,361.66,294.7,360.9,294.05Z" style="fill:#c8d2db"/><path d="M326.28,229.35a7.53,7.53,0,0,0-.86-1.92,2.41,2.41,0,0,0-1.83-1.32,1,1,0,0,0-.66.07,1.34,1.34,0,0,0-.15-.77l-.12-.21a1.17,1.17,0,0,0-1.57-.46c-2.79,1.5-5.39,3.11-8.56,3.72a25.84,25.84,0,0,1-9.72-.16,36.76,36.76,0,0,1-8.75-2.74,30.82,30.82,0,0,1-4-2.27c-.9-.59-1.91-1.72-3-1.69-1.25-1.79-3.92-.52-5,.84-1.47,1.84-1.18,4.35-.17,6.34A14.61,14.61,0,0,0,287,234c2.25,1.47,4.84,2.78,7.58,2.81a14,14,0,0,0,7.14-2.32,15.41,15.41,0,0,0,3.16-2.21l1.92,2.07a20,20,0,0,0,2.91,2.61,9.8,9.8,0,0,0,8.49,1.14c2.73-.75,5.91-1.91,7.42-4.48A5.58,5.58,0,0,0,326.28,229.35Zm-23.72,1.74a37.78,37.78,0,0,1-3.7,2.27,8.8,8.8,0,0,1-7.75.33c-2.67-1.16-5.61-3.08-7.11-5.66-.66-1.14-1.16-2.69-.47-3.93s1.86-1.11,3.09-1.43a.68.68,0,0,0,.22-.12,7.41,7.41,0,0,0,2.37,2.12,35.45,35.45,0,0,0,4.08,2.58,32.41,32.41,0,0,0,9.52,3.52l.19,0Zm19.22,2.4a14,14,0,0,1-3.86,1.8,10.67,10.67,0,0,1-4.58.63c-2.62-.31-4.63-2.32-6.5-4-.2-.18-.45-.44-.73-.71,5.68.52,11.43-.43,16.16-3.93a1.54,1.54,0,0,0,0,.26,2.34,2.34,0,0,0,.32,1.06,7.36,7.36,0,0,1,.84,1.8A3.35,3.35,0,0,1,321.78,233.49Z" style="fill:#c8d2db"/><path d="M305.81,238a2.38,2.38,0,0,0-.23-.63,2,2,0,0,0-1-.94,1.3,1.3,0,0,0-1.67.42,1.22,1.22,0,0,0-.14.33h0a3.22,3.22,0,0,0-.32.41,4.16,4.16,0,0,0-.22.48,3.18,3.18,0,0,0-.1.52,1.87,1.87,0,0,0,0,.53,2,2,0,0,0,.17.47,1.91,1.91,0,0,0,.28.4.2.2,0,0,0,.06.07,2.66,2.66,0,0,0,.31.26,1.87,1.87,0,0,0,.91.28,2.33,2.33,0,0,0,.37,0l.08,0a1.57,1.57,0,0,0,.42-.18,2.41,2.41,0,0,0,.48-.36,1.9,1.9,0,0,0,.4-.57,2.5,2.5,0,0,0,.19-.76A2,2,0,0,0,305.81,238Z" style="fill:#c8d2db"/><path d="M302.3,301.42a2.07,2.07,0,0,0-.27-.63,2.2,2.2,0,0,0-.64-.65,2.11,2.11,0,0,0-.88-.31,1.65,1.65,0,0,0-1.3.43l-.33.23-.12.12a2.51,2.51,0,0,0-.32.41,2.86,2.86,0,0,0-.22.47,2.28,2.28,0,0,0-.1.52.61.61,0,0,0,0,.19,1.92,1.92,0,0,0,.06.53,2.16,2.16,0,0,0,.49.89,1.92,1.92,0,0,0,.88.54,2.1,2.1,0,0,0,.71.09,2.52,2.52,0,0,0,1-.24,1.74,1.74,0,0,0,.54-.39,2.23,2.23,0,0,0,.49-.81,2.69,2.69,0,0,0,.11-.69A2.06,2.06,0,0,0,302.3,301.42Z" style="fill:#c8d2db"/><path d="M301.3,336.09a2.07,2.07,0,0,0-.27-.63,2.2,2.2,0,0,0-.64-.65,2.11,2.11,0,0,0-.88-.31,1.65,1.65,0,0,0-1.3.43l-.33.24-.12.11a2.51,2.51,0,0,0-.32.41,2.86,2.86,0,0,0-.22.47,2.28,2.28,0,0,0-.1.52.61.61,0,0,0,0,.19,2.39,2.39,0,0,0,.06.53,2.29,2.29,0,0,0,.49.89,1.92,1.92,0,0,0,.88.54,2.1,2.1,0,0,0,.71.09,2.52,2.52,0,0,0,1-.24,1.74,1.74,0,0,0,.54-.39,2.1,2.1,0,0,0,.49-.81,2.69,2.69,0,0,0,.11-.69A2.06,2.06,0,0,0,301.3,336.09Z" style="fill:#c8d2db"/><path d="M300.3,370.76a1.92,1.92,0,0,0-.27-.62,2.23,2.23,0,0,0-.64-.66,2,2,0,0,0-.88-.3,1.58,1.58,0,0,0-1.29.42,4.15,4.15,0,0,0-.34.24l-.12.11a2.51,2.51,0,0,0-.32.41,2.86,2.86,0,0,0-.22.47,3,3,0,0,0-.1.52.61.61,0,0,0,0,.19,2.39,2.39,0,0,0,.06.53,2.29,2.29,0,0,0,.49.89,1.92,1.92,0,0,0,.88.54,2.1,2.1,0,0,0,.71.09,2.35,2.35,0,0,0,1-.24,1.74,1.74,0,0,0,.54-.39,2.1,2.1,0,0,0,.49-.81,2.31,2.31,0,0,0,.11-.69A2.06,2.06,0,0,0,300.3,370.76Z" style="fill:#c8d2db"/><path d="M295.26,165.57a2.19,2.19,0,0,0-.88-1.19,5.75,5.75,0,0,0-.65-.34,11.39,11.39,0,0,0-1.48-.64,7,7,0,0,0-3.13-.34,5,5,0,0,0-2.5,1.09,3.73,3.73,0,0,0-.88,1,1.33,1.33,0,0,0,.91,2.05,1.68,1.68,0,0,0,1.29-.58,1.22,1.22,0,0,1,.17-.15,2.53,2.53,0,0,1,.36-.2l.18-.07h0l.41-.1.24,0h0c.14,0,.08,0,0,0l.39,0c.15,0,.29,0,.43,0l.27.06a7.65,7.65,0,0,1,1.05.36h0l.24.12c.18.09.35.19.52.29s.31.19.47.27a2.23,2.23,0,0,0,1.44.22A1.5,1.5,0,0,0,295.26,165.57Z" style="fill:#432528"/><path d="M289.32,166h0Z" style="fill:#432528"/><path d="M320.44,168.7l.09.05-.08-.05Z" style="fill:#432528"/><path d="M322.4,166.35a6,6,0,0,0-2.23-.86,7,7,0,0,0-4.89.83,1.36,1.36,0,0,0,1.3,2.38,2.14,2.14,0,0,0,.43-.21l.19-.06.42-.11.34-.08s0,0,.11,0h.2l.49,0,.32,0c-.06,0-.08,0,.07,0h0l.21,0a6.45,6.45,0,0,1,.85.27l.2.08v0l0,0h0c.14,0,.12.06.06,0l.29.14.41.27.11.09h0a2.16,2.16,0,0,0,1.52.8,1.37,1.37,0,0,0,1.36-1.29C324.39,167.71,323.21,166.84,322.4,166.35Z" style="fill:#432528"/><path d="M319.08,168.29h0Z" style="fill:#432528"/><path d="M293.26,177.67c0-.32,0-.63,0-.94l0-1.89a2.84,2.84,0,0,0-.75-2,2,2,0,0,0-.86-.59,2.1,2.1,0,0,0-1-.27,2.83,2.83,0,0,0-2,.75l-.44.54a2.65,2.65,0,0,0-.41,1.37l-.24,1.62c0,.26-.09.52-.12.79a2.25,2.25,0,0,0,0,.51,2.52,2.52,0,0,0,.07.49c0,.12.08.2.11.29a.57.57,0,0,1,0,.13,2.9,2.9,0,0,0,.09.59l.26.66a2.08,2.08,0,0,0,.68.79,1.52,1.52,0,0,0,.59.37,2,2,0,0,0,1.05.26,3.38,3.38,0,0,0,1.4-.33,3.1,3.1,0,0,0,1.3-1.6A4.29,4.29,0,0,0,293.26,177.67Z" style="fill:#432528"/><path d="M320.49,179.51c0-.31,0-.63,0-.94l0-1.88a2.84,2.84,0,0,0-.75-2,2,2,0,0,0-.86-.59,2.1,2.1,0,0,0-1.05-.26,2.77,2.77,0,0,0-1.95.74l-.44.54a2.67,2.67,0,0,0-.41,1.37l-.24,1.62c0,.26-.09.53-.12.79a2.22,2.22,0,0,0,0,.51,2.52,2.52,0,0,0,.07.49c0,.12.08.21.11.3a.49.49,0,0,1,0,.12,2.9,2.9,0,0,0,.09.59l.26.66a2,2,0,0,0,.68.79,1.32,1.32,0,0,0,.59.37,2.13,2.13,0,0,0,1.05.27,3.25,3.25,0,0,0,1.4-.34,2.05,2.05,0,0,0,.78-.68,2,2,0,0,0,.52-.92A4.27,4.27,0,0,0,320.49,179.51Z" style="fill:#432528"/><path d="M307.88,189.09h0a.32.32,0,0,0-.07-.25.34.34,0,0,0-.14-.08l-.16-.13a1.78,1.78,0,0,0-.36-.14,2.05,2.05,0,0,0-1.37.2h0l-.18.06a4.05,4.05,0,0,1-.47.12l-.39.06c.28,0-.15,0-.23,0-.29,0-.58,0-.88,0l-.48,0-.12,0-.18,0a5.9,5.9,0,0,1-.93-.29,6.86,6.86,0,0,1-1.53-1,.54.54,0,0,0-.8.58,4.93,4.93,0,0,0,2.57,2.55,5.93,5.93,0,0,0,4,.4c.79-.18,1.6-.49,1.83-1.36A1.15,1.15,0,0,0,307.88,189.09Z" style="fill:#de9a7e"/><path d="M299.79,196.73c0,.05,0,.05,0,0Z" style="fill:#fff"/><path d="M307.2,195.24a1.83,1.83,0,0,0-1,0,3,3,0,0,0-.45.18l-.17.07h0l-.18.07-.47.14-.42.09-.2,0a6.93,6.93,0,0,1-.91,0l-.19,0h0l-.18,0-.19-.05c-.3-.07-.58-.2-.88-.28a3.8,3.8,0,0,0-.58-.15,1.32,1.32,0,0,0-.56,0,1.6,1.6,0,0,0-.5,0,.86.86,0,0,0-.59.54,1.08,1.08,0,0,0,.05.79.31.31,0,0,1,0,.12,2.16,2.16,0,0,1,0-.32,2.44,2.44,0,0,0,.05.39,2.17,2.17,0,0,0,1.13,1.25,6.53,6.53,0,0,0,2.45.71,7.09,7.09,0,0,0,2.25-.13c.89-.19,2.27-.67,2.46-1.7A1.4,1.4,0,0,0,307.2,195.24Z" style="fill:#fff"/><path d="M219.3,298.94l-18.81,12.75c-.79,23.88,11,82.49,11,82.49C168.91,406.35,92.79,375.4,92.79,375.4c6.4-22.28,7.71-64.1,7.75-64.49s-28.22-4.05-28.22-4.05c-4.06-16.65,3.07-27.68,2.76-28.75s62.42-25.21,63.14-25.53,73.7,13,73.7,13S219.86,279,219.3,298.94Z" style="fill:#fff"/><path d="M135.88,110.74c-42.3,3.34-47.71,49.6-39.25,78.27s-2.33,54.76-10.71,66.37-14.29,20.39-15.14,29.1c0,0,29.81,17.29,77,9.53s69-24.56,69-24.56-11.32-29.18-21.7-42S185,186,185.89,161.64,165.38,108.4,135.88,110.74Z" style="fill:#9dc05c"/><path d="M109.47,164.85c.87-2.08,27.92-23.85,62.07-9,0,0,8.19,54.54-23.09,57.42C110.92,216.68,109.47,164.85,109.47,164.85Z" style="fill:#ffc2a2"/><path d="M135.39,206.62c-10.2-6.41-16.22-18.11-18.08-30-.49-3.19-.68-6.64.86-9.48a14,14,0,0,1,5-4.82c10.46-6.61,23.39-7.62,35.75-8.24a40,40,0,0,1,8.83.24c-32.35-11.71-57.46,8.53-58.3,10.54,0,0,1.45,51.83,39,48.37a22.32,22.32,0,0,0,9-2.74A30.06,30.06,0,0,1,135.39,206.62Z" style="fill:#de9a7e"/><path d="M133.7,177.84l-.15-.93-.3-1.86a2.83,2.83,0,0,0-1.06-1.8,2.05,2.05,0,0,0-.95-.43,2.09,2.09,0,0,0-1.08-.09,2.82,2.82,0,0,0-1.8,1.07l-.34.61a2.65,2.65,0,0,0-.17,1.42c0,.54,0,1.09,0,1.64,0,.26,0,.53,0,.8a2.43,2.43,0,0,0,.11.49,2,2,0,0,0,.16.47l.16.28s0,.07,0,.12a2.31,2.31,0,0,0,.19.56l.36.61a2.15,2.15,0,0,0,.81.66,1.38,1.38,0,0,0,.65.26,2.08,2.08,0,0,0,1.08.08,3.26,3.26,0,0,0,1.31-.56,2,2,0,0,0,.66-.81,2.09,2.09,0,0,0,.36-1A4.53,4.53,0,0,0,133.7,177.84Z" style="fill:#432528"/><path d="M159.61,174.75l-.15-.93-.3-1.86a2.84,2.84,0,0,0-1.07-1.8,2.11,2.11,0,0,0-1-.43,2,2,0,0,0-1.07-.08,2.71,2.71,0,0,0-1.8,1.07l-.35.6a2.75,2.75,0,0,0-.17,1.42l0,1.64c0,.27,0,.53,0,.8a1.76,1.76,0,0,0,.12.49,2.25,2.25,0,0,0,.16.48c0,.11.1.18.15.27a.56.56,0,0,0,0,.12,2.62,2.62,0,0,0,.18.56l.37.61a2,2,0,0,0,.81.66,1.39,1.39,0,0,0,.65.27,2,2,0,0,0,1.07.08,3.18,3.18,0,0,0,1.32-.57,2.08,2.08,0,0,0,.66-.81,2,2,0,0,0,.35-1A4.54,4.54,0,0,0,159.61,174.75Z" style="fill:#432528"/><path d="M147.79,294c47.19-7.76,69-24.56,69-24.56s-.74-1.91-2-4.95c-15,10.38-34.15,14.45-52.62,15.41-9.32.48-18.86.27-27.7-2.71s-17-9.09-20.64-17.69c-3.82-9.06-2.23-19.34-2.23-29.17,0-14.66-3.7-29-6.62-43.4s-5.09-29.28-2-43.62c2.49-11.7,9.08-23,18.94-29.49C92.46,125.25,89.22,163.88,96.63,189c8.46,28.67-2.33,54.76-10.71,66.37s-14.29,20.39-15.14,29.1C70.78,284.48,100.59,301.77,147.79,294Z" style="fill:#829e4d"/><path d="M131.75,269.56a15.68,15.68,0,0,0,7.45-7.94c1.59-3.77,2.47-16.33,3.94-20s4.61-3,4.79-.61,1.45,24.7.44,30.49-8.75,14.24-8.75,14.24Z" style="fill:#ffc2a2"/><path d="M131.56,267.43c3.89-1.84,12.41,16.46,10.72,19-.53.82-35.93,31.41-50.6,33.77S68.08,305.58,73.22,297C76.33,291.84,123,271.49,131.56,267.43Z" style="fill:#fff"/><path d="M163.33,269a15.15,15.15,0,0,1-7-7.76c-1.49-3.68-2.34-16-3.72-19.52s-4.32-2.94-4.48-.61-1.32,24.12-.36,29.78S156,284.81,156,284.81Z" style="fill:#ffc2a2"/><path d="M163.5,266.92c-3.65-1.79-11.59,16.06-10,18.59.5.79,33.7,30.71,47.43,33s22.07-14.29,17.25-22.66C215.26,290.83,171.55,270.9,163.5,266.92Z" style="fill:#fff"/><path d="M175.62,156.45h0a1,1,0,0,0-.47-.36h0a23.56,23.56,0,0,0-2.27-1.09c-1.16-.57-2.35-1.11-3.55-1.61a59.38,59.38,0,0,0-23-4.43,57.33,57.33,0,0,0-28,7.55c-4.54,2.61-9.26,5.87-12.39,10.12-.49.67.45,1.25,1,.85,3.72-2.68,7.15-5.64,11.15-7.93a60.79,60.79,0,0,1,12.47-5.41,55.8,55.8,0,0,1,28.48-1,57.83,57.83,0,0,1,7.73,2.34c1.37.52,2.73,1.1,4.06,1.74a11.33,11.33,0,0,0,3.56,1.45,1.37,1.37,0,0,0,1.37-1A1.52,1.52,0,0,0,175.62,156.45Z" style="fill:#829e4d"/><path d="M195.07,227.43C184.69,214.59,185,186,185.89,161.64s-20.51-53.24-50-50.9l-.35,0a58.48,58.48,0,0,1,37.81,22.5,39.69,39.69,0,0,1,5,8.66,45.34,45.34,0,0,1,2.78,11.86c1.46,12.3.35,24.75.79,37.12s2.67,25.2,9.9,35.25a21.82,21.82,0,0,0,6.85,6.3A61.74,61.74,0,0,0,195.07,227.43Z" style="fill:#d0db85"/><path d="M143.36,281.9a31.09,31.09,0,0,0-5.58-10.4,19.44,19.44,0,0,0-4.1-4.1c-1.83-1.18-3.86-.16-5.69.5q-3.19,1.16-6.34,2.43c-4.43,1.81-8.79,3.79-13.09,5.9-4.8,2.34-9.52,4.86-14.19,7.43s-9.63,5-13.93,8.12c-.32.23,0,.83.37.69a107.29,107.29,0,0,0,11.56-5.64c3.85-2,7.71-4,11.59-6a223.8,223.8,0,0,1,24-10.64,21,21,0,0,1,3-1.05c1.37-.24,2.06.56,3,1.45a28.28,28.28,0,0,1,3.61,4.4,29.86,29.86,0,0,1,2.62,4.85c.32.76.61,1.53.86,2.32s.9,2.27.69,3.22-1.46,1.68-2.17,2.27l-2.39,2q-2.39,2-4.8,4-4.82,3.94-9.74,7.76c-3.74,2.91-7.58,5.68-11.56,8.26-1.89,1.21-3.79,2.4-5.72,3.53s-3.91,2-5.33,3.7a.46.46,0,0,0,.38.7c2.08-.15,3.73-1.22,5.52-2.24,2-1.16,4-2.37,6-3.63,3.7-2.39,7.3-4.95,10.84-7.56,3.7-2.73,7.28-5.59,10.82-8.5q2.61-2.15,5.19-4.32c1.51-1.27,3.72-2.58,4.77-4.29S143.87,283.53,143.36,281.9Z" style="fill:#c8d2db"/><path d="M208.17,286.12c-1.29-1.44-3.9-1.39-5.67-1.83-1.95-.49-3.86-1.11-5.77-1.74a77.81,77.81,0,0,1-11.88-5.47c-3.78-2-7.54-4.11-11.4-6-1.84-.91-3.72-1.73-5.63-2.5-1.47-.59-3.32-1.63-5-1.65,0,0-.05-.07-.09-.09-1.47-.74-3.18,1.75-3.92,2.74a44.65,44.65,0,0,0-3.49,5.42,45.55,45.55,0,0,0-2.63,5.78c-.37,1-1.27,2.92-.94,4.21a.53.53,0,0,0,0,.65,133.31,133.31,0,0,0,10.32,9.56c3.47,3.07,7,6,10.73,8.83a113.37,113.37,0,0,0,11.68,7.72q3,1.74,6.18,3.26c.92.44,1.86.93,2.82,1.29a7.33,7.33,0,0,0,3.42.2.28.28,0,0,0,.21-.46,9.8,9.8,0,0,0-2.24-2.12c-1-.56-2.14-1-3.18-1.45-2.1-1-4.17-2.1-6.19-3.25-3.91-2.25-7.64-4.76-11.31-7.38s-7.27-5.4-10.81-8.21c-3.31-2.62-6.46-5.5-9.85-8a.6.6,0,0,0,.06-.23h0c0-.36-.13-.67-.15-1a3.83,3.83,0,0,1,.29-1.33c.27-.84.57-1.67.89-2.49a47.61,47.61,0,0,1,5.31-9.83,14.31,14.31,0,0,1,1.6-2,12.44,12.44,0,0,0,1-.93,9.41,9.41,0,0,0,1.75.84c1.09.48,2.18,1,3.26,1.5,2,1,3.92,2,5.86,3.1,3.76,2.05,7.45,4.24,11.22,6.28s7.43,3.84,11.26,5.49a41.54,41.54,0,0,0,6.15,2.07c1.7.43,4.26,1.36,5.86.27A.83.83,0,0,0,208.17,286.12Z" style="fill:#c8d2db"/><path d="M150.3,257.86c-.08-2.81-.21-5.62-.47-8.42-.24-2.6-.26-5.48-1.09-8a.45.45,0,0,0-.88.09c-.28,2.54.21,5.26.32,7.82s.22,4.86.29,7.29.09,4.87.06,7.3a35,35,0,0,1-.9,7.14.89.89,0,0,0,.36,1c2,.95,2.31-5,2.35-6.06C150.45,263.32,150.38,260.58,150.3,257.86Z" style="fill:#de9a7e"/><path d="M134.69,167.71c-.14-1.2-1.9-1.86-2.92-2.1a7.84,7.84,0,0,0-3.2-.11,6.72,6.72,0,0,0-2.81,1.34,4.91,4.91,0,0,0-1.12,1.2,3.75,3.75,0,0,0-.47.91,1.94,1.94,0,0,0,.12,1.42,1.3,1.3,0,0,0,1.76.53,3.63,3.63,0,0,0,1.06-1.21h0l0,0c.08-.07.15-.15.24-.22l.21-.18c.16-.1.33-.19.5-.28l.26-.11a7.3,7.3,0,0,1,1-.25h0l.17,0a3.75,3.75,0,0,1,.58,0c.16,0,.32,0,.48,0h0l.28.07a4.58,4.58,0,0,1,.49.15l.23.1h0a2.55,2.55,0,0,0,1.88.53A1.52,1.52,0,0,0,134.69,167.71Z" style="fill:#432528"/><path d="M160.77,162.78a7.19,7.19,0,0,0-5.75-1.39,6.36,6.36,0,0,0-2.56,1.17,2.56,2.56,0,0,0-1.15,3,1.28,1.28,0,0,0,1.08.68,2.34,2.34,0,0,0,1.44-.61l.36-.29.15-.13a2.21,2.21,0,0,0,.36-.23,2,2,0,0,0,.4-.18l.17,0a4.36,4.36,0,0,1,.52-.11h.13a4.35,4.35,0,0,1,.51,0l.26,0,.49.13a4.56,4.56,0,0,1,.52.18l.08,0,.13.06c.35.18.7.35,1,.55a1.69,1.69,0,0,0,1.71.06,1.59,1.59,0,0,0,.81-1A1.82,1.82,0,0,0,160.77,162.78Z" style="fill:#432528"/><path d="M148.75,184.16a.47.47,0,0,0-.46-.38,1.58,1.58,0,0,0-.82.22,4.66,4.66,0,0,0-.47.3l-.08.06-.12.07a4.37,4.37,0,0,1-.68.35h0l0,0-.22.06a2.62,2.62,0,0,1-.38.09l-.38.07-.18,0h-.06a5,5,0,0,1-.77,0,.75.75,0,0,1-.26,0l-.41-.11a2.67,2.67,0,0,0-.4-.13,1.24,1.24,0,0,0-.47.06.42.42,0,0,0-.3.49,1,1,0,0,0,.21.48,1.34,1.34,0,0,0,.45.29,4.37,4.37,0,0,0,.87.34,5,5,0,0,0,2,.14C147,186.38,149,185.62,148.75,184.16Z" style="fill:#de9a7e"/><path d="M168.39,180.17l0-.1-.19-.51a1.64,1.64,0,0,0-.51-.6,2.15,2.15,0,0,0-1.24-.49,16.17,16.17,0,0,0-2.51-.09,4.66,4.66,0,0,0-1.91.42,2.75,2.75,0,0,0-.89.73,3,3,0,0,0-.57,1,2.66,2.66,0,0,0,.56,2.6,3.31,3.31,0,0,0,2.1.92,3.76,3.76,0,0,0,.82,0,8,8,0,0,0,.84-.11,7.41,7.41,0,0,0,1.5-.52,3,3,0,0,0,1.23-1l.17-.12a3,3,0,0,0,.37-.43,2.12,2.12,0,0,0,.32-1.06A4.07,4.07,0,0,0,168.39,180.17Z" style="fill:#d98781"/><path d="M130,186.5l0-.11c-.07-.17-.13-.34-.19-.5a1.52,1.52,0,0,0-.52-.6,2.17,2.17,0,0,0-1.23-.5,16.2,16.2,0,0,0-2.51-.08,4.62,4.62,0,0,0-1.91.41,3.17,3.17,0,0,0-1.46,1.72,2.65,2.65,0,0,0,.56,2.6,3.17,3.17,0,0,0,2.1.92,4.5,4.5,0,0,0,.82,0,8.09,8.09,0,0,0,.84-.12,6.81,6.81,0,0,0,1.5-.51,3.05,3.05,0,0,0,1.23-1l.17-.12a2.49,2.49,0,0,0,.36-.43,2,2,0,0,0,.32-1.05A3.94,3.94,0,0,0,130,186.5Z" style="fill:#d98781"/><path d="M150.77,191.24a1.51,1.51,0,0,0-2.1-.08,4.69,4.69,0,0,1-.63.63h0a.71.71,0,0,0-.18.12c-.13.08-.25.16-.39.23l-.37.18h0c-.1.05-.11,0-.09,0l-.06,0a6.68,6.68,0,0,1-.91.2h-.16l-.44,0c-.15,0-.3,0-.44,0l-.17,0h0l-.52-.09h-.06l-.12,0-.33-.08h-.18l-.14,0a1.59,1.59,0,0,0-.84,0,.73.73,0,0,0-.52.64,1.18,1.18,0,0,0,.23.82,2.78,2.78,0,0,0,.26.34c-.19-.23.06.11.15.2a3.82,3.82,0,0,0,1.18.77,5.44,5.44,0,0,0,2.33.37,6.26,6.26,0,0,0,4.42-2.06,1.65,1.65,0,0,0,.48-1A1.54,1.54,0,0,0,150.77,191.24Z" style="fill:#fff"/><path d="M147.13,192.31a.19.19,0,0,0-.12,0l.11,0Z" style="fill:#fff"/><path d="M148,191.79c-.19.08-.12.1,0,0Z" style="fill:#fff"/><path d="M365.38,343.44s52.27-20.42,68.19-39.88c0,0-1.28,24.92-5.63,34.25,0,0,19.62,5.15,27,3.86,0,0-29.59,30.4-63,45,0,0-20.91-28.31-21.07-28.63S365.38,343.44,365.38,343.44Z" style="fill:#829e4d"/><path d="M391,357.43s-19.78-5.3-25.57-14c0,0,7.24,39.08,7.72,37.64S391,357.43,391,357.43Z" style="fill:#657c3d"/><path d="M93.94,343.44S41.66,323,25.74,303.56c0,0,1.29,24.92,5.63,34.25,0,0-19.62,5.15-27,3.86,0,0,29.59,30.4,63.05,45,0,0,20.91-28.31,21.07-28.63S93.94,343.44,93.94,343.44Z" style="fill:#829e4d"/><path d="M68.64,356.47s19.51-4.34,25.3-13c0,0-7.24,39.08-7.72,37.64S68.64,356.47,68.64,356.47Z" style="fill:#657c3d"/><path d="M224,389.28c-92.16,0-155.37-32.81-155.37-32.81S56.58,402.79,55.13,410c0,0,63.69,42,176.6,42s166.94-42.94,166.94-42.94L391,357.43S309.89,389.28,224,389.28Z" style="fill:#9dc05c"/><path d="M391,357.43S309.89,389.28,224,389.28c-92.16,0-155.37-32.81-155.37-32.81s-.22.87-.61,2.38a225,225,0,0,0,58.37,25.62c70.35,19.55,145.26,12,215.16-5.63,3.38-.85,6.77-1.68,10.18-2.44,13.62-3.06,27.78-5.18,40.43-10.8Z" style="fill:#d0db85"/><path d="M432.84,312.92c.53-5.38.73-9.36.73-9.36-15.92,19.46-68.19,39.88-68.19,39.88l1.2,3.25c16.85-4.25,33.65-9.53,48.33-18.79A86.06,86.06,0,0,0,432.84,312.92Z" style="fill:#9dc05c"/><path d="M25.74,303.56s.22,4.2.78,9.8a213.81,213.81,0,0,0,44.91,27.35c6.16,2.77,12.63,5.3,19.39,5.39.72,0,1.44,0,2.16-.07l1-2.59S41.66,323,25.74,303.56Z" style="fill:#9dc05c"/><path d="M360.73,402.44a7.32,7.32,0,0,0-1.84-1.8l-2.14-1.85c-1.39-1.2-3.7-4.49-5.79-4.28-2.77.27-4.35,8.56-5.68,10.83a1.33,1.33,0,0,0,.47,1.78q4.13,2.86,8,6a1.55,1.55,0,0,0,2.39-.3c1-1.69,1.91-3.38,2.84-5.08l1.36-2.48A2.83,2.83,0,0,0,360.73,402.44Z" style="fill:#fff"/><path d="M379.74,395.42a5.71,5.71,0,0,0-1.38-1.35l-1.61-1.39c-1.05-.91-2.79-3.38-4.36-3.22-2.08.2-3.27,6.44-4.27,8.14a1,1,0,0,0,.35,1.35c2.07,1.43,4.09,2.95,6,4.54a1.15,1.15,0,0,0,1.79-.23c.73-1.27,1.44-2.54,2.14-3.82l1-1.87A2.12,2.12,0,0,0,379.74,395.42Z" style="fill:#fff"/><path d="M87.62,400.32a7.67,7.67,0,0,1,1.84-1.8l2.14-1.85c1.39-1.2,3.7-4.48,5.79-4.28,2.77.27,4.35,8.56,5.69,10.83a1.35,1.35,0,0,1-.47,1.79q-4.14,2.85-8,6a1.55,1.55,0,0,1-2.39-.31c-1-1.68-1.91-3.38-2.84-5.08L88,403.18A2.85,2.85,0,0,1,87.62,400.32Z" style="fill:#fff"/><path d="M68.61,393.3A5.71,5.71,0,0,1,70,392l1.61-1.39c1.05-.91,2.79-3.37,4.36-3.22,2.08.2,3.27,6.44,4.27,8.15a1,1,0,0,1-.35,1.34c-2.07,1.43-4.08,2.95-6,4.54a1.16,1.16,0,0,1-1.8-.23c-.73-1.27-1.44-2.54-2.14-3.82l-1-1.86A2.17,2.17,0,0,1,68.61,393.3Z" style="fill:#fff"/><path d="M376.55,361.87q3.82-12.15,7.63-24.3,9-28.74,17.92-57.5l10.12-32.53a1.14,1.14,0,0,0-.28-1.24.57.57,0,0,0-.83-.26,1.15,1.15,0,0,0-.93.87q-9,28.88-18,57.75t-17.84,57.53l0,.06q-4.57,14.75-9.16,29.47l1.91.6Q371.8,377.1,376.55,361.87Z" style="fill:#9dbf5c"/><path d="M426.84,190.25l3.74,2.33a1.63,1.63,0,0,0,1.91-.3c.55-.45,1.08-.91,1.59-1.4l.22-.16c.65-.48,1.27-1,2-1.43,1.33-.86,2.73-1.64,4.13-2.39,3-1.58,6-3.06,9.1-4.37,1.19-.51,1.43-2.46-.09-2.75-2.31-.45-4.65-.78-7-1q3.73-4.07,7.46-8.15c.83-.91.22-2.74-1.16-2.58a26.77,26.77,0,0,0-22.65,20.46A1.65,1.65,0,0,0,426.84,190.25Z" style="fill:#9dc05c"/><path d="M424.6,191.51l-3.75-.66a1.41,1.41,0,0,1-1.06-1.29c-.09-.6-.16-1.21-.21-1.82,0-.07,0-.15-.05-.22-.14-.69-.25-1.37-.43-2.05-.36-1.32-.81-2.63-1.28-3.92-1-2.72-2.1-5.43-3.34-8.05-.47-1,.5-2.4,1.64-1.72,1.75,1.05,3.44,2.18,5.09,3.38,0-3.18-.09-6.35-.11-9.53,0-1.07,1.44-1.9,2.23-1a23.1,23.1,0,0,1,2.78,26.19A1.42,1.42,0,0,1,424.6,191.51Z" style="fill:#9dc05c"/><path d="M410.15,250.2c11.44,2.05,41.38-17.09,42.49-24.53S435.81,189,428,186.11,388.89,202.17,387.49,209,402.78,248.88,410.15,250.2Z" style="fill:#689047"/><path d="M416.32,232.6c1,2.32,2.06,4.66,3.13,7l1.69,3.65c.69,1.48,1.25,2.95,3,3.3a2.92,2.92,0,0,0,1.32,0,1.66,1.66,0,0,0,1.39.14,30.2,30.2,0,0,0,8.29-4.27c1.33-.91,2.63-1.88,3.88-2.91s2.86-2.18,3.29-3.87-.72-3.45-1.53-4.85a31.11,31.11,0,0,0-2.83-4.07,15.1,15.1,0,0,0-3.37-3.4c-1.79-1.07-3.79.06-5.58.7-3.84,1.37-7.61,3-11.4,4.5C416.05,229.08,415.72,231.26,416.32,232.6Z" style="fill:#9dc05c"/><path d="M421.92,209.2a57.59,57.59,0,0,1,8.16,12.15,2.79,2.79,0,0,0,3.65,1,1.64,1.64,0,0,0,1.22-.3,108.1,108.1,0,0,0,11-9.09c.86-.8,1.78-1.62,1.85-2.84a7.06,7.06,0,0,0-1-3.18,25.64,25.64,0,0,0-3.56-5.22,20.82,20.82,0,0,0-2-2.1c-.9-.82-2.15-2.17-3.46-2.24a6.2,6.2,0,0,0-2.07.53c-.55.18-1.1.35-1.63.55-1.12.43-2.22.9-3.31,1.38q-3.2,1.39-6.23,3c-1.06.57-2.49,1.14-3.17,2.11C420.35,206.4,420.86,207.94,421.92,209.2Z" style="fill:#9dc05c"/><path d="M391.19,224.8c1.51,3.87,4.89,10.88,8.41,13.32,1.67,1.15,3.18.26,4.62-.69.77-.51,1.57-1,2.36-1.49l4.33-1.82,3.21-1.35c1.11-.46,2.32-.83,2.85-2,.65-1.43-.09-2.63-1-3.74l-1-1.26c-2.27-3.59-4.59-7.17-6.64-10.88a1.81,1.81,0,0,0-2-.91,40.27,40.27,0,0,0-12.08,5.22,12.3,12.3,0,0,0-2.64,1.88A3.39,3.39,0,0,0,391.19,224.8Z" style="fill:#9dc05c"/><path d="M399.77,199.7c.5,1.3,1,2.59,1.53,3.88,1.54,3.91,3.25,13.79,9.6,9.56,1.05-.71,2.12-1.38,3.21-2,2-1.17,4.08-2.1,6.05-3.25,2.19-1.29.33-4.13-.45-5.8a48.38,48.38,0,0,0-3.28-5.94c-.59-.9-1.2-1.78-1.83-2.65a10.71,10.71,0,0,0-2.37-2.77,2.86,2.86,0,0,0-3,.12c-1.05.57-2.07,1.19-3.07,1.84a50.34,50.34,0,0,0-5.52,4.11A2.36,2.36,0,0,0,399.77,199.7Z" style="fill:#9dc05c"/><path d="M406.07,243.87a7.29,7.29,0,0,0,1.13,2.41,9.22,9.22,0,0,0,1.66,1.76.8.8,0,0,0,.82,0,.84.84,0,0,0,.39-.46v0a.79.79,0,0,0-.17-.79c-.12-.14-.24-.27-.35-.42a1.56,1.56,0,0,1-.16-.2l-.06-.08a9.46,9.46,0,0,1-.54-.91c-.16-.31-.33-.63-.46-.95,0-.06,0-.13-.08-.19l0-.1-.09-.27c0-.1-.06-.19-.1-.29a1.07,1.07,0,0,0-1-.77,1,1,0,0,0-.71.27A1,1,0,0,0,406.07,243.87Z" style="fill:#9dc05c"/><path d="M408.05,243.41v0C408.14,243.65,408.07,243.47,408.05,243.41Z" style="fill:#d0db85"/><path d="M408,243.38h0Z" style="fill:#d0db85"/><path d="M407.48,240.66a1.52,1.52,0,0,0,.4.88l.08.06.16.15a10.74,10.74,0,0,0,.85.66.83.83,0,0,0,.65.11.89.89,0,0,0,.45-.28.77.77,0,0,0,.2-.52.79.79,0,0,0-.22-.6l-.34-.29c-.16-.13-.31-.28-.47-.4a2.8,2.8,0,0,0-.52-.32A1.27,1.27,0,0,0,408,240a.72.72,0,0,0-.36.23A.69.69,0,0,0,407.48,240.66Z" style="fill:#9dc05c"/><path d="M390.84,213a2.93,2.93,0,0,0,.33,1.85,2.35,2.35,0,0,0,.46.67,2.07,2.07,0,0,0,.65.49.76.76,0,0,0,.47.11.72.72,0,0,0,.43-.18.77.77,0,0,0,.15-.89,1.34,1.34,0,0,1-.07-.18l.07.19a4.78,4.78,0,0,0-.19-.48c-.05-.1-.09-.21-.13-.31l.09.22c-.07-.18-.15-.36-.23-.53a4.43,4.43,0,0,1-.13-.49l-.06-.27a1.69,1.69,0,0,0-.11-.34,1,1,0,0,0-.36-.37.61.61,0,0,0-.47-.26.66.66,0,0,0-.56.29v0A.74.74,0,0,0,390.84,213Z" style="fill:#9dc05c"/><path d="M448.37,220.09a1.09,1.09,0,0,0,.26.69l0,.05a8,8,0,0,1,.71,1.24c.1.21.17.45.29.65a4.35,4.35,0,0,0,.49.72.63.63,0,0,0,1.06-.24,2,2,0,0,0,.07-.55,5.7,5.7,0,0,0-.06-.58,11.44,11.44,0,0,0-.39-1,7.63,7.63,0,0,0-.39-.75l-.24-.38a1.33,1.33,0,0,0-.71-.67A.88.88,0,0,0,448.37,220.09Z" style="fill:#9dc05c"/><path d="M445,219.83a1.45,1.45,0,0,0,0,.35,2,2,0,0,0,.17.47,4,4,0,0,0,.3.49c.1.14.19.28.29.41a1.94,1.94,0,0,0,.37.33l.23.17a1.09,1.09,0,0,0,.63.17.77.77,0,0,0,.54-.2.72.72,0,0,0,.25-.54,1.29,1.29,0,0,0-.12-.58c-.05-.08-.1-.15-.14-.23s-.16-.27-.26-.4l-.07-.09a2.73,2.73,0,0,1-.26-.43,2.29,2.29,0,0,0-.28-.41.67.67,0,0,0-.25-.25,1.08,1.08,0,0,0-.24-.12.63.63,0,0,0-.27,0,.47.47,0,0,0-.6.18l0,.07A1,1,0,0,0,445,219.83Z" style="fill:#9dc05c"/><path d="M423.68,189.5a0,0,0,0,0,0,0,.79.79,0,0,0,0,.34,1,1,0,0,1,.05.16,1.4,1.4,0,0,0,.28.59,2.41,2.41,0,0,0,.24.21,3.45,3.45,0,0,1,.28.26,2,2,0,0,0,.33.32l.2.13a1.05,1.05,0,0,0,.49.16,1,1,0,0,0,.59-.19,1,1,0,0,0,.32-.38.91.91,0,0,0,.07-.63,2.45,2.45,0,0,0-.15-.43,1.55,1.55,0,0,0-.28-.39,4.89,4.89,0,0,0-.47-.44,1.6,1.6,0,0,0-.4-.28,1.31,1.31,0,0,0-.78-.08l-.18,0-.09,0a.66.66,0,0,0-.35.21h0A.32.32,0,0,0,423.68,189.5Z" style="fill:#9dc05c"/><path d="M424.46,169.52a1.7,1.7,0,0,0,0,.55c0,.1,0,.2.05.3a11.17,11.17,0,0,0,.34,1.26l.72,2.52a.73.73,0,1,0,1.43-.33l-.54-2.52c-.08-.41-.15-.83-.27-1.23a2.35,2.35,0,0,0-.33-.78,1.59,1.59,0,0,0-.2-.24.46.46,0,0,0-.17-.17l-.23-.11a.37.37,0,0,0-.5.11s0,0,0,.05A1,1,0,0,0,424.46,169.52Z" style="fill:#d0db85"/><path d="M422.59,169.29l.08.27a1.94,1.94,0,0,0,.17.42l.15.24.1.15a.51.51,0,0,0,.23.15l.05,0,0,0,.08.08a.42.42,0,0,0,.43.1.41.41,0,0,0,.25-.35v-.1l0-.07s0,0,0,0a.3.3,0,0,0,.06-.18.62.62,0,0,0,0-.27l0-.28a1.76,1.76,0,0,0-.15-.44l-.1-.26a.68.68,0,0,0-.15-.26.81.81,0,0,0-.39-.23l-.18,0a.58.58,0,0,0-.26,0,.28.28,0,0,0-.15.08.55.55,0,0,0-.19.18A.78.78,0,0,0,422.59,169.29Z" style="fill:#d0db85"/><path d="M441.88,172.42a1,1,0,0,0-.05.3c0,.05,0,.11,0,.16a.2.2,0,0,0,.24.26l.19,0a.81.81,0,0,0,.22,0,.87.87,0,0,0,.36,0l.23-.06a2.09,2.09,0,0,0,.62-.3,8.57,8.57,0,0,1,1-.55l.49-.22.1,0h0l.27-.09a4.91,4.91,0,0,0,.63-.26,1,1,0,0,0,.6-.53.38.38,0,0,0-.08-.57.72.72,0,0,0-.38-.28,1.39,1.39,0,0,0-.41,0,2.88,2.88,0,0,0-.71.06,9.66,9.66,0,0,0-1.25.42,7.41,7.41,0,0,0-1,.5C442.42,171.42,441.89,171.87,441.88,172.42Z" style="fill:#d0db85"/><path d="M440.73,175.32a.23.23,0,0,0,.27.28l.27,0a.6.6,0,0,0,.19-.06h0l.07,0a2.47,2.47,0,0,1,.29-.06,1.74,1.74,0,0,0,.36-.13c.14-.05.29-.09.42-.15L443,175c.24-.1.46-.23.69-.33a.51.51,0,0,0,.27-.58.53.53,0,0,0-.49-.41,2.82,2.82,0,0,0-.87,0l-.35.1c-.1,0-.22.07-.32.12l-.16.11-.4.29a1.69,1.69,0,0,0-.29.37,1.48,1.48,0,0,0-.23.38C440.79,175.11,440.76,175.22,440.73,175.32Z" style="fill:#d0db85"/><path d="M427.21,244.22a1,1,0,0,0,.23.06,1.07,1.07,0,0,0,.47,0,2.46,2.46,0,0,0,.69-.24l1.12-.5.53-.24a4.09,4.09,0,0,0,.64-.37,2.38,2.38,0,0,0,.44-.4,1.09,1.09,0,0,0,.21-.38.41.41,0,0,0,0-.15c0-.11,0-.14,0-.09s0,0,0,0a.22.22,0,0,0-.1-.19s0,0,0,0a.57.57,0,0,0-.21-.13.88.88,0,0,0-.32-.07,2.24,2.24,0,0,0-.68.1,6.87,6.87,0,0,0-1.23.57l-1.06.55a3.06,3.06,0,0,0-.61.4,1.06,1.06,0,0,0-.26.3,2.71,2.71,0,0,0-.13.3A.39.39,0,0,0,427.21,244.22Z" style="fill:#d0db85"/><path d="M428,241a.5.5,0,0,0,.09.29.48.48,0,0,0,.6.15l.23-.1a2.46,2.46,0,0,1,.39-.09,2,2,0,0,0,.34-.14l.12,0L430,241a.73.73,0,0,0,.42-.29.76.76,0,0,0,.09-.53.71.71,0,0,0-.3-.42.72.72,0,0,0-.52-.09c-.18.05-.35.12-.53.18a1.93,1.93,0,0,0-.49.26l-.27.28a4.11,4.11,0,0,0-.29.3A.51.51,0,0,0,428,241Z" style="fill:#d0db85"/><path d="M399.18,234a.68.68,0,0,0,.17.4.77.77,0,0,0,.31.19.75.75,0,0,0,.53,0l.21-.09.16-.07c.09,0,.16-.11.25-.17l-.18.12a3.48,3.48,0,0,1,.66-.35l-.09,0a1,1,0,0,0,.35-.19l.13-.16.09-.19,0-.22a.54.54,0,0,0-.06-.3.34.34,0,0,0-.09-.18.4.4,0,0,0-.14-.15.45.45,0,0,0-.17-.11.68.68,0,0,0-.31-.08h0l-.21,0h-.05l-.08,0-.34.13-.32.16-.15.09-.15.11a.59.59,0,0,0-.17.15l-.09.11-.18.29A.71.71,0,0,0,399.18,234Z" style="fill:#d0db85"/><path d="M434,204.78a.55.55,0,0,0,.5.36,2.47,2.47,0,0,0,.94,0,4,4,0,0,0,.95-.39,9.54,9.54,0,0,0,.86-.54l.33-.25a1.41,1.41,0,0,0,.38-.49.81.81,0,0,0,0-.8h0a.48.48,0,0,0-.33-.32c-.59-.34-1.17.21-1.64.57-.29.19-.6.35-.9.53a5.36,5.36,0,0,0-.59.38c-.14.11-.26.24-.4.36A.54.54,0,0,0,434,204.78Z" style="fill:#d0db85"/><path d="M432.78,202.08s0,0,0,.07,0,.22,0,.33a.84.84,0,0,0,.18.35.78.78,0,0,0,.35.21.68.68,0,0,0,.4,0,.78.78,0,0,0,.35-.18l-.14.09.13-.07a.65.65,0,0,0,.25-.16l.11-.12.08-.08a.63.63,0,0,0,.2-.28.67.67,0,0,0,.09-.34l0-.23a.68.68,0,0,0-.14-.31.46.46,0,0,0-.15-.16.65.65,0,0,0-.31-.18l-.23,0a1,1,0,0,0-.44.1,1.86,1.86,0,0,0-.31.21l-.06,0,0,0a.43.43,0,0,0-.09.1.61.61,0,0,0-.18.31A1.47,1.47,0,0,0,432.78,202.08Z" style="fill:#d0db85"/><path d="M405.19,198.38a.51.51,0,0,0,.22.43.5.5,0,0,0,.49,0l.12-.05-.13.05.3-.13.14-.06.1,0a1.33,1.33,0,0,0,.19-.14,3.6,3.6,0,0,1,.39-.2,1.71,1.71,0,0,0,.38-.13l.14-.08a.68.68,0,0,0,.3-.28l.05-.05,0,0a.26.26,0,0,0,.08-.41l0,0a.42.42,0,0,0-.09-.14h0l-.08-.13a.7.7,0,0,0-.32-.19l-.12,0a1.4,1.4,0,0,0-.61,0,3.91,3.91,0,0,0-.67.27,1.53,1.53,0,0,0-.65.58A1.55,1.55,0,0,0,405.19,198.38Z" style="fill:#d0db85"/><path d="M237,74.51A38.83,38.83,0,0,1,222.77,0a48.72,48.72,0,1,0,53.46,42.79A38.82,38.82,0,0,1,237,74.51Z" style="fill:#f7da61"/><path d="M193.46,20.81a2.27,2.27,0,0,0-2.28,0l-.34.21a2.92,2.92,0,0,0-.64.52c-.17.19-.32.41-.48.61s-.36.5-.53.76a2.49,2.49,0,0,0-.2.4c-.15.34-.29.68-.43,1s-.22.57-.31.86a2,2,0,0,0-.05,1.1,2,2,0,0,0,.32,1,2.11,2.11,0,0,0,.71.77,2.08,2.08,0,0,0,.94.49,2.78,2.78,0,0,0,2.13-.27,2.91,2.91,0,0,0,1.27-1.65,8.89,8.89,0,0,1,.26-.88c.09-.27.21-.53.29-.8s.16-.53.25-.8a5.25,5.25,0,0,0,.21-1.42A2.23,2.23,0,0,0,193.46,20.81Z" style="fill:#e8b232"/><path d="M200.53,19.43a1.19,1.19,0,0,0-.18-.57l-.24-.31a1.13,1.13,0,0,0-.49-.32.76.76,0,0,0-.39-.1,1.15,1.15,0,0,0-.61,0l-.37.16a1.61,1.61,0,0,0-.55.55l-.19.28-.09.13a.18.18,0,0,1,0,.07.85.85,0,0,0-.09.22.92.92,0,0,0-.09.23c0,.1-.05.21-.08.31a2.09,2.09,0,0,0,0,.28,1.15,1.15,0,0,0,0,.66,2,2,0,0,0,.21.45l.23.3a1.12,1.12,0,0,0,.47.3.75.75,0,0,0,.36.1,1.18,1.18,0,0,0,.59,0,1.33,1.33,0,0,0,.46-.18,2,2,0,0,0,.62-.63c.05-.1.12-.19.17-.29l0,0c.06-.13.11-.26.17-.4s0-.05,0-.08,0-.11,0-.16l.06-.35A1.06,1.06,0,0,0,200.53,19.43Z" style="fill:#e8b232"/><path d="M199.46,66.9a23,23,0,0,0-4.58-8.54,4.91,4.91,0,0,0-3.63-1.88,4.13,4.13,0,0,0-4.15,3.25,7.16,7.16,0,0,0,0,2.61,5.05,5.05,0,0,0,.27.86,6.6,6.6,0,0,0,.12.92c0,.12,0,.23.07.35l0-.22a4.32,4.32,0,0,0,.58,1.74c.15.25.34.47.51.7a14.5,14.5,0,0,0,1.76,2.06,24.85,24.85,0,0,0,2.09,1.62,6.48,6.48,0,0,0,1.15.64,9.49,9.49,0,0,0,1.28.4A3.71,3.71,0,0,0,199.46,66.9Z" style="fill:#e8b232"/><path d="M198.43,52.74c0-.05-.05-.11-.08-.17a2.22,2.22,0,0,0-.5-.72l-.56-.51L197,51.1l-.14-.14a1.45,1.45,0,0,0-.45-.33,2,2,0,0,0-1-.27,2,2,0,0,0-1.58.56,1.3,1.3,0,0,0-.35.54,1.32,1.32,0,0,0-.14.65,2.09,2.09,0,0,0,.13.65,1,1,0,0,0,0,.17l.2.48.35.45.09.11.39.5.18.24a2,2,0,0,0,.61.56l.24.14.13.07a2.3,2.3,0,0,0,1.07.28,1.38,1.38,0,0,0,.75-.17,1.33,1.33,0,0,0,.62-.4,2,2,0,0,0,.57-1.37A2.26,2.26,0,0,0,198.43,52.74Z" style="fill:#e8b232"/><path d="M207.75,78.91l-.14-.32v0c0-.12-.11-.28-.17-.39a1.31,1.31,0,0,0-.41-.46.73.73,0,0,0-.35-.2.4.4,0,0,0-.2-.09h-.05l-.17,0-.08,0-.37,0a1.24,1.24,0,0,0-.53.12,1,1,0,0,0-.44.29l-.21.28-.14.32a.72.72,0,0,0,0,.38c0,.14,0,.28.06.43l0,.16a1.07,1.07,0,0,0,.09.27.84.84,0,0,0,.21.35.75.75,0,0,0,.28.28.85.85,0,0,0,.37.21,1.27,1.27,0,0,0,.36.12l.17,0h.09l.35.05.36-.05a1,1,0,0,0,.46-.24l.14-.11a2.78,2.78,0,0,0,.21-.27l.07-.16a.69.69,0,0,0,.09-.34A1.1,1.1,0,0,0,207.75,78.91Z" style="fill:#e8b232"/><path d="M249.78,79.55a3.46,3.46,0,0,0-1.91-.42,12.93,12.93,0,0,0-2.62.44,7.38,7.38,0,0,0-1.3.29,5,5,0,0,0-3.15,1.93,3,3,0,0,0,1.83,4.38,7.58,7.58,0,0,0,3.25-.08,8.83,8.83,0,0,0,2.58-1,5,5,0,0,0,2.46-2.61A2.61,2.61,0,0,0,249.78,79.55Z" style="fill:#e8b232"/><path d="M259.61,75.12a1.31,1.31,0,0,0-.34-.58,1.38,1.38,0,0,0-.48-.48,1.35,1.35,0,0,0-.59-.34,2,2,0,0,0-1-.23c-.37,0-.72.11-1.08.16a1.9,1.9,0,0,0-.72.3l-.56.43a3.06,3.06,0,0,0-.44.58l-.08.13a2.53,2.53,0,0,0-.36,1.31,1.92,1.92,0,0,0,.23,1,1.88,1.88,0,0,0,.53.83,2.54,2.54,0,0,0,1.15.67L256,79a1,1,0,0,0,.39,0,2.06,2.06,0,0,0,1.1,0,1,1,0,0,0,.36-.15,1,1,0,0,0,.36-.16,1.77,1.77,0,0,0,.17-.12l.32-.25a2.06,2.06,0,0,0,.35-.27l.42-.54.26-.64c0-.23.07-.47.1-.7A2,2,0,0,0,259.61,75.12Z" style="fill:#e8b232"/><polygon points="256.89 48.5 243 45.09 232.32 54.61 231.26 40.34 218.91 33.13 232.15 27.71 235.2 13.74 244.44 24.66 258.67 23.24 251.14 35.4 256.89 48.5" style="fill:#f7da61"/><polygon points="137.16 78.37 133.34 73.81 127.42 74.37 130.57 69.33 128.21 63.87 133.98 65.31 138.45 61.38 138.85 67.32 143.97 70.35 138.46 72.57 137.16 78.37" style="fill:#f7da61"/><polygon points="352.93 49.89 349.07 45.17 342.99 45.67 346.29 40.55 343.94 34.93 349.83 36.48 354.45 32.5 354.8 38.59 360 41.75 354.32 43.96 352.93 49.89" style="fill:#f7da61"/><polygon points="225.66 177.15 221.99 176.93 219.72 179.83 218.8 176.26 215.34 175 218.44 173.03 218.57 169.34 221.41 171.69 224.95 170.67 223.6 174.1 225.66 177.15" style="fill:#f7da61"/><polygon points="34.8 132.47 37.29 125.13 32.65 118.91 40.4 119.01 44.88 112.68 47.18 120.09 54.58 122.39 48.26 126.86 48.35 134.61 42.14 129.98 34.8 132.47" style="fill:#f7da61"/><polygon points="440.29 274.15 434.78 272.28 430.12 275.76 430.2 269.94 425.45 266.58 431 264.86 432.73 259.31 436.08 264.05 441.9 263.98 438.42 268.64 440.29 274.15" style="fill:#f7da61"/><path d="M312.79,25.31a1.8,1.8,0,0,0-.49-.83l-.38-.3a1.89,1.89,0,0,0-1-.26,1.42,1.42,0,0,0-.73.16,1.51,1.51,0,0,0-.61.4,1.49,1.49,0,0,0-.39.6,1.42,1.42,0,0,0-.16.73l.07.51a1.87,1.87,0,0,0,.48.83l.39.3a1.86,1.86,0,0,0,.95.26,1.5,1.5,0,0,0,.73-.16,1.38,1.38,0,0,0,.61-.4,1.28,1.28,0,0,0,.39-.61,1.38,1.38,0,0,0,.17-.73C312.84,25.65,312.81,25.48,312.79,25.31Z" style="fill:#fff"/><path d="M123.11,8.45a1.26,1.26,0,0,0-.37-.57,1.78,1.78,0,0,0-.79-.47l-.23-.07-.11,0-.06,0a1,1,0,0,0-.24,0,1.15,1.15,0,0,0-.26,0,1.7,1.7,0,0,0-1.47.84,1.78,1.78,0,0,0-.24.87,1.74,1.74,0,0,0,.24.86v0a1.3,1.3,0,0,0,.45.48l.2.16.11.08.22.16a1.78,1.78,0,0,0,.9.24l.48-.06a1.85,1.85,0,0,0,.79-.46,1.34,1.34,0,0,0,.37-.58,1.3,1.3,0,0,0,.16-.69A1.31,1.31,0,0,0,123.11,8.45Z" style="fill:#fff"/><path d="M84.64,58.41a1.12,1.12,0,0,0,0,2.23A1.12,1.12,0,0,0,84.64,58.41Z" style="fill:#fff"/><path d="M3.11,68.23c0-.11-.09-.23-.15-.34a.86.86,0,0,0-.1-.16,2,2,0,0,0-.3-.35,3.17,3.17,0,0,0-.35-.29L2.05,67a2.26,2.26,0,0,0-.43-.17A1.1,1.1,0,0,0,.81,67l-.21.16a.83.83,0,0,0-.22.34.5.5,0,0,0-.07.27.75.75,0,0,0,0,.42l0,.08a.31.31,0,0,0-.3.21,1.15,1.15,0,0,0,.3,1.16A1,1,0,0,0,.73,70a1.37,1.37,0,0,0,.47.19,1.7,1.7,0,0,0,.71,0A1.43,1.43,0,0,0,2.25,70h0a.92.92,0,0,0,.32-.1l.22-.18a1.07,1.07,0,0,0,.29-.49,1.44,1.44,0,0,0,.08-.46.54.54,0,0,0,0-.18A1.08,1.08,0,0,0,3.11,68.23Z" style="fill:#fff"/><path d="M11.78,206.55a.8.8,0,0,0-.11-.4.72.72,0,0,0-.2-.35l-.16-.21-.07-.07a1.06,1.06,0,0,0-.19-.16.7.7,0,0,0-.34-.2.5.5,0,0,0-.2-.08,1.06,1.06,0,0,0-.61,0,1.19,1.19,0,0,0-.57.18l-.31.24a1.47,1.47,0,0,0-.39.67,1.17,1.17,0,0,0,0,.64c0,.09,0,.16,0,.24l0,.13c0,.08.05.12.09.23a1.25,1.25,0,0,0,.33.51l.33.25h0l.11,0,.14.11a1.4,1.4,0,0,0,1.41,0,1.41,1.41,0,0,0,.69-1.21V207A1.34,1.34,0,0,0,11.78,206.55Z" style="fill:#fff"/><path d="M30.05,293a.83.83,0,0,0-.28-.28l-.11-.05h0l-.2-.09-.24,0a.91.91,0,0,0-.23,0l-.21.09h0a.86.86,0,0,0-.3.3.81.81,0,0,0-.11.43.78.78,0,0,0,.11.42.72.72,0,0,0,.3.3l0,0,.21.08.23,0h.12a.71.71,0,0,0,.32-.1l0,0,.11-.05a.75.75,0,0,0,.28-.28.77.77,0,0,0,.11-.39A.8.8,0,0,0,30.05,293Z" style="fill:#fff"/><path d="M11.16,392.87a1.44,1.44,0,0,0-.37-.63l-.16-.12a1,1,0,0,0-.49-.26l-.38-.05H9.27a1.14,1.14,0,0,0-.55.13,1.12,1.12,0,0,0-.47.3,1.08,1.08,0,0,0-.3.46,1.07,1.07,0,0,0-.12.56c0,.13,0,.26,0,.38a1.42,1.42,0,0,0,.37.64l.29.23a1.45,1.45,0,0,0,.73.19H9.7a1.35,1.35,0,0,0,.44-.05l.35-.15a2.25,2.25,0,0,0,.3-.24,1.08,1.08,0,0,0,.3-.46,1,1,0,0,0,.12-.55C11.19,393.13,11.18,393,11.16,392.87Z" style="fill:#fff"/><path d="M116.23,464a1.13,1.13,0,0,0-.17-.6,1.75,1.75,0,0,0-.49-.77l-.48-.37-.57-.24a2.58,2.58,0,0,0-1.84.24l0,0a2.4,2.4,0,0,0-.89.87,2.67,2.67,0,0,0-.33,1.27,1.89,1.89,0,0,0,.2.91,1.78,1.78,0,0,0,.49.75l.47.37a2.36,2.36,0,0,0,1.19.32,2.67,2.67,0,0,0,1.27-.33,2.4,2.4,0,0,0,.87-.89l0,0,.24-.57A1.81,1.81,0,0,0,116.23,464Z" style="fill:#fff"/><path d="M167.13,454.9a1.15,1.15,0,0,0-.4-.57.26.26,0,0,0-.14-.17.2.2,0,0,0-.17,0l0,0-.28,0a.91.91,0,0,0-.41.09.63.63,0,0,0-.24.14.89.89,0,0,0-.28.3l-.09.22-.05.1a1.11,1.11,0,0,1-.07.16.52.52,0,0,0-.07.27.88.88,0,0,0,0,.16c0,.1,0,.19,0,.28s.07.17.1.25l.17.21a.74.74,0,0,0,.33.22.5.5,0,0,0,.27.07.61.61,0,0,0,.27,0,.5.5,0,0,0,.27-.07.74.74,0,0,0,.33-.22,1.85,1.85,0,0,0,.38-.56.75.75,0,0,0,.12-.4A.7.7,0,0,0,167.13,454.9Z" style="fill:#fff"/><path d="M346,452.44a.94.94,0,0,0,.06-.24.81.81,0,0,0-.1-.43.77.77,0,0,0-.23-.36l-.22-.18h0l0,0-.31-.13h0l-.08,0-.35,0h-.16a.69.69,0,0,0-.32,0,1.05,1.05,0,0,0-.5.16l-.29.23,0,0s0,0,0,0a3.4,3.4,0,0,0-.23.3l0,.06L343,452a1.71,1.71,0,0,0-.07.18s0,0,0,0v0c0,.12-.05.26-.06.39a.15.15,0,0,0,0,.07c0,.11,0,.27.05.38v.06c0,.07.06.14.08.2s.05.13.09.2.14.19.22.28a1,1,0,0,0,.45.29.59.59,0,0,0,.19.05,2.29,2.29,0,0,0,.57.12h.12a3.83,3.83,0,0,0,.43-.07,1.53,1.53,0,0,0,.37-.16l0,0,.23-.18h0a2,2,0,0,0,.2-.26,1.32,1.32,0,0,0,.19-.7A.91.91,0,0,0,346,452.44Z" style="fill:#fff"/><path d="M456.75,418.53a2.53,2.53,0,0,0-1.74-1.75,2.72,2.72,0,0,0-1.33,0l-.1,0-.58.25-.5.39-.39.5a1.75,1.75,0,0,0-.29.91,1.23,1.23,0,0,0,0,.66,1.26,1.26,0,0,0,.17.62,1.22,1.22,0,0,0,.31.54,1.85,1.85,0,0,0,.7.63l.08.05a2.43,2.43,0,0,0,1.26.34,2.5,2.5,0,0,0,2.16-1.24,2.71,2.71,0,0,0,.25-1.92Z" style="fill:#fff"/><path d="M434.78,374.27a1,1,0,0,0,0,2A1,1,0,0,0,434.78,374.27Z" style="fill:#fff"/><path d="M465,271.83v-.07a1.75,1.75,0,0,0-1.21-1.21,1.72,1.72,0,0,0-1.67.45l0,.05a1316739087835,1316739087835,0,0,0-.3.38l-.18.42a1.43,1.43,0,0,0,0,.71.89.89,0,0,0,.12.45,2.14,2.14,0,0,0,.1.22v0l0,.05a1.27,1.27,0,0,0,.44.48,1.31,1.31,0,0,0,.57.3l.44.06a1.67,1.67,0,0,0,.85-.23l.05,0,0,0h0a1.38,1.38,0,0,0,.5-.46A1,1,0,0,0,465,273a1.33,1.33,0,0,0,.15-.68A2.08,2.08,0,0,0,465,271.83Z" style="fill:#fff"/><path d="M448,228.26v-.07l0-.1a.93.93,0,0,1-.05-.1.38.38,0,0,0,0-.1s0,0,0,0l0,0a.6.6,0,0,0-.08-.08s0-.06-.07-.07l0,0s0,0-.06,0a.38.38,0,0,0-.1,0,.33.33,0,0,0-.1-.06h-.11l-.11,0a.91.91,0,0,0-.23,0h0l-.2.09-.17.13s0,.07-.06.09l-.07.08-.09.2,0,.1v.07a.69.69,0,0,0,0,.35s0,.08,0,.12,0,.12,0,.19l.08.2a.61.61,0,0,0,.22.23.34.34,0,0,0,.18.11.62.62,0,0,0,.33.07l.22,0,.2-.08a.64.64,0,0,0,.24-.22.69.69,0,0,0,.15-.28l0-.19A.84.84,0,0,0,448,228.26Z" style="fill:#fff"/><path d="M459.07,72.55a1,1,0,0,0-.13-.49,1.5,1.5,0,0,0-.41-.64A4,4,0,0,0,458,71l-.13-.07a2.52,2.52,0,0,0-1.19-.34,2.28,2.28,0,0,0-1.14.32l-.07,0-.43.33a1.52,1.52,0,0,0-.43.68,1,1,0,0,0-.15.53,1.6,1.6,0,0,0,0,.84l.21.5.33.43a2.32,2.32,0,0,0,1.49.62h.11a1.56,1.56,0,0,0,.61-.07l.11,0,.13,0,.15,0,.47-.2.4-.31a1.53,1.53,0,0,0,.41-.63,1,1,0,0,0,.13-.5A1,1,0,0,0,459.07,72.55Z" style="fill:#fff"/><path d="M382.36,110.8a.69.69,0,0,0-.16-.18.65.65,0,0,0-.22-.11l-.17-.07a.8.8,0,0,0-.23-.19l-.24-.1a.78.78,0,0,0-.4,0,.81.81,0,0,0-.37.12l-.2.16a.69.69,0,0,0-.21.32.85.85,0,0,0-.09.38l0,.27a.75.75,0,0,0,.18.34.7.7,0,0,0,.28.26l.24.1a.77.77,0,0,0,.4,0,.85.85,0,0,0,.37-.12,2.11,2.11,0,0,0,.23-.19l.17-.07.15-.07a.55.55,0,0,0,.18-.16.57.57,0,0,0,.13-.38A.68.68,0,0,0,382.36,110.8Z" style="fill:#fff"/><path d="M223.67,117.33a1.68,1.68,0,0,0-.44-.75h0a1.26,1.26,0,0,0-.55-.36c-.11,0-.14-.07-.22-.09h0l-.11,0-.22,0a1.47,1.47,0,0,0-.78,0,1.53,1.53,0,0,0-.65.38,1.47,1.47,0,0,0-.38,1.43l.06.22,0,.1v.08a1.22,1.22,0,0,0,.31.58.49.49,0,0,0,.14.18,1.26,1.26,0,0,0,.55.36,1.63,1.63,0,0,0,1.32,0,1.26,1.26,0,0,0,.55-.36l.27-.35a1.61,1.61,0,0,0,.23-.86Z" style="fill:#fff"/><path d="M79,187.92s0-.15,0-.18h0v0a1.42,1.42,0,0,0-.08-.18v0l-.12-.16-.07-.06-.18-.14,0,0,0,0-.21-.09L78,187l-.24,0-.21.09-.17.13-.14.18-.09.21a.7.7,0,0,0,0,.35.4.4,0,0,0,.06.22.41.41,0,0,0,.12.2.57.57,0,0,0,.15.16.49.49,0,0,0,.2.11.43.43,0,0,0,.22.06.45.45,0,0,0,.23,0,.46.46,0,0,0,.23-.06l.11-.07h.1l.15-.06.12-.09a.38.38,0,0,0,.09-.13h0a1,1,0,0,0,.06-.16h0s0-.14,0-.18h0Z" style="fill:#fff"/><path d="M228.94,233.66a2,2,0,0,0-.69-.7,2,2,0,0,0-1-.26,2.86,2.86,0,0,0-.57.07,2.12,2.12,0,0,0-.89.52,1.14,1.14,0,0,0-.11.11l-.3.39a1.38,1.38,0,0,0-.22.71.89.89,0,0,0,0,.51,1.41,1.41,0,0,0,.22.71l.3.39.39.3a1.42,1.42,0,0,0,.71.23,1.55,1.55,0,0,0,.77,0l.16,0,.47-.2a2.59,2.59,0,0,0,.42-.32c.12-.13.22-.3.33-.44a1.91,1.91,0,0,0,0-2Z" style="fill:#fff"/><path d="M363.82,208.66a1.35,1.35,0,0,0-.33-.58l-.27-.2a1.31,1.31,0,0,0-.66-.18,1,1,0,0,0-.51.11.9.9,0,0,0-.42.27,1.07,1.07,0,0,0-.28.42,1,1,0,0,0-.11.51l.05.35a1.23,1.23,0,0,0,.34.58l.26.21a1.32,1.32,0,0,0,.67.18,1,1,0,0,0,.5-.12.93.93,0,0,0,.43-.27,1.17,1.17,0,0,0,.27-.42,1,1,0,0,0,.11-.51C363.86,208.9,363.84,208.78,363.82,208.66Z" style="fill:#fff"/><path d="M227,354.34a1,1,0,0,0,0,2A1,1,0,0,0,227,354.34Z" style="fill:#fff"/></g></g></svg>