<svg xmlns="http://www.w3.org/2000/svg" viewBox="0 0 451.9 495.8"><g id="ba0c7d3f-c9eb-4728-a218-78fe960822d3" data-name="Layer 2"><g id="b5b65945-3d47-472a-97ff-243238803799" data-name="OBJECTS"><path d="M451.9,483.65V372.39h-5.34c0-27-18.22-29.39-18.22-29.39s2.28-20.93-7.71-36.57c-.57-.6-1.85-2-4.2-4.73-14.57-16.76-43.72-26.48-43.72-26.48S343.55,284.94,329,301.7c-2.35,2.69-3.63,4.13-4.2,4.73-10,15.64-7.71,36.57-7.71,36.57s-18.21,2.43-18.21,29.39h-5.35v4.84H158.39v-4.84h-5.34c0-27-18.22-29.39-18.22-29.39s2.27-20.93-7.71-36.57c-.57-.6-1.85-2-4.2-4.73-14.57-16.76-43.72-26.48-43.72-26.48S50,284.94,35.47,301.7c-2.35,2.69-3.63,4.13-4.2,4.73-10,15.64-7.71,36.57-7.71,36.57S5.34,345.43,5.34,372.39H0V483.65H7.77V488H4.62v7.77H447.29V488h-3.16v-4.38Z" style="fill:#583b1c"/><path d="M395,445V207.53h-11.4c0-57.55-38.89-62.73-38.89-62.73s4.31-39.64-13-72.13a48,48,0,0,0-6.52-9.3c-1.46-1.64-3.39-3.84-5.88-6.71C288.17,20.88,226,.15,226,.15s-62.22,20.73-93.32,56.51l-2.63,3A81.53,81.53,0,0,0,114.72,85c-10.81,29.39-7.5,59.79-7.5,59.79S68.34,150,68.34,207.53H56.93V445H73.52v9.34H66.78v16.59H385.12V454.33h-6.74V445Z" style="fill:#2a0f6d"/><path d="M62.87,436.67H389V222.81a34.87,34.87,0,0,0-23.52,45.48,34.89,34.89,0,0,0-24.39,33.27v.07a34.88,34.88,0,0,0-31.55,25.67,34.87,34.87,0,0,0-45.09,33.27H200.3a55.44,55.44,0,0,0-67.25-49.79A55.5,55.5,0,0,0,99.58,266.2a36.86,36.86,0,0,0-34-51c-.91,0-1.82,0-2.72.11V436.67Z" style="fill:#473593"/><path d="M384.25,274.49l-.11-2.53a.65.65,0,0,0,.13,0v-.62a.54.54,0,0,1-.16.1v0a1.34,1.34,0,0,1-1.31-.14,1.42,1.42,0,0,0,1.22.7h.06l-.11,2.52a.42.42,0,0,0-.29.4.45.45,0,0,0,.25.4v.4a.69.69,0,0,0-.06,1.3l0,.32h-.5v.54a24.05,24.05,0,0,1-3.12,2.61c-1.48,1-3,4,.47,6.2v2.41h-.35v.47H379.2v1.28h.39v.63h.35l.58.5V322.1h-4.7v-6.56l.29-.26h.18V315h.2v-.65h-.57v-.24h-.18v-1.22a1.79,1.79,0,0,0,.24-3.13,12.09,12.09,0,0,1-1.58-1.32v-.28h-.26V308a.34.34,0,0,0,.22-.32.34.34,0,0,0-.25-.33v-.21a.22.22,0,0,0,.13-.2.23.23,0,0,0-.15-.2l-.06-1.28a.71.71,0,0,0,.22-1.36.68.68,0,0,1,.18.46.69.69,0,0,1-.41.62v0a.58.58,0,0,1-.26.06.68.68,0,0,1-.4-.13.74.74,0,0,0,.62.36h0l-.06,1.28a.22.22,0,0,0,0,.4v.21a.34.34,0,0,0-.26.33.35.35,0,0,0,.23.32v.16h-.26v.28a11.68,11.68,0,0,1-1.57,1.32,1.78,1.78,0,0,0,.23,3.13v1.22h-.17v.24h-.58V315h.2v.31h.18l.29.26V321l-4-1.92v-1h-1.76c0-1.31-1.5-2.09-1.5-2.09,5.09-8.16-.07-15.28-3.4-17s-9.33-5.81-9.33-5.81c0-2-1.44-2.22-1.44-2.22l0-.66a1,1,0,0,0,.56-.87.94.94,0,0,0-.65-.9l-.06-1.06a.78.78,0,0,0-.07-1.5l-.14-2.7a1.63,1.63,0,0,0,.31,0,1.78,1.78,0,0,0,1.55-.89,1.7,1.7,0,0,1-1,.32,1.72,1.72,0,0,1-1.71-1.71,1.75,1.75,0,0,1,.44-1.15,1.81,1.81,0,0,0-1.08,1.65,1.79,1.79,0,0,0,1.41,1.74l-.14,2.71a.78.78,0,0,0-.07,1.5l-.06,1.06a.94.94,0,0,0-.65.9,1,1,0,0,0,.56.87l0,.66s-1.44.26-1.44,2.22c0,0-6,4.05-9.33,5.81s-8.49,8.88-3.4,17c0,0-1.5.78-1.5,2.09h-1.76v1l-4.28,2.05v-5.6l.3-.26h.18V315h.19v-.65h-.57v-.24h-.18v-1.22a1.78,1.78,0,0,0,.24-3.13,11.68,11.68,0,0,1-1.57-1.32v-.28h-.26V308a.34.34,0,0,0,.22-.32.33.33,0,0,0-.25-.33v-.21a.21.21,0,0,0,.13-.2.22.22,0,0,0-.14-.2l-.06-1.28h0a.74.74,0,0,0,.62-.36.71.71,0,0,1-.4.13.66.66,0,0,1-.27-.06v0a.69.69,0,0,1-.41-.62.68.68,0,0,1,.18-.46.7.7,0,0,0-.43.65.71.71,0,0,0,.65.71l-.06,1.28a.21.21,0,0,0-.15.2.21.21,0,0,0,.13.2v.21a.34.34,0,0,0-.25.33.34.34,0,0,0,.22.32v.16H326v.28a12.09,12.09,0,0,1-1.58,1.32,1.78,1.78,0,0,0,.24,3.13v1.22h-.18v.24h-.57V315h.2v.31h.17l.3.26v6.56h-4.7V292l.58-.5h.35v-.63h.39v-1.28h-1.13v-.47h-.35v-2.41c3.43-2.19,1.95-5.22.47-6.2a24.05,24.05,0,0,1-3.12-2.61v-.54h-.5l0-.32a.69.69,0,0,0-.06-1.3l0-.4a.44.44,0,0,0,.26-.4.42.42,0,0,0-.29-.4l-.12-2.52h.07a1.39,1.39,0,0,0,1.21-.7,1.27,1.27,0,0,1-.77.25,1.32,1.32,0,0,1-.53-.11v0a1.34,1.34,0,0,1-.46-2.13,1.42,1.42,0,0,0-.85,1.29,1.4,1.4,0,0,0,1.28,1.4l-.11,2.53a.42.42,0,0,0-.29.4.43.43,0,0,0,.25.4l0,.4A.69.69,0,0,0,316,277v.32h-.51v.54a23.64,23.64,0,0,1-3.11,2.61c-1.48,1-3,4,.46,6.2v2.41h-.35v.47h-1.13v1.28h.39v.63h.35l.59.5v35H300.65V302.51l.46-.41h.28v-.49h.31v-1h-.9v-.37h-.28v-1.92c2.73-1.74,1.55-4.15.38-4.93a18.61,18.61,0,0,1-2.48-2.08v-.43H298v-.25a.54.54,0,0,0,.35-.51.56.56,0,0,0-.4-.53v-.32a.33.33,0,0,0,.2-.31.34.34,0,0,0-.23-.32l-.09-2h.05a1.13,1.13,0,0,0,1-.56,1.08,1.08,0,0,1-.62.19,1.16,1.16,0,0,1-.42-.08v0a1.06,1.06,0,0,1-.64-1,1,1,0,0,1,.28-.71,1.11,1.11,0,0,0,.34,2.13l-.09,2a.34.34,0,0,0-.23.32.33.33,0,0,0,.2.31v.32a.55.55,0,0,0-.05,1v.25h-.4v.43a19.37,19.37,0,0,1-2.48,2.08c-1.18.78-2.36,3.19.37,4.93v1.92h-.28v.37h-.9v1h.31v.49h.28l.46.41V333.1l-1.54.93v9.61h90.87V274.5Z" style="fill:#644ad1"/><path d="M350.34,322.87h0c-.24.06-7.11,1.73-7.11,5.33v12.5h14.23V328.2C357.45,324.6,350.59,322.93,350.34,322.87Z" style="fill:#fff"/><path d="M316.28,292.8h0c-.07,0-2,.48-2,1.5v3.53h4V294.3C318.29,293.28,316.35,292.81,316.28,292.8Z" style="fill:#fff"/><path d="M297.74,302.66h0c-.06,0-1.61.39-1.61,1.21v2.83h3.22v-2.83C299.35,303.05,297.8,302.67,297.74,302.66Z" style="fill:#fff"/><path d="M384.08,292.8h0c-.07,0-2,.48-2,1.5v3.53h2.2v-5Z" style="fill:#fff"/><path d="M337.74,329.88h0c-.15,0-4.3,1.05-4.3,3.22v7.58H342V333.1C342,330.93,337.89,329.91,337.74,329.88Z" style="fill:#fff"/><path d="M363.43,329.88h0c-.15,0-4.31,1.05-4.31,3.22v7.58h8.62V333.1C367.74,330.93,363.58,329.91,363.43,329.88Z" style="fill:#fff"/><path d="M65.91,324.22s49.61-6.17,101.79,20.54,65.8,11.88,125.7-1.12,90.71,0,90.71,0l.16,90.65H67.63Z" style="fill:#44268e"/><path d="M67.63,380s76.3-22.44,126.45,2.29S314.71,340.15,345.3,336s39,16.07,39,16.07v82.24l-14.62,2.06-2,23.87H84.22l-3.16-22.59-13.43-3.34Z" style="fill:#4e32a5"/><path d="M67.63,394.53s33.64-6.83,70.2,16.35S206,443.4,271.44,418.31s72.18-48,112.83-48v64l-14.62,2.06-2,23.87H84.22l-3.16-22.59-13.43-3.34Z" style="fill:#644ad1"/><path d="M386.65,213.48h-9v-5.95c0-51.72-33.39-56.79-33.72-56.84l-5.76-.77.63-5.77c.05-.42,4.23-42.53-15.14-73.54a2.42,2.42,0,0,0-.27-.36c-1.58-1.71-4.38-4.88-8.57-9.69C289,30.92,240.9,11.87,226.76,6.74a2.37,2.37,0,0,0-1.62,0C211,11.89,162.83,31,137.11,60.56c-4.19,4.82-7,8-8.57,9.69a2.42,2.42,0,0,0-.27.36c-19.5,31.2-15.19,73.13-15.14,73.55l.63,5.76-5.8.78c-1.38.21-33.68,5.82-33.68,56.83v5.95h-9a2.38,2.38,0,0,0-2.38,2.38V436.67a2.39,2.39,0,0,0,2.38,2.38H79.46v23.54A2.38,2.38,0,0,0,81.84,465H370.06a2.38,2.38,0,0,0,2.38-2.38V439.05h14.21a2.39,2.39,0,0,0,2.38-2.38V215.86A2.38,2.38,0,0,0,386.65,213.48Zm-2.38,220.81H370.06a2.39,2.39,0,0,0-2.38,2.38v23.55H84.22V436.67a2.38,2.38,0,0,0-2.38-2.38H67.63V218.23h9A2.37,2.37,0,0,0,79,215.86v-8.33c0-47,28.45-51.95,29.61-52.13l8-1.07a2.38,2.38,0,0,0,2-2.61l-.88-8.08c0-.4-4.1-40.65,14.33-70.33,1.62-1.76,4.41-4.92,8.51-9.63C165.68,35,214.39,15.77,226,11.5c11.56,4.26,60.23,23.4,85.25,52.18,4.09,4.7,6.88,7.86,8.52,9.63C338,102.84,334.09,143.24,334,143.64l-.88,8.08a2.38,2.38,0,0,0,2,2.61l8,1.07c1.21.18,29.63,5,29.63,52.13v8.33a2.37,2.37,0,0,0,2.37,2.37h9Z" style="fill:#eaaa63"/><path d="M181.26,495.47S78.25,411.68,11.46,430c0,0,12.66,38.37,65.05,65.46Z" style="fill:#39673d"/><path d="M132.8,492.87l-11.54-6.1-15.51-34.71a.65.65,0,0,0-.86-.33.66.66,0,0,0-.33.87l14.83,33.18L90.83,470.67l-.11-.05L59.57,454.14,47.46,429.62a.64.64,0,0,0-.87-.3.65.65,0,0,0-.3.88l11.3,22.9L15.42,430.79a.66.66,0,0,0-.88.28.65.65,0,0,0,.27.88l73.41,38.82-37.63,2.92a.65.65,0,0,0,0,1.3h0l39.69-3.07,3.7,2L55,477.21a.66.66,0,0,0,.05,1.31h.06L96.22,475l36,19a.63.63,0,0,0,.3.07.64.64,0,0,0,.58-.35A.65.65,0,0,0,132.8,492.87Z" style="fill:#e8edc0"/><path d="M129.27,495.47h81.67S142.36,393.77,65.53,378.06C65.53,378.06,55.93,424,129.27,495.47Z" style="fill:#51924b"/><path d="M171.23,493c-8.14-9-17.32-19.1-26.77-29.41l4.44-36.13a.65.65,0,1,0-1.3-.16l-4.3,35c-.34-.38-.68-.75-1-1.12l4.34-34.83a.65.65,0,1,0-1.3-.16l-4.2,33.72c-34.69-37.84-71.56-77.44-72-78a.66.66,0,0,0-.93,0,.65.65,0,0,0,0,.92c.36.4,21.64,23.24,47,50.76l-35.79-9.27a.65.65,0,1,0-.33,1.26l37.76,9.79c14.49,15.71,30.18,32.8,44,48l-43.55-7.19a.64.64,0,0,0-.75.54.65.65,0,0,0,.54.75L162.2,485c2.78,3.05,5.47,6,8.06,8.9a.66.66,0,0,0,.48.21.61.61,0,0,0,.44-.17A.65.65,0,0,0,171.23,493Z" style="fill:#ebf2aa"/><path d="M270.57,495.47s103-83.79,169.79-65.46c0,0-12.66,38.37-65,65.46Z" style="fill:#39673d"/><path d="M319,492.87l11.53-6.1,15.51-34.71a.66.66,0,0,1,1.2.54l-14.83,33.18L361,470.67l.1-.05,31.16-16.48,12.1-24.52a.66.66,0,1,1,1.18.58l-11.31,22.9,42.17-22.31a.67.67,0,0,1,.89.28.65.65,0,0,1-.28.88l-73.4,38.82,37.62,2.92a.65.65,0,0,1,.61.7.66.66,0,0,1-.66.6h-.05l-39.69-3.07-3.7,2,39.08,3.33a.66.66,0,0,1-.05,1.31h-.06L355.6,475l-36,19a.67.67,0,0,1-.31.07.65.65,0,0,1-.58-.35A.66.66,0,0,1,319,492.87Z" style="fill:#e8edc0"/><path d="M322.56,495.47H240.88s68.58-101.7,145.41-117.41C386.29,378.06,395.9,424,322.56,495.47Z" style="fill:#51924b"/><path d="M280.59,493c8.14-9,17.33-19.1,26.77-29.41l-4.44-36.13a.65.65,0,0,1,.57-.73.65.65,0,0,1,.73.57l4.31,35,1-1.12-4.34-34.83a.65.65,0,0,1,.57-.73.65.65,0,0,1,.73.57l4.2,33.72c34.69-37.84,71.57-77.44,72.05-78a.65.65,0,0,1,1,.89c-.37.4-21.64,23.24-47,50.76l35.8-9.27a.65.65,0,1,1,.33,1.26l-37.77,9.79c-14.49,15.71-30.18,32.8-44,48l43.55-7.19a.65.65,0,0,1,.76.54.67.67,0,0,1-.54.75L289.62,485c-2.77,3.05-5.47,6-8.05,8.9a.67.67,0,0,1-.49.21.63.63,0,0,1-.44-.17A.65.65,0,0,1,280.59,493Z" style="fill:#ebf2aa"/><path d="M175.12,495.47h22.19s-.41-14.7-10.58-14.7C174,480.77,175.12,495.47,175.12,495.47Z" style="fill:#39281c"/><path d="M213.76,481.58l2.15-10.41H229.3L227.21,482s-2.12,8-11.3,6.13C211.9,487.3,213.76,481.58,213.76,481.58Z" style="fill:#f2ada5"/><path d="M212.31,480.77s-5.54,6.43-5.54,14.7h37.81s-4.73-13.79-17.37-13.48c0,0-4.62,4.59-10.58,4S216.05,480.41,212.31,480.77Z" style="fill:#39281c"/><path d="M210.2,266.57H191.92s1.28,10.08-4.88,14.85c0,0,3.79,9.93,14,9.93s14-9.93,14-9.93C208.91,276.65,210.2,266.57,210.2,266.57Z" style="fill:#de9595"/><path d="M210.2,266.57H191.92a23.16,23.16,0,0,1-.09,5.34c14.45,2.54,18.26-3.22,18.26-3.22h0A17.84,17.84,0,0,1,210.2,266.57Z" style="fill:#c47e7e"/><path d="M186.43,260.09a5.24,5.24,0,0,0,1.51.1,3.63,3.63,0,0,0,1.83-.64c2.43-1.76,2-6.45-1-10.49s-7.33-5.88-9.76-4.12-2,6.46.95,10.49a13.9,13.9,0,0,0,3.47,3.36,8.76,8.76,0,0,0,2.94,1.3Z" style="fill:#de9595"/><path d="M224.11,244.94c-2.43-1.76-6.8.09-9.76,4.12s-3.38,8.73-.95,10.49a3.09,3.09,0,0,0,.74.39,5.27,5.27,0,0,0,4-.29,12.82,12.82,0,0,0,5-4.22C226.11,251.4,226.54,246.7,224.11,244.94Z" style="fill:#de9595"/><path d="M186.42,238.15v18.29a14.65,14.65,0,0,0,29.29,0V238.15Z" style="fill:#f2ada5"/><path d="M188.83,252.89a.43.43,0,0,1-.25-.4.42.42,0,0,1,.23-.34l.07-.06c2.56-2.24,4.82-.81,6.27.78a.41.41,0,1,1-.61.55c-2.63-2.89-4.5-1.26-5.12-.72a.58.58,0,0,1-.45.22A.32.32,0,0,1,188.83,252.89Z" style="fill:#2c2636"/><path d="M212.8,252.89a.41.41,0,0,0,.24-.4.39.39,0,0,0-.22-.34l-.07-.06c-2.56-2.24-4.82-.81-6.27.78a.41.41,0,0,0,.61.55c2.63-2.89,4.5-1.26,5.11-.72a.61.61,0,0,0,.46.22A.32.32,0,0,0,212.8,252.89Z" style="fill:#2c2636"/><path d="M188.32,258.16c-1.19.85-.84,3.36.78,5.6s3.9,3.38,5.09,2.53.84-3.35-.78-5.6S189.51,257.31,188.32,258.16Z" style="fill:#df7660"/><path d="M213.88,258.16c1.19.85.84,3.36-.78,5.6s-3.9,3.38-5.09,2.53-.84-3.35.78-5.6S212.69,257.31,213.88,258.16Z" style="fill:#df7660"/><path d="M203.59,257.49h-2.75l-2.16,0h-.14c-.2,0-.37.12-.37.27v1.14c0,.15.16.27.37.27h.14s.77.11.88.49c0,0,0,.19.85.2h1.29c.87,0,.85-.19.85-.19.12-.37.89-.46.89-.46h.14a.35.35,0,0,0,.38-.27v-1.14C204,257.61,203.79,257.49,203.59,257.49Z" style="fill:#ea344f"/><path d="M198.37,257.47s2.11-3,5.39,0Z" style="fill:#e0a38b"/><path d="M198.16,263.53s2,4,6.25-.47Z" style="fill:#c04336"/><path d="M189.68,248.48s3.14-1.23,5.36-.57,3,.59,2.53-1.08c-.36-1.2-2.8-2.32-2.82-1.88s-3.9.31-5.43,1.71C188.18,247.71,188.32,249.13,189.68,248.48Z" style="fill:#2c2636"/><path d="M212.44,248.48s-3.15-1.23-5.37-.57-3,.59-2.53-1.08c.36-1.2,2.81-2.32,2.83-1.88s3.9.31,5.42,1.71C213.93,247.71,213.79,249.13,212.44,248.48Z" style="fill:#2c2636"/><path d="M182.46,240.44a36.24,36.24,0,0,0-.9,3.85,11.83,11.83,0,0,1,3.06,1.51s1,11.33,1.84,11.64c0,0,.88-14.39,1.4-15.62s6-2.27,6-2.27S187.45,238.25,182.46,240.44Z" style="fill:#2c2636"/><path d="M219.84,240.44c-5-2.19-11.41-.89-11.41-.89s5.5,1,6,2.27,1.4,15.62,1.4,15.62c.79-.31,1.84-11.64,1.84-11.64.51-.61,3.06-1.17,3.06-1.17C220.52,243.11,219.84,240.44,219.84,240.44Z" style="fill:#2c2636"/><path d="M181.35,241.34s23.87-2.84,39.87-.35V223.31s-19.93-6.55-39.87.5Z" style="fill:#fff"/><path d="M217.56,245.4a.41.41,0,0,0-.47.33l-1.9,10.86a49.36,49.36,0,0,0-14.13-1.7,49.46,49.46,0,0,0-14.14,1.7L185,245.73a.42.42,0,0,0-.48-.33.41.41,0,0,0-.33.47l2,11.46c1.88,15.29,14.84,14,14.84,14s12.95,1.29,14.84-14l2-11.46A.41.41,0,0,0,217.56,245.4Z" style="fill:#8ce7ee"/><path d="M209.79,258a51.38,51.38,0,0,0-17.95,0,.41.41,0,0,0-.32.49.4.4,0,0,0,.48.31,50.71,50.71,0,0,1,17.63,0h.08a.41.41,0,0,0,.08-.81Z" style="fill:#61c8ca"/><path d="M209.79,260.21a50.83,50.83,0,0,0-17.95,0,.4.4,0,0,0-.32.48.4.4,0,0,0,.48.32,50.16,50.16,0,0,1,17.63,0h.08a.42.42,0,0,0,.4-.33A.4.4,0,0,0,209.79,260.21Z" style="fill:#61c8ca"/><path d="M209.79,262.59a51.1,51.1,0,0,0-17.95,0,.41.41,0,1,0,.16.8,50.16,50.16,0,0,1,17.63,0h.08a.42.42,0,0,0,.4-.33A.4.4,0,0,0,209.79,262.59Z" style="fill:#61c8ca"/><path d="M239.85,363.35s1.19,15.33-6.39,15.33l-.59-8.17v-9Z" style="fill:#f2ada5"/><polygon points="173.06 370.51 166.09 480.77 240.88 480.77 232.87 370.51 173.06 370.51" style="fill:#320e5b"/><path d="M232.1,371l-45.88,1.57-13.28-1a.39.39,0,0,0-.44.37.4.4,0,0,0,.37.44l12.92,1L182.1,480.75a.41.41,0,0,0,.4.42h0a.41.41,0,0,0,.41-.39l3.68-107.42,45.52-1.56a.41.41,0,0,0,.39-.42A.43.43,0,0,0,232.1,371Z" style="fill:#57279b"/><path d="M166.38,374.06A.85.85,0,0,0,166,374a.74.74,0,0,0,0-.44.82.82,0,0,0-1-.55c-1.26.37-12.42,3.76-13.93,8.84a4.33,4.33,0,0,0,1.1,4.24,5.26,5.26,0,0,0,4,2.11,4.11,4.11,0,0,0,.78-.07c5.36-1,9.53-11.8,10-13A.81.81,0,0,0,166.38,374.06Zm-9.8,12.47c-1.11.2-2.15-.29-3.19-1.5a2.79,2.79,0,0,1-.78-2.71c1-3.53,9.36-6.7,12.68-7.69C164.09,377.8,160.31,385.87,156.58,386.53Z" style="fill:#aa6723"/><path d="M191.74,272.5s-19.91,8.78-24.64,10.62-15.41,39.2-15.41,42.06c0,2.52,4.31,31.36,6.46,39.43a2,2,0,0,0,2.67,1.31,27.6,27.6,0,0,0,10.9-7.87l-1.25,12.46h64.25l.57-3.74L244,360.2s-7.48-73.2-9.32-74.84-24.35-12.86-24.35-12.86S202.07,290.8,191.74,272.5Z" style="fill:#fff"/><path d="M178.53,298.29a.42.42,0,0,0-.57.12c-2,3-4.63,16.64-6.48,27.4,1.52-12.19,3.93-28.39,5.35-31.82a.4.4,0,0,0-.22-.53.41.41,0,0,0-.54.22c-2.24,5.4-6.91,42.11-6.81,45.9.1,4.06,2,17.94,2.05,18.53a.41.41,0,0,0,.41.35h.05a.41.41,0,0,0,.35-.46c0-.15-1.93-14.34-2-18.4.19-1.25,5.41-35.93,8.57-40.74A.42.42,0,0,0,178.53,298.29Z" style="fill:#d4c8e4"/><path d="M227.5,293.7a.41.41,0,0,0-.78.27c2.83,8,8.1,72.19,8.16,72.83a.4.4,0,0,0,.41.38h0a.42.42,0,0,0,.38-.44C235.48,364.09,230.36,301.83,227.5,293.7Z" style="fill:#d4c8e4"/><path d="M201.06,280.22a.41.41,0,0,0-.41.41v31.18a.4.4,0,0,0,.41.4.41.41,0,0,0,.41-.4V280.63A.42.42,0,0,0,201.06,280.22Z" style="fill:#d4c8e4"/><path d="M161.11,365.8s-.64-4.79,3.47-6.78,6.48-.15,9,1.64,7.75,5.3,5.08,9c0,0,1.24,3.47-2.36,3.73a4.54,4.54,0,0,1-3.7,1.78s-.19,1.18-2.38,1.07a3.94,3.94,0,0,1-2.81-.25C165.87,375.25,161.4,369.16,161.11,365.8Z" style="fill:#f2ada5"/><path d="M179.11,369.53a.41.41,0,0,0-.5-.28c-.82.21-3.17.63-4.26-.1a1.24,1.24,0,0,1-.57-.94,1.08,1.08,0,0,1,.28-1,3.72,3.72,0,0,1,2.59-.48.42.42,0,0,0,.47-.35.41.41,0,0,0-.35-.46c-.09,0-2.26-.3-3.29.71a1.89,1.89,0,0,0-.52,1.68,2,2,0,0,0,.93,1.52,4.25,4.25,0,0,0,2.32.55,10.67,10.67,0,0,0,2.61-.35A.41.41,0,0,0,179.11,369.53Z" style="fill:#d37e44"/><path d="M176.25,373a6.61,6.61,0,0,1-3.21-.39.41.41,0,0,0-.52.25.4.4,0,0,0,.26.52,8.62,8.62,0,0,0,2.76.49,4,4,0,0,0,.91-.08.4.4,0,0,0,.3-.49A.41.41,0,0,0,176.25,373Z" style="fill:#d37e44"/><path d="M172.67,374.74a3.65,3.65,0,0,1-2.37-1,.42.42,0,0,0-.58-.06.4.4,0,0,0-.06.57,4.57,4.57,0,0,0,3,1.28h0a.41.41,0,0,0,.41-.39A.42.42,0,0,0,172.67,374.74Z" style="fill:#d37e44"/><path d="M170.44,375.86a6.65,6.65,0,0,1-2-1.51.41.41,0,0,0-.57-.09.41.41,0,0,0-.1.57,7.28,7.28,0,0,0,2.35,1.76.39.39,0,0,0,.18,0,.4.4,0,0,0,.37-.23A.39.39,0,0,0,170.44,375.86Z" style="fill:#d37e44"/><path d="M216.64,266.61c.06.1.13,0,.13,0Z" style="fill:#c47e7e"/><path d="M331.69,348.35a11.42,11.42,0,0,0-8.74-4.24s-23.47-10.38-33.45,3.06a.64.64,0,0,0,.59,1l.93-.11-.41,1s19.05-6.92,27.75,2.77Z" style="fill:#aa6723"/><path d="M349.29,376.17s-2.26,5.34-4.94,4.83-7.81-2.33-12.84-2.4-7.4-.28-9.15-1.3c0,0,0,4.62.62,6.06s-2.77,1.44-5.14-.62c0,0-1.85,4.83-3.9,11.72s-8.12,17.67-9.66,22.81S298,432,293.69,437s-7,15.41-7.19,23.43-4.42,11.51-.51,20.75,5.75,11.61,5.55,14.29h-9.66s-1-5.24-2.57-7.71-2.57-4.52-1.95-10.07a69.53,69.53,0,0,0-.19-18.6c-1.05-6-1.66-12-1.66-12s-2,12.95-3.6,19,1,19.11,3.19,21.89,4.21,5.24,4.21,7.5H269.14a24.18,24.18,0,0,0-3.19-8.22c-2.47-3.81-1.85-10.38-1.23-14.18s-.82-23.33-3.09-28.26c0,0-12.43,6-32.67.82a10.42,10.42,0,0,1-4.52,2.47s-5.86,10.68-5.45,16.23,5.34,21.07,7.19,22.81,4.73,5.86,4.73,8.33H220.22s-1.74-1.34-2.67-5.65-6.47-17.17-8.42-20.56,1.33-13.87,1.74-17.46a15.08,15.08,0,0,0-.1-5.35s-6.47,13.36-6.06,18.09,3.9,19.83,7.6,23.63,4,7.3,4,7.3h-9.56s-2.87-3.19-3.49-6.48-6-18.29-8.12-21.88,3.91-15.62,3-20-9.45-20.86-8.73-31.86c0,0-4.32.62-6.58-2.77a2.87,2.87,0,0,0,2.57-1.44s-15.21-8.43-14.49-20.86c0,0,8.12,8.84,17.78,4.32s22.4-11.51,37.91-9.25,25.59,1,37.2-2.16,18.5,3.39,27.44-3.29,18.91-26.1,27.13-27.95c0,0,2.46-5.24,9.45-2.46,0,0,2.05-2.88,5.45,0s2.15,6.57,7.29,11.71S351.55,371.54,349.29,376.17Z" style="fill:#fbb673"/><path d="M349.43,371.66a1.24,1.24,0,0,0-.61-.39c-.59-.17-1.74-.42-2.24.12a2.34,2.34,0,0,0-.34,2.86,7.15,7.15,0,0,0,2.33,1.59,1.33,1.33,0,0,0,1.56-.3C350.72,374.87,351.14,373.63,349.43,371.66Z" style="fill:#aa6723"/><path d="M271.91,466.08c1.64-6.06,3.6-19,3.6-19,.25-3.29-.05-9.66-.05-9.66-3.81,3.75-13.83,7.4-13.83,7.4,2.27,4.93,3.7,24.45,3.09,28.26s-1.24,10.37,1.23,14.18a24.18,24.18,0,0,1,3.19,8.22h10.17c0-2.26-2.06-4.73-4.21-7.5S270.27,472.14,271.91,466.08Z" style="fill:#d68a4c"/><path d="M204.71,464.54c-.41-4.73,6.06-18.09,6.06-18.09s0-6.47-8.63-12.12c-7.76-5.08-11.86-16.45-12.61-18.71.49-.05,2.77-.32,3.88-1.34.86-.27,6.3-2.32,6.3-10.51a.42.42,0,0,0-.83,0c0,8.19-5.54,9.68-5.78,9.74a.45.45,0,0,0-.19.11c-.81.81-2.83,1.13-3.54,1.18a.42.42,0,0,0-.38.45.4.4,0,0,0,.39.37c-.49,11,7.84,27.08,8.75,31.45s-5.14,16.44-3,20,7.5,18.59,8.12,21.88,3.49,6.48,3.49,6.48h9.56s-.31-3.5-4-7.3S205.12,469.26,204.71,464.54Z" style="fill:#d68a4c"/><path d="M311.57,367.22c-.92-7.16,4.66-12.47,5.54-13a.41.41,0,0,0,0-.77c-.24-.08-.42.05-.71.29s-6.67,5.59-5.63,13.61c1.2,9.34,5.15,14.1,6.79,15.71a.46.46,0,0,0,.29.11.42.42,0,0,0,.3-.12.41.41,0,0,0,0-.58C316.55,380.9,312.74,376.31,311.57,367.22Z" style="fill:#d68a4c"/><path d="M323.16,365.09l-.46-.95c-1.76-3.65-1.34-6-1.34-6.05a.41.41,0,1,0-.8-.16c0,.11-.49,2.65,1.4,6.56l.46,1c1.43,2.9,1.54,3.14.49,5.84a13.61,13.61,0,0,0-1,6,.41.41,0,0,0,.4.37h.05a.42.42,0,0,0,.36-.46,13.25,13.25,0,0,1,.9-5.66C324.86,368.56,324.6,368,323.16,365.09Z" style="fill:#d68a4c"/><path d="M224.28,448.48a.41.41,0,0,0,.16,0,.42.42,0,0,0,.38-.26s.57-1.39,1.32-3.29c.9.38,2.59,1,2.67,1.05l.15,0a.41.41,0,0,0,.38-.26.4.4,0,0,0-.24-.53c-.7-.27-2-.76-2.66-1.05,1.12-2.86,2.54-6.59,3.25-9a.4.4,0,0,0-.27-.51.4.4,0,0,0-.51.27c-.73,2.45-2.18,6.27-3.31,9.13a.47.47,0,0,0-.09.12.39.39,0,0,0,0,.21c-.79,2-1.4,3.48-1.41,3.52A.41.41,0,0,0,224.28,448.48Z" style="fill:#d68a4c"/><path d="M291,493.93h-8.78a.41.41,0,0,0-.42.41.42.42,0,0,0,.42.41H291a.41.41,0,0,0,.41-.41A.41.41,0,0,0,291,493.93Z" style="fill:#d68a4c"/><path d="M229.45,493.93h-8.78a.41.41,0,0,0-.41.41.41.41,0,0,0,.41.41h8.78a.42.42,0,0,0,.42-.41A.41.41,0,0,0,229.45,493.93Z" style="fill:#d68a4c"/><circle cx="328.73" cy="360.17" r="2.16" style="fill:#51462a"/><path d="M313.53,397.79s0,0,0-.06a.44.44,0,0,0-.06-.16,1,1,0,0,0-.08-.14l-.09-.1-.15-.12s0,0,0,0c-19.11-9.54-18.21-19.66-18.2-19.81a.82.82,0,0,0-.71-.92.83.83,0,0,0-.92.71c-.06.46-1.19,11.2,18.69,21.29.65,4.6-.51,7.81-3.54,9.8C289.7,420.5,206.74,381.72,194,373.52c-13.71-8.79-19.4-5.91-19.64-5.78a.82.82,0,0,0-.33,1.1.83.83,0,0,0,1.1.35s5.25-2.45,18,5.72c5.88,3.76,29.87,15.68,54.79,25,16.3,6.12,36.14,12.31,49.74,12.31,4.84,0,8.89-.78,11.72-2.63C313,407.22,314.4,403.24,313.53,397.79Z" style="fill:#aa6723"/><path d="M206.45,158.31a4.62,4.62,0,0,0,1.66,2.8,10.83,10.83,0,0,0,1.46.69,3.09,3.09,0,0,1,.55.27,9.88,9.88,0,0,0-2.44,1.31,8.92,8.92,0,0,0-1.33,2.47,8.45,8.45,0,0,0-1.32-2.46,7.25,7.25,0,0,0-2.44-1.25V162c.19-.08.37-.17.56-.23a3.82,3.82,0,0,0,2.23-1.48,12.73,12.73,0,0,0,.67-1.39c.09-.2.16-.41.25-.62Z" style="fill:#9f86ea"/><path d="M124.76,102.29a4.58,4.58,0,0,0,1.65,2.8,12.2,12.2,0,0,0,1.46.69,3.87,3.87,0,0,1,.55.26,10.09,10.09,0,0,0-2.44,1.32,8.92,8.92,0,0,0-1.33,2.47,8.64,8.64,0,0,0-1.32-2.47,7.41,7.41,0,0,0-2.44-1.24V106c.19-.08.37-.17.56-.23a3.82,3.82,0,0,0,2.23-1.48,11.13,11.13,0,0,0,.67-1.39c.09-.2.16-.41.25-.62Z" style="fill:#9f86ea"/><path d="M283.77,258.32a4.54,4.54,0,0,0,1.66,2.8,10.83,10.83,0,0,0,1.46.69,3.47,3.47,0,0,1,.55.27A9.91,9.91,0,0,0,285,263.4a8.61,8.61,0,0,0-1.33,2.46,8.61,8.61,0,0,0-1.33-2.46,7.48,7.48,0,0,0-2.43-1.25V262l.55-.23a3.87,3.87,0,0,0,2.24-1.48,11.64,11.64,0,0,0,.66-1.38c.09-.21.17-.42.25-.63Z" style="fill:#9f86ea"/><path d="M256.32,28.72A4.55,4.55,0,0,0,258,31.51a12.25,12.25,0,0,0,1.46.7,4.46,4.46,0,0,1,.55.26,10.16,10.16,0,0,0-2.45,1.32,8.89,8.89,0,0,0-1.32,2.47,8.53,8.53,0,0,0-1.33-2.47,7.46,7.46,0,0,0-2.43-1.24v-.11a5.31,5.31,0,0,1,.55-.23,3.87,3.87,0,0,0,2.24-1.48,11.07,11.07,0,0,0,.66-1.39c.09-.2.17-.41.25-.62Z" style="fill:#9f86ea"/><path d="M350.57,205a4.57,4.57,0,0,0,1.65,2.8,11.44,11.44,0,0,0,1.46.69,3.09,3.09,0,0,1,.55.27,10.28,10.28,0,0,0-2.44,1.32,8.86,8.86,0,0,0-1.33,2.46,8.58,8.58,0,0,0-1.32-2.46,7.43,7.43,0,0,0-2.44-1.25v-.11l.56-.23a3.82,3.82,0,0,0,2.23-1.48,10.33,10.33,0,0,0,.67-1.38c.09-.21.17-.42.25-.63Z" style="fill:#9f86ea"/><path d="M165.8,59.27a3.9,3.9,0,0,0,1.18,2.3,6.9,6.9,0,0,0,1,.57,2.56,2.56,0,0,1,.39.22,7,7,0,0,0-1.73,1.08,7.84,7.84,0,0,0-.94,2,7.55,7.55,0,0,0-.94-2,5.17,5.17,0,0,0-1.73-1v-.09c.13-.06.26-.14.4-.19A2.74,2.74,0,0,0,165,60.93a11.37,11.37,0,0,0,.47-1.14c.07-.17.12-.34.18-.52Z" style="fill:#9f86ea"/><path d="M286.41,172.94a3.93,3.93,0,0,0,1.18,2.3,7.94,7.94,0,0,0,1,.57,1.54,1.54,0,0,1,.39.22,6.51,6.51,0,0,0-1.73,1.08,7.55,7.55,0,0,0-.94,2,7.55,7.55,0,0,0-.94-2,5,5,0,0,0-1.73-1V176a2.93,2.93,0,0,1,.4-.19,2.75,2.75,0,0,0,1.58-1.22,9.71,9.71,0,0,0,.47-1.14c.07-.16.12-.34.18-.51Z" style="fill:#9f86ea"/><path d="M128.46,143.08a2.24,2.24,0,0,0,.67,1.3,4.71,4.71,0,0,0,.58.32,1.27,1.27,0,0,1,.22.13,3.9,3.9,0,0,0-1,.61,4.66,4.66,0,0,0-.53,1.15,4,4,0,0,0-.53-1.15,2.89,2.89,0,0,0-1-.58v-.05l.22-.11a1.5,1.5,0,0,0,.9-.69,6.14,6.14,0,0,0,.27-.64c0-.1.06-.19.1-.29Z" style="fill:#9f86ea"/><path d="M183.66,82.13a2.23,2.23,0,0,0,.66,1.3,4.83,4.83,0,0,0,.59.32,1.79,1.79,0,0,1,.22.13,3.57,3.57,0,0,0-1,.61,4,4,0,0,0-.53,1.15,4.66,4.66,0,0,0-.53-1.15,3,3,0,0,0-1-.58v0a1.51,1.51,0,0,1,.22-.11,1.56,1.56,0,0,0,.9-.69,4.51,4.51,0,0,0,.26-.64c0-.1.07-.2.1-.29Z" style="fill:#9f86ea"/><path d="M188,42.86a2.18,2.18,0,0,0,.67,1.31,6.55,6.55,0,0,0,.58.32.8.8,0,0,1,.22.12,4.57,4.57,0,0,0-1,.61,4.83,4.83,0,0,0-.53,1.15,4,4,0,0,0-.53-1.14,2.82,2.82,0,0,0-1-.58v-.06l.22-.1a1.57,1.57,0,0,0,.9-.69,6.32,6.32,0,0,0,.27-.65c0-.09.06-.19.1-.29Z" style="fill:#9f86ea"/><path d="M134.47,72.89a2.18,2.18,0,0,0,.67,1.31,5.39,5.39,0,0,0,.58.32,1.19,1.19,0,0,1,.22.12,4.05,4.05,0,0,0-1,.62,4.1,4.1,0,0,0-.53,1.14,4.26,4.26,0,0,0-.53-1.14,2.82,2.82,0,0,0-1-.58v-.05l.22-.11a1.57,1.57,0,0,0,.9-.69,6.32,6.32,0,0,0,.27-.65c0-.09.06-.19.1-.29Z" style="fill:#9f86ea"/><path d="M223,41.11a2.23,2.23,0,0,0,.66,1.3,3.37,3.37,0,0,0,.59.32,1.79,1.79,0,0,1,.22.13,3.57,3.57,0,0,0-1,.61,4.16,4.16,0,0,0-.53,1.15,4.34,4.34,0,0,0-.54-1.15,2.8,2.8,0,0,0-1-.58v0l.23-.11a1.55,1.55,0,0,0,.9-.68c.1-.21.18-.43.26-.65s.07-.19.1-.29Z" style="fill:#9f86ea"/><path d="M267.42,87.29a2.21,2.21,0,0,0,.67,1.3,4.24,4.24,0,0,0,.59.33,1,1,0,0,1,.22.12,3.83,3.83,0,0,0-1,.61,4.5,4.5,0,0,0-.54,1.15,4.16,4.16,0,0,0-.53-1.15,3,3,0,0,0-1-.58v0l.23-.1a1.55,1.55,0,0,0,.89-.69,6.32,6.32,0,0,0,.27-.65,2.47,2.47,0,0,0,.1-.29Z" style="fill:#9f86ea"/><path d="M323.37,146.59a2.23,2.23,0,0,0,.66,1.3,4.19,4.19,0,0,0,.59.32,1.79,1.79,0,0,1,.22.13,3.57,3.57,0,0,0-1,.61,4,4,0,0,0-.53,1.15,4.34,4.34,0,0,0-.54-1.15,2.85,2.85,0,0,0-1-.58v-.05a1.51,1.51,0,0,1,.22-.11,1.56,1.56,0,0,0,.9-.69,5,5,0,0,0,.26-.64c0-.1.07-.2.1-.29Z" style="fill:#9f86ea"/><path d="M247.82,141.32a2.23,2.23,0,0,0,.66,1.31,4.19,4.19,0,0,0,.59.32,1.64,1.64,0,0,1,.22.12c-.33.22-.71.3-1,.62a4.1,4.1,0,0,0-.53,1.14,4.28,4.28,0,0,0-.54-1.14,2.7,2.7,0,0,0-1-.58v-.05a1.51,1.51,0,0,1,.22-.11,1.61,1.61,0,0,0,.9-.69,5,5,0,0,0,.26-.64c0-.1.07-.2.1-.3Z" style="fill:#9f86ea"/><path d="M321.86,102.29a2.23,2.23,0,0,0,.66,1.3,3.37,3.37,0,0,0,.59.32,1.79,1.79,0,0,1,.22.13,3.57,3.57,0,0,0-1,.61,4.5,4.5,0,0,0-.54,1.15,4,4,0,0,0-.53-1.15,2.8,2.8,0,0,0-1-.58v0l.23-.11a1.5,1.5,0,0,0,.89-.68,4.67,4.67,0,0,0,.27-.65,2.47,2.47,0,0,0,.1-.29Z" style="fill:#9f86ea"/><path d="M144.73,193.45a2.24,2.24,0,0,0,.67,1.3,4.71,4.71,0,0,0,.58.32,1.55,1.55,0,0,1,.22.12,4.25,4.25,0,0,0-1,.62,4.76,4.76,0,0,0-.53,1.14,4,4,0,0,0-.53-1.14,2.65,2.65,0,0,0-1-.58v0l.22-.11a1.54,1.54,0,0,0,.9-.69c.11-.2.18-.43.27-.64s.07-.2.1-.29Z" style="fill:#9f86ea"/><path d="M86.34,186.29a2.21,2.21,0,0,0,.67,1.3,4.24,4.24,0,0,0,.59.33,1,1,0,0,1,.22.12,3.83,3.83,0,0,0-1,.61,4.5,4.5,0,0,0-.54,1.15,4.16,4.16,0,0,0-.53-1.15,2.77,2.77,0,0,0-1-.57V188l.23-.1a1.55,1.55,0,0,0,.89-.69,6.32,6.32,0,0,0,.27-.65,2.47,2.47,0,0,0,.1-.29Z" style="fill:#9f86ea"/><path d="M119.42,249a2.18,2.18,0,0,0,.67,1.3,4.08,4.08,0,0,0,.58.32,1.19,1.19,0,0,1,.22.12,4.05,4.05,0,0,0-1,.62,4.1,4.1,0,0,0-.53,1.14,4.26,4.26,0,0,0-.53-1.14,2.82,2.82,0,0,0-1-.58v0l.22-.11a1.61,1.61,0,0,0,.9-.69c.11-.2.18-.43.27-.64a2.47,2.47,0,0,1,.1-.29Z" style="fill:#9f86ea"/><path d="M186.49,139.57a2.2,2.2,0,0,0,.66,1.3,3.77,3.77,0,0,0,.59.32,1.27,1.27,0,0,1,.22.13,4,4,0,0,0-1,.61,4.16,4.16,0,0,0-.53,1.15,4.83,4.83,0,0,0-.53-1.15,3.17,3.17,0,0,0-1-.58v0a1.47,1.47,0,0,1,.22-.1,1.61,1.61,0,0,0,.9-.69,4.64,4.64,0,0,0,.26-.65c0-.09.07-.19.11-.29Z" style="fill:#9f86ea"/><path d="M159.67,161.81a3,3,0,0,0,.9,1.76,5.46,5.46,0,0,0,.79.43,2.43,2.43,0,0,1,.3.17,5.11,5.11,0,0,0-1.33.83,5.7,5.7,0,0,0-.71,1.54,5.89,5.89,0,0,0-.72-1.54,3.72,3.72,0,0,0-1.32-.78v-.07c.1-.05.2-.11.3-.15a2.06,2.06,0,0,0,1.21-.93,7.55,7.55,0,0,0,.36-.87c.05-.13.09-.26.13-.39Z" style="fill:#9f86ea"/><path d="M119.43,191.08a3,3,0,0,0,.9,1.76,6.76,6.76,0,0,0,.79.43,1.52,1.52,0,0,1,.3.17,5.49,5.49,0,0,0-1.32.82,5.63,5.63,0,0,0-.72,1.55,5.79,5.79,0,0,0-.72-1.55,4,4,0,0,0-1.32-.78v-.07l.3-.14a2.1,2.1,0,0,0,1.21-.93,6.63,6.63,0,0,0,.36-.87l.14-.39Z" style="fill:#9f86ea"/><path d="M246.32,187.44a3,3,0,0,0,.9,1.75,5.51,5.51,0,0,0,.79.44,2.25,2.25,0,0,1,.3.16,5.11,5.11,0,0,0-1.33.83,6.11,6.11,0,0,0-.72,1.55,5.77,5.77,0,0,0-.71-1.55,3.87,3.87,0,0,0-1.32-.78v-.07l.3-.14a2.14,2.14,0,0,0,1.21-.93,8.36,8.36,0,0,0,.36-.87c.05-.13.09-.26.13-.39Z" style="fill:#9f86ea"/><path d="M327.31,179.14a3,3,0,0,0,.9,1.75,5.51,5.51,0,0,0,.79.44,1.71,1.71,0,0,1,.29.16,5.23,5.23,0,0,0-1.32.83,6.11,6.11,0,0,0-.72,1.55,5.77,5.77,0,0,0-.71-1.55,3.87,3.87,0,0,0-1.32-.78v-.07a2.75,2.75,0,0,1,.3-.14,2.17,2.17,0,0,0,1.21-.93c.14-.27.24-.58.36-.87.05-.13.09-.26.13-.39Z" style="fill:#9f86ea"/><path d="M289.08,62.37a3.9,3.9,0,0,0,1.18,2.3,6.9,6.9,0,0,0,1,.57,1.54,1.54,0,0,1,.39.22A6.78,6.78,0,0,0,290,66.54a7.55,7.55,0,0,0-.94,2,7.55,7.55,0,0,0-.94-2,5,5,0,0,0-1.73-1v-.09a2.93,2.93,0,0,1,.4-.19A2.71,2.71,0,0,0,288.32,64a9.71,9.71,0,0,0,.47-1.14c.07-.16.12-.34.18-.51Z" style="fill:#9f86ea"/><path d="M129.14,107.77v-6.83h-4.55c0-22.75-15.25-28.43-15.25-28.43V65h-5.91v7.51s-15.24,5.68-15.24,28.43H83.64v6.83l4.09,1.82v32.07H83.64V148h3v4.32h39.58V148h3v-6.37H125V109.59Z" style="fill:#f4c327"/><path d="M129.14,107.29H83.64a.47.47,0,0,0-.48.48.48.48,0,0,0,.48.48h45.5a.49.49,0,0,0,.48-.48A.48.48,0,0,0,129.14,107.29Z" style="fill:#b2832f"/><path d="M87.73,110.07H125a.48.48,0,0,0,.48-.48.47.47,0,0,0-.48-.48H87.73a.48.48,0,0,0-.48.48A.49.49,0,0,0,87.73,110.07Z" style="fill:#b2832f"/><path d="M88.19,101.42h36.4a.48.48,0,0,0,.48-.48.49.49,0,0,0-.48-.48H88.19a.48.48,0,0,0-.48.48A.47.47,0,0,0,88.19,101.42Z" style="fill:#b2832f"/><path d="M103.43,73h5.91a.48.48,0,0,0,.48-.48.47.47,0,0,0-.48-.48h-5.91a.47.47,0,0,0-.48.48A.48.48,0,0,0,103.43,73Z" style="fill:#b2832f"/><path d="M87.73,142.14H125a.47.47,0,0,0,.48-.48.48.48,0,0,0-.48-.48H87.73a.49.49,0,0,0-.48.48A.48.48,0,0,0,87.73,142.14Z" style="fill:#b2832f"/><path d="M126.18,147.55H86.6a.48.48,0,0,0,0,1h39.58a.48.48,0,1,0,0-1Z" style="fill:#b2832f"/><path d="M98.89,112.55h-.12c-.06,0-6.12.88-6.12,9v16.88a.47.47,0,0,0,.48.48h11.4a.48.48,0,0,0,.48-.48V121.58C105,113.43,99,112.56,98.89,112.55ZM104.05,138H93.61V121.58c0-6.93,4.59-8,5.22-8.06.58.1,5.22,1.16,5.22,8.06Z" style="fill:#fff"/><path d="M114,112.55h-.12c-.07,0-6.12.88-6.12,9v16.88a.47.47,0,0,0,.48.48h11.4a.48.48,0,0,0,.48-.48V121.58C120.13,113.43,114.07,112.56,114,112.55ZM119.17,138H108.73V121.58c0-6.93,4.59-8,5.21-8.06.58.1,5.23,1.16,5.23,8.06Z" style="fill:#fff"/><line x1="106.39" y1="65" x2="106.39" style="fill:none;stroke:#f4c327;stroke-miterlimit:10;stroke-width:2px"/><path d="M89.52,174.58v-6.83H85c0-22.75-15.24-28.43-15.24-28.43v-7.51H63.81v7.51S48.57,145,48.57,167.75H44v6.83l4.1,1.82v32.07H44v6.37h3v4.32H86.56v-4.32h3v-6.37H85.43V176.4Z" style="fill:#f4c327"/><path d="M89.52,174.1H44a.48.48,0,0,0-.48.48.49.49,0,0,0,.48.48h45.5a.48.48,0,0,0,.48-.48A.47.47,0,0,0,89.52,174.1Z" style="fill:#b2832f"/><path d="M48.12,176.88H85.43a.49.49,0,0,0,.48-.48.48.48,0,0,0-.48-.48H48.12a.47.47,0,0,0-.48.48A.48.48,0,0,0,48.12,176.88Z" style="fill:#b2832f"/><path d="M48.57,168.23H85a.47.47,0,0,0,.48-.48.48.48,0,0,0-.48-.48H48.57a.49.49,0,0,0-.48.48A.48.48,0,0,0,48.57,168.23Z" style="fill:#b2832f"/><path d="M63.81,139.8h5.92a.49.49,0,0,0,.48-.48.48.48,0,0,0-.48-.48H63.81a.48.48,0,0,0-.48.48A.49.49,0,0,0,63.81,139.8Z" style="fill:#b2832f"/><path d="M48.12,209H85.43a.48.48,0,0,0,.48-.48.49.49,0,0,0-.48-.48H48.12a.48.48,0,0,0-.48.48A.47.47,0,0,0,48.12,209Z" style="fill:#b2832f"/><path d="M86.56,214.36H47a.49.49,0,0,0-.48.48.48.48,0,0,0,.48.48H86.56a.47.47,0,0,0,.48-.48A.48.48,0,0,0,86.56,214.36Z" style="fill:#b2832f"/><path d="M59.27,179.37h-.12c-.06,0-6.12.87-6.12,9v16.89a.49.49,0,0,0,.48.48h11.4a.48.48,0,0,0,.48-.48V188.39C65.39,180.24,59.33,179.37,59.27,179.37Zm5.16,25.43H54V188.39c0-6.93,4.59-8,5.22-8.06.58.1,5.22,1.17,5.22,8.06Z" style="fill:#fff"/><path d="M74.39,179.37h-.12c-.06,0-6.12.87-6.12,9v16.89a.49.49,0,0,0,.48.48H80a.48.48,0,0,0,.48-.48V188.39C80.51,180.24,74.45,179.37,74.39,179.37Zm5.16,25.43H69.11V188.39c0-6.93,4.59-8,5.22-8.06.58.1,5.22,1.17,5.22,8.06Z" style="fill:#fff"/><line x1="66.77" y1="131.81" x2="66.77" y2="41.28" style="fill:none;stroke:#f4c327;stroke-miterlimit:10;stroke-width:2px"/><path d="M322.77,108.26v-6.83h4.54c0-22.75,15.25-28.43,15.25-28.43V65.49h5.91V73s15.24,5.68,15.24,28.43h4.55v6.83l-4.09,1.82v32.07h4.09v6.37h-3v4.32H325.72v-4.32h-3v-6.37h4.09V110.08Z" style="fill:#f4c327"/><path d="M322.77,107.78h45.49a.47.47,0,0,1,.48.48.48.48,0,0,1-.48.48H322.77a.48.48,0,0,1-.48-.48A.47.47,0,0,1,322.77,107.78Z" style="fill:#b2832f"/><path d="M364.17,110.56H326.86a.48.48,0,0,1-.48-.48.47.47,0,0,1,.48-.48h37.31a.48.48,0,0,1,.48.48A.49.49,0,0,1,364.17,110.56Z" style="fill:#b2832f"/><path d="M363.71,101.91h-36.4a.48.48,0,0,1-.48-.48.49.49,0,0,1,.48-.48h36.4a.48.48,0,0,1,.48.48A.47.47,0,0,1,363.71,101.91Z" style="fill:#b2832f"/><path d="M348.47,73.48h-5.91a.48.48,0,0,1-.48-.48.47.47,0,0,1,.48-.48h5.91A.47.47,0,0,1,349,73,.48.48,0,0,1,348.47,73.48Z" style="fill:#b2832f"/><path d="M364.17,142.63H326.86a.47.47,0,0,1-.48-.48.48.48,0,0,1,.48-.48h37.31a.49.49,0,0,1,.48.48A.48.48,0,0,1,364.17,142.63Z" style="fill:#b2832f"/><path d="M325.72,148H365.3a.48.48,0,0,1,0,1H325.72a.48.48,0,0,1,0-1Z" style="fill:#b2832f"/><path d="M346.89,122.07V139a.48.48,0,0,0,.48.48h11.4a.47.47,0,0,0,.48-.48V122.07c0-8.15-6.06-9-6.12-9H353C353,113.05,346.89,113.92,346.89,122.07Zm1,0c0-6.9,4.64-8,5.22-8.06.63.1,5.22,1.13,5.22,8.06v16.4H347.85Z" style="fill:#fff"/><path d="M331.78,122.07V139a.47.47,0,0,0,.48.48h11.39a.47.47,0,0,0,.48-.48V122.07c0-8.15-6.05-9-6.11-9h-.13C337.83,113.05,331.78,113.92,331.78,122.07Zm1,0c0-6.9,4.64-8,5.22-8.06.62.1,5.21,1.13,5.21,8.06v16.4H332.74Z" style="fill:#fff"/><line x1="345.51" y1="65.49" x2="345.51" y2="0.49" style="fill:none;stroke:#f4c327;stroke-miterlimit:10;stroke-width:2px"/><path d="M362.38,175.07v-6.83h4.55c0-22.75,15.24-28.43,15.24-28.43V132.3h5.92v7.51s15.24,5.68,15.24,28.43h4.55v6.83l-4.1,1.82V209h4.1v6.37h-3v4.32H365.34v-4.32h-3V209h4.1V176.89Z" style="fill:#f4c327"/><path d="M362.38,174.59h45.5a.48.48,0,0,1,.48.48.49.49,0,0,1-.48.48h-45.5a.49.49,0,0,1-.48-.48A.48.48,0,0,1,362.38,174.59Z" style="fill:#b2832f"/><path d="M403.78,177.37h-37.3a.48.48,0,0,1-.48-.48.47.47,0,0,1,.48-.48h37.3a.47.47,0,0,1,.48.48A.48.48,0,0,1,403.78,177.37Z" style="fill:#b2832f"/><path d="M403.33,168.72h-36.4a.48.48,0,0,1-.48-.48.49.49,0,0,1,.48-.48h36.4a.49.49,0,0,1,.48.48A.48.48,0,0,1,403.33,168.72Z" style="fill:#b2832f"/><path d="M388.09,140.29h-5.92a.49.49,0,0,1-.48-.48.48.48,0,0,1,.48-.48h5.92a.48.48,0,0,1,.48.48A.49.49,0,0,1,388.09,140.29Z" style="fill:#b2832f"/><path d="M403.78,209.44h-37.3A.47.47,0,0,1,366,209a.48.48,0,0,1,.48-.48h37.3a.48.48,0,0,1,.48.48A.47.47,0,0,1,403.78,209.44Z" style="fill:#b2832f"/><path d="M365.34,214.85h39.58a.48.48,0,0,1,.48.48.47.47,0,0,1-.48.48H365.34a.47.47,0,0,1-.48-.48A.48.48,0,0,1,365.34,214.85Z" style="fill:#b2832f"/><path d="M386.51,188.88v16.89a.48.48,0,0,0,.48.48h11.4a.49.49,0,0,0,.48-.48V188.88c0-8.15-6.06-9-6.12-9a.24.24,0,0,0-.12,0C392.57,179.86,386.51,180.73,386.51,188.88Zm1,0c0-6.89,4.64-8,5.22-8.06.63.1,5.22,1.13,5.22,8.06v16.41H387.47Z" style="fill:#fff"/><path d="M371.39,188.88v16.89a.49.49,0,0,0,.48.48h11.4a.49.49,0,0,0,.48-.48V188.88c0-8.15-6.06-9-6.12-9a.24.24,0,0,0-.12,0C377.45,179.86,371.39,180.73,371.39,188.88Zm1,0c0-6.89,4.64-8,5.22-8.06.63.1,5.22,1.13,5.22,8.06v16.41H372.35Z" style="fill:#fff"/><line x1="385.13" y1="132.3" x2="385.13" y2="41.77" style="fill:none;stroke:#f4c327;stroke-miterlimit:10;stroke-width:2px"/><circle cx="34.31" cy="179.28" r="1.13" style="fill:#f4c327"/><circle cx="68.21" cy="117.31" r="1.65" style="fill:#f4c327"/><circle cx="61.31" cy="183.78" r="0.88" style="fill:#f4c327"/><path d="M82.88,216.05a1.5,1.5,0,1,1-1.5-1.5A1.5,1.5,0,0,1,82.88,216.05Z" style="fill:#f4c327"/><path d="M74.88,244a.85.85,0,1,1-.85-.85A.85.85,0,0,1,74.88,244Z" style="fill:#f4c327"/><path d="M115.76,172.48a.66.66,0,1,1-.65-.65A.65.65,0,0,1,115.76,172.48Z" style="fill:#f4c327"/><circle cx="111.21" cy="76.9" r="1" style="fill:#f4c327"/><circle cx="126.69" cy="103.68" r="1.25" style="fill:#f4c327"/><circle cx="105.19" cy="124.74" r="1.25" style="fill:#f4c327"/><circle cx="407.77" cy="179.79" r="1.12" style="fill:#f4c327"/><path d="M372.22,117.82a1.66,1.66,0,1,0,1.65-1.66A1.65,1.65,0,0,0,372.22,117.82Z" style="fill:#f4c327"/><circle cx="380.77" cy="184.29" r="0.87" style="fill:#f4c327"/><path d="M359.2,216.56a1.5,1.5,0,1,0,1.5-1.5A1.5,1.5,0,0,0,359.2,216.56Z" style="fill:#f4c327"/><path d="M367.2,244.51a.85.85,0,1,0,.85-.85A.85.85,0,0,0,367.2,244.51Z" style="fill:#f4c327"/><path d="M326.32,173a.66.66,0,0,0,.66.65.65.65,0,1,0,0-1.3A.66.66,0,0,0,326.32,173Z" style="fill:#f4c327"/><circle cx="330.87" cy="77.41" r="1" style="fill:#f4c327"/><circle cx="315.4" cy="104.19" r="1.25" style="fill:#f4c327"/><circle cx="336.9" cy="125.25" r="1.25" style="fill:#f4c327"/></g></g></svg>