<svg xmlns="http://www.w3.org/2000/svg" xmlns:xlink="http://www.w3.org/1999/xlink" viewBox="0 0 154.35 203.49"><defs><linearGradient id="ff918476-ff21-4b20-b485-dabeefb4dab8" y1="101.75" x2="154.35" y2="101.75" gradientUnits="userSpaceOnUse"><stop offset="0" stop-color="#f8e67d"/><stop offset="0.03" stop-color="#eed56a"/><stop offset="0.1" stop-color="#dbb748"/><stop offset="0.17" stop-color="#cea12f"/><stop offset="0.23" stop-color="#c69420"/><stop offset="0.28" stop-color="#c38f1b"/><stop offset="0.42" stop-color="#e7ca5d"/><stop offset="0.48" stop-color="#f8e67d"/><stop offset="0.53" stop-color="#e7ce63"/><stop offset="0.6" stop-color="#d1ae41"/><stop offset="0.68" stop-color="#c19828"/><stop offset="0.74" stop-color="#b78a19"/><stop offset="0.8" stop-color="#b48514"/><stop offset="0.83" stop-color="#bd9222"/><stop offset="0.91" stop-color="#d6b548"/><stop offset="1" stop-color="#f8e67d"/></linearGradient><linearGradient id="a52c8494-c364-4782-9e98-c629ebcfe1fb" x1="84.45" y1="67.6" x2="68.45" y2="159.16" gradientUnits="userSpaceOnUse"><stop offset="0" stop-color="#f1b148"/><stop offset="1" stop-color="#d98300"/></linearGradient></defs><g id="b54096e8-8b7b-43c4-9cce-af2f79513817" data-name="Layer 2"><g id="b950570c-2a11-44cf-b25c-3be09d33b497" data-name="Layer 1"><path d="M154.35,62.21v79.08a15.85,15.85,0,0,1-14,15.84l-.54.06a12.3,12.3,0,0,1-1.7,0c.35,22.46-27.36,23.82-43.63,27.86a25.41,25.41,0,0,0-6.9,2.74,21.32,21.32,0,0,0-10.43,15.67,21.26,21.26,0,0,0-10.41-15.67,25.41,25.41,0,0,0-6.9-2.74c-16.27-4-44-5.4-43.64-27.86a12.1,12.1,0,0,1-1.69,0l-.56-.06A15.87,15.87,0,0,1,0,141.28V62.21A15.88,15.88,0,0,1,14.05,46.35a13.64,13.64,0,0,1,2.17-.08c-.11-7.65,3-12.86,7.87-16.55,9.36-7.15,25-8.64,35.77-11.3C76.13,14.38,77.17,0,77.17,0s1,14.38,17.33,18.42c10.73,2.66,26.42,4.15,35.77,11.3,4.85,3.69,8,8.9,7.86,16.55a13.64,13.64,0,0,1,2.17.08A15.88,15.88,0,0,1,154.35,62.21Z" style="fill:#000b11"/><path d="M77.17,5.34c1.9,4.87,6.41,11.76,17,14.39,2.58.64,5.4,1.2,8.4,1.8,9.37,1.88,20,4,26.87,9.27,5,3.83,7.43,8.89,7.33,15.45l0,1.47,1.46-.1h.4a15.25,15.25,0,0,1,1.53.09A14.45,14.45,0,0,1,153,62.21v79.08a14.45,14.45,0,0,1-12.77,14.5l-.51.05c-.37,0-.75,0-1.08,0h-.41l-1.48-.12,0,1.48c.27,17.81-18,21.48-34.19,24.72-3,.6-5.83,1.16-8.41,1.8a27,27,0,0,0-7.26,2.9A22.41,22.41,0,0,0,77.18,198a22.44,22.44,0,0,0-9.73-11.36,26.94,26.94,0,0,0-7.26-2.89c-2.59-.65-5.42-1.21-8.42-1.81-16.15-3.24-34.47-6.91-34.2-24.72l0-1.47-1.47.11h-.4c-.34,0-.7,0-1.09,0l-.51-.05A14.47,14.47,0,0,1,1.35,141.28V62.21A14.46,14.46,0,0,1,14.19,47.7c.68-.07,1.21-.09,1.54-.09h.39l1.47.11,0-1.48c-.09-6.56,2.31-11.62,7.34-15.45,6.89-5.27,17.51-7.39,26.88-9.27,3-.6,5.82-1.16,8.4-1.8,10.58-2.63,15.09-9.52,17-14.39m0-5.34s-1,14.38-17.31,18.42c-10.73,2.66-26.41,4.15-35.77,11.3-4.84,3.69-8,8.9-7.87,16.55h-.49c-.38,0-1,0-1.68.09A15.88,15.88,0,0,0,0,62.21v79.07a15.87,15.87,0,0,0,14,15.85l.56.06c.5,0,.9.05,1.19.05s.5,0,.5,0c-.34,22.46,27.37,23.82,43.64,27.86a25.41,25.41,0,0,1,6.9,2.74,21.26,21.26,0,0,1,10.41,15.67A21.32,21.32,0,0,1,87.6,187.82a25.41,25.41,0,0,1,6.9-2.74c16.27-4,44-5.4,43.63-27.86,0,0,.18,0,.51,0s.69,0,1.19-.05l.54-.06a15.85,15.85,0,0,0,14-15.84V62.21a15.88,15.88,0,0,0-14-15.86c-.73-.07-1.3-.09-1.68-.09h-.49c.12-7.65-3-12.86-7.86-16.55-9.35-7.15-25-8.64-35.77-11.3C78.22,14.38,77.17,0,77.17,0Z" style="fill:url(#ff918476-ff21-4b20-b485-dabeefb4dab8)"/><path d="M111.19,139.48a30.45,30.45,0,0,0-2.6-1.82,2.65,2.65,0,0,1-1.36-3.46c.32-1-1.39-4.12-.94-8.34,1.19-11.3,6.7-12.72,4.8-21.12a26.42,26.42,0,0,1-.92-7.55c2.08,2.48,3.68,2.28,3.15,1.22-.42-.85-1.61-2.58-1.55-4.53,3-.68,4.33-4,3.58-7.1-1-4.06.49-9.27,1.13-11.64a7.12,7.12,0,0,0,5.29-5.66c0-.81-.13-1.14-1.55.32a6.79,6.79,0,0,1-3.82,1.8,10.11,10.11,0,0,0-.64-1.56,6.16,6.16,0,0,0-1.25-1.35,11.36,11.36,0,0,1,1.91-4.92,1.79,1.79,0,0,1,1.88-.72,3.41,3.41,0,0,1,2.31,1.41,11.08,11.08,0,0,1,1.68,3.25,24.34,24.34,0,0,1,1,3.87c.12.64.22,1.4.4,2.12a9.4,9.4,0,0,0,.79,2.14,3.28,3.28,0,0,0,1.77,1.64,2.73,2.73,0,0,0,2.24-.28,3.81,3.81,0,0,1-1.85-.54,2.74,2.74,0,0,1-1-1.38,7.39,7.39,0,0,1-.34-1.86c-.06-.65,0-1.28,0-2a28.18,28.18,0,0,0-.37-4.35,14.11,14.11,0,0,0-1.48-4.43,8,8,0,0,0-1.68-2,4,4,0,0,0-.56-.43,5.7,5.7,0,0,0-.61-.39,6.68,6.68,0,0,0-1.36-.55,5.65,5.65,0,0,0-.71-.17l-.71-.09c-.12,0-.23,0-.36,0H117a5.71,5.71,0,0,0-.82.09,6.43,6.43,0,0,0-2.84,1.4,12.09,12.09,0,0,0-3,4.21,22.35,22.35,0,0,0-.89,2.19l-.71,0q-.08-.75-.21-1.5a14,14,0,0,0-1.69-4.62,11.3,11.3,0,0,0-3.46-3.62,12.07,12.07,0,0,0-4.42-1.78,11.23,11.23,0,0,0-4.69,0,8,8,0,0,0-4.13,2.31A5.22,5.22,0,0,0,88.6,62a3.41,3.41,0,0,0,1.18,2,3.78,3.78,0,0,0,2,.82,4.33,4.33,0,0,1-1.47-1.3,2.69,2.69,0,0,1-.45-1.64,3.94,3.94,0,0,1,1.64-2.83,5.7,5.7,0,0,1,3.16-1.11,8.33,8.33,0,0,1,3.39.6,7.61,7.61,0,0,1,4.69,4.26A10,10,0,0,1,103.4,66a11.78,11.78,0,0,1,0,1.68c0,.16,0,.31-.05.46a8.88,8.88,0,0,0-3.34,3,6.69,6.69,0,0,1-3.56-2.66c-1-1.72-1.25-1.42-1.43-.64a6.89,6.89,0,0,0,3.72,6.58,17.45,17.45,0,0,0,.06,6.43c-.69,1.67.57,6.14-4.55,9.82-4.86,3.5-10.14,1.13-19.9.06-7.6-.83-15.66-.06-20.15,2a7.56,7.56,0,0,1-2.36-5.28C52,85,54,84,53.27,84.23c-1.4.45-2.51,2.77-2.51,2.77a5.2,5.2,0,0,1,.75-2.25c.1-.16-1.78.75-2.58,3.76A9.3,9.3,0,0,0,50.7,95.8c-1.77,4,.15,11.67,1.19,16.38,2.32,10.44-2.31,6.55-1.41,10.12.36,2.13,1.23,3,1.57,5.76A55.16,55.16,0,0,1,62,41a61.12,61.12,0,1,0,75.7,75.71A55.5,55.5,0,0,1,111.19,139.48Zm-16.42-10.8a68.21,68.21,0,0,0,2.09-10.14,1.09,1.09,0,0,1,1-1c3.83-.07,4.57,4.23,4.69,8.62.12,4-.82,7.79-.62,10s1.69,2.51,1.69,2.51l-.05.95a4.89,4.89,0,0,0,.62,2.16A56.41,56.41,0,0,1,98.38,143a28.59,28.59,0,0,0-2.6-2.31,2.65,2.65,0,0,1-1-3.59C95.23,136.1,93.67,132.79,94.77,128.68Zm-39.52,2.2c2.28-11.89-.14-8.59,3.74-12.16,0,0,2.66,3.21,4.13,3.26,1.2,2.42,1.83,2.81,2.39,6.93.48,3.5,0,6.84.43,8.74,0,.09,0,.15.07.23a54.4,54.4,0,0,1-10.76-6.95Zm20.88,10.81c-.84-1.38-3.22-2.72-4.6-3.41a2.36,2.36,0,0,1-1.44-2.88c.16-.91-1.7-3.42-1.56-7.14.11-2.9.17-7.26,0-10.27l.1,0c.74.59,3,2.67,8.44,3.25,4,.43,8.95-.44,12.79-1.42,1.2,3.58,1.65,3.43,1.22,8.83-.32,4-1.67,7.65-1.7,9.88s1.4,2.68,1.4,2.68l-.15.93a4.08,4.08,0,0,0,.14,1.46H90.4A55.44,55.44,0,0,1,76.13,141.69Z" style="fill:url(#a52c8494-c364-4782-9e98-c629ebcfe1fb)"/><path d="M111.19,139.48a30.45,30.45,0,0,0-2.6-1.82,2.65,2.65,0,0,1-1.36-3.46c.32-1-1.39-4.12-.94-8.34,1.19-11.3,6.7-12.72,4.8-21.12a26.42,26.42,0,0,1-.92-7.55c2.08,2.48,3.68,2.28,3.15,1.22-.42-.85-1.61-2.58-1.55-4.53,3-.68,4.33-4,3.58-7.1-1-4.06.49-9.27,1.13-11.64a7.12,7.12,0,0,0,5.29-5.66c0-.81-.13-1.14-1.55.32a6.79,6.79,0,0,1-3.82,1.8,10.11,10.11,0,0,0-.64-1.56,6.16,6.16,0,0,0-1.25-1.35,11.36,11.36,0,0,1,1.91-4.92,1.79,1.79,0,0,1,1.88-.72,3.41,3.41,0,0,1,2.31,1.41,11.08,11.08,0,0,1,1.68,3.25,24.34,24.34,0,0,1,1,3.87c.12.64.22,1.4.4,2.12a9.4,9.4,0,0,0,.79,2.14,3.28,3.28,0,0,0,1.77,1.64,2.73,2.73,0,0,0,2.24-.28,3.81,3.81,0,0,1-1.85-.54,2.74,2.74,0,0,1-1-1.38,7.39,7.39,0,0,1-.34-1.86c-.06-.65,0-1.28,0-2a28.18,28.18,0,0,0-.37-4.35,14.11,14.11,0,0,0-1.48-4.43,8,8,0,0,0-1.68-2,4,4,0,0,0-.56-.43,5.7,5.7,0,0,0-.61-.39,6.68,6.68,0,0,0-1.36-.55,5.65,5.65,0,0,0-.71-.17l-.71-.09c-.12,0-.23,0-.36,0H117a5.71,5.71,0,0,0-.82.09,6.43,6.43,0,0,0-2.84,1.4,12.09,12.09,0,0,0-3,4.21,22.35,22.35,0,0,0-.89,2.19l-.71,0q-.08-.75-.21-1.5a14,14,0,0,0-1.69-4.62,11.3,11.3,0,0,0-3.46-3.62,12.07,12.07,0,0,0-4.42-1.78,11.23,11.23,0,0,0-4.69,0,8,8,0,0,0-4.13,2.31A5.22,5.22,0,0,0,88.6,62a3.41,3.41,0,0,0,1.18,2,3.78,3.78,0,0,0,2,.82,4.33,4.33,0,0,1-1.47-1.3,2.69,2.69,0,0,1-.45-1.64,3.94,3.94,0,0,1,1.64-2.83,5.7,5.7,0,0,1,3.16-1.11,8.33,8.33,0,0,1,3.39.6,7.61,7.61,0,0,1,4.69,4.26A10,10,0,0,1,103.4,66a11.78,11.78,0,0,1,0,1.68c0,.16,0,.31-.05.46a8.88,8.88,0,0,0-3.34,3,6.69,6.69,0,0,1-3.56-2.66c-1-1.72-1.25-1.42-1.43-.64a6.89,6.89,0,0,0,3.72,6.58,17.45,17.45,0,0,0,.06,6.43c-.69,1.67.57,6.14-4.55,9.82-4.86,3.5-10.14,1.13-19.9.06-7.6-.83-15.66-.06-20.15,2a7.56,7.56,0,0,1-2.36-5.28C52,85,54,84,53.27,84.23c-1.4.45-2.51,2.77-2.51,2.77a5.2,5.2,0,0,1,.75-2.25c.1-.16-1.78.75-2.58,3.76A9.3,9.3,0,0,0,50.7,95.8c-1.77,4,.15,11.67,1.19,16.38,2.32,10.44-2.31,6.55-1.41,10.12.36,2.13,1.23,3,1.57,5.76A55.16,55.16,0,0,1,62,41a61.12,61.12,0,1,0,75.7,75.71A55.5,55.5,0,0,1,111.19,139.48Zm-16.42-10.8a68.21,68.21,0,0,0,2.09-10.14,1.09,1.09,0,0,1,1-1c3.83-.07,4.57,4.23,4.69,8.62.12,4-.82,7.79-.62,10s1.69,2.51,1.69,2.51l-.05.95a4.89,4.89,0,0,0,.62,2.16A56.41,56.41,0,0,1,98.38,143a28.59,28.59,0,0,0-2.6-2.31,2.65,2.65,0,0,1-1-3.59C95.23,136.1,93.67,132.79,94.77,128.68Zm-39.52,2.2c2.28-11.89-.14-8.59,3.74-12.16,0,0,2.66,3.21,4.13,3.26,1.2,2.42,1.83,2.81,2.39,6.93.48,3.5,0,6.84.43,8.74,0,.09,0,.15.07.23a54.4,54.4,0,0,1-10.76-6.95Zm20.88,10.81c-.84-1.38-3.22-2.72-4.6-3.41a2.36,2.36,0,0,1-1.44-2.88c.16-.91-1.7-3.42-1.56-7.14.11-2.9.17-7.26,0-10.27l.1,0c.74.59,3,2.67,8.44,3.25,4,.43,8.95-.44,12.79-1.42,1.2,3.58,1.65,3.43,1.22,8.83-.32,4-1.67,7.65-1.7,9.88s1.4,2.68,1.4,2.68l-.15.93a4.08,4.08,0,0,0,.14,1.46H90.4A55.44,55.44,0,0,1,76.13,141.69Z" style="opacity:0.98;fill:url(#a52c8494-c364-4782-9e98-c629ebcfe1fb)"/></g></g></svg>