<svg xmlns="http://www.w3.org/2000/svg" viewBox="0 0 2067.33 1227.93">
    <g id="e3847f55-d8a7-4d40-9c51-2c8345d0670d" data-name="Layer 2">
        <g id="b49dc807-5843-4b9f-9ac9-098a98fcd727" data-name="Layer 1">
            <path
                d="M870.8,1213.31c1.25-123.25,111-115,111-115s-6.78-78.5,79-82.4c75.54-3.43,82.4,79,82.4,79s32.65-60.45,85.84-30.9c61.8,34.33,37.76,92.7,37.76,92.7s48.07-3.44,64.76,34.57a78.35,78.35,0,0,1,6.06,22.09Z"
                style="fill:#006837" />
            <path d="M912,1213.31c-16.07-47.81-64.55-99.83-135-138.86,0,0-23.57,87.53,22.69,138.86Z"
                style="fill:#009245" />
            <path d="M1004.51,1213.31c8.2-91.73-65-131.45-133.19-192.72,0,0-33.66,121.19,14,192.72Z"
                style="fill:#009245" />
            <path
                d="M1663.16,1079.35c11.59,21.19,18.14,79.06,21.12,134h40.66c-1-17.8-.8-35.3,1.8-50,18.16-102.17,40.12-178.65,36.44-283.43-5.89-167.83-194.32-126.61-164.88,91.27C1598.3,971.2,1622,1004,1663.16,1079.35Z"
                style="fill:#754c24" />
            <path
                d="M1304.19,1213.31h50.18c3.19-44.28,7.8-98.33,22.7-145.31,16.34-51.52,97.57-214.57,97.57-214.57S1256.77,732.71,1239.1,874c0,0,13.09,66.81,49.42,187.15C1299.06,1096.11,1302.91,1160.32,1304.19,1213.31Z"
                style="fill:#754c24" />
            <path
                d="M1101.76,700.91c29,25.16,59.36,2.08,59.36,2.08,22.29,9.86,37.35,1.77,54.44-2.56,13.27-3.37,24.71,1.86,29.16,4.36-2.6-.22-5.25-.54-7.92-.82-6.89,37.61-6,69.52-1.14,96.33-3.1,19.17-16.82,132.35,80,191.51a186,186,0,0,0,48.81,21.46c1.91,3.19,27.59,51.74,64.84,91.06,19.2,20.26,26.37,66.09,28.58,109h65.8c1.84-66.31.26-150.66-8.3-210.91,30.28-5.48,63-9.18,100.59-4.7a857.06,857.06,0,0,1,94.59,16.33,256.32,256.32,0,0,0,28.19,45.45c32.54,41.25,53.42,102.79,66.14,153.83h51.33c-4.6-50.23-10.59-107.94-6.87-120.34,27.87-92.9,35.39-196.51,31.76-227.28q.9-8.07,1.57-16.17c-5.22-35-10-70.48-22.87-103.57A224,224,0,0,0,1837,706.09a123.58,123.58,0,0,0-14.68-15,111.93,111.93,0,0,0-16-9.29,180.42,180.42,0,0,0-36.61-9c-17.28-2.22-34.16-4.42-50.82-10.1-17.23-5.87-33.81-13.49-50.52-20.68-15.05-6.17-30.39-11.52-46.43-14.3a229.87,229.87,0,0,0-40,.16c-9.06,1.77-18.05,3.89-27,6.13-6.19,1.55-12.45,3.16-18.76,4.67l-.17.06c-.53.18-1.06.32-1.58.49a34,34,0,0,1-11.32,3c-2.2.48-4.39.91-6.6,1.27-24,6.51-45.12,6.41-62.29,1.27a130.92,130.92,0,0,1-25.81-6.21c-14.87-5.27-28.27-12.22-39.84-23.1-7.1-6.67-24.68-52.9-26.28-58.49-10.45-36.61-10.19-66.84-10.19-66.84,29.54-3.74,39-46.76,39-46.76-35.33-2.21-55.92,12.64-55.92,12.64a225.28,225.28,0,0,0-64.43.61c-10.68,1.72-42.2,9.61-42.2,9.61-28.46-17.34-55-10.72-55-10.72,3.51,28.21,19.87,32,19.87,32-21,14.36-21.6,47.51-29.21,74.9s-28.9,47.07-57.9,53.92c-2.24.53-.78,6.08-.78,6.08-3.14,2-12.25,2.28-14.71,4.84C1073,645.87,1076.24,678.81,1101.76,700.91Z"
                style="fill:#8c6239" />
            <path
                d="M1822.35,691.12s67.44,29.82,79.21,174.09,38.28,185.49,38.28,185.49,38.28,23.55,20.61,70.66c0,0-35.33-11.78-35.33-55.94,0,0-47.11-126.61-55.94-214.93s-46.83-159.37-46.83-159.37"
                style="fill:#8c6239" />
            <path
                d="M1288.43,739.48c-23.48,15.17-42.19,24.5-56.16,32.35a283.13,283.13,0,0,1,4.88-69.86s41.52,8.81,69.11-53.55S1356,695.78,1288.43,739.48Z"
                style="fill:#754c24" />
            <path
                d="M1358.53,542.38c-12.14-26.79-27.85-62.18-25.63-59.84,3.35,3.54,19.16,7.66,19.16,7.66S1351.87,512.7,1358.53,542.38Z"
                style="fill:#754c24" />
            <path d="M1108.92,660.64s.21-9.76-9.54-10S1101.24,659.91,1108.92,660.64Z"
                style="fill:#754c24" />
            <path d="M1128.1,659.51S1129,647,1141.51,648,1138,659.52,1128.1,659.51Z"
                style="fill:#754c24" />
            <path
                d="M947.18,1145.2v43.89h6.06c.39,8.8.75,16.91,1.08,24.22h53.15l-1-24.22h208.62c.39,8.8.76,16.91,1.09,24.22h53.14l-1-24.22H1477c.4,8.8.76,16.91,1.09,24.22h53.14l-1-24.22h195.62l-1,24.22H1778c.33-7.31.69-15.42,1.08-24.22h219.22l-1,24.22h53.15c5.39-119.38,19.95-451.2,16.23-472.28a150,150,0,0,0-50-9.08l-1.77,43.9H1794.71c.28-18.8.18-31.25-.45-34.82a150,150,0,0,0-50-9.08l-1.77,43.9h-229l-1.77-43.9a150,150,0,0,0-50,9.08c-.63,3.57-.73,16-.45,34.82h-209.7l-1.77-43.9a149.88,149.88,0,0,0-50,9.08c-.63,3.57-.74,16-.45,34.82H989.82L988.05,732a150,150,0,0,0-50,9.08c-3.14,17.85,6.8,258.33,13.2,404.17ZM1793.7,819.75h219.53l-5.68,140.77H1788.78C1790.8,908.66,1792.6,858.86,1793.7,819.75ZM1787,1004.42h218.76l-5.68,140.78h-219C1782.89,1103.53,1785,1054.14,1787,1004.42Zm-59.39,140.78H1528.47l-5.68-140.78h210.52Zm13.13-325.45-5.68,140.77H1521l-5.68-140.77ZM1475,1145.2H1266.59l-5.68-140.78h208.16C1471.09,1054.14,1473.21,1103.53,1475,1145.2ZM1462.4,819.75c1.1,39.11,2.89,88.91,4.92,140.77H1259.14l-5.68-140.77ZM1213.17,1145.2H1004.72L999,1004.42H1207.2C1209.22,1054.14,1211.34,1103.53,1213.17,1145.2Zm-12.65-325.45c1.11,39.11,2.9,88.91,4.93,140.77H997.27l-5.68-140.77Z"
                style="fill:#534741" />
            <path
                d="M944.73,136.4h332.72s11.4-52.42-34.18-59.26-57,22.79-57,22.79-25.07-116.22-116.23-98-54.69,100.27-54.69,100.27S988,74.87,960.69,90.82,944.73,136.4,944.73,136.4Z"
                style="fill:#acd6ef" />
            <path
                d="M1530.11,394H1905s12.84-59.05-38.51-66.75-64.19,25.67-64.19,25.67S1774,222,1671.32,242.49s-61.62,113-61.62,113-30.81-30.81-61.62-12.84S1530.11,394,1530.11,394Z"
                style="fill:#acd6ef" />
            <path
                d="M876.21,295.31c-59.9-15.35-118.7,12.19-131.35,61.51-11.31,44.12,18.15,90.72,67.35,111.06l-5.1,37.24s27.64,4.61,37.21-28.38c54.84,8.14,105.78-18.82,117.44-64.31C974.41,363.1,936.1,310.67,876.21,295.31Z"
                style="fill:#a67c52" />
            <path
                d="M471.8,1213.31H813.25c-20.43-167.2-52.6-325-51.2-329.23,0,0-269.44-112-266.41-51.47C498,880.46,479.62,1116.44,471.8,1213.31Z"
                style="fill:#1b1464" />
            <path
                d="M416.17,725.9c2.86,2.47,8.32,25,77.2,22S753.73,707,753.73,707l-11.36-34.06s-249-23.47-286.85-14.38S394.22,707,416.17,725.9Z"
                style="fill:#ffc9bb" />
            <path
                d="M468,885.22s-9.08,156.67,89.69,177.1,253.17,3.41,221.38-185c0,0-286.09-65.85-311.07,8"
                style="fill:#aa1a25" />
            <path
                d="M712.16,1065.2a578.57,578.57,0,0,1,81.62,9.55C777.09,968,761.06,887.07,762.05,884.08c0,0-269.44-112-266.41-51.47,1.76,35.34-7.81,173.3-16.1,282.05A472.08,472.08,0,0,1,712.16,1065.2Z"
                style="fill:#3535b5" />
            <path
                d="M744.63,997.83s-6.65,24-23.12,31.38-16.87-30.93-3.09-66.71S771.32,948.44,744.63,997.83Z"
                style="fill:#ffc9bb" />
            <path
                d="M779.2,892.4c-.54,4.25-16.06,80.9-32.51,108.7,0,0-19.18-11.64-39.82-11.77l10.64-136.89S788.63,817,779.2,892.4Z"
                style="fill:#2f2f9b" />
            <path
                d="M477.09,833s-3.4,82.88,18.17,124.88,94.23,53.36,76.06-85.14C556.66,760.92,473.69,783,477.09,833Z"
                style="fill:#2f2f9b" />
            <path
                d="M748.43,616.15c4.54-35.19,13.62-63.57,17-90.82S791.57,422,740.48,346s-154.4-57.9-193-14.75-36.33,94.22-36.33,114.66,4.54,28.38-4.54,65.85-42,174.83-38.6,373.51c0,0,14.76-10.22,40.87,7.94,15.87,11,73.8,94.23,174.84,101S804.06,877.27,804.06,877.27s-52.35-164.5-55.63-205.49C746.16,643.4,746.65,630,748.43,616.15Z"
                style="fill:#c1272d" />
            <path
                d="M664.25,824.86C658.89,796.83,653,769,647.44,741c-5.51-27.75-10.68-55.61-14.58-83.74A676.66,676.66,0,0,1,626,572.33c0-3.52-.06-7,0-10.55s-4.73-3.57-4.75.08a647.4,647.4,0,0,0,5.49,85c3.54,28.16,8.44,56.05,13.83,83.79,5.43,28,11.35,55.89,16.84,83.89,5.43,27.73,10.47,55.59,14.15,83.72a650.75,650.75,0,0,1,5.94,84.89q0,5.25-.12,10.48c1.56.16,3.13.29,4.7.41a2.82,2.82,0,0,0,0-.43,620.36,620.36,0,0,0-4.53-85C674.28,880.48,669.54,852.59,664.25,824.86Z"
                style="fill:#aa1a25" />
            <path
                d="M525.91,461.35c1.86-6.76,3.78-13.51,5.06-20.41a444.15,444.15,0,0,1,2.59-44.5,2.66,2.66,0,0,0-2.65-2.65,2.71,2.71,0,0,0-2.65,2.65,441.43,441.43,0,0,0-2.6,52.18C525.7,452.85,525.77,457.1,525.91,461.35Z"
                style="fill:#aa1a25" />
            <path
                d="M694.56,455.74a2.31,2.31,0,0,0-2.81,1.6c-2.77,14.1-3.93,28.49-7.23,42.5,0,.14-.07.27-.1.41a29.47,29.47,0,0,1,.92,7.48c0,2.07-.1,4.1-.24,6.11,3.7-9.82,5.56-20.35,7.13-30.67,1.25-8.21,2.32-16.46,3.92-24.62A2.34,2.34,0,0,0,694.56,455.74Z"
                style="fill:#aa1a25" />
            <path
                d="M675.77,451.16c-6.23-27.25-14.16-48.3-22-64.08-12.28-11.13-29-23.1-48.38-28.64-16.86-4.81-35,8.09-47.43,19.87-24.51,35.34-32,69.06-32,69.06s-2.27,20.44,2.27,51.47,32.55,68.87,89.31,67.36,68.12-54.49,68.12-54.49C684.85,483,675.77,451.16,675.77,451.16Z"
                style="fill:#ffdbd4" />
            <path
                d="M617.49,340.66c-9.08-6.82-19.3-14-51.09,25.35a91,91,0,0,0-8.66,12.46c12.42-11.78,30.78-24.84,47.64-20,19.37,5.54,36.29,17.81,48.57,28.94C640.39,357.69,623.46,345.13,617.49,340.66Z"
                style="fill:#662d91" />
            <path
                d="M588.35,511.71s6.81-12.49,23.84-3.41,10.22,29.52,0,31.79S582.68,536.68,588.35,511.71Z"
                style="fill:#f4a59a" />
            <path d="M672,982.85s22.71-3.41,34.06,21.57,5.68,29.52-11.35,22.71-50-25-50-25Z"
                style="fill:#ffdbd4" />
            <path
                d="M679.93,978.31,664,1021.45s-25.31-8.44-75.69-17c-66.6-11.35-90.82-18.16-101-65.85s4.54-42,118.83,9.09C606.14,947.66,659.5,962.42,679.93,978.31Z"
                style="fill:#2f2f9b" />
            <path
                d="M626.88,1011.88c9.29,20.29,17.86,41.52,23,60.18l15.4-.54s-7.63-24.77-20.26-55.37C640,1014.88,633.94,1013.43,626.88,1011.88Z"
                style="fill:#a01324" />
            <path
                d="M500.56,1099s-5.3-22,6.05-25.73,19.68-9.84,43.9-11.36,104.45-.75,112.77.76,12.11,13.62,13.62,25.73,7.57,109,2.27,118.07-80.22,17.41-92.33,18.92-61.31,8.33-66.61-9.84S500.56,1099,500.56,1099Z"
                style="fill:#888c73" />
            <path d="M544.45,1057.4s-36.33,4.54-42.38,13.62.76,31,.76,31l47.68-40.12-6.06-4.54"
                style="fill:#7f081f" />
            <path
                d="M500.56,1099s-5.3-22,6.05-25.73,19.68-9.84,43.9-11.36,104.45-.75,112.77.76,12.11,13.62,13.62,25.73,7.57,109,2.27,118.07-80.22,17.41-92.33,18.92-61.31,8.33-66.61-9.84S500.56,1099,500.56,1099Z"
                style="fill:#a01324" />
            <path
                d="M546.72,1063.46s33.31,21.19,25.74,70.38c0,0,49.19,10.6,114.28-20.43,0,0-3.78-48.44-20.43-53.74s-121.86-2.27-121.86-2.27l2.27,6.06"
                style="fill:#7f081f" />
            <path d="M556.56,922.68s-41.62,1.51-21.95,147.59l-25,5.3s-21.19-134.72,30.27-161.21Z"
                style="fill:#a01324" />
            <path
                d="M626.19,1121s15.9-3.79,19.68-1.52,3,17.41,3,17.41-16.65,3-19.68,1.52S628.47,1127,626.19,1121Z"
                style="fill:#b73047" />
            <path
                d="M545.91,1082.89q9.65,54.13,17.93,109,2.32,15.45,4.55,30.93c.22,1.52,1.14,2.3,1.73,1.88s.85-2,.63-3.57q-7.87-55-17.15-109.44-2.61-15.3-5.33-30.53c-.63-3.55-3-1.85-2.36,1.7Z"
                style="fill:#7f081f" />
            <path
                d="M750.7,675.19a46.24,46.24,0,0,1,.75,34.06c-4.62,12.83,1.52,18.92,10.6,18.92,12.87,0,29.52-9.08,22.71-30.28-7.58-23.56-34.06-22.7-34.06-22.7"
                style="fill:#ffdbd4" />
            <path
                d="M84,134.6c62.41-22.83,128.24.33,147,51.72,16.82,46-9.69,99-60.14,126l9.44,39.28s-29.06,7.88-42.83-26.36C79.75,339.79,22.39,316.41,5.05,269-13.75,217.6,21.6,157.43,84,134.6Z"
                style="fill:#e2d2b7" />
            <path
                d="M137,979.45c5.26,66.67,14.24,171.44,23.22,233.86h107.4l5.06-233.86H278l14,233.86H401.24c1.68-83,8.11-267.17,8.11-267.17l-1.51,0v-28h-273l-2.52-.76s.27,3.78.76,10.54Z"
                style="fill:#635c4b" />
            <path
                d="M385.14,482.19S413.9,495.81,423,514s14.38,96.12,60.55,143c0,0-43.14,30.28-63.58,79.47,0,0-58.89-32.56-71.9-137.74-9.08-73.42,2.27-121.1,37.09-116.56"
                style="fill:#6b7057" />
            <path
                d="M411.25,819.37c-5.68-96.5-5.68-246.36-7.95-281.55s-7.95-47.68-18.16-55.63-41.63-25.73-41.63-25.73l-83.26-19.68s-34.05,11.35-84,42-56.76,152.13-56.76,152.13c-10.22,155.54,8,398.49,8,398.49,16.88,4,33.07,7.1,48.57,9.46l-1.27-94.23,26.82,97.53c148.17,15.54,225.59-38.87,225.59-38.87S416.92,915.87,411.25,819.37Z"
                style="fill:#6b7057" />
            <path d="M298.85,459.48s25,28,18.92,142.29l22.71-.75s10.6-79.47-18.16-146.08Z"
                style="fill:#757a61" />
            <path
                d="M185.32,228.64c-5.29,82.5,43.9,139.26,104.45,168,84.46,40.12,122.61-98.39,122.61-98.39s48.44-21.56,48.44-72.66c0-34.05-8.32-54.49-35.95-67,0,0,44.42-26.71,13.25-26.11-39.36.76-99.15-27.25-152.89-13.62-56.08,14.21-67,52.22-67,52.22S188.44,180.09,185.32,228.64Z" />
            <path d="M267.07,364.12l-10.22,72.66s27.24,27.24,71.52,7.94l10.22-65.84Z"
                style="fill:#ffdbd4" />
            <path
                d="M332.28,419.56l6.31-40.68-71.52-14.76-7.42,52.74C283.76,414,308.76,414.35,332.28,419.56Z"
                style="fill:#ffc9bb" />
            <path
                d="M430.55,231.29S426,263.08,426,292.6s-10.22,88.55-53.36,107.85-104.83,5.3-115.8-51.09c0,0-27.22-2.6-30.65-28.38-3-22.71,6.81-34.82,22.7-28.76,0,0,21.57,31,27.25,6s5.67-60.17,13.62-78.33,25-36.33,46.55-32.93,31.35,18.6,46.54,35.58c12.87,14.38,41.63,18.92,32.93,7.57C400,209.61,397.62,199.5,397.62,199.5S407.84,223.34,430.55,231.29Z"
                style="fill:#ffdbd4" />
            <path
                d="M350.32,362.35s-6.56-8.57-17.16-11.1-17.66-2-20.68,11.1,8.07,21.2,21.19,17.66S350.82,366.89,350.32,362.35Z"
                style="fill:#f4a59a" />
            <path d="M251.93,415.59s31.79,34.05,92.34,15.13l-.76,25.74s-25.74,22.7-100.66-11.36Z"
                style="fill:#888c73" />
            <path
                d="M397.8,576.23l3.75,115q.54,16.38,1.07,32.75c.19,5.69,5.49,5.59,5.31-.12l-3.75-115q-.54-16.36-1.07-32.74c-.19-5.7-5.5-5.6-5.31.12Z"
                style="fill:#60664f" />
            <path
                d="M146.72,760.71s8.19,49,57.53,48.44c69.63-.76,199.81-90.06,202.08-90.06s30.27,13.62,53.73,11.35,56-25,64.34-43.14-9.84-22.71-21.19-14.38-41.63,18.16-59.8,8.32-29.51-10.59-43.14-3.78c0,0-164.24,37.84-186.18,49.95S139.91,738,146.72,760.71Z"
                style="fill:#ffdbd4" />
            <path
                d="M183.81,476.13s-40.11,14.38-51.47,31.79-18.92,34.06-9.83,140,18.16,115.8,18.16,115.8,19.68,1.51,45.41-8.33,54.5-38.59,54.5-38.59S220.9,614.64,222.41,570s-38.6-93.85-38.6-93.85"
                style="fill:#6b7057" />
            <path
                d="M244.06,713.16c-7.06-14.84-8.7-31.6-10.87-47.69l-7.11-52.88L222,582.49c-.2-1.42-2-2.2-3.27-1.85a2.73,2.73,0,0,0-1.85,3.26q3.59,26.7,7.18,53.4,1.8,13.35,3.59,26.7c1.14,8.45,2.15,16.93,3.69,25.32a105.45,105.45,0,0,0,8.11,26.52,2.65,2.65,0,0,0,4.58-2.68Z"
                style="fill:#60664f" />
            <path
                d="M118.51,562.57q-1.86,42.84,0,85.74.95,21.29,2.79,42.53c1.16,13.18,2.33,26.39,4.85,39.39a236.08,236.08,0,0,0,8.92,34.22,2.79,2.79,0,0,0,2.56,1.94l9.84.76a2.68,2.68,0,0,0,2.66-2.65,2.71,2.71,0,0,0-2.66-2.66l-9.84-.75L140.2,763a229.41,229.41,0,0,1-8-29.61c-2.64-12.51-4-25.14-5.16-37.86q-3.92-42.45-4.15-85.12-.12-23.94.92-47.87c.14-3.41-5.16-3.41-5.31,0Z"
                style="fill:#60664f" />
            <path
                d="M682.09,487.22s-66.88-20.15-92.55-23.71c-25.35-3.52-59.88,4.28-59.88,4.28s-4.27,17.82,4.06,47.08c0,0,15.46,39.87,61.68,47.85,61.15,10.57,80.79-34.15,80.79-34.15S684.28,498.28,682.09,487.22Z"
                style="fill:#a01324" />
            <path
                d="M771.36,513.26c-15.31,7.16-33.41,10.69-51.89,13.3-21.93,3.11-44,5.89-66,8.81-4.29.57-6.73-4.5-2.45-5.07,21.31-2.84,42.68-5.57,63.94-8.52,18.68-2.6,36.91-6,52.38-13.2,3.51-1.64,7.54,3,4.05,4.68Z"
                style="fill:#a01324" />
            <path
                d="M770.71,497,667.32,491.7c-4.5-.23-5-5.39-.48-5.17l103.39,5.26c4.5.23,5,5.39.48,5.16Z"
                style="fill:#a01324" />
            <path
                d="M552.34,477.8a260.54,260.54,0,0,0-42.46-11c-3.74-.64-2.07-5.43,1.66-4.79A259.52,259.52,0,0,1,554,473a2.55,2.55,0,1,1-1.66,4.79Z"
                style="fill:#a01324" />
            <path
                d="M548.34,518.4a235.35,235.35,0,0,1-39-33.34c-2.47-2.62,2.42-5.13,4.87-2.54a228.86,228.86,0,0,0,38,32.32c3.07,2.09-.8,5.64-3.86,3.56Z"
                style="fill:#a01324" />
            <path
                d="M425.35,322.9s-30.6-21.52-61.23-27.35c-19.86-3.78-98.12,9-98.12,9s-11.81,40.61-1.31,53.94c0,0,28.64,61.38,99.92,48.89C383.64,404.08,425.22,382.43,425.35,322.9Z"
                style="fill:#798066" />
            <path
                d="M280.43,318.27c-11.67-11.88-17.9-20.59-28.64-30.25-7.29-6.54-9.91,2.13-11.06,2.22.44.68,6.61.93,7.08,1.63,3.32,5,21.29,25.33,29.84,34C281.89,330.21,284.68,322.59,280.43,318.27Z"
                style="fill:#798066" />
            <path
                d="M278,368.51Q266.17,357.05,254,345.93a14.39,14.39,0,0,1-8.34,1.05q14.31,12.91,28.15,26.3a3.38,3.38,0,0,0,4.59-.35A3.12,3.12,0,0,0,278,368.51Z"
                style="fill:#798066" />
            <path
                d="M365,343c-1.81,17.74-5.72,35.39-13,52.2a138,138,0,0,1-7,13.92c1.58,0,3.19,0,4.83-.07a152.8,152.8,0,0,0,13.86-34.71c4.91-18.37,6.69-37.21,7-56,.11-7.1,0-14.21-.21-21.31-1.46-.37-2.92-.72-4.38-1A351.14,351.14,0,0,1,365,343Z"
                style="fill:#6d725a" />
        </g>
    </g>
</svg>