<svg xmlns="http://www.w3.org/2000/svg" xmlns:xlink="http://www.w3.org/1999/xlink" viewBox="0 0 1920.48 1511.73"><defs><linearGradient id="eba22c52-8f70-476e-8fd5-8d77c613e9b1" x1="960.24" y1="1387.05" x2="960.24" y2="1265.46" gradientUnits="userSpaceOnUse"><stop offset="0" stop-color="#8c6239"/><stop offset="1" stop-color="#c69c6d"/></linearGradient><linearGradient id="e198909d-7011-4e6c-b498-4e6101a32636" x1="1696.31" y1="978.68" x2="1696.31" y2="88.12" gradientUnits="userSpaceOnUse"><stop offset="0" stop-color="#fff"/><stop offset="1" stop-color="#29abe2"/></linearGradient><linearGradient id="be8d20b7-1191-4991-83f7-e42d48037fa4" x1="224.17" y1="978.68" x2="224.17" y2="88.12" xlink:href="#e198909d-7011-4e6c-b498-4e6101a32636"/><linearGradient id="a8536c71-49d3-4ab9-9d16-0c3525f5d0c3" x1="960.24" y1="1511.73" x2="960.24" y2="1397.93" gradientUnits="userSpaceOnUse"><stop offset="0" stop-color="#006837"/><stop offset="1" stop-color="#39b54a"/></linearGradient></defs><g id="b6b7ba8e-fe75-454d-aae0-c4765ae90782" data-name="Layer 2"><g id="fc23034a-8dc9-45e0-b0be-f0d2244769ca" data-name="Layer 1"><polygon points="416.2 1265.46 1498.19 1265.46 1667.53 1387.05 252.94 1387.05 416.2 1265.46" style="fill:url(#eba22c52-8f70-476e-8fd5-8d77c613e9b1)"/><polygon points="781.26 1265.46 692.24 1387.05 705.64 1387.05 791.87 1265.46 781.26 1265.46" style="fill:#72330f"/><polygon points="1121.69 1265.46 1215.64 1387.05 1227.71 1387.05 1131.94 1265.46 1121.69 1265.46" style="fill:#72330f"/><circle cx="960.24" cy="80.93" r="80.93" transform="translate(726.54 1015.81) rotate(-80.78)" style="fill:#c1def4"/><circle cx="960.24" cy="80.93" r="68.92" transform="matrix(0.16, -0.99, 0.99, 0.16, 726.54, 1015.81)" style="fill:#d2eaff"/><path d="M958.28,47.28h1a2.82,2.82,0,0,1,2.82,2.82V91.81a2.83,2.83,0,0,1-2.83,2.83h-1a2.83,2.83,0,0,1-2.83-2.83V50.1a2.83,2.83,0,0,1,2.83-2.83Z" transform="translate(-0.94 14.1) rotate(-0.84)" style="fill:#c1def4"/><path d="M959.84,94.51h0a3.36,3.36,0,0,1-4.05-2.44L941.46,34.34a3.34,3.34,0,0,1,2.43-4h0a3.35,3.35,0,0,1,4.05,2.43l14.34,57.73A3.36,3.36,0,0,1,959.84,94.51Z" style="fill:#c1def4"/><path d="M1541,978.68a10.63,10.63,0,0,1,1-3.85c.38-.2.77-.43,1.17-.66L1540,913.28s6-7,15.88-.5l2.4,47.42c27.3-31.87,65.16-104.08,93.21-161.48a56.12,56.12,0,0,0-8.76.41c-26,3.61-34.74-13.13-39-24.53-.19-.51-.38-1-.56-1.51-.08-.2-.15-.4-.22-.6l-.36-1-.27-.73-.3-.82c-.14-.4-.29-.8-.43-1.19s-.2-.56-.29-.84-.2-.58-.3-.86-.13-.37-.19-.55-.21-.6-.3-.9l-.15-.45c-.35-1.06-.68-2.11-1-3.15,0-.09,0-.17-.07-.26-.1-.34-.19-.68-.28-1a2.33,2.33,0,0,1-.07-.25c-.4-1.51-.73-3-1-4.49a.5.5,0,0,1,0-.12,39.86,39.86,0,0,1-.54-4.62v0c-.51-9,2.14-18.86,10.65-33.64,9.47-16.46,10.48-47.86,10.29-59.81a28.85,28.85,0,0,1-1-3.17c-16.93,9.44-42-2.28-46.12-4.34,4.59,1.48,12.21-17.19,23-22.85a53.62,53.62,0,0,1,17.41-5.69c-.74-11.39,4-17.61,4.2-19.92a89.64,89.64,0,0,1,3-11.76,65.59,65.59,0,0,1-17-5.42c-19.58-9.18-24.84-31.95-20.46-46.22s14.33-26.17,16.37-25.15.59,2-2.63,12.91-.29,21.07,9.06,31.61c6.77,7.63,20,11.69,26.75,13.36.47-.3.94-.59,1.43-.86l.89-.25c.75,0,1.49,0,2.24,0a22,22,0,0,0,9.58-1.69c2.13.56,4.42,1.24,6.91,2,0,0,47.42-16.73,77.63-2.79,0,0,18.5-6.67,33.38-1.09,0,0,.19.75.57,2,7.69-1.89,22.49-6.48,30.1-15.06,10.57-11.9,13.87-23.43,10.24-35.72s-5.29-13.44-3-14.59,13.54,12.29,18.49,28.42-1,41.87-23.12,52.24a73.68,73.68,0,0,1-21.28,6.45l.62.6a133.25,133.25,0,0,1,7,21.27,54.66,54.66,0,0,1,4.58,3.48s10.84.2,23.55,7c12.18,6.56,20.66,27.89,25.9,26.25-4.68,2.28-32.81,15.12-52,4.76a78.69,78.69,0,0,1-2.75,15.19l1.44,0,.82,0c1.87.05,3.76.14,5.66.28l.84.06,2.13.18.84.08c1,.1,1.92.2,2.87.32q4.23.51,8.46,1.28l.6.11,2,.38.88.18,2,.41.86.2,2,.46.63.15c2.91.71,5.8,1.49,8.63,2.36h0c1,.32,2.1.65,3.14,1l.21.07c1,.32,1.93.65,2.88,1l.38.14c.9.32,1.78.64,2.66,1l.5.19c.84.32,1.66.65,2.48,1l.6.25c.78.32,1.55.64,2.31,1l.67.3,2.15,1,.75.36,2,1,.8.4c.63.32,1.25.64,1.86,1l.84.45,1.73,1,.86.5,1.62,1,.87.54,1.5,1,.87.57c.48.32.94.65,1.4,1l.85.6c.45.33.89.66,1.32,1l.81.62c.43.34.84.69,1.26,1,.24.2.5.4.73.61.44.37.86.76,1.27,1.14l.6.54c.59.56,1.17,1.13,1.72,1.71l1.71,1.8,0,0,.45.48,0,0,1.2,1.25.1.11.41.43,0,0,1.43,1.52.08.08.1.11h0c.4.42.79.82,1.17,1.23l.8.86.07.06,1,1,0,0,.51.55,0,0,1.13,1.21,0,0a3.58,3.58,0,0,0,.26.29l0,0,1.3,1.4,0,0,.46.5,0,0c.28.3.55.6.83.89l0,0,.48.53,0,0,.88,1,0,0,.68.74.85.95h0l.43.48,0,.06.7.78h0l.48.53,0,0,.71.79.42.48h0c12,13.63,17.32,22.31,22.57,36.18a181.66,181.66,0,0,1,14.5,19.33V269.87s4.55-86.33-97.68-117.38c-80.45-24.43-125.16-63.23-126.44-64.34v0l0,0v0c-1.27,1.11-46,39.91-126.43,64.34-102.23,31-97.69,117.38-97.69,117.38V978.68Z" style="fill:url(#e198909d-7011-4e6c-b498-4e6101a32636)"/><path d="M1542,974.83c.38-.2.77-.43,1.17-.66L1540,913.28s6-7,15.88-.5l2.4,47.42c27.3-31.87,65.16-104.08,93.21-161.48a56.12,56.12,0,0,0-8.76.41c-26,3.61-34.74-13.13-39-24.53-.19-.51-.38-1-.56-1.51-.08-.2-.15-.4-.22-.6l-.36-1-.27-.73-.3-.82c-.14-.4-.29-.8-.43-1.19l-.3-.84c-.1-.29-.19-.58-.29-.86s-.13-.37-.19-.55-.21-.6-.3-.9l-.15-.45c-.35-1.06-.68-2.11-1-3.15,0-.09,0-.17-.07-.26-.1-.34-.19-.68-.28-1a2.33,2.33,0,0,1-.07-.25c-.4-1.51-.73-3-1-4.49l0-.12a42.14,42.14,0,0,1-.53-4.62v0c-.38-6.69,1-13.81,5.17-23.06-61-7.56-108.47-15.79-130.47-19.85V978.68H1541A10.63,10.63,0,0,1,1542,974.83Z" style="fill:#47a849"/><path d="M1920.44,741.77q-9.81.65-19.7,1.1a116.63,116.63,0,0,1,5.2,11.9,181.66,181.66,0,0,1,14.5,19.33Z" style="fill:#d2eaff"/><path d="M1665.09,978.68c-.26-1.08-.48-2-.64-2.68-4.37-18.91-22-105-14.21-154.64-40,79.4-73,126.11-91.49,147.67l.49,9.65Z" style="fill:#1d8215"/><path d="M1542,974.83c.38-.2.77-.43,1.17-.66L1540,913.28s6-7,15.88-.5l2.4,47.42c27.3-31.87,65.16-104.08,93.21-161.48a56.12,56.12,0,0,0-8.76.41c-26,3.61-34.74-13.13-39-24.53-.19-.51-.38-1-.56-1.51-.08-.2-.15-.4-.22-.6l-.36-1-.27-.73-.3-.82c-.14-.4-.29-.8-.43-1.19l-.3-.84c-.1-.29-.19-.58-.29-.86s-.13-.37-.19-.55-.21-.6-.3-.9l-.15-.45c-.35-1.06-.68-2.11-1-3.15,0-.09,0-.17-.07-.26-.1-.34-.19-.68-.28-1a2.33,2.33,0,0,1-.07-.25c-.4-1.51-.73-3-1-4.49l0-.12a42.14,42.14,0,0,1-.53-4.62v0a38.22,38.22,0,0,1,.62-9.29c-40.26,6.13-82.41,12.48-125.92,19V978.68H1541A10.63,10.63,0,0,1,1542,974.83Z" style="fill:#1d8215"/><path d="M1867.76,701.68l.1.11.41.43,0,0,1.43,1.52.08.08.1.11h0c.4.42.79.82,1.17,1.23l.8.86.07.06,1,1,0,0,.51.55,0,0,1.13,1.21,0,0a3.58,3.58,0,0,0,.26.29l0,0,1.3,1.4,0,0,.46.5,0,0c.28.3.55.6.83.89l0,0,.48.53,0,0,.88,1,0,0,.68.74.85.95h0l.43.48,0,.06.7.78h0l.48.54,0,0,.71.79.42.48h0c12,13.63,17.32,22.31,22.57,36.18a181.66,181.66,0,0,1,14.5,19.33V691.56c-16,2.57-34.09,5.46-54.09,8.64l.17.19,0,0Z" style="fill:#1d8215"/><path d="M350.62,152.49c-80.44-24.43-125.16-63.23-126.44-64.34v0l0,0v0c-1.27,1.11-46,39.91-126.43,64.34C-4.51,183.54,0,269.87,0,269.87V893.69c3.81.42,7.16.76,9.91.86,18.94.76,46,5.67,67.21-11.58A154,154,0,0,0,99.27,860.2a110.26,110.26,0,0,0,6.81-21.94c-5.87-12.09-9.8-28.45-9.93-31.8-.09-2.3,2.85-6.49,7-10.58v0l.44-.4c1.21-1.18,2.52-2.35,3.88-3.46s2.57-2.14,3.91-3.14A42.12,42.12,0,0,1,127.51,781c-4.15-21.34-15.38-43.16-15.38-43.16C142.58,749.3,149.51,773,149.51,773c.05.2.07.4.11.59A119.67,119.67,0,0,1,174.26,771c2.63-12.8,4.33-29.22,4.33-29.22,13,17,15,30.08,15,36.53a42.83,42.83,0,0,1,8.17,10.18c9.56,5.07,26.15,46.11,26.15,46.11-6.74,2-13.2-1.39-15-2.43a.28.28,0,0,1,0,.09,3.33,3.33,0,0,0-.45-.13c.6,4,8,56.36-12.87,63.59s-32.8-7-33.61-8c0,.24,0,.48,0,.72a.61.61,0,0,0,0,.13l-.22,22.09.93.14c-.32,1-.64,2-1,3v1.21l-.3-.19A240.61,240.61,0,0,0,156.72,958a82.18,82.18,0,0,1-5.38,20.71h27.53c2.16-26.11,19-43.32,33.41-53.4,8.88-15.89,20.6-29.45,31.88-35.22,35.73-18.29,53.84-42.78,62.92-61.23.08-.18.16-.35.25-.53l.48-1c.1-.21.19-.41.28-.62s.28-.59.41-.88l.29-.63c.12-.28.25-.55.37-.83s.18-.43.28-.64l.33-.79.27-.64c.11-.25.21-.5.31-.75l.26-.63c.09-.25.19-.49.28-.73s.17-.42.25-.62.17-.47.26-.7.15-.41.23-.61.16-.45.25-.67l.21-.59c.08-.22.15-.44.23-.65s.13-.39.19-.58.15-.42.22-.63l.18-.55c.07-.2.13-.41.2-.61s.11-.35.16-.52.13-.41.19-.61l.15-.48.18-.63.12-.41c.08-.26.15-.51.22-.75a1.21,1.21,0,0,1,.05-.18c-10.05-15.77-9.38-27-8.89-36.66a29.65,29.65,0,0,1-15.29-3.6c-1.57-1.15-3.11-2.34-4.65-3.54s-3.24-2.42-4.78-3.7l-1-.74-.74-.73-.09-.13c0-.14-.1-.38-.2-.72A7.06,7.06,0,0,0,278,759h.09c-2.06-2.23-3.26-3.83-3.26-3.83,5.79-2.4,37.7-17.32,58.16-22.13a56.34,56.34,0,0,1,12.32-1.51l.41-.11c4.87-1.17,10.07-.28,15.28,2.11l1.31.29a2.24,2.24,0,0,1,.32-.37l1.5.75a96.61,96.61,0,0,0,25.05,1.67s7.33,6.62-6.14,16.51a97.79,97.79,0,0,1,9.88,15.48c11.1,21.65,17.07,78.25-4.86,84.53a33.31,33.31,0,0,1-17.7.66c-.07.62-.15,1.25-.24,1.9-.08.49-.14,1-.2,1.53l-.06.51c0,.37-.07.73-.1,1.11,0,.2,0,.4,0,.6,0,.41-.05.83-.08,1.26s0,.75,0,1.13l0,.8c0,.36,0,.72,0,1.09,0,.18,0,.36,0,.54,0,.9,0,1.83,0,2.77h0c.37,18.53,5,44.17,2.14,62-2.61,16.21-5.12,33.27-7.49,50.35h84.07V269.87S452.85,183.54,350.62,152.49Z" style="fill:url(#be8d20b7-1191-4991-83f7-e42d48037fa4)"/><circle cx="138.08" cy="293.82" r="42.41" style="fill:#f9920b"/><path d="M77.15,883A154,154,0,0,0,99.27,860.2a110.26,110.26,0,0,0,6.81-21.94c-5.87-12.09-9.8-28.45-9.93-31.8-.09-2.3,2.85-6.49,7-10.58v0l.44-.4c1.21-1.18,2.52-2.35,3.88-3.46s2.57-2.14,3.91-3.14A42.15,42.15,0,0,1,127.5,781c-4.14-21.34-15.37-43.16-15.37-43.16C142.58,749.3,149.51,773,149.51,773c.05.2.07.4.11.59A119.67,119.67,0,0,1,174.26,771c2.63-12.8,4.33-29.22,4.33-29.22,13,17,15,30.08,15,36.53a42.83,42.83,0,0,1,8.17,10.18c9.56,5.07,26.15,46.11,26.15,46.11-6.74,2-13.2-1.39-15-2.43a.28.28,0,0,1,0,.09,3.33,3.33,0,0,0-.45-.13c.6,4,8,56.36-12.87,63.59s-32.8-7-33.61-8c0,.24,0,.48,0,.72a.61.61,0,0,0,0,.13l-.22,22.09.93.14c-.32,1-.64,2-1,3v1.21l-.3-.19A240.61,240.61,0,0,0,156.72,958a82.29,82.29,0,0,1-5.38,20.71h27.53c2.16-26.11,19-43.32,33.41-53.4,8.88-15.89,20.6-29.45,31.88-35.22,35.73-18.29,53.84-42.78,62.92-61.23.08-.18.16-.35.25-.53l.48-1c.1-.21.19-.41.28-.62s.28-.59.41-.88l.29-.63c.12-.28.25-.55.37-.83s.18-.43.28-.64l.33-.79.27-.64c.11-.25.21-.5.31-.75l.26-.63c.09-.25.19-.49.28-.73s.17-.42.24-.62.18-.47.27-.7.15-.41.23-.61.16-.45.25-.67l.21-.59c.08-.22.15-.44.22-.65s.14-.39.2-.58.15-.42.22-.63l.18-.55c.07-.2.13-.41.2-.61s.11-.35.16-.52.13-.41.19-.61l.15-.48.18-.63.12-.41c.08-.26.15-.51.22-.75a1.21,1.21,0,0,1,.05-.18c-10.05-15.77-9.38-27-8.89-36.66a29.65,29.65,0,0,1-15.29-3.6c-1.57-1.15-3.11-2.34-4.65-3.54s-3.24-2.42-4.78-3.7l-1-.74-.74-.73-.09-.13c0-.14-.1-.38-.2-.72A7.06,7.06,0,0,0,278,759h.09c-2.06-2.23-3.26-3.83-3.26-3.83,5.79-2.4,37.7-17.32,58.16-22.13a56.34,56.34,0,0,1,12.32-1.51l.41-.11c4.87-1.17,10.07-.28,15.28,2.11l1.31.29a2.24,2.24,0,0,1,.32-.37l1.5.75a96.61,96.61,0,0,0,25.05,1.67s7.33,6.62-6.14,16.51a97.79,97.79,0,0,1,9.88,15.48c11.1,21.65,17.07,78.25-4.86,84.53a33.31,33.31,0,0,1-17.7.66c-.07.62-.15,1.25-.24,1.9-.08.49-.14,1-.2,1.53l-.06.51c0,.37-.07.73-.1,1.11,0,.2,0,.4,0,.6,0,.41-.05.83-.08,1.26s0,.75,0,1.13l0,.8c0,.36,0,.72,0,1.09,0,.18,0,.36,0,.54,0,.9,0,1.83,0,2.77h0c.37,18.53,5,44.17,2.14,62-2.61,16.21-5.12,33.27-7.49,50.35h84.07V656.94C303,623.88,164.26,609.35,0,632.35V893.69c3.81.42,7.16.76,9.91.86C28.87,895.31,55.94,900.22,77.15,883Z" style="fill:#47a849"/><path d="M364.24,978.68h84.07V886.49c-28.46,1.68-54.31,2.73-77.11,3.09,1.19,13.54,2.31,27.66.53,38.75C369.12,944.54,366.61,961.6,364.24,978.68Z" style="fill:#1d8215"/><path d="M77.15,883A154,154,0,0,0,99.27,860.2c.63-1.44,1.2-2.87,1.74-4.3-36.18-7.79-69.46-16.08-101-24.43v62.22c3.81.42,7.16.76,9.91.86C28.87,895.31,55.94,900.22,77.15,883Z" style="fill:#1da516"/><path d="M212.28,925.28c8.88-15.89,20.6-29.45,31.88-35.22,4.75-2.43,9.18-5,13.33-7.6q-23.2-2.93-44.94-6.2c-1.93,9.28-5.76,17-12.89,19.49-20.95,7.25-32.8-7-33.61-8,0,.24,0,.48,0,.72a.61.61,0,0,0,0,.13l-.22,22.09.93.14c-.32,1-.64,2-1,3v1.21l-.3-.19A240.61,240.61,0,0,0,156.72,958a82.29,82.29,0,0,1-5.38,20.71h27.53C181,952.57,197.87,935.36,212.28,925.28Z" style="fill:#1da516"/><path d="M684.06,1397.93l-100.19,113.8H1336.6l-105.83-113.8Z" style="fill:url(#a8536c71-49d3-4ab9-9d16-0c3525f5d0c3)"/><path d="M1359.72,1269.71c-2.24,11.14-1.26,19.39,1.38,25.5h87.49c.36-6.09.65-13-2.06-17.93-8.62-9.14-26.84-39.35-26.84-39.35l-1.64-101.58-72,7.24,19.16,98.83Z" style="fill:#87472b"/><path d="M1213.39,1295.21c2.6-6.25,3.44-14.65.79-26l-6.3-27.09,16.12-99.4-72.21-4.92,1.47,101.58s-13.15,38.6-24.13,42.28c-1.54.52-1.87,6.77-1.61,13.57Z" style="fill:#87472b"/><path d="M1253.59,138.55c-60.64,10.06-61.71,54.76-61,77.42,2.06,64.9,30.87,91.2,30.87,91.2h103.41c30.17-19,35.23-73.8,32.89-99.6C1355.07,156,1318.7,127.75,1253.59,138.55Z" style="fill:#0c1a23"/><path d="M1150.39,731.86l-17.14,457s57.4,10,116.68,6.72l23.62-458.86Z" style="fill:#1a1a1a"/><path d="M1417,730.9l22,456.76s-44.69,11.2-110.41,7.78L1293.89,737.1Z" style="fill:#1a1a1a"/><path d="M1308.81,341.31l-.61-35.75-63.32,1.14c-.54,1.78.08,24.53.5,37.94l-16.4,5.57c-.17,2.14,6.87,29.38,46.68,29.38,51.69,0,48.17-31.29,48.17-31.29Z" style="fill:#87472b"/><path d="M1334.56,252.68s11.76-11.45,20.6-1.39-3.18,36.27-19.69,31.62S1334.56,252.68,1334.56,252.68Z" style="fill:#87472b"/><path d="M1217.61,252.68s-11.75-11.45-20.59-1.39,3.18,36.27,19.68,31.62S1217.61,252.68,1217.61,252.68Z" style="fill:#87472b"/><path d="M1392.53,365.52c-15.15-6.51-55.7-15.74-71.55-21.67a1.47,1.47,0,0,0-1.41.23c-.77.58-1.52,1.08-1.57,1.93-1.65,27.95-67.41,41.68-81.34,1.46-.3-.88-1.16-1.38-1.91-2a1.46,1.46,0,0,0-1.39-.25c-17.84,6.24-61.35,12.92-71.71,22-12.8,11.18-29.44,461.42-29.44,461.42a1.51,1.51,0,0,0,.88,1.49c8.26,3.67,295.56,4.32,303.16,0,.54-.31.83-8.92.74-9.54C1435.44,810.2,1411.35,373.61,1392.53,365.52Z" style="fill:#8bd385"/><path d="M1343.43,185.8c-20.2,34.24-45.29-32.9-112.26-7.41,0,0-26.94,12.71-26.94,12.69,0,1.28,6.24,98.83,16.61,115.47,31.94,51.27,91.17,37.85,110.85,1.6C1341.08,290.85,1350.15,206.16,1343.43,185.8Z" style="fill:#a5572b"/><path d="M1308,541.41s-8.1-20.74-19.37-24.43-29.86-1.4-34.43,0-18.41,5.31-13.4,9.38,26.46,1.51,26.46,1.51-29.48,1.13-42.89,1.81-15.92,9.57-15.7,17.79.07,21,13.11,24.81,36.25,14,48.93,11.47,34.85-1.58,36.55-11.46S1308,541.41,1308,541.41Z" style="fill:#87472b"/><path d="M1420.51,400.54c-14.77-29-30.69-36-30.69-36-18.09-7.36-28.48,23.09-30.86,42-1.59,12.57,9.15,44.11,19.33,99.25-36.46,4.29-70.39,9.45-83.59,8.3l7.25,81.61s60.82-7.12,115-13.68c7.9-1,30.35-9.73,38.23-24.79a27.71,27.71,0,0,0,4.93-13.7C1461.94,517.93,1435.28,429.57,1420.51,400.54Z" style="fill:#8bd385"/><path d="M1352.47,250.29c-1.47,3.43-11.27,20.73-12.67,8.57-2.42-20.93-7.24-46.3-7.24-46.3s-24.44,23.78-44.66,15.22c0,0,9.66-13.95,10.56-21.56,0,0-27.16,20.92-79,9.83,0,0-4.89,44.38-8.45,45.34-7.57,2.05-17.29-28-15.43-51.93,1.94-24.75,13.08-53.51,56-65.62,47.56-13.4,87.57,17.28,98.69,42C1357.8,202.7,1359.67,233.55,1352.47,250.29Z" style="fill:#0c1a23"/><polygon points="1284.04 496.24 1263.52 496.24 1267.09 372.01 1287.61 372.01 1284.04 496.24" style="fill:#76bf6d"/><path d="M1303.77,516.11a342.69,342.69,0,0,0,65.84-5.06q9-1.59,17.94-3.69c2.32-.55,1.34-4.2-1-3.66-2.52.6-5,1.15-7.58,1.69-3.56-19.9-4.33-39.64-9.46-59.17q-2.27-8.62-4.73-17.2a1.86,1.86,0,0,0-3.58,1c5.71,19.85,7.06,40,11.14,60.22q1.59,7.9,3,15.85a332.45,332.45,0,0,1-53.09,6.09q-9.26.31-18.51.13C1301.39,512.27,1301.39,516.06,1303.77,516.11Z" style="fill:#76bf6d"/><path d="M1416.22,580.93q-44,7.17-88.44,10.13-12.43.81-24.89,1.31-.87-6.63-1.22-13.31a1.85,1.85,0,1,0-3.7,0c.28,5.41.82,10.8,1.59,16.15a1.85,1.85,0,0,0,2.27,1.33,1.88,1.88,0,0,0,.71-.4l.3,0q44.73-1.77,89.17-7.81,12.62-1.71,25.19-3.77C1419.55,584.2,1418.55,580.55,1416.22,580.93Z" style="fill:#76bf6d"/><path d="M1240.2,526.55s17.5-10.67,29.44-13.63,33.62.2,38.28,1.85,11.46,2.78,10.68,10c-.19,1.76,3.14,2.69,17,4.1s11.69,10.09,11,18.07-4.18,18.87-18,21.88-32.56,11.13-52.35,11.25c-13.38.08-32.71-4.72-33.87-14.42S1240.2,526.55,1240.2,526.55Z" style="fill:#a5572b"/><path d="M1172.71,508.19c17.6-40.89,27.67-95,26.77-107.66-1.34-18.95-16.76-43-33.93-36.47,0,0-19.58,11.19-32.23,40.71-12.72,29.69-25.63,100.1-22.23,132.33,2,18.64-1.79,30.11,27.14,46.66,38.08,10.6,112,11.87,112,11.87l2.18-77.07C1240.05,519.14,1206.43,514.05,1172.71,508.19Z" style="fill:#8bd385"/><path d="M1251.64,517.43a348.32,348.32,0,0,1-67.1-4.74q-9.21-1.56-18.3-3.64c-2.37-.55-1.39-4.27,1-3.73,2.56.59,5.14,1.14,7.72,1.66,3.51-20.29,11.39-40.43,16.49-60.36q2.27-8.81,4.72-17.55a1.89,1.89,0,0,1,3.64,1c-5.69,20.26-14.15,40.76-18.19,61.44q-1.56,8.07-3,16.17a338.09,338.09,0,0,0,54.11,5.87q9.43.26,18.86,0C1254,513.51,1254.07,517.37,1251.64,517.43Z" style="fill:#76bf6d"/><path d="M1142.05,584.69q41.71,6,83.85,8,11.77.55,23.57.79.71-6.27.92-12.61a1.81,1.81,0,0,1,1.72-1.82,1.78,1.78,0,0,1,1.78,1.76c-.17,5.12-.59,10.22-1.22,15.31a1.76,1.76,0,0,1-2.13,1.29,1.58,1.58,0,0,1-.68-.36l-.28,0q-42.36-.87-84.49-5.79-12-1.39-23.91-3.11C1139,587.84,1139.84,584.37,1142.05,584.69Z" style="fill:#76bf6d"/><path d="M1277.37,373.81s-2.79-24.3-40-42.41L1227.93,347S1238.72,377.15,1277.37,373.81Z" style="fill:#76bf6d"/><path d="M1276.6,373.81s2.79-24.3,40-42.41l10.71,14.65S1315.25,377.15,1276.6,373.81Z" style="fill:#76bf6d"/><path d="M556,1269.71c2.24,11.14,1.26,19.39-1.38,25.5H467.14c-.37-6.09-.66-13,2.06-17.93,8.61-9.14,26.83-39.35,26.83-39.35l1.65-101.58,72,7.24-19.17,98.83Z" style="fill:#ffdbd4"/><path d="M716.62,1295.21c-2.61-6.25-3.45-14.65-.8-26l6.31-27.09L706,1142.7l72.21-4.92-1.47,101.58s13.15,38.6,24.14,42.28c1.53.52,1.86,6.77,1.6,13.57Z" style="fill:#ffdbd4"/><path d="M664.51,143.31c60.64,10.06,61.72,54.76,61,77.42-2.06,64.9-30.87,91.2-30.87,91.2H591.24c-30.18-19-35.24-73.8-32.89-99.6C563,160.72,599.4,132.51,664.51,143.31Z" style="fill:#1f4460"/><path d="M777.23,731.86l17.14,457s-57.4,10-116.68,6.72L654.08,736.7Z" style="fill:#42210b"/><path d="M498.74,730.9l-22,456.76s44.7,11.2,110.42,7.78L621.84,737.1Z" style="fill:#42210b"/><path d="M609.29,341.31l.62-35.75,63.31,1.14c.54,1.78-.08,24.53-.5,37.94l16.4,5.57c.17,2.14-7.84,43.54-47.65,43.54-51.69,0-47.2-45.45-47.2-45.45Z" style="fill:#ffdbd4"/><path d="M684.51,365.16c3.56-7.69,4.68-14.14,4.61-15l-16.4-5.57c.42-13.41,1-36.16.5-37.94l-63.31-1.14-.62,35.75-15,7a38.23,38.23,0,0,0,0,5.28C621.46,344.9,654.74,352.25,684.51,365.16Z" style="fill:#f7b7aa"/><path d="M583.54,257.43S571.79,246,563,256.05s3.18,36.27,19.68,31.62S583.54,257.43,583.54,257.43Z" style="fill:#f7b7aa"/><path d="M700.49,257.43s11.76-11.44,20.6-1.38-3.18,36.27-19.69,31.62S700.49,257.43,700.49,257.43Z" style="fill:#f7b7aa"/><path d="M756.45,367.23c-10.35-9.05-53.87-15.73-71.71-22a1.46,1.46,0,0,0-1.39.25c-.75.58-1.61,1.08-1.91,2-5.63,16.25-19.72,23.69-34.62,24.95l-7.58,17.08-6.62-17.67c-17-2.79-31.75-12.75-32.51-25.82-.05-.85-.81-1.35-1.58-1.93a1.47,1.47,0,0,0-1.41-.23c-15.85,5.93-56.4,15.16-71.55,21.67C506.76,373.61,485,810.2,483.5,820.59c-.1.63.19,9.24.73,9.55,7.61,4.32,294.9,3.67,303.16,0a1.52,1.52,0,0,0,.89-1.49S769.25,378.41,756.45,367.23Z" style="fill:#ddb44e"/><path d="M574.68,190.56c20.19,34.24,45.28-32.9,112.25-7.41,0,0,26.94,12.71,26.94,12.69,0,1.28-6.23,98.83-16.6,115.47-31.94,51.27-91.17,37.85-110.85,1.6C577,295.61,568,210.92,574.68,190.56Z" style="fill:#ffdbd4"/><path d="M612.5,541.41s8.1-20.74,19.37-24.43,29.86-1.4,34.43,0,18.41,5.31,13.4,9.38-26.45,1.51-26.45,1.51,29.47,1.13,42.89,1.81,15.91,9.57,15.69,17.79-.06,21-13.11,24.81-36.25,14-48.93,11.47-34.85-1.58-36.55-11.46S612.5,541.41,612.5,541.41Z" style="fill:#f7b7aa"/><path d="M497.6,400.54c14.77-29,30.69-36,30.69-36,18.09-7.36,28.47,23.09,30.86,42,1.59,12.57-6.78,44.11-17,99.25,36.47,4.29,70.39,9.45,83.59,8.3l-7.24,81.61s-60.83-7.12-115-13.68c-7.91-1-30.36-9.73-38.24-24.79a27.71,27.71,0,0,1-4.93-13.7C458.54,517.93,482.83,429.57,497.6,400.54Z" style="fill:#ddb44e"/><path d="M565.63,255.05c1.48,3.43,11.27,20.73,12.68,8.57,2.41-20.93,7.24-46.3,7.24-46.3s61.68,11.5,113.58.4c0,0,4.45,47.47,8,48.43,7.58,2.05,17.3-28,15.43-51.93-1.94-24.75-13.08-53.51-56-65.62C619,135.2,579,165.88,567.84,190.65,560.3,207.46,558.44,238.31,565.63,255.05Z" style="fill:#1f4460"/><path d="M616.71,516.11a342.69,342.69,0,0,1-65.84-5.06q-9-1.59-17.94-3.69c-2.32-.55-1.34-4.2,1-3.66,2.51.6,5,1.15,7.57,1.69q5.34-29.85,13-59.17,2.26-8.62,4.73-17.2a1.86,1.86,0,0,1,3.57,1q-8.57,29.78-14.71,60.22-1.59,7.9-3,15.85a332.45,332.45,0,0,0,53.09,6.09q9.25.31,18.51.13C619.1,512.27,619.1,516.06,616.71,516.11Z" style="fill:#bc943c"/><path d="M504.26,580.93q44,7.17,88.44,10.13,12.45.81,24.9,1.31.87-6.63,1.21-13.31a1.91,1.91,0,0,1,1.85-1.89,1.89,1.89,0,0,1,1.85,1.89c-.27,5.41-.82,10.8-1.58,16.15a1.81,1.81,0,0,1-3,.93l-.3,0q-44.73-1.77-89.16-7.81-12.63-1.71-25.2-3.77C500.93,584.2,501.93,580.55,504.26,580.93Z" style="fill:#bc943c"/><path d="M680.28,526.55s-17.5-10.67-29.44-13.63-33.62.2-38.28,1.85-11.46,2.78-10.68,10c.19,1.76-3.14,2.69-17,4.1S573.17,539,573.89,547s4.19,18.87,18,21.88,32.56,11.13,52.35,11.25c13.38.08,32.71-4.72,33.87-14.42S680.28,526.55,680.28,526.55Z" style="fill:#ffdbd4"/><path d="M747.77,508.19c-17.59-40.89-30-95-29.15-107.66,1.35-18.95,16.76-43,33.93-36.47,0,0,19.58,11.19,32.23,40.71,12.73,29.69,28,100.1,24.62,132.33-2,18.64,1.79,30.11-27.15,46.66-38.07,10.6-112,11.87-112,11.87l-2.18-77.07C680.43,519.14,714.05,514.05,747.77,508.19Z" style="fill:#ddb44e"/><path d="M668.85,517.43a348.43,348.43,0,0,0,67.1-4.74q9.19-1.56,18.3-3.64c2.36-.55,1.39-4.27-1-3.73q-3.85.89-7.73,1.66-5.26-30.44-12.92-60.36-2.25-8.81-4.72-17.55a1.89,1.89,0,0,0-3.64,1q8.54,30.39,14.62,61.44,1.57,8.07,3,16.17a338.09,338.09,0,0,1-54.12,5.87q-9.43.26-18.86,0C666.44,513.51,666.42,517.37,668.85,517.43Z" style="fill:#bc943c"/><path d="M778.43,584.69q-41.71,6-83.84,8-11.79.55-23.58.79-.71-6.27-.92-12.61a1.81,1.81,0,0,0-1.72-1.82,1.79,1.79,0,0,0-1.78,1.76c.17,5.12.59,10.22,1.22,15.31A1.76,1.76,0,0,0,670,597.4a1.6,1.6,0,0,0,.67-.36l.29,0q42.35-.87,84.49-5.79,12-1.39,23.9-3.11C781.53,587.84,780.65,584.37,778.43,584.69Z" style="fill:#bc943c"/><path d="M556.2,215.69s49.14,17.3,171.35,2.48l-4.41-65.73s-2.86-5.09-19.1-11c-22.12-8.09-82-11.44-120.5-1.69-17.8,4.51-21.38,11.44-21.38,11.44Z" style="fill:#49769e"/><path d="M1040.78,1269.71c-2.17,11.14-1.22,19.39,1.35,25.5h85.09c.35-6.09.63-13-2-17.93-8.38-9.14-26.1-39.35-26.1-39.35l-1.6-101.58-70,7.24,18.64,98.83Z" style="fill:#f9c0af"/><path d="M886.66,1295.21c2.54-6.25,3.35-14.65.78-26l-6.13-27.09L897,1142.7l-70.22-4.92,1.43,101.58s-12.79,38.6-23.47,42.28c-1.5.52-1.82,6.77-1.57,13.57Z" style="fill:#f9c0af"/><path d="M930.63,138.55c-59,10.06-60,54.76-59.33,77.42,2,64.9,30,91.2,30,91.2h100.57c29.34-19,34.27-73.8,32-99.6C1029.31,156,994,127.75,930.63,138.55Z" style="fill:#825a21"/><path d="M825.39,731.86l-16.66,457s55.82,10,113.47,6.72l23-458.86Z" style="fill:#6a9ecc"/><path d="M1093,730.9l21.36,456.76s-43.47,11.2-107.39,7.78L973.29,737.1Z" style="fill:#6a9ecc"/><path d="M984.33,341.31l-.6-35.75-61.58,1.14c-.52,1.78.08,24.53.49,37.94l-15.95,5.57c-.16,2.14,6.68,29.38,45.4,29.38,50.27,0,46.85-31.29,46.85-31.29Z" style="fill:#e5a195"/><path d="M1009.38,252.68s11.43-11.45,20-1.39-3.09,36.27-19.14,31.62S1009.38,252.68,1009.38,252.68Z" style="fill:#e5a195"/><path d="M895.63,252.68s-11.43-11.45-20-1.39,3.09,36.27,19.15,31.62S895.63,252.68,895.63,252.68Z" style="fill:#e5a195"/><path d="M1065.75,365.52c-14.73-6.51-54.17-15.74-69.59-21.67a1.37,1.37,0,0,0-1.36.23c-.75.58-1.49,1.08-1.54,1.93-1.59,27.95-65.56,41.68-79.1,1.46-.3-.88-1.13-1.38-1.86-2a1.39,1.39,0,0,0-1.35-.25c-17.35,6.24-59.67,12.92-69.74,22C828.76,378.41,816,828.65,816,828.65a1.52,1.52,0,0,0,.86,1.49c8,3.67,287.45,4.32,294.85,0,.52-.31.8-8.92.71-9.54C1111,810.2,1084.05,373.61,1065.75,365.52Z" style="fill:#5985b5"/><path d="M1018,185.8c-19.64,34.24-44-32.9-109.17-7.41,0,0-26.2,12.71-26.2,12.69,0,1.28,6.06,98.83,16.15,115.47,31.06,51.27,88.67,37.85,107.81,1.6C1015.71,290.85,1024.54,206.16,1018,185.8Z" style="fill:#f9c0af"/><path d="M1059.08,518.44c-25.52,3.32-56,5.36-72.21,5.37-4.84-2.72-10.47-5.51-15.14-6.82-10.62-3-29.91.2-34.06,1.85s-10.2,2.78-9.51,10c.17,1.76-2.79,2.69-15.15,4.1s-10.39,10.09-9.75,18.07,3.72,18.87,16,21.88A182.78,182.78,0,0,0,963,578.38c6.61,0,18.45-3.25,24.65-6.22,14,.94,63.68,10.71,103.15-3.39,14.74-5.27,21.59-13,21.72-18.83,0-.58,0-1.16,0-1.75C1097.82,545.58,1086.76,541.06,1059.08,518.44Z" style="fill:#e5a195"/><path d="M1094.81,408.32c-9.64-31.58-31.09-43.79-31.09-43.79-17.88-7.47-35.69,18.42-38,37.59-1.57,12.77,26.55,115.76,25,116,38.28,31.32,55.21,32.11,66.5,32.18C1117.34,537.8,1112.69,466.93,1094.81,408.32Z" style="fill:#5985b5"/><path d="M1043.76,506.64c.69,4.07,1.33,8.15,2,12.23l3.58-.59.35-.16q-4.73-30.51-11.58-60.59-2.21-9.64-4.62-19.24a2,2,0,1,0-3.89,1Q1038,472.64,1043.76,506.64Z" style="fill:#49769e"/><path d="M1019,351c-9.15-2.61-17.46-5.08-22.84-7.15a1.37,1.37,0,0,0-1.36.23c-.75.58-1.49,1.08-1.54,1.93-1.59,27.95-65.56,41.68-79.1,1.46-.3-.88-1.13-1.38-1.86-2a1.39,1.39,0,0,0-1.35-.25c-4.29,1.54-10.11,3.11-16.58,4.74,5.13,18.54,19.28,41.2,57.85,41.2C990.51,391.2,1009.58,372,1019,351Z" style="fill:#49769e"/><path d="M852.5,520c24.89,2.42,54.53,3.38,70.29,2.81,4.6-2.89,10-5.88,14.45-7.34,10.2-3.34,29-.86,33.13.64s10,2.41,9.59,9.69c-.1,1.77,2.81,2.59,14.86,3.56s10.46,9.72,10.12,17.72-2.93,19-14.72,22.43a173.29,173.29,0,0,1-42.25,7c-6.41.28-18-2.6-24.16-5.35-13.57,1.43-61.42,13-100.25.26-14.49-4.74-21.43-12.26-21.76-18,0-.58-.06-1.17-.09-1.75C815.88,548.54,826.46,543.63,852.5,520Z" style="fill:#f9c0af"/><path d="M814.31,411.24c8.48-31.91,29.48-44.89,29.48-44.89,17.59-8.12,36.33,17.11,39.39,36.18,2,12.71-22.32,116.65-20.74,116.78-37.12,32.69-54,34.11-65.29,34.58C796.51,541.46,798.58,470.47,814.31,411.24Z" style="fill:#5985b5"/><path d="M868.91,507.64c-.54,4.09-1,8.19-1.51,12.29l-3.6-.45-.36-.16q3.62-30.65,9.36-61,1.86-9.74,3.93-19.4a2,2,0,1,1,3.92.87Q873.47,473.46,868.91,507.64Z" style="fill:#49769e"/><path d="M1024.64,185.89c-10.81-24.77-49.73-55.45-96-42C886.88,156,876,184.71,874.16,209.46c-1.82,23.89,7.63,54,15,51.93,1.86-.51,4.08-13.49,5.75-25.44l1.58,12.92C916,236.15,920,219.46,920,219.46c-.57,14.71-5.09,22.34-5.09,22.34a51.34,51.34,0,0,0,30.36-24.24l.54-.1c.59,7-1.49,19.53-1.49,19.53,16.39-3.41,24.26-11.93,28-20.08-1.65,7.52-3.68,15.28-3.68,15.28,26.3-1.42,38.83-19.63,38.83-19.63s4.7,25.37,7,46.3c1.37,12.16,10.9-5.14,12.33-8.57C1033.79,233.55,1032,202.7,1024.64,185.89Z" style="fill:#825a21"/><path d="M1030.19,1413.22c-2.31,11.5-1.3,20,1.42,26.33h90.32c.37-6.3.68-13.43-2.13-18.51-8.9-9.44-27.7-40.63-27.7-40.63l-1.7-104.86-74.35,7.47,19.79,102Z" style="fill:#ffece9"/><path d="M898.24,1439.55c2.7-6.45,3.56-15.13.83-26.86l-6.51-28L909.2,1282.1,834.65,1277l1.53,104.87s-13.58,39.85-24.92,43.65c-1.58.53-1.93,7-1.66,14Z" style="fill:#ffece9"/><path d="M930.19,250.67c-62.6,10.39-63.71,56.53-63,79.92,2.12,67,31.87,94.15,31.87,94.15h106.74c31.15-19.59,36.38-76.18,34-102.82C1034.94,268.64,997.4,239.52,930.19,250.67Z"/><path d="M833.21,858l-17.69,471.75s59.25,10.34,120.45,6.93L960.35,863Z" style="fill:#1f4460"/><path d="M1089.3,857,1112,1328.51s-46.14,11.57-114,8L962.23,863.39Z" style="fill:#1f4460"/><path d="M987.19,454.81l-.63-36.91-65.36,1.18c-.56,1.84.08,25.31.51,39.17L904.78,464c-.17,2.21,7.09,30.32,48.19,30.32,53.36,0,49.73-32.3,49.73-32.3Z" style="fill:#ffece9"/><path d="M1001.54,470.79a23.13,23.13,0,0,0,1.16-8.77l-15.51-7.21-.63-36.91-65.36,1.18c-.56,1.84.08,25.31.51,39.17L904.78,464c-.06.79.85,4.93,3.93,9.9A183.44,183.44,0,0,1,1001.54,470.79Z" style="fill:#ffdbd4"/><path d="M1013.78,368.48s12.13-11.81,21.26-1.43-3.29,37.45-20.32,32.65S1013.78,368.48,1013.78,368.48Z" style="fill:#ffdbd4"/><path d="M893,368.48s-12.13-11.81-21.26-1.43,3.29,37.45,20.33,32.65S893,368.48,893,368.48Z" style="fill:#ffdbd4"/><path d="M1073.62,479.8c-15.64-6.72-57.5-16.25-73.86-22.38a1.54,1.54,0,0,0-1.46.24c-.79.61-1.57,1.12-1.62,2-1.7,28.86-69.59,43-84,1.51-.31-.9-1.2-1.42-2-2a1.53,1.53,0,0,0-1.44-.26c-18.41,6.44-63.33,13.34-74,22.68-13.22,11.54-30.4,476.34-30.4,476.34a1.56,1.56,0,0,0,.91,1.54c8.53,3.79,305.11,4.46,313,0,.55-.32.85-9.21.75-9.85C1117.91,938.85,1093,488.15,1073.62,479.8Z" style="fill:#222168"/><path d="M1022.93,299.45c-20.85,35.35-46.75-34-115.89-7.65,0,0-27.81,13.11-27.81,13.09,0,1.33,6.44,102,17.14,119.21,33,52.92,94.12,39.07,114.44,1.66C1020.51,407.9,1029.87,320.46,1022.93,299.45Z" style="fill:#ffece9"/><path d="M986.34,661.37s-8.36-21.4-20-25.22-30.83-1.45-35.54,0-19,5.49-13.83,9.69,27.3,1.56,27.3,1.56-30.43,1.16-44.27,1.86-16.43,9.88-16.21,18.37.07,21.64,13.54,25.61,37.42,14.48,50.51,11.84,36-1.63,37.73-11.82S986.34,661.37,986.34,661.37Z" style="fill:#ffdbd4"/><path d="M1102.5,516c-15.25-30-31.68-37.2-31.68-37.2-18.68-7.59-29.4,23.84-31.86,43.32-1.64,13,9.45,45.54,20,102.46-37.64,4.43-72.67,9.75-86.29,8.57l7.48,84.25s62.79-7.36,118.75-14.12c8.15-1,31.34-10.05,39.46-25.6a28.35,28.35,0,0,0,5.09-14.14C1145.28,637.13,1117.75,545.92,1102.5,516Z" style="fill:#222168"/><path d="M982,635.25a352.75,352.75,0,0,0,68-5.22q9.3-1.63,18.52-3.81c2.39-.56,1.38-4.34-1-3.77q-3.9.91-7.81,1.73c-3.68-20.53-4.48-40.91-9.78-61.08q-2.34-8.9-4.88-17.75a1.92,1.92,0,0,0-3.69,1c5.89,20.5,7.28,41.24,11.5,62.17q1.64,8.16,3.1,16.37a343.22,343.22,0,0,1-54.8,6.28q-9.55.33-19.11.13C979.53,631.29,979.53,635.21,982,635.25Z" style="fill:#1d1c59"/><path d="M1098.07,702.17q-45.37,7.41-91.3,10.46-12.84.84-25.69,1.35-.9-6.84-1.26-13.73a1.91,1.91,0,1,0-3.82,0c.29,5.58.85,11.14,1.64,16.67a1.91,1.91,0,0,0,2.35,1.36,1.74,1.74,0,0,0,.73-.41,1.06,1.06,0,0,0,.31,0q46.19-1.83,92-8.06,13-1.77,26-3.89C1101.51,705.55,1100.48,701.78,1098.07,702.17Z" style="fill:#1d1c59"/><path d="M923.51,659.16s8.37-21.41,20-25.23,30.82-1.44,35.54,0,19,5.48,13.83,9.68-27.31,1.57-27.31,1.57,30.43,1.16,44.27,1.86,16.44,9.88,16.21,18.36-.07,21.64-13.54,25.61S975.1,705.54,962,702.9s-36-1.63-37.73-11.83S923.51,659.16,923.51,659.16Z" style="fill:#ffece9"/><path d="M807.35,513.73c15.25-30,31.68-37.19,31.68-37.19,18.68-7.59,29.4,23.84,31.86,43.31,1.64,13-9.45,45.54-19.95,102.46,37.64,4.43,72.66,9.76,86.29,8.58l-7.48,84.24S867,707.78,811,701c-8.16-1-31.34-10-39.47-25.59a28.48,28.48,0,0,1-5.09-14.15C764.58,634.92,792.11,543.71,807.35,513.73Z" style="fill:#222168"/><path d="M927.86,633a353.39,353.39,0,0,1-68-5.22q-9.31-1.65-18.52-3.81c-2.4-.57-1.39-4.34,1-3.78,2.6.62,5.21,1.19,7.82,1.74,3.68-20.54,4.48-40.92,9.77-61.08q2.34-8.91,4.89-17.76a1.91,1.91,0,0,1,3.68,1c-5.89,20.5-7.28,41.24-11.5,62.17q-1.63,8.17-3.1,16.37a342.34,342.34,0,0,0,54.8,6.28q9.56.33,19.11.14C930.32,629.08,930.32,633,927.86,633Z" style="fill:#1d1c59"/><path d="M811.78,700q45.38,7.41,91.3,10.45,12.84.86,25.7,1.35c.59-4.55,1-9.14,1.25-13.73a2,2,0,0,1,1.91-2,2,2,0,0,1,1.91,2q-.44,8.37-1.64,16.67a1.92,1.92,0,0,1-2.35,1.37,1.85,1.85,0,0,1-.73-.41l-.31,0q-46.17-1.83-92.05-8.06-13-1.77-26-3.89C808.34,703.33,809.37,699.56,811.78,700Z" style="fill:#1d1c59"/><path d="M1030,299.54C1018.5,274,977.2,242.3,928.1,256.13c-44.35,12.5-55.85,42.19-57.85,67.74-1.93,24.67,8.11,55.73,15.93,53.61,3.68-1,8.72-46.81,8.72-46.81a204.73,204.73,0,0,0,35.26,4.13c-9.12,6.7-17.68,12-17.68,12,55.24,8.2,99.23-19.77,99.23-19.77s5,26.19,7.47,47.79c1.45,12.56,11.56-5.3,13.08-8.83C1039.69,348.74,1037.77,316.89,1030,299.54Z"/></g></g></svg>