<svg xmlns="http://www.w3.org/2000/svg" xmlns:xlink="http://www.w3.org/1999/xlink" viewBox="0 0 1388.31 900"><defs><linearGradient id="be3b6f90-5a13-4880-bf4f-93db0007a6d1" x1="398.71" y1="1008.07" x2="1243.57" y2="-118.4" gradientUnits="userSpaceOnUse"><stop offset="0" stop-color="#6bb5e9"/><stop offset="1" stop-color="#b7ff6a"/></linearGradient><linearGradient id="e6e3df1c-6b30-4241-aeee-74bf9eea8d67" x1="675.15" y1="1167.35" x2="791.07" y2="-79.77" xlink:href="#be3b6f90-5a13-4880-bf4f-93db0007a6d1"/></defs><g id="a57fd693-8a03-4626-930c-ce37e517b11f" data-name="Layer 2"><g id="ffc6a1ef-103f-4d7d-b521-b92807ca96e1" data-name="Layer 1"><g style="opacity:0.8"><path d="M1159.89,857.57c263-2.45,269.84-366.39,130.55-415.13-89-31.17-62.63-218.56-236.61-218.3-56.65.09-124.06,14-161.8-30.69-13.87-16.42-20.23-38.2-29-58.18C834.9,70.94,777.62,21.73,712.32,5.77S575.14,7.47,523.16,52.22C465,102.31,431.4,183,364.58,219.06c-41.22,22.24-89.49,24.07-133.18,40.21s-86.68,56.92-80.34,105.4c8,61,88.63,98.78,77.85,159.25-8.93,50.16-71,62.18-107.09,96.1-47.68,44.89-17.89,233.64,100.51,233.64l771.35,3.91" style="fill:url(#be3b6f90-5a13-4880-bf4f-93db0007a6d1)"/></g><g style="opacity:0.8"><path d="M1084.57,875.2c97.2-.8,183.66-60.93,214.92-150.33,35.55-101.69,5.39-196.85-92.13-217.29C1032.84,471,944.64,595,758.31,531.91,603.08,479.33,528,276.39,296.17,399.09,170.51,465.58,91.59,673.89,145.74,792.26c53.17,116.25,478.45,86.77,580.5,85.92Z" style="fill:url(#e6e3df1c-6b30-4241-aeee-74bf9eea8d67)"/></g><path d="M1184.62,849.13l1.46-142c-62-3.06-145.12,4-185.8,1.39v-136h6.49v-6.09h-7.09l0-17.91s6.2-14.49-9-23.2a23.65,23.65,0,0,1-3.73-2.8,12.15,12.15,0,0,1-2.86-4.74c0,.13-.12.26-.17.39h0a2.68,2.68,0,0,1-.07.27c-1.53,3.67-6.29,6.7-6.29,6.7a21.58,21.58,0,0,0-9.16,9.55c-3.33,5.55-.65,13.87-.65,13.87v17.88h-6.5v6.09h6.5V706.55c-6.45-.39-13-.75-19.49-1.11V685.13h3.25v-6.08h-2.82c1.44-6.08,3.18-27.47-20.7-41.16,0,0-10.59-5.79-12.59-13.4-2.24,7.61-12.73,14-12.73,14C877,653.22,880.88,676,882.19,682.09h-2.05v3h3.25v16.94q-17.73-.83-35.72-1.58V627.35h-3.25V572.6h-6.49v54.75H805.46V533.06H799v94.29h-6.49V578.68h-7.28s9.06-29.42-19.88-46c0,0-10.49-8.31-12.47-15.85-2.22,7.54-12.61,15.09-12.61,15.09-28.94,16.59-20,46.77-20,46.77H685.38V536.1h4.91V511.77h-4.87c.58,0,26.39-84.79-60.17-134.41,0,0-24.67-14-34.6-33.05l-3.06-63.19-3,62.59c-10.17,19.45-35.15,34.59-35.15,34.59-84.76,48.58-62.19,130.43-60.68,133.47H484V536.1h4.73l-.14,42.58H454.26c1-3,6.69-30.38-20-45.69,0,0-10.49-8.5-12.47-16-2.23,7.54-12.62,15.21-12.62,15.21C382.43,547.48,388,575.64,389,578.68h-5.62v48.67h-9.74V533.06h-6.5v94.29h-26V572.6h-6.5V697.8q-3.82.12-7.94.46V849.13ZM987.29,554.35h6.49v12.16h-6.49Zm-13,0h6.49v12.16H974.3ZM938.58,685.13h3.25v19.94l-3.25-.19Zm-9.74,0h3.25v19.39l-3.25-.17Zm-9.74,0h3.25V704l-3.25-.17Zm-9.74,0h3.25v18.38l-3.25-.17Zm-9.74,0h3.25V703l-3.25-.17Zm-9.74,0h3.25v17.4l-3.25-.15Z" style="fill:#50b798;opacity:0.8"/><path d="M1160.83,302.27v51.56a1.85,1.85,0,0,0-.37.19h0l0,0a1.3,1.3,0,0,0-.18.15l-.06.07-.13.18a.41.41,0,0,0,0,.09,1.76,1.76,0,0,0-.09.2l0,.09a1.75,1.75,0,0,0,0,.32v1h-1.47v2.75h.26q-.3.42-.66.87l-.31.35-.13.15-.35.36-.16.15-.27.24a8.43,8.43,0,0,1-2.16,1.36.5.5,0,0,0-.3.32.49.49,0,0,0,.08.42l1.15,1.47.09.12-2.53,1.58-2.25,1.4-.25.15-3.14,1.95-.06.05h0a.55.55,0,0,0-.14.13h0a2.24,2.24,0,0,0-.3.35h0a22.62,22.62,0,0,0-1.82,3.16h0c-.16.31-.32.63-.47.95h0c-.57,1.18-1.11,2.37-1.52,3.28h0c0,.11-.09.21-.13.31h0l-.32.74a.39.39,0,0,0,0,.18v24.85l0,6.33v.62l0,9.19v2.21a.47.47,0,0,0,.09.28l.4.52h0l.06.09.09.11.17.23.09.11.27.35.12.15.13.17h0l0,0h0l0,0q.19.27.42.54l0,0a31.07,31.07,0,0,0,2.73,3.12h0a2.91,2.91,0,0,0,.27.24l.11.08a.39.39,0,0,0,.1.08h0l.07.06.08,0,1.91.77.3.13.36.15.21.08,2.56,1,.48.19,3.16,1.29h.14l2.61.4.06.12c0,.05,0,.11.07.17l.05.12.06.18a.83.83,0,0,1,0,.15,1.21,1.21,0,0,1,0,.18,1.16,1.16,0,0,1,0,.18l0,.18c0,.07,0,.14,0,.21a1.09,1.09,0,0,1,0,.18,1.92,1.92,0,0,1,0,.24,1,1,0,0,1,0,.17,1.45,1.45,0,0,1,0,.28c0,.05,0,.09,0,.14a2.54,2.54,0,0,1-.13.45.81.81,0,0,0-.21-.2,2.36,2.36,0,0,0-1-.47,2.91,2.91,0,0,0-1.1,0,3.9,3.9,0,0,0-1.19.48,2.45,2.45,0,0,0-1.09,1.7,1.76,1.76,0,0,0,1.63,2.18c-.64-.18-.92-1.2-.74-1.79a1.52,1.52,0,0,1,.78-.91,1.75,1.75,0,0,1,1.23-.12l.16,0a1.82,1.82,0,0,1,1.2,2.07,9.23,9.23,0,0,0-.17,2.27,11.38,11.38,0,0,0,1.94,5,11.29,11.29,0,0,0,1.93-5,8.77,8.77,0,0,0-.17-2.27,1.83,1.83,0,0,1,1.2-2.07l.16,0a1.73,1.73,0,0,1,1.23.12,1.49,1.49,0,0,1,.78.91c.18.59-.1,1.61-.73,1.79a1.76,1.76,0,0,0,1.63-2.18,2.45,2.45,0,0,0-1.09-1.7,3.85,3.85,0,0,0-1.2-.48,2.91,2.91,0,0,0-1.1,0,2.36,2.36,0,0,0-1,.47.81.81,0,0,0-.21.2,3.81,3.81,0,0,1-.13-.45s0-.09,0-.14,0-.19,0-.28,0-.12,0-.17v-.24c0-.07,0-.12,0-.18s0-.14,0-.21a1.16,1.16,0,0,1,0-.18l0-.18c0-.07,0-.12,0-.18s0-.11,0-.15,0-.12.07-.18,0-.08,0-.12,0-.12.08-.17,0-.09,0-.12l2.62-.4h.13l3.38-1.37.26-.11,2.57-1,.2-.08,2.57-1.05a.2.2,0,0,0,.08,0l.08-.06h0l.1-.08.11-.08.26-.24h0a31.07,31.07,0,0,0,2.73-3.12h0l.44-.56,0,0h0l0,0h0l.12-.16.13-.16.27-.35.08-.11.18-.23a.76.76,0,0,1,.08-.11l.07-.09h0l.39-.52a.48.48,0,0,0,.1-.28V420l0-16.14v-3.48l0-6V379a.39.39,0,0,0,0-.18c-.08-.21-.19-.46-.32-.74v0c0-.09-.08-.19-.13-.29v0c-.63-1.42-1.59-3.51-2.48-5.19h0a13,13,0,0,0-1.62-2.55h0a.58.58,0,0,0-.15-.13l-.06-.05-.41-.25-1.86-1.16-.44-.28-.82-.5-.09-.06-1.21-.75-.44-.28-.36-.22-2.54-1.58.1-.12,1.14-1.47a.43.43,0,0,0,.08-.42.51.51,0,0,0-.29-.32A8.32,8.32,0,0,1,1166,361l-.27-.24-.16-.16c-.12-.12-.24-.23-.35-.35l-.14-.15-.3-.35q-.36-.45-.66-.87h.26v-2.75h-1.47v-1a1.17,1.17,0,0,0,0-.32l0-.09a1.67,1.67,0,0,0-.08-.2.41.41,0,0,1,0-.09l-.13-.18-.06-.07a1.39,1.39,0,0,0-.19-.15l0,0h0a1.62,1.62,0,0,0-.37-.19V303.3Zm1.7,59.7-.67-.36.67-.36Zm0,1.73-1.14.61-1.15-.61v-1.23l1.15-.61,1.14.61Zm-2.29-1.73v-.72l.67.36Zm.67,2.59-.67.36v-.71Zm1.62.36-.67-.36.67-.35Zm0,2.2-1.14.61-1.15-.61v-1.69l1.15-.61,1.14.61Zm-7.55,1.12.15.08-1.3,1.54v-1Zm-1.15.1v-.71l.67.35Zm2.25.49.48.25v1.23l-1.15.61-.75-.4Zm.48,2V372l1.58.84-1.58.85V375l-1.15-.61-1.58.84v-1.69l-.72-.38.14-.53.58-.31v-.77l.53-.63,1.05.56Zm-7.12,6.72-1.58-.85v-1.22l1.14-.61,1.58.84v1.22Zm0,.5.84.45h-1.69Zm1.14-.61v.72l-.67-.36Zm0,2.06v.39l-1.58.84-1.14-.61v-.62Zm0,.9v1.69l1.15.61-1.15.61V385l-1.58-.85-.89.48a3.45,3.45,0,0,1,.2.32,4.45,4.45,0,0,0-.33-.51.53.53,0,0,0-.13-.13h0v-.77l-1.59-.84,1.59-.85v-1.22l1.14.61Zm-3.2,0v1.22l-1.58.84-1.15-.61v-1.22l1.58-.85Zm-.7-.88h.7v.37Zm-2,.6v-.6h1.13Zm1.68,5.48-.1.05-1.58-.84v-1.23l1.15-.61,1.58.85v.33h0a.67.67,0,0,0-.59.35,8.76,8.76,0,0,0-.49,1.13A0,0,0,0,0,1146.33,385.56Zm-.31,7.29v-.08c0,.17,0,.32.07.43a5.71,5.71,0,0,0-1,1.67l0-.08-.42-.23v-1.22l1.15-.61Zm-.26-3.06v-.09a18.75,18.75,0,0,0,.17,2.5v-.05l-.12.07-1.15-.61v-1.23Zm-1.11,6.58v-1.3l.26.14,0-.09a8.78,8.78,0,0,0-.34,1.48Zm0-4.25.67.35-.67.36Zm2.22,1.44a.36.36,0,0,0,.09-.33c0-.05-1-5,.47-8.13,1.93,3,.45,8,.44,8.1a.4.4,0,0,0,.19.45,7.13,7.13,0,0,1,2.3,3.43,3.15,3.15,0,0,1,.2,1.15v19.54h-5.26V398.23a9.55,9.55,0,0,1,.16-1.49v0A5.21,5.21,0,0,1,1146.87,393.56Zm.51,25V419l-.88-.47Zm6,7.59v1.22l0,0-.94-.85-.21-1,.06,0Zm-.67-.87.67-.36v.72Zm-.66-.35-.47-2.26h1.7l.1.06v1.69l-1.14.61Zm-1-3.93v-1.69l1.15-.62,1.14.62V421l-1.14.61Zm5.13-26.66-.78-.41-1.58.84v-1.68l-1.15-.62,1.15-.61v-1.69l1.58.85,1.15-.61v1.22l1.58.84-1.58.85v.77a5.55,5.55,0,0,1,.48-.29v-.23l1.55-.83h0l.13.27a12.72,12.72,0,0,0-5,3.62l.16-.18v-1.17l1.58-.84.38.2Zm3.57,28.39V424l-1.58.84-1.14-.61V423l.53-.29h2.09Zm-.33-1.05.33-.18v.18Zm-.81-.07-1.58-.85v-1.22l1.14-.61,1.58.84V421Zm0-2.95h1.13v.6ZM1157,419v-.37h.69Zm-2.91-1.36V398.23a1.45,1.45,0,0,1,.37-1,11.3,11.3,0,0,1,5.13-3.48.53.53,0,0,0,.36-.29.46.46,0,0,0,0-.44c-.14-.21-3.28-5.17,1.27-8a.37.37,0,0,1,.34,0c4.55,2.83,1.4,7.78,1.26,8a.46.46,0,0,0,0,.44.52.52,0,0,0,.35.29,11.24,11.24,0,0,1,5.13,3.48,1.45,1.45,0,0,1,.37,1v19.44Zm8.4,5.31v.72l-.67-.36Zm-1.14.1-.77-.41h1.54Zm1.14,1.12v1.69l-1.14.61-1.15-.61V424.2l1.15-.61Zm-2.29-.5V423l.67.36Zm0-2v-.43l1.15-.61,1.14.61v.43Zm1.62-1.3.67-.35v.71Zm-1.62.36V420l.67.35Zm0-1.22v-.86h2.29v.86l-1.14.61Zm2.77,2.16v-.18l.33.18Zm.1,1h2.09l.54.29v1.22l-1.15.61L1163,424v-1.22ZM1163,421v-1.23l1.58-.84,1.15.61v1.22l-1.58.85Zm2-2.34h.7V419Zm-2,.6v-.6h1.13Zm3.57-24.92.4.3.38-.2,1.58.84v1.17l.16.18a12.72,12.72,0,0,0-5-3.62c0-.08.09-.17.13-.27l1.56.83v.23l.48.29v-.77l-1.59-.85,1.59-.84v-1.22l1.14.61,1.58-.85v1.69l1.15.61-1.15.62v1.68l-1.58-.84Zm10.4,27.27-1.59-.85v-1.22l1.15-.61,1.58.84V421Zm1.14-.11v.18h-.33Zm-2.73-2.47v-.47h.89Zm-3.18-1.26V398.23a3.15,3.15,0,0,1,.2-1.15,7.2,7.2,0,0,1,2.3-3.43.39.39,0,0,0,.2-.45c0-.05-1.5-5.12.43-8.1,1.49,3.1.48,8.08.47,8.13a.37.37,0,0,0,.1.33,5.25,5.25,0,0,1,1.4,3.16v0a10.9,10.9,0,0,1,.15,1.49v19.54Zm5.5-23s0,0,0,.08a5.2,5.2,0,0,0-1-1.67c0-.11,0-.26.07-.43v.08l.23-.12,1.14.61v1.22Zm.15.42.26-.14v1.3a1.85,1.85,0,0,1,0,.23,9.83,9.83,0,0,0-.33-1.48Zm.26-3.09v.71l-.67-.36Zm-1.14.1-.13-.07v.05a22.86,22.86,0,0,0,.17-2.5v.09l1.1.59v1.23Zm-.54-6.66v0a6.65,6.65,0,0,0-.49-1.13.66.66,0,0,0-.58-.35h0v-.33l1.59-.85,1.14.61v1.23l-1.58.84Zm1.68-5v1.22l-1.14.61-1.59-.84v-1.22l1.15-.62Zm-1.13-1.11h1.13v.6Zm-4.8-2.57v-1.22l1.58-.84,1.15.61v1.22l-1.58.85Zm.67.87-.67.36v-.72Zm.48.25.84.45h-1.69Zm1.58,1.45v.62l-1.15.61-1.58-.84v-.39Zm0,1.13v1.22l1.58.85-1.58.84v.77a.37.37,0,0,0-.12.13l-.14.19h0a3.28,3.28,0,0,0-.2.31,3.21,3.21,0,0,1,.19-.31l-.89-.48-1.58.85v-1.69l-1.15-.61,1.15-.61v-1.69l1.58.84ZM1163,372v-1.23l1.58-.84,1.15.61v1.22l-1.58.85Zm.67.86-.67.36v-.72Zm.48.26,1.58.84v1.22l-1.15.62L1163,375v-1.22Zm1.58,2.57v1.23l1.58.84-1.32.7h-3v-.09l-1.15-.61,1.15-.61v-1.69l1.58.84Zm-3.21-3.44v1.22l-1.14.62-1.15-.62v-1.22l1.15-.61Zm-.67-.87.67-.35v.71Zm-1.62.36v-.71l.67.35Zm.67,2.6-.67.36V374Zm1.62-.36v.72l-.67-.36Zm0,1.23v1.68l-1.14.62-1.15-.62v-1.68l1.15-.62Zm-2.29,8.06v-1.22l1.15-.62,1.14.62v1.22l-1.14.61Zm.61.83a1,1,0,0,0-.23.11l-.38.25v-.68Zm1.68-.32v.68l-.38-.25-.22-.11h0Zm-.67-2.6.67-.36v.72Zm-1.62.36v-.72l.67.36Zm0-1.23v-.85h2.29v.85l-1.14.62Zm.3-1.85.85-.45.84.45Zm3.36,7.27.69.37,1.15-.61v1.22l1.58.85-1.58.84v1.22l-.68-.36A5.36,5.36,0,0,0,1163.9,385.75Zm1.13,4h0l.71.38v1.23l-1.26.67h0A8.86,8.86,0,0,0,1165,389.77Zm3.91-2.55v.71l-.67-.35Zm-1.14.1-1.58-.84v-1.23l1.14-.61,1.58.85v1.22Zm1.14,1.12v1.22l-1.58.85-1.14-.61v-1.23l1.58-.84Zm-5.93-3.67v-1.23l1.15-.61,1.58.85V385l-1.15.61Zm0-1.73v-.72l.67.36Zm0-1.23v-1.22l1.58-.85,1.15.62v1.22l-1.58.84Zm2-2.33h.7v.37Zm-2,.6v-.6h1.13Zm4.79-2.05.84.45H1167Zm-1.58-2.57,1.14-.61,1.58.84v1.22l-1.14.62-1.58-.85Zm2.72,2v.72l-.67-.36Zm0,2.06v.39l-1.58.84-1.14-.61v-.62Zm0,.9v1.69l1.15.61-1.15.61V385l-1.58-.85-1.14.62v-1.23l-1.59-.84,1.59-.85v-1.22l1.14.61Zm.48,14.65v-1.69l1.15-.61,1.14.61V395l-1.14.61Zm.67.86-.67.36v-.71Zm1.62-.35v.71l-.67-.36Zm-1.14-3.32-1.15-.61v-1.69l1.15-.61,1.14.61v1.69Zm.47-3.17.67-.35v.71Zm-1.62.36v-.71l.67.35Zm0-1.22V387l1.15-.61,1.14.61v1.23l-1.14.61Zm1.62-2.09.67-.36v.72Zm-1.62.36v-.72l.67.36Zm0-1.23v-1.69l1.15-.61,1.14.61v1.69l-1.14.61Zm0-5.75h.26l-.26.14Zm0-3.54.67.36-.67.36Zm0-2.19.37-.2.65,2.43-1-.54Zm1.15,2.81h0l.52,1.91h-1.52l-.18-.09v-1.22Zm.27-3.28.87.47v1.69l-.26.14Zm.87,2.66v.61l-.14-.53Zm0,3.54v.14l-.26-.14Zm0,.64v1.69l-1.14.61-1.15-.61v-1.69l1.15-.61Zm1.84,10.37a.37.37,0,0,1,0-.11l-1.35-.72v-1.22l1.15-.61.21.11a.5.5,0,0,1,0-.12A12.59,12.59,0,0,0,1173.55,390.49Zm-1.36-2.56v-.71l.67.36Zm0-1.22v-1.22l1.58-.85.66.35h0a7.16,7.16,0,0,0-.79,2.29.59.59,0,0,0,0-.13l-.32.17Zm3.2-7.23h.7l-.7.37Zm2.73,2.84V383l-.67-.36Zm-3.2,37-1.15.61-1.58-.85v-.49h2.73Zm-2.78-23.67,0-.09v-.25l.18-.1.05-.07C1172.32,395.28,1172.23,395.45,1172.14,395.62Zm-1.1-3.15,1.15-.61v-1.69l1.4.75c0-.05,0-.09,0-.14a16.44,16.44,0,0,0,.42,2.36,5.24,5.24,0,0,0-1.2,1.34l0-.05-.64.34v-1.68Zm.74,26.09h-.07v.25l-.67-.36.33-.17a.43.43,0,0,1,0-.11A.42.42,0,0,0,1171.78,418.56Zm-.43-19v2.08l-.78.42-.85-.46v-2l.85-.46Zm-.31-.67.31-.17V399Zm-1.32.2v-.4l.37.2Zm.37,3.22-.37.2v-.4Zm1.26-.17v.34l-.31-.17Zm0,.84V405l-.78.42-.85-.46v-2l.85-.46Zm-1.26,2.75-.37.2v-.4Zm1.26-.17v.34l-.31-.17Zm0,.84V408l-.78.42-.85-.45V406.4l.85-.46Zm-1.26,2.28-.37.2v-.39Zm1.26-.16v.33l-.31-.17Zm0,.84v2.07l-.78.42-.85-.45v-2l.85-.45Zm-1.26,2.75-.37.19v-.39Zm1.26-.17v.33l-.31-.16Zm0,.84v2.07l-.78.42-.85-.45v-2l.85-.45Zm-1.26,2.75-.37.19v-.39Zm1.26-.17v.33l-.31-.16Zm0,.84v1.61l-.78.42-.85-.46v-1.54l.85-.45Zm.36,4.84-1.14.61-1.15-.61v-1.69l1.15-.62,1.14.62Zm-2.29-2.2v-.19h0a.5.5,0,0,0,.31-.45s0,0,0,.08l.38.2Zm0-21.76,0,0v-.32l1.15-.61,1.07.57,0-.06-.06.14a3.71,3.71,0,0,0-.25,1.37l-.79.43-.86-.46a.28.28,0,0,1,0,.09A2.37,2.37,0,0,0,1169.39,397Zm-.45,22-1.58.85-1.14-.61v-.63h2.72Zm-9.18-38.46v1.22l-1.14.61-1.58-.84v-1.22l1.14-.62Zm-1.13-1.11h1.13v.6Zm-4.8-2.57v-1.22l1.58-.84,1.15.61v1.22l-1.58.85Zm.67.87-.67.36v-.72Zm.48.25.84.45h-1.69Zm1.58,1.45v.62l-1.15.61-1.58-.84v-.39Zm0,1.13v1.22l1.58.85-1.58.84v1.23l-1.15-.62-1.58.85v-1.69l-1.15-.61,1.15-.61v-1.69l1.58.84Zm-3.21-.49v1.69l-1.14.61-1.15-.61v-1.69l1.15-.61Zm-.26-.64h.26v.14Zm-1.77,0-.26.14v-.14Zm-.26-2.93v-.61l.14.08Zm0,18.48v-1.69l1.15-.61,1.14.61V395l-1.14.61Zm.67.86-.67.36v-.71Zm1.62-.35v.71l-.67-.36Zm-1.14-3.32-1.15-.61v-1.69l1.15-.61,1.14.61v1.69Zm.47-3.17.67-.35v.71Zm-1.62.36v-.71l.67.35Zm0-1.22V387l1.15-.61,1.14.61v1.23l-1.14.61Zm1.62-2.09.67-.36v.72Zm-1.62.36v-.72l.67.36Zm0-1.23v-1.69l1.15-.61,1.14.61v1.69l-1.14.61Zm6.69,4.54h0a8.11,8.11,0,0,0,.55,2.28l-1.26-.67v-1.23Zm-.71-.13v-1.22l-1.59-.84,1.59-.85v-1.22l1.14.61.69-.37a5.35,5.35,0,0,0-1.15,3.53h0Zm-.48.26-1.15.61-1.58-.85v-1.22l1.15-.61,1.58.84Zm-2.73-2v-.71l.67.36Zm0-1.22v-1.22l1.58-.85,1.15.61v1.23l-1.58.84Zm3.21-7.23h.69l-.69.37Zm2.72,2.84V383l-.67-.36Zm0,1.22v1.23l-1.58.84L1157,385v-1.22l1.58-.85Zm-3.2,35.75-1.15.61-1.58-.85v-.39h2.73ZM1153.38,397a2.36,2.36,0,0,0-.32,1.19v-.09l-.85.46-.79-.43a3.93,3.93,0,0,0-.25-1.37l-.06-.14a.14.14,0,0,0,0,.06l1.08-.57,1.14.61v.32Zm-.32,19.15v1.54l-.85.46-.79-.42v-1.61l.79-.42Zm-.38-.7.38-.2v.39Zm-1.26.16v-.33l.31.17Zm0-.84v-2.07l.79-.42.85.45v2l-.85.45Zm1.26-2.74.38-.2v.39Zm-1.26.16v-.33l.31.17Zm0-.84v-2.07l.79-.42.85.45v2l-.85.45Zm1.26-2.75.38-.19v.39Zm-1.26.17v-.33l.31.16Zm0-.84v-1.61l.79-.42.85.46v1.54l-.85.45Zm1.26-2.28.38-.2v.4Zm-1.26.17v-.34l.31.17Zm0-.84v-2.08l.79-.42.85.46v2l-.85.46Zm1.26-2.75.38-.2v.4Zm-1.26.17v-.34l.31.17Zm0-.84v-2.08l.79-.42.85.46v2l-.85.46Zm1.26-2.75.38-.2v.4Zm-1.26.17v-.34l.31.17Zm1.95,19.59h0v.19l-.67-.36.38-.2v-.08A.49.49,0,0,0,1153.37,418.61Zm-2.31.19v-.25H1151a.41.41,0,0,0,.43-.4.43.43,0,0,1,0,.11l.33.17Zm-.48-25.71v1.68l-.63-.34s0,0,0,.05a5.06,5.06,0,0,0-1.2-1.34,17.6,17.6,0,0,0,.43-2.36c0,.05,0,.09,0,.14l1.4-.75v1.69l1.15.61Zm-1.47-5.94s0,.09,0,.13a7.14,7.14,0,0,0-.78-2.29h0l.65-.35,1.58.85v1.22l-1.14.61Zm1.47.07v.71l-.67-.35Zm0,1.22v1.22l-1.34.72a.41.41,0,0,0,0,.11,13.28,13.28,0,0,0,0-2.67.5.5,0,0,0,0,.12l.21-.11Zm.05,7.18-.27-.51a.43.43,0,0,0,0,.07l.18.1v.25Zm-.05,23.43-1.58.85-1.14-.61v-.73h2.72Zm-5.93-36v-.72l.67.36Zm6.41-9.29.88-.47-.62,2.3-.26-.14Zm1.11,2.82h0l1.14.61v1.22l-.17.09h-1.52Zm.51-.27.67-.36v.72Zm-.35-.32.66-2.43.36.2v1.69Zm4.71-5.42,1.14-.61,1.58.84V372l-1.14.61-1.58-.85Zm2.72,2v.72l-.67-.36Zm0,1.23V375l-1.58.85-1.14-.62V374l1.58-.84Zm0,1.73v1.69l1.15.61-1.15.61v.09h-3l-1.32-.7,1.59-.84v-1.23l1.14.61Zm.48-6.63,1.15-.61,1.14.61v1.69l-1.14.61-1.15-.61Zm2.77-1.48v-1.69l1.58.85.12-.06,1.69,2-.66.35v1.22l-1.15-.61-1.58.84V368.6l-1.15-.62Zm3.68,1.46,1.43,1.69-.76.4-1.14-.61v-1.23Zm-1-2.91v.15l-.09-.11Zm-.39-.31-.7-.83.49-.92.6.32v1.23Zm-1.19-2.27,0,0-.66,1.27a.45.45,0,0,0,.06.52l.52.62-1.11-.59V364Zm-1.15.1v-.71l.67.36Zm1.14-.61-1.14-.61v-1.15C1163.44,361.79,1163.86,362.42,1164.15,362.83Zm-.43-2.72,0,0a2.12,2.12,0,0,1-.11-.21A1.33,1.33,0,0,0,1163.72,360.11Zm1.91,1.93-.54.3c-.29-.41-.73-1.07-1.18-1.83l.1-.05A11.06,11.06,0,0,0,1165.63,362Zm1.53,1-.94,1.22v-.31l-.87-.46.1-.19a.45.45,0,0,0,0-.5l-.05-.08.68-.36A8.46,8.46,0,0,0,1167.16,363Zm1.78,4.1-1.14.61-1.2-.64-.38-.46v-1l.29-.15,2.43,1.51Zm0,1.22-.67-.36.67-.35Zm0,1.52-1.3-1.54.16-.08,1.14.61Zm0,2.41.58.31.15.53-.73.38v1.69l-1.58-.84-1.14.61v-1.22l-1.59-.85,1.59-.84v-1.23l1.14.62,1.05-.56.53.63Zm.48-3.17.67.36-.67.36Zm2.16-.43-1,.54-1.15-.61v-1.23l0,0Zm.13,1.15-.67-.36.67-.36Zm0,2.2-1.06.56-.25-.92a.4.4,0,0,0-.1-.18l-.88-1.05v-.1l1.15-.61,1.14.61Zm2.83-1.51-.77.41-1.58-.85v-1Zm1.08,1.39-.23-.12v-.26Zm.6,1.13-1.3.7V375l-1.15-.61-1.58.84v-1.69l-1.15-.61,1.15-.61v-1.69l1.58.85,1.15-.62h0V372l1.09.58Zm1.17,2.34-.85.45-1.15-.62V374l1-.55C1176.73,374,1177.05,374.67,1177.39,375.37Zm1.26,2.74-.53.28v.09h-3l-1.32-.7,1.58-.84v-1.23l1.15.61,1-.55c.18.38.36.78.54,1.17v.23l.14.07Zm.43,2.48-.48-.26v-.85h.48Zm0,.72-.47.25v-.72l.47.26Zm0,2.23-.47-.25v-1.22l.47-.26Zm0,.72-.47.25v-.71l.47.25Zm0,2.7-.46-.25V385l.46-.25Zm0,.73-.94.5v1.69l-1.1-.59v.16a12.85,12.85,0,0,0-.48-3.57,1.29,1.29,0,0,1,.06.21l1.52-.82V387l.94.5Zm0,2.68-.45-.24v-1.69l.46-.24Zm0,.74-.45.24v-.71l.45.24Zm0,2.21-.44-.23v-1.23l.45-.24Zm0,.75-.44.24v-.72l.44.24Zm0,2.67-.44-.23v-1.69l.44-.24Zm0,3.41-.43-.22v-1.69l.43-.23Zm0,.77-.43.23v-.72l.43.23Zm0,2.19-.42-.23v-1.22l.42-.23Zm0,.77-.42.22v-.71l.42.22Zm0,2.64-.41-.22v-1.69l.42-.22Zm0,3.42-.4-.22V408l.41-.21Zm0,.79-.4.22v-.72l.4.21Zm0,2.16-.4-.21v-1.23l.4-.21Zm0,.8-.39.21v-.72l.39.21Zm0,2.61-.39-.2v-1.69l.39-.21Zm-.39,4.95.37-.2v.63h-.37Zm0-1.22.38.2v.31l-.38.2Zm0-2.2.38-.21v2.1l-.38-.2Zm-.27-1.37.66.35v.31l-.65.34Zm0-9.79.68.36v.28l-.68.36Zm-.14-9.92v.05l.83.44v.26l-.71.38v0C1178.29,397.47,1178.23,397,1178.19,396.75Zm-.07,21.75v.76l-1.32-.7h1.1a.48.48,0,0,0,.29-.1Zm-1.58,6.29-1.15-.61V423l.54-.29H1178l.1.06v.41c-.35.46-.73.94-1.11,1.4Zm-1.87,2.43-.86-.46,1.58-.85v-1.22l1,.56A25.71,25.71,0,0,1,1174.67,427.22Zm-2.48.4,1.15-.61,1,.52h0l-2.09.85Zm0-1.22.67.36-.67.36Zm0-1.73,1.58-.85,1.15.62v1.22l-1.58.84-1.15-.61Zm0-1.35.13-.65H1175l-.06,0v1.22l-1.15-.61-1.58.84Zm-.81-1.64.81-.43v-1.69l1.58.84,1.15-.61V421l1.24.66Zm.08,5.21.16-.79.09,0v1.22l-1.14.61-.12-.06.86-.77A.46.46,0,0,0,1171.46,426.89Zm.24,1.7-.66-.35.67-.36v.7Zm-2.28.51,1.15-.61.59.32-1.74.71Zm0-3,1.15-.61,0,0-.2,1-1,.85,0,0Zm0-1.23.67.36-.67.36Zm0-2.19.1-.06h1.7l-.47,2.26-.18.1-1.15-.61Zm-4.45-1.05,1.25-.66v-1.23l1.14.61,1.58-.84v1.69l.81.43Zm2.83,4.82-1.58-.84v-1.22l1.14-.62,1.58.85v1.22Zm1.14-.1v.72l-.67-.36Zm-2.72-2.47v-1.22l-.07,0h2.79v1.49l-1.58-.84Zm1.85,6.14.66-.6.21-.11v.35Zm-1.85-.48.52.28-.52.47Zm0-1.73,1.58-.85,1.14.61v.26l-1.85,1.67-.87-.47ZM1163,431.3l.32.17-.32,0Zm0-1.73,1.58-.85,1.15.61v1.23l-1.42.75-.26,0-1-.56Zm-1.15-2.81,1.15-.61v-1.69l1.58.84,1.15-.61v1.22l1.58.85-1.58.84v1.23l-1.15-.61-1.58.84v-1.69Zm.67,3.78-.67-.36.67-.36Zm-2.29.5,1.15-.61,1.14.61v.55l-.88.14h-.52l-.89-.14Zm0-1.22.67.36-.67.36Zm0-2.2,1.15-.61,1.14.61v1.69l-1.14.62-1.15-.62Zm-.79,3.85.31-.17v.22Zm-2.41-2.14,1.14-.61,1.58.85v1.22l-1,.56-.26,0-1.41-.75Zm-1.59-2.57,1.59-.85v-1.22l1.14.61,1.58-.84v1.69l1.15.61-1.15.61v1.69l-1.58-.84-1.14.61V427.6Zm.59,3.11.52-.28v.75Zm-2.21-.51.21.11.67.6-.88-.36Zm0-1.74L1155,427l1.58.85v1.22l-.88.47-1.85-1.67Zm0-1.22.67.36-.67.36Zm0-1.73,1.58-.85,1.15.62v1.22l-1.58.84-1.15-.61Zm0-2h2.79l-.06,0v1.22l-1.15-.61-1.58.84Zm-.81-1,.81-.43v-1.69l1.58.84,1.15-.61V421l1.24.66Zm-1.41,7.13.6-.32,1.14.61v.42Zm-.55-.93.67.36-.66.35h0Zm0-1.73.09,0,.16.79a.46.46,0,0,0,.15.26l.86.77-.11.06-1.15-.61Zm-4.45-4.47,1.25-.66v-1.23l1.14.61,1.58-.84v1.69l.81.43Zm2.83,4.82-1.58-.84v-1.22l1.14-.62,1.58.85v1.22Zm1.14-.1v.72l-.67-.36Zm-2.72-2.47v-1.22l-.07,0h2.66l.13.65v.84l-1.58-.84Zm.61,3.6,1-.52,1.14.61v.77l-2.09-.85Zm-2.13-2.28,1-.56v1.22l1.58.85-.85.46A23.75,23.75,0,0,1,1146.34,425.25Zm-1.69-2.52.1-.06h2.09l.54.29v1.22l-1.15.61-.47-.25-1.11-1.41Zm0-1.23.33.18h-.33Zm0-1.73,1.58-.84,1.15.61v1.22l-1.58.85-1.15-.61Zm-.06-1.31a.43.43,0,0,0,.28.1h1.1l-1.32.7v-.76Zm-.79,2.59.37.2v.43h-.37Zm0-.82.37-.2v.71l-.37-.2Zm0-2.61.38.21v1.69l-.37.2Zm0-.81.65-.35v1l-.65-.34Zm0-2.61.39.21v1.69l-.38.2Zm0-.81.39-.21v.72l-.39-.21Zm0-2.15.4.21v1.23l-.39.21Zm0-.8.4-.21V411l-.4-.22Zm0-2.62.4.21v1.69l-.4.22Zm0-.79.68-.36v1l-.68-.36Zm0-2.64.41.22v1.69l-.41.22Zm0-.78.41-.22v.71l-.41-.22Zm0-2.18.42.23v1.22l-.42.23Zm0-.77.42-.23v.72l-.42-.23Zm0-2.65.43.23v1.69l-.42.22Zm0-.77.84-.44v-.05c0,.24-.11.72-.14,1.16v0l-.71-.38Zm0-2.66.44.24v1.69l-.43.23Zm0-.75.44-.24v.72l-.44-.24Zm0-2.21.44.24v1.23l-.44.23Zm0-.74.45-.24v.71l-.45-.24Zm0-2.68.45.24v1.69l-.45.24Zm0-.74.93-.5v-1.69l1.52.82.06-.21a12.47,12.47,0,0,0-.47,3.57.85.85,0,0,1,0-.16l-1.11.59v-1.69l-.93-.5Zm0-2.69.46.25v1.69l-.46.25Zm0-.72.46-.25v.71l-.46-.25Zm0-2.24.47.26v1.22l-.46.25Zm0-.71.47-.26v.72l-.47-.25Zm0-1.62h.47v.85l-.47.26Zm1.5-3.71,1,.55,1.15-.61v1.23l1.58.84-1.32.7h-3v-.09l-.53-.28.39-.87.14-.07v-.23C1144.83,376.55,1145,376.15,1145.2,375.77Zm1.14-2.34,1,.55v1.22l-1.15.62-.84-.45C1145.72,374.67,1146,374,1146.34,373.43Zm1-1.65-.22.12.22-.38Zm3.2-1.71-1.58.85-.77-.41,2.35-1.47Zm1.15,2.81-1.15.61v1.69l-1.58-.84-1.14.61v-1.22l-1.31-.7.22-.41,1.09-.58v-1.22h0l1.14.62,1.58-.85v1.69Zm-.67-3.78.67.36-.67.36Zm2.29-.5-1.14.61-1-.54,2.12-1.32,0,0Zm0,1.22-.67-.36.67-.36Zm0,.61-.88,1.05a.4.4,0,0,0-.1.18l-.25.92-1.06-.56v-1.69l1.15-.61,1.14.61Zm2.92-4.92.29.15v1l-.39.46-1.19.64-1.15-.61V367Zm1.15-2.81-.05.07a.47.47,0,0,0,0,.51l.1.19-.87.46v.31l-1-1.22a8.58,8.58,0,0,0,1.14-.68Zm-.38,2.71v-1.23l.6-.32.48.92-.7.83Zm.08.55-.08.11v-.15Zm1.74-5.44c-.44.75-.89,1.41-1.17,1.82l-.55-.3a10.67,10.67,0,0,0,1.63-1.58Zm.34-.6-.12.21,0,0Zm.56,2.3-1.13.61c.29-.41.71-1,1.13-1.76Zm0,1.22-.67-.35.67-.36Zm0,1.74-1.1.59.52-.62a.47.47,0,0,0,.06-.52l-.67-1.27,0,0,1.14.61Zm1.15,2.8-1.15.62v1.68l-1.58-.84-1.14.61v-1.22l-.66-.35,1.69-2,.11.06,1.58-.85v1.69Zm0-9.07h1c.19.44.41.89.63,1.31v.52l-1.14.61-1.15-.61v-.52A13.12,13.12,0,0,0,1160.87,358.91Z" style="fill:#fff"/><polygon points="667.83 65.17 664.25 64.25 662.97 60.78 661 63.91 657.3 64.05 659.66 66.89 658.65 70.45 662.09 69.09 665.16 71.14 664.92 67.45 667.83 65.17" style="fill:#fff"/><polygon points="620.68 854.56 617.1 853.65 615.83 850.18 613.85 853.3 610.16 853.44 612.51 856.29 611.51 859.84 614.94 858.48 618.01 860.54 617.78 856.85 620.68 854.56" style="fill:#fff"/><polygon points="874.07 792.52 870.49 791.61 869.21 788.14 867.24 791.26 863.54 791.4 865.9 794.25 864.89 797.8 868.33 796.44 871.4 798.5 871.17 794.81 874.07 792.52" style="fill:#fff"/><polygon points="642.71 415.65 639.13 414.74 637.86 411.27 635.88 414.39 632.19 414.53 634.54 417.38 633.54 420.93 636.97 419.57 640.04 421.63 639.81 417.94 642.71 415.65" style="fill:#fff"/><polygon points="897.3 405.94 893.72 405.03 892.44 401.56 890.47 404.68 886.77 404.82 889.13 407.67 888.13 411.23 891.56 409.86 894.63 411.92 894.39 408.23 897.3 405.94" style="fill:#fff"/><polygon points="809.54 516.35 805.96 515.43 804.68 511.97 802.71 515.09 799.01 515.23 801.37 518.08 800.37 521.63 803.8 520.27 806.87 522.32 806.64 518.63 809.54 516.35" style="fill:#fff"/><polygon points="1067.74 625.49 1064.83 627.77 1065.07 631.46 1062 629.4 1058.56 630.77 1059.57 627.21 1057.21 624.37 1060.91 624.23 1062.88 621.1 1064.16 624.57 1067.74 625.49" style="fill:#fff"/><polygon points="584.36 514.93 581.45 517.22 581.69 520.9 578.62 518.85 575.18 520.21 576.19 516.66 573.83 513.81 577.52 513.67 579.5 510.55 580.78 514.01 584.36 514.93" style="fill:#fff"/><polygon points="714.94 239.56 712.04 241.85 712.27 245.54 709.2 243.48 705.77 244.84 706.78 241.29 704.42 238.44 708.11 238.3 710.09 235.18 711.36 238.65 714.94 239.56" style="fill:#fff"/><polygon points="322.84 361.06 319.94 363.34 320.17 367.03 317.1 364.98 313.67 366.34 314.68 362.78 312.32 359.94 316.01 359.8 317.99 356.67 319.26 360.14 322.84 361.06" style="fill:#fff"/><polygon points="551.74 658.96 548.83 661.25 549.07 664.93 546 662.88 542.56 664.24 543.57 660.68 541.21 657.84 544.9 657.7 546.88 654.58 548.16 658.04 551.74 658.96" style="fill:#fff"/><polygon points="524.57 228.33 521.66 230.61 521.9 234.3 518.83 232.25 515.39 233.61 516.4 230.05 514.04 227.21 517.73 227.07 519.71 223.94 520.99 227.41 524.57 228.33" style="fill:#fff"/><polygon points="464.79 475.77 463.77 472.22 460.27 471.04 463.33 468.98 463.37 465.28 466.28 467.56 469.8 466.44 468.54 469.92 470.69 472.93 466.99 472.8 464.79 475.77" style="fill:#fff"/><polygon points="849.74 245.07 848.72 241.52 845.21 240.35 848.28 238.28 848.31 234.59 851.22 236.86 854.75 235.75 853.49 239.22 855.63 242.23 851.94 242.11 849.74 245.07" style="fill:#fff"/><polygon points="1271.11 528.02 1270.09 524.46 1266.58 523.29 1269.64 521.22 1269.68 517.53 1272.59 519.8 1276.12 518.69 1274.85 522.16 1277 525.17 1273.31 525.05 1271.11 528.02" style="fill:#fff"/><polygon points="814.4 440.45 813.38 436.9 809.87 435.73 812.93 433.66 812.97 429.96 815.88 432.24 819.41 431.13 818.14 434.6 820.29 437.61 816.6 437.48 814.4 440.45" style="fill:#fff"/><polygon points="698.09 382.33 697.07 378.78 693.57 377.6 696.63 375.54 696.66 371.84 699.58 374.12 703.1 373 701.84 376.48 703.98 379.49 700.29 379.36 698.09 382.33" style="fill:#fff"/><polygon points="919.91 604.28 918.89 600.72 915.39 599.55 918.45 597.48 918.48 593.79 921.4 596.06 924.92 594.95 923.66 598.42 925.8 601.43 922.11 601.31 919.91 604.28" style="fill:#fff"/><polygon points="1041.55 621.16 1043.74 618.19 1047.44 618.32 1045.29 615.31 1046.56 611.84 1043.03 612.95 1040.12 610.67 1040.09 614.37 1037.02 616.44 1040.53 617.61 1041.55 621.16" style="fill:#fff"/><polygon points="911.93 379.23 914.13 376.26 917.83 376.39 915.68 373.38 916.94 369.9 913.42 371.01 910.5 368.74 910.47 372.44 907.41 374.5 910.91 375.68 911.93 379.23" style="fill:#fff"/><polygon points="640.49 517.78 642.68 514.81 646.38 514.94 644.23 511.93 645.5 508.46 641.97 509.57 639.06 507.29 639.02 510.99 635.96 513.06 639.47 514.23 640.49 517.78" style="fill:#fff"/><polygon points="750.51 122.31 752.71 119.34 756.4 119.47 754.25 116.46 755.52 112.98 751.99 114.09 749.08 111.82 749.04 115.52 745.98 117.58 749.49 118.76 750.51 122.31" style="fill:#fff"/><polygon points="1054.95 342.43 1057.15 339.46 1060.84 339.58 1058.7 336.57 1059.96 333.1 1056.44 334.21 1053.52 331.94 1053.49 335.63 1050.43 337.7 1053.93 338.88 1054.95 342.43" style="fill:#fff"/><polygon points="623.71 327.81 625.91 324.84 629.6 324.97 627.46 321.96 628.72 318.49 625.2 319.6 622.28 317.32 622.25 321.02 619.18 323.09 622.69 324.26 623.71 327.81" style="fill:#fff"/><path d="M783.63,277.18a.52.52,0,0,0,0,.24V297.6l0,7.79v4.55l0,8.28V319l0,12V334a.61.61,0,0,0,.12.37l.52.69h0a1,1,0,0,1,.08.11l.12.15.22.29.11.15.36.46.15.19.18.23h0l0,0h0l0,.05.56.71,0,0a46.45,46.45,0,0,0,3.57,4.08h0l.35.31.15.11.13.1h0l.1.07.1.06,2.5,1,.39.16.48.19.26.11,3.36,1.37.63.25,4.13,1.68,0,0h.05l.06,0h0l3.42.53.07.15a2.29,2.29,0,0,1,.1.23l.06.16a1.55,1.55,0,0,1,.08.23,1.17,1.17,0,0,1,.06.2c0,.07,0,.15.07.23s0,.16,0,.24,0,.15,0,.23,0,.19,0,.28a1.79,1.79,0,0,1,0,.23c0,.1,0,.21,0,.31v.23c0,.12,0,.24-.06.36a1.38,1.38,0,0,1,0,.2,4.6,4.6,0,0,1-.16.58,1.82,1.82,0,0,0-.28-.27,3.22,3.22,0,0,0-1.34-.61h0a3.64,3.64,0,0,0-1.43,0,5.16,5.16,0,0,0-1.57.62,3.24,3.24,0,0,0-1.43,2.23,2.31,2.31,0,0,0,2.14,2.85c-.84-.23-1.2-1.56-1-2.34a1.92,1.92,0,0,1,1-1.19,2.27,2.27,0,0,1,1.62-.16l.21.07a2.39,2.39,0,0,1,1.57,2.71,11.88,11.88,0,0,0-.22,3c.18,3.2,2.53,6.49,2.53,6.49a14.78,14.78,0,0,0,2.52-6.49,11,11,0,0,0-.22-3,2.39,2.39,0,0,1,1.57-2.71l.21-.07a2.27,2.27,0,0,1,1.62.16,1.92,1.92,0,0,1,1,1.19c.24.78-.12,2.11-1,2.34a2.3,2.3,0,0,0,2.13-2.85,3.24,3.24,0,0,0-1.43-2.23,5.06,5.06,0,0,0-1.57-.62,3.64,3.64,0,0,0-1.43,0h0a3.28,3.28,0,0,0-1.34.61,1.72,1.72,0,0,0-.27.27,3.43,3.43,0,0,1-.17-.58l0-.2c0-.12,0-.24,0-.36a1.77,1.77,0,0,1,0-.23c0-.1,0-.21,0-.31a1.64,1.64,0,0,1,0-.23,2.4,2.4,0,0,1,0-.28,1.85,1.85,0,0,1,0-.23c0-.08,0-.16,0-.24s0-.16.07-.24l.06-.19a2.25,2.25,0,0,1,.08-.24l.06-.15a2.29,2.29,0,0,1,.1-.23l.07-.15,3.42-.53h0l.06,0,.06,0h0l4.42-1.79.34-.14,3.36-1.37.26-.11,3.37-1.36.1-.06.1-.07h0l.13-.1.15-.11.35-.31h0a46.45,46.45,0,0,0,3.57-4.08h0l.57-.73,0-.05h0l0,0h0l.17-.21.17-.22.35-.45.11-.15c.08-.1.15-.2.23-.29l.11-.15.08-.11h0l.52-.69a.61.61,0,0,0,.12-.37v-2.89l.05-21.12V293.65l0-4.38V277.42a.52.52,0,0,0-.05-.24c-.11-.26-.26-.59-.42-1h0l-.17-.39v0c-.83-1.85-2.08-4.58-3.25-6.79h0a16.77,16.77,0,0,0-2.11-3.34h0a1.41,1.41,0,0,0-.18-.17l-.08-.06-.55-.34-2.43-1.51-.58-.36-1.07-.66-.11-.08-1.59-1-.57-.36-.48-.3-3.32-2.06.13-.16,1.5-1.92a.61.61,0,0,0,.1-.55.63.63,0,0,0-.39-.42,10.55,10.55,0,0,1-2.83-1.78c-.12-.1-.24-.2-.35-.31l-.22-.21-.46-.47-.17-.19c-.14-.15-.27-.31-.4-.46-.32-.38-.6-.77-.86-1.14h.34v-3.59h-1.92v-1.31a1.52,1.52,0,0,0-.06-.42.49.49,0,0,0,0-.11c0-.09-.06-.18-.1-.27l-.07-.11a2.07,2.07,0,0,0-.17-.24l-.08-.09-.24-.21,0,0h0a2.06,2.06,0,0,0-.49-.25l-.62-161.36-.82.58V244.51a2.42,2.42,0,0,0-.48.25h0l0,0-.24.21-.08.09a2.07,2.07,0,0,0-.17.24l-.06.11a1.53,1.53,0,0,0-.11.27.49.49,0,0,0,0,.11,1.52,1.52,0,0,0-.06.42v1.31h-1.92v3.59h.33a13.63,13.63,0,0,1-.86,1.14,5.72,5.72,0,0,1-.4.46c0,.07-.11.13-.17.2l-.46.47-.21.2c-.11.11-.24.21-.36.31a10.49,10.49,0,0,1-2.82,1.78.65.65,0,0,0-.39.42.58.58,0,0,0,.11.55l1.49,1.92.13.16-3.32,2.06-3,1.84-.31.19-4.12,2.56-.08.06h0a1.41,1.41,0,0,0-.18.17h0a4,4,0,0,0-.39.46h0a29.66,29.66,0,0,0-2.38,4.14h0c-.21.41-.42.82-.62,1.24h0c-.75,1.55-1.46,3.1-2,4.29v0c-.06.14-.12.27-.17.4h0C783.89,276.59,783.74,276.92,783.63,277.18Zm3.32-4,1.35.73,1.5-.81v1.61l2.08,1.1-1.73.92h-3.92v-.12l-.69-.37.51-1.14.18-.09v-.29C786.47,274.24,786.71,273.72,787,273.22ZM788.43,286l-.13.07-2.07-1.1v-1.61l1.5-.8,2.07,1.11v.44h0a.88.88,0,0,0-.77.45,9.42,9.42,0,0,0-.64,1.49S788.43,286.05,788.43,286Zm-.4,9.54s0-.07,0-.1c0,.23.07.42.1.56a7.18,7.18,0,0,0-1.37,2.18.42.42,0,0,0,0-.1l-.55-.29v-1.61l1.5-.8Zm-.35-4v-.12a25.67,25.67,0,0,0,.23,3.27v-.06l-.17.09-1.5-.8v-1.6Zm-1.45,8.61v-1.7l.35.18,0-.12a12.45,12.45,0,0,0-.44,1.93Zm0-5.57.88.47-.88.47Zm2.9,1.9a.51.51,0,0,0,.13-.44c0-.06-1.34-6.58.62-10.64,2.52,3.9.58,10.53.56,10.6a.52.52,0,0,0,.26.59c1,.53,2.07,2.17,3,4.49a4.32,4.32,0,0,1,.26,1.5v25.57h-6.89V302.61a13.2,13.2,0,0,1,.21-1.95v0A6.9,6.9,0,0,1,789.13,296.51Zm.67,32.71v.62l-1.15-.62Zm7.82,9.93v1.6l-.07,0-1.23-1.12-.27-1.28.07,0Zm-.88-1.13.88-.47v.93Zm-.86-.47-.61-2.95h2.22l.13.07v2.21l-1.5.8Zm-1.26-5.14V330.2l1.5-.8,1.5.8v2.21l-1.5.8Zm6.71-34.88-1-.54-2.07,1.1v-2.21l-1.51-.8,1.51-.8v-2.21l2.07,1.1,1.5-.8V294l2.07,1.1-2.07,1.11v1l.62-.39v-.29l2-1.09h0l.17.36a16.51,16.51,0,0,0-6.61,4.73l.21-.23v-1.53l2.07-1.11.49.26ZM806,334.67v1.6l-2.07,1.11-1.5-.8V335l.7-.38h2.74Zm-.43-1.37.43-.23v.23Zm-1.07-.09-2.07-1.11v-1.6l1.5-.8,2.07,1.11v1.6Zm0-3.86H806v.79Zm-2.09.49v-.49h.91Zm-3.8-1.79V302.61a1.91,1.91,0,0,1,.49-1.27c1-1.1,3.56-3.75,6.71-4.54a.7.7,0,0,0,.46-.39.58.58,0,0,0,0-.57c-.18-.28-4.3-6.77,1.66-10.47a.49.49,0,0,1,.44,0c6,3.71,1.84,10.19,1.66,10.47a.56.56,0,0,0,0,.57.7.7,0,0,0,.46.39c3.15.79,5.75,3.44,6.72,4.54a2,2,0,0,1,.48,1.27v25.44Zm11,6.95v.94l-.88-.47Zm-1.5.14-1-.54h2Zm1.5,1.47v2.21l-1.5.8-1.51-.8v-2.21l1.51-.8Zm-3-.67V335l.88.47Zm0-2.64v-.56l1.51-.8,1.5.8v.56Zm2.13-1.69.88-.47v.93Zm-2.13.46v-.93l.88.47Zm0-1.6v-1.12h3v1.12l-1.5.8Zm3.63,2.83v-.23l.44.23Zm.13,1.3h2.74l.7.38v1.6l-1.5.8-2.07-1.11v-1.6Zm-.13-2.19v-1.6l2.07-1.11,1.5.8v1.6l-2.07,1.11Zm2.66-3.06h.91v.49Zm-2.66.79v-.79h1.48Zm4.68-32.61.52.39.49-.27,2.08,1.11v1.53l.2.23a16.44,16.44,0,0,0-6.61-4.73c.06-.11.11-.23.17-.36l2,1.09v.29l.62.39v-1l-2.07-1.11,2.07-1.1v-1.61l1.5.8,2.08-1.1v2.21l1.5.8-1.5.8v2.21L816,297Zm13.6,35.68-2.07-1.11v-1.6l1.5-.8,2.07,1.11v1.6Zm1.5-.14v.23h-.44Zm-3.57-3.23v-.62h1.15Zm-4.17-1.66V302.61a4.09,4.09,0,0,1,.27-1.5c.93-2.32,2-4,3-4.49a.51.51,0,0,0,.26-.59c0-.07-2-6.7.57-10.6,2,4.06.63,10.58.61,10.64a.51.51,0,0,0,.13.44,6.9,6.9,0,0,1,1.84,4.12v0a13.2,13.2,0,0,1,.21,1.95v25.57Zm7.19-30.07a.42.42,0,0,1,0,.1,7.33,7.33,0,0,0-1.36-2.18c0-.14.05-.34.09-.56l0,.1.3-.16,1.5.8v1.61Zm.2.55.35-.18v1.7l.05.29a12.45,12.45,0,0,0-.44-1.93S829.68,298.62,829.69,298.66Zm.35-4.05v.94l-.88-.47Zm-1.5.14-.17-.09v.06a27.91,27.91,0,0,0,.22-3.27v.12l1.45.78V294Zm-.7-8.72v.05a9.42,9.42,0,0,0-.64-1.49.88.88,0,0,0-.76-.45h0v-.44l2.07-1.11,1.5.8V285L828,286.1Zm2.2-6.5v1.6l-1.5.8-2.07-1.11v-1.6l1.5-.8Zm-1.48-1.46H830v.79Zm-6.29-3.35v-1.6l2.07-1.11,1.5.8v1.6l-2.07,1.11Zm.88,1.13-.88.47v-.94Zm.62.33,1.11.59h-2.21Zm2.07,1.89v.82l-1.5.8-2.07-1.1v-.52Zm0,1.48v1.61l2.08,1.1-2.08,1.11v1l-.16.17-.17.26h0c-.09.14-.18.27-.26.41.08-.14.16-.28.25-.41l-1.17-.62-2.07,1.1v-2.21l-1.5-.8,1.5-.8v-2.21l2.07,1.11Zm-15.58-11.24v-1.6l2.07-1.11,1.5.8V268l-2.07,1.11Zm.88,1.13-.88.47V269Zm.62.33,2.07,1.11v1.6l-1.5.8-2.07-1.1v-1.61Zm2.07,3.37v1.61l2.07,1.1-1.73.92h-3.91v-.12l-1.5-.8,1.5-.8v-2.21l2.07,1.11Zm-14.08-9.78.2.11-1.7,2v-1.33Zm-1.5.14v-.94l.87.47Zm2.94.63.63.34v1.6l-1.5.8-1-.53Zm.63,2.6v1.61l2.07,1.1-2.07,1.11v1.6l-1.5-.8-2.07,1.1v-2.21l-1-.5.19-.7.76-.4v-1l.69-.83,1.38.74Zm-9.32,8.79-2.07-1.11v-1.6l1.5-.8,2.07,1.11v1.6Zm0,.66,1.1.59h-2.21Zm1.5-.8v.94l-.88-.47Zm0,2.69v.52l-2.07,1.1-1.5-.8v-.82Zm0,1.18v2.21l1.5.8-1.5.8v2.21l-2.07-1.1-1.17.62a4.28,4.28,0,0,1,.26.42,5.87,5.87,0,0,0-.43-.67,1.33,1.33,0,0,0-.16-.17v-1l-2.08-1.11,2.08-1.1v-1.61l1.5.81Zm-1.93,8.86,0,.18a9.68,9.68,0,0,0-1-3h0l.86-.46,2.07,1.11v1.6l-1.5.8Zm.13.89c0,.05,0,.1,0,.15l.28-.15,1.5.8v1.61l-1.76.94s0,.09,0,.13A16.91,16.91,0,0,0,792.2,289Zm.92-.33.88-.47v.94Zm1.5,9.75v-2.21l1.5-.8,1.5.8v2.21l-1.5.8Zm.88,1.14-.88.47v-.94Zm2.12-.47V300l-.88-.47Zm-1.5-4.34-1.5-.8v-2.21l1.5-.8,1.5.8V294Zm7.25-3.2h0a11.15,11.15,0,0,0,.72,3h0l-1.65-.88V292Zm-.93-.17v-1.6l-2.07-1.11,2.07-1.1V286l1.5.8.91-.48a7,7,0,0,0-1.52,4.62h0ZM806,279.53v1.6l-1.5.8-2.07-1.11v-1.6l1.5-.8Zm-1.48-1.46H806v.79Zm-2.09.49v-.49h.91Zm3.57,3.23v.94l-.88-.47Zm0,1.6V285l-2.07,1.1-1.5-.8v-1.6l2.07-1.11Zm-4.19,8.32-1.5.8-2.07-1.1V289.8l1.5-.8,2.07,1.11Zm-3.57-2.57v-.94l.87.47Zm0-1.6v-1.6l2.07-1.11,1.5.8v1.6l-2.07,1.11Zm0-2.27v-2.21l-1.51-.8,1.51-.8v-2.21l2.07,1.11,1.5-.81v1.61l2.07,1.1-2.07,1.11V285l-1.5-.8Zm0-10.55v-1.6l2.07-1.11,1.5.8v1.6l-2.07,1.11Zm.87,1.13-.87.47v-.94Zm.63.33,1.1.59h-2.21Zm2.07,1.89v.82l-1.5.8-2.07-1.1v-.52Zm-4.2.85v2.21l-1.5.8-1.5-.8v-2.21l1.5-.8Zm-.34-.85h.34v.18Zm-2.32,0-.34.18v-.18Zm-.34-3.82v-.8l.19.1Zm3,13-.88-.47.88-.47Zm0,3.86-.88-.47.88-.46Zm-3,0v-.93l.88.46Zm0-1.6v-1.6l1.5-.8,1.5.8v1.6l-1.5.8Zm0-2.26v-.94l.88.47Zm0-1.61v-2.21l1.5-.8,1.5.8v2.21l-1.5.81Zm0-15,1.15-.61-.81,3-.34-.19Zm1.46,3.7,0,0,1.5.8v1.6l-.23.12h-2Zm.66-.35.88-.47v.94Zm-.45-.42.85-3.18.48.25v2.21Zm6.15-7.1,1.5-.8,2.07,1.11v1.6l-1.5.8L802.44,268ZM806,269v.94l-.88-.47Zm0,1.6v1.61l-2.07,1.1-1.5-.8v-1.6l2.07-1.11Zm0,2.27v2.21l1.5.8-1.5.8v.12H802.1l-1.73-.92,2.07-1.1v-1.61l1.5.81Zm.62,10.22v-1.6l1.51-.8,1.5.8v1.6l-1.5.8Zm.8,1.09a1.55,1.55,0,0,0-.29.14l-.51.33v-.89Zm2.21-.42v.89l-.5-.33-.3-.14h0Zm-.88-3.4.88-.47v.94Zm-2.13.47v-.94l.88.47Zm0-1.61v-1.12h3v1.12l-1.5.81Zm.4-2.42,1.11-.59,1.1.59Zm-.4-5.86.88.46-.88.47Zm0-3.87.88.47-.88.47Zm0-2.88,1.51-.8,1.5.8v2.21l-1.5.81-1.51-.81Zm3,2.88V268l-.88-.47Zm0,1.6v1.6l-1.5.8-1.51-.8v-1.6l1.51-.8Zm0,2.27v.93l-.88-.47Zm0,1.6v2.21l-1.5.8-1.51-.8v-2.21l1.51-.8Zm1.78,13.77.91.48,1.5-.8v1.61l2.07,1.1-2.07,1.11v1.6l-.89-.48A7,7,0,0,0,811.42,286.28Zm1.48,5.27h0l.93.49v1.6l-1.65.88h0A11.15,11.15,0,0,0,812.9,291.55ZM818,288.2v.94l-.88-.47Zm-1.51.14-2.07-1.11v-1.6l1.5-.8,2.08,1.11v1.6ZM818,289.8v1.61l-2.08,1.1-1.5-.8v-1.6l2.07-1.11Zm-7.77-4.8v-1.61l1.5-.8,2.07,1.11v1.6l-1.5.8Zm0-2.27v-.94l.88.47Zm0-1.6v-1.6l2.07-1.11,1.5.8v1.6l-2.07,1.11Zm2.66-3.06h.91v.49Zm-2.66.79v-.79h1.48Zm6.26-2.68,1.11.59h-2.21Zm-2.07-3.37,1.5-.8,2.08,1.11v1.6l-1.51.8-2.07-1.11Zm3.58,2.57v.94l-.88-.47Zm0,2.69v.52l-2.08,1.1-1.5-.8v-.82Zm0,1.18v2.21l1.5.8-1.5.8v2.21l-2.08-1.1-1.5.8v-1.6l-2.07-1.11,2.07-1.1v-1.61l1.5.81Zm.62,19.17v-2.21l1.5-.8,1.5.8v2.21l-1.5.8Zm.88,1.14-.88.47v-.94Zm2.12-.47V300l-.88-.47Zm-1.5-4.34-1.5-.8v-2.21l1.5-.8,1.5.8V294Zm.62-4.15.88-.46v.93Zm-2.12.47v-.93l.88.46Zm0-1.6v-1.6l1.5-.8,1.5.8v1.6l-1.5.8Zm2.12-2.73.88-.47v.94Zm-2.12.47v-.94l.88.47Zm0-1.61v-2.21l1.5-.8,1.5.8v2.21l-1.5.81Zm0-7.53H819l-.34.18Zm0-4.62.88.47-.88.47Zm0-2.88.48-.25.85,3.18-1.33-.72Zm1.5,3.68,0,0,.68,2.5h-2l-.23-.12v-1.6Zm.35-4.29,1.15.61v2.21l-.34.19Zm1.15,3.49v.8l-.19-.7Zm0,4.62v.18l-.34-.18Zm0,.85v2.21l-1.5.8-1.5-.8v-2.21l1.5-.8Zm2.4,13.57c0-.05,0-.1,0-.14l-1.77-.94V289.8l1.5-.8.28.15a.77.77,0,0,0,0-.15A17,17,0,0,0,824.05,292.49Zm-1.78-3.35v-.94l.88.47Zm0-1.6v-1.6l2.07-1.11.86.46h0a9.41,9.41,0,0,0-1,3c0-.06,0-.12,0-.18l-.43.23Zm4.2-9.47h.91l-.91.49Zm3.57,3.72v.94l-.88-.47Zm-4.2,48.38-1.5.8-2.07-1.11v-.64h3.57Zm-3.63-31,.06-.12v-.32l.24-.13.06-.09Q822.38,298.87,822.21,299.2Zm-1.44-4.12,1.5-.8v-2.21l1.84,1a1.23,1.23,0,0,1,0-.19,22.68,22.68,0,0,0,.55,3.09,6.76,6.76,0,0,0-1.57,1.76l0-.06-.84.44v-2.21Zm1,34.14h-.09v.32l-.88-.47.43-.23a.51.51,0,0,1,0-.13A.54.54,0,0,0,821.74,329.22Zm-.56-24.91V307l-1,.55L819,307v-2.63l1.11-.59Zm-.41-.89.41-.21v.43Zm-1.73.26v-.52l.49.26Zm.49,4.22-.49.26v-.52Zm1.65-.22v.44l-.41-.22Zm0,1.1v2.71l-1,.55-1.11-.59v-2.63l1.11-.59Zm-1.65,3.6-.49.26v-.52Zm1.65-.22v.43l-.41-.21Zm0,1.1v2.1l-1,.55-1.11-.59v-2l1.11-.59Zm-1.65,3-.49.26V316Zm1.65-.21v.43l-.41-.22Zm0,1.1v2.71l-1,.55L819,319.8v-2.63l1.11-.59Zm-1.65,3.59L819,321v-.52Zm1.65-.22v.44l-.41-.22Zm0,1.1v2.71l-1,.55-1.11-.59v-2.63l1.11-.59Zm-1.65,3.6-.49.26v-.52Zm1.65-.22v.43l-.41-.21Zm0,1.1v2.1l-1,.55-1.11-.59v-2l1.11-.59Zm.47,6.33-1.5.8-1.5-.8V330.2l1.5-.8,1.5.8Zm-3-2.88v-.25h0a.64.64,0,0,0,.41-.58s0,.07,0,.1l.5.26Zm0-28.47,0,.06v-.43l1.5-.8,1.41.75,0-.08a1.54,1.54,0,0,0-.08.19,5,5,0,0,0-.33,1.79l-1,.55L819,302.5s0,.07,0,.11A3,3,0,0,0,818.61,301.06Zm-.58,28.8L816,331l-1.5-.8v-.82H818Zm-16.21.31-1.5.8-2.07-1.11v-.51h3.57Zm-4.16-29.11a3,3,0,0,0-.43,1.55s0-.08,0-.11l-1.12.59-1-.55a5,5,0,0,0-.33-1.79,1.54,1.54,0,0,0-.08-.19.41.41,0,0,1,0,.08l1.41-.75,1.5.8v.42Zm-.43,25.06v2l-1.11.59-1-.55v-2.1l1-.55Zm-.49-.92.49-.26v.52Zm-1.65.21V325l.41.22Zm0-1.1V321.6l1-.55,1.11.59v2.63l-1.11.59Zm1.65-3.59.49-.26V321Zm-1.65.22v-.44l.41.22Zm0-1.1v-2.71l1-.55,1.11.59v2.63l-1.11.59Zm1.65-3.6.49-.26v.52Zm-1.65.22V316l.41.21Zm0-1.1v-2.1l1-.55,1.11.59v2l-1.11.59Zm1.65-3,.49-.26v.52Zm-1.65.21v-.43l.41.22Zm0-1.1v-2.71l1-.55,1.11.59v2.63l-1.11.59Zm1.65-3.59.49-.26v.52Zm-1.65.22v-.44l.41.22Zm0-1.1v-2.71l1-.55,1.11.59V307l-1.11.59Zm1.65-3.6.49-.26v.52Zm-1.65.22v-.43l.41.21Zm2.55,25.64h0v.25l-.88-.47.5-.26s0-.07,0-.1A.64.64,0,0,0,797.64,329.28Zm-3,.25v-.32h-.09a.54.54,0,0,0,.56-.52.51.51,0,0,1,0,.13l.43.23ZM794,295.88v2.21l-.84-.44,0,.06a6.76,6.76,0,0,0-1.57-1.76,22.77,22.77,0,0,0,.55-3.08c0,.06,0,.12,0,.18l1.83-1v2.21l1.5.8Zm.06,3.32q-.16-.33-.36-.66l.06.09.24.13v.32ZM794,329.86,791.93,331l-1.5-.8v-.95H794Zm-7.77-47.13v-.94l.88.47Zm0-1.6v-1.6l2.07-1.11,1.5.8v1.6l-2.07,1.11Zm2.66-3.06h.91v.49Zm-2.66.79v-.79h1.48Zm2.22-8.7,1.35.72v1.6l-1.5.8-1.1-.59C787.63,271.79,788.05,270.93,788.45,270.16ZM789.8,268l-.28.16.28-.49Zm4.2-2.23-2.07,1.1-1-.54,3.08-1.91Zm1.5,3.67-1.5.8v2.21l-2.07-1.1-1.5.8v-1.6l-1.71-.92.28-.53,1.43-.76v-1.6h0l1.5.8,2.07-1.11v2.21Zm-.88-4.94.88.47-.88.46Zm3-.67-1.5.8-1.33-.71,2.77-1.72.06,0Zm0,1.6-.88-.46.88-.47Zm0,.8-1.15,1.37a.63.63,0,0,0-.13.24l-.33,1.21-1.39-.74V266.1l1.5-.8,1.5.8Zm3.82-6.44.38.2v1.27l-.51.61-1.56.83-1.5-.8v-.13Zm1.51-3.67-.07.09a.61.61,0,0,0-.06.66l.13.25-1.13.61v.4l-1.24-1.59a12.61,12.61,0,0,0,1.48-.89Zm-.51,3.54v-1.6l.79-.42.63,1.2-.92,1.09Zm.12.73-.12.13v-.2Zm2.27-7.13c-.58,1-1.16,1.85-1.54,2.38l-.71-.38a14.48,14.48,0,0,0,2.13-2.07Zm.44-.78-.15.27,0,0C805.14,252.64,805.21,252.56,805.27,252.48Zm.74,3-1.48.79c.37-.54.92-1.35,1.48-2.3Zm0,1.6-.88-.47.88-.47Zm0,2.27-1.45.77.68-.81a.59.59,0,0,0,.08-.68l-.87-1.65.06,0,1.5.8Zm1.5,3.67-1.5.8V266l-2.07-1.1-1.5.8v-1.6l-.86-.46,2.21-2.63.15.08L806,260v2.21Zm-.88-4.94.88.47-.88.46Zm0-3.87.88.47-.88.47Zm3-.66-1.5.8-1.51-.8v-.69a18.14,18.14,0,0,0,.83-1.72h1.35a18.14,18.14,0,0,0,.83,1.72Zm0,1.6-.88-.47.88-.47Zm0,2.26-1.5.8-1.51-.8v-1.6l1.51-.8,1.5.8Zm0,1.6-.88-.46.88-.47Zm0,2.88-1.5.8-1.51-.8v-2.21l1.51-.8,1.5.8Zm.62.33V260l2.07,1.11.15-.08,2.21,2.63-.86.46v1.6l-1.5-.8-2.07,1.1v-2.21l-1.5-.8Zm4.82,1.9,1.86,2.22-1,.52-1.5-.8v-1.6Zm-1.25-3.81v.2l-.12-.13Zm-.5-.39-.92-1.09.63-1.2.79.42v1.6Zm-1.57-3,.06,0-.87,1.65a.59.59,0,0,0,.08.68l.68.81-1.45-.77v-1.61Zm-1.5.14v-.94l.88.47Zm1.49-.81-1.49-.79V254C810.82,254.93,811.37,255.74,811.75,256.28Zm-.56-3.55,0,0-.15-.27Zm2.5,2.53-.71.38c-.38-.53-1-1.39-1.54-2.38l.13-.07A14.39,14.39,0,0,0,813.69,255.26Zm2,1.28-1.24,1.59v-.4l-1.13-.61.13-.25a.61.61,0,0,0-.06-.66l-.07-.09.89-.47A12.61,12.61,0,0,0,815.69,256.54ZM818,261.9l-1.51.8-1.56-.83-.51-.61V260l.38-.2,3.2,2Zm0,1.6-.88-.47.88-.47Zm0,2-1.71-2,.2-.11,1.51.8Zm0,3.15.75.4.19.7-.94.5v2.21l-2.08-1.1-1.5.8v-1.6l-2.07-1.11,2.07-1.1v-1.61l1.5.81,1.38-.74.7.83Zm.62-4.14.88.47-.88.46Zm2.83-.58-1.33.71-1.5-.8v-1.6l.06,0Zm.17,1.51-.88-.46.88-.47Zm0,2.88-1.39.74-.33-1.21a.6.6,0,0,0-.12-.24l-1.16-1.37v-.13l1.5-.8,1.5.8Zm3.7-2-1,.54-2.07-1.1v-1.35Zm1.41,1.83-.29-.16v-.34Zm.79,1.47-1.71.92v1.6l-1.5-.8-2.07,1.1v-2.21l-1.5-.8,1.5-.8v-2.21l2.07,1.11,1.5-.8h0v1.6l1.43.76Zm1.52,3.06-1.1.59-1.5-.8v-1.6l1.35-.72C828.22,270.93,828.64,271.79,829.07,272.69Zm1.66,3.59-.69.37v.12h-3.91l-1.73-.92,2.07-1.1v-1.61l1.5.81,1.35-.73c.24.5.48,1,.72,1.54v.29l.18.09Zm.55,3.25-.62-.34v-1.12h.63Zm0,.94-.62.33v-.94l.62.33Zm0,2.92-.61-.33v-1.6l.62-.33Zm0,.95-.61.32v-.93l.61.32Zm0,3.52-.6-.32v-2.21l.61-.33Zm0,1-1.22.65v2.21l-1.45-.77v.21a17,17,0,0,0-.62-4.67c0,.09.06.18.08.27l2-1.06v2.21l1.22.65Zm0,3.51-.59-.32V289.8l.6-.32Zm0,1-.59.32v-.94l.59.31Zm0,2.89-.58-.31v-1.6l.59-.31Zm0,1-.58.31v-.93l.58.3Zm0,3.49-.57-.3v-2.21l.58-.31Zm0,4.47-.56-.3v-2.21l.57-.3Zm0,1-.56.3v-.94l.56.3Zm0,2.85-.55-.29v-1.6l.56-.3Zm0,1-.55.29v-.93l.55.29Zm0,3.45-.54-.28V311l.55-.29Zm0,4.47-.53-.28v-2.21l.54-.28Zm0,1.05-.53.28v-.94l.53.28Zm0,2.82-.52-.28v-1.6l.52-.28Zm0,1.05-.52.27v-.94l.52.28Zm0,3.42-.51-.27v-2.21l.52-.28Zm-.51,6.47.49-.26v.82h-.49Zm0-1.6.5.26v.41l-.49.26Zm0-2.88.5-.27v2.75l-.5-.27Zm-.35-1.79.86.46v.4l-.86.46Zm0-12.82.89.48v.36l-.89.48Zm-.19-13v.07l1.1.59v.33l-.93.5v0C830.26,301.62,830.17,301,830.12,300.67ZM830,329.14v1l-1.73-.92h1.44a.55.55,0,0,0,.37-.14A.21.21,0,0,1,830,329.14ZM828,337.38l-1.5-.8V335l.7-.38h2.74l.13.07v.54c-.47.6-1,1.23-1.45,1.84Zm-2.45,3.17-1.12-.6,2.07-1.11v-1.6l1.36.73A31.9,31.9,0,0,1,825.52,340.55Zm-3.25.53,1.5-.8L825,341l0,0-2.74,1.12Zm0-1.6.88.47-.88.47Zm0-2.26,2.07-1.11,1.5.8v1.6l-2.07,1.11-1.5-.8Zm0-1.77.17-.85h3.48l-.08,0v1.61l-1.5-.8-2.07,1.1Zm-1.06-2.15,1.06-.56v-2.21l2.07,1.1,1.5-.8v1.6l1.63.87Zm.11,6.82.21-1,.12.06v1.6l-1.5.8-.15-.08,1.12-1A.6.6,0,0,0,821.32,340.12Zm.32,2.22-.87-.46.88-.47v.93Zm-3,.68,1.5-.8.78.41-2.28.93Zm0-3.87,1.5-.8.07,0-.26,1.28-1.24,1.12-.07,0Zm0-1.6.88.47-.88.46Zm0-2.88.13-.07H821l-.62,2.95-.24.13-1.5-.8Zm-5.83-1.37,1.63-.87v-1.6l1.5.8,2.08-1.1v2.21l1.05.56Zm3.7,6.32-2.07-1.11v-1.6l1.5-.8,2.08,1.11v1.6Zm1.51-.14v.94l-.88-.47Zm-3.58-3.23v-1.61l-.08,0H818v1.95l-2.08-1.1Zm2.43,8,.86-.78.29-.15v.46Zm-2.43-.63.69.37-.69.62Zm0-2.26,2.07-1.11,1.51.8v.33l-2.43,2.19-1.15-.61Zm-4.19,4.5.41.22-.41.06Zm0-2.27,2.07-1.1,1.5.8v1.6l-1.85,1-.34,0-1.38-.73Zm-1.5-3.67,1.5-.8v-2.21l2.07,1.1,1.5-.8v1.6L815.9,340l-2.07,1.1v1.61l-1.5-.8-2.07,1.1v-2.21Zm.88,4.94-.88-.46.88-.47Zm-3,.67,1.51-.8,1.5.8v.71l-1.17.18h-.67l-1.17-.18Zm0-1.6.88.47-.88.46Zm0-2.88,1.51-.8,1.5.8v2.21l-1.5.8-1.51-.8Zm-1,5,.41-.22v.28Zm-3.16-2.79,1.5-.8,2.07,1.1v1.61l-1.38.73-.34,0-1.85-1ZM800.37,340l2.07-1.11v-1.6l1.5.8,2.07-1.1v2.21l1.5.8-1.5.8V343l-2.07-1.1-1.5.8v-1.61Zm.76,4.07.69-.37v1Zm-2.88-.67.28.15.86.78-1.14-.47Zm0-2.27,1.5-.8,2.07,1.11V343l-1.15.61-2.42-2.19Zm0-1.6.87.47-.87.47Zm0-2.26,2.07-1.11,1.5.8v1.6l-2.07,1.11-1.5-.8Zm0-2.62h3.65l-.08,0v1.61l-1.5-.8-2.07,1.1Zm-1.06-1.3,1.06-.56v-2.21l2.07,1.1,1.5-.8v1.6l1.63.87Zm-1.85,9.33.78-.41,1.5.8v.54Zm-.72-1.22.88.47-.87.46h0Zm0-2.26.12-.06.21,1a.66.66,0,0,0,.2.34l1.12,1-.15.08-1.5-.8Zm-5.82-5.85,1.63-.87v-1.6l1.5.8,2.07-1.1v2.21l1.06.56Zm3.7,6.32-2.07-1.11v-1.6l1.5-.8,2.07,1.11v1.6Zm1.5-.14v.94l-.88-.47Zm-3.57-3.23v-1.61l-.08,0h3.48l.17.85v1.1l-2.07-1.1Zm.81,4.7,1.26-.67,1.5.8v1L791.26,341Zm-2.8-3,1.36-.73v1.6l2.08,1.11-1.13.6A33.74,33.74,0,0,1,788.44,338Zm-2.21-3.3.13-.07h2.74l.7.38v1.6l-1.5.8-.61-.33c-.5-.61-1-1.24-1.46-1.84Zm0-1.6.44.23h-.44Zm0-2.26,2.07-1.11,1.5.8v1.6l-2.07,1.11-1.5-.8Zm-.08-1.73a.55.55,0,0,0,.37.14H788l-1.73.92v-1A.21.21,0,0,1,786.15,329.08Zm-1,3.4.49.26v.56h-.49Zm0-1.08.49-.26v.93l-.49-.26Zm0-3.41.5.27v2.21l-.5.27Zm0-1.06.86-.46v1.32l-.85-.46Zm0-3.42.51.28V326l-.51.27Zm0-1.05.52-.28v.94l-.52-.27Zm0-2.82.52.28v1.6l-.52.28Zm0-1,.53-.28v.94l-.53-.28Zm0-3.44.53.28v2.21l-.53.28Zm0-1,.89-.48V315l-.89-.48Zm0-3.45.55.29v2.21l-.54.28Zm0-1,.55-.29v.93l-.55-.29Zm0-2.86.56.3v1.6l-.55.29Zm0-1,.56-.3v.94l-.56-.3Zm0-3.48.57.3v2.21l-.56.3Zm0-1,1.1-.59s0,0,0-.06c0,.32-.14.94-.18,1.52,0,0,0,0,0,0l-.94-.5Zm0-3.49.58.31v2.21l-.57.3Zm0-1,.58-.3v.93l-.58-.31Zm0-2.88.59.31v1.6l-.58.31Zm0-1,.59-.31v.94l-.59-.32Zm0-3.51.6.32V292l-.59.32Zm0-1,1.22-.65v-2.21l2,1.06a2.76,2.76,0,0,0,.08-.27,17,17,0,0,0-.62,4.67v-.21l-1.45.77v-2.21l-1.22-.65Zm0-3.52.61.33v2.21l-.6.32Zm0-.95.61-.32v.93l-.61-.32Zm0-2.92.62.33v1.6l-.61.33Zm0-.94.62-.33v.94l-.62-.33Zm0-2.12h.63v1.12l-.62.34Z" style="fill:#fff"/><path d="M1226.42,843.79s110.13-84.58,54.56-201.12C1281,642.67,1144.51,772.93,1226.42,843.79Z" style="fill:#98bb68"/><path d="M1273.8,669.27,1248,769l37.4-16.41L1244.69,779l-19.84,63.44a82.44,82.44,0,0,1-9.23-9.8C1229.49,784.3,1273.8,669.27,1273.8,669.27Z" style="fill:#67963a"/><path d="M1184.18,848.81s107.74,48.37,204.13-102.45C1388.31,746.36,1237.92,684.16,1184.18,848.81Z" style="fill:#d3d855"/><path d="M1284,786.62c34.79-17.42,63.51-31.29,63.51-31.29l-93.94,59.37,42.28,14.1-52.18-8.7-54.24,30.63a54.7,54.7,0,0,1-5.24-1.92c1.37-4.2,2.81-8.24,4.3-12.15,23.08-13.2,58-31.2,89.28-46.91l17.4-34.27Z" style="fill:#96ca4f"/><path d="M1206.1,838.33s70.65-81-53.37-165.51C1152.73,672.82,1099.56,776.44,1206.1,838.33Z" style="fill:#67963a"/><path d="M1194.93,790l16.15-39.13-18.58,30.43-29.45-83.89s20.36,89.35,33.92,135.3c2.91,1.92,5.94,3.81,9.13,5.66,0,0,.89-1,2.3-3Z" style="fill:#d5e835"/><path d="M1210.82,845.26s-14.54-92.8-138.88-93.21C1071.94,752.05,1104.09,889.42,1210.82,845.26Z" style="fill:#82c341"/><path d="M1132.06,799c-22.11-15.54-40-28.53-40-28.53l67.23,37.9-5.29-30.5,11.86,34.78,43.88,27.68c.84,3.15,1.13,5,1.13,5q-2.86,1.18-5.65,2.19c-14.31-7.83-43.84-28-69.15-45.72l-26.69.64Z" style="fill:#67963a"/><path d="M203.41,820.62c-14.49-14-31.43-28.43-31.77-48.59-.23-13.07,5.43-25.41,10.74-37.35,12.07-27.12,21.38-63-.42-83.15-8.6-8-20.45-11.44-29.79-18.52-17.06-13-23.15-38.43-13.79-57.7,3.71-7.64,9.58-14.5,10.82-22.9,2.83-19.14-19.08-32.57-38.22-35.48s-40.69-1.75-55.2-14.55c-3.37-3-6.31-7-6.21-11.48.09-3.83,2.35-7.25,4.82-10.17,22.32-26.49,69.4-25.66,90.77,1.6,11.54,14.73,16.28,35.17,31.72,45.74,20,13.66,52.29,6.69,65.71,26.81,16,23.93-13.36,59.24,1.77,83.7,4.55,7.35,12.29,12,19.17,17.21,37.84,28.85,51.5,85.29,31,128.26C294.57,784.05,254.48,870,203.41,820.62Z" style="fill:#96ca4f"/><path d="M279.7,735.4l-33.86,42.88a2.32,2.32,0,0,1-1.58.87q1.44,19.32,1.42,38.73,0,15.29-.93,30.58-.24,4-.55,8c0,.56-.09,1.12-.12,1.67l-6.1,0c.27-3.25.5-6.48.69-9.72q.26-4,.43-8.08c.34-7.48.51-15,.51-22.43a509.29,509.29,0,0,0-6.62-82.5,2.52,2.52,0,0,1-1.12-.07l-27.22-8.59a2.42,2.42,0,1,1,1.46-4.62l26,8.21a505.39,505.39,0,0,0-35.53-117.67l-39.46-4.32a1.88,1.88,0,0,1-.47-.1,2.42,2.42,0,0,1,1-4.72l36.64,4a504.52,504.52,0,0,0-25.25-48.39c-1.11-1.87-2.23-3.73-3.37-5.61a3,3,0,1,1,5.19-3.13q1.71,2.83,3.38,5.65a505.71,505.71,0,0,1,27,52.25l.36,0A2.42,2.42,0,0,1,203.8,611a2.31,2.31,0,0,1-.69,1.42,512.71,512.71,0,0,1,40.67,160.63l32.11-40.68a2.43,2.43,0,1,1,3.81,3Z" style="fill:#67963a"/><path d="M227.79,853.26c-21.92-14.27-45.07-26.64-65.67-42.75-6.59-5.15-13.23-10.73-16.88-18.25s-3.52-17.51,2.49-23.32c5.79-5.6,15.57-6.24,20.15-12.86,4.07-5.87,2.09-14.37-2.73-19.65s-11.77-8-18.57-10.18a205.62,205.62,0,0,0-49.45-9.45c-11.32-.75-26-3.21-27.82-14.4-2-12.07,13.26-18.82,25.26-21.21C90.12,667.43,75.4,659,61,657.84s-28.61,3.72-42,9.28c-3.19,1.32-6.56,2.73-10,2.28-10.22-1.34-11.2-16.54-5.8-25.32,7.94-12.9,22.83-20.44,37.87-22.29s30.28,1.35,44.7,6c10.16,3.29,20.64,7.37,31.18,5.67,5.85-.94,11.39-3.65,17.31-3.85,14.28-.5,24.84,13.16,30.56,26.25s10,28,21.63,36.31c11.49,8.17,28.74,6.86,38.86-3,4.21-4.08,8.18-9.81,14-9.63,4.44.15,7.9,3.81,10.5,7.41,13.24,18.3,17.9,41.33,20.9,63.72C270.78,750.72,293.46,896,227.79,853.26Z" style="fill:#c4d82e"/><path d="M281.88,882.85l-5.95-.65c-.3-.59-.62-1.18-.93-1.78q-2.24-4.24-4.56-8.59c-5.68-10.57-11.73-21.47-18.14-32.53a1,1,0,0,0-.08-.14c-7.47-12.87-15.71-26.42-24.62-40.2a1.82,1.82,0,0,1-.67.29,2.21,2.21,0,0,1-.68,0l-61.39-8.84a2,2,0,1,1,.57-3.93l59.65,8.58c-7.68-11.75-15.85-23.63-24.48-35.38h-.15a2,2,0,0,1-1.73-2.21l0-.28c-37.3-50.38-82.79-98-132.9-121.55a2.49,2.49,0,0,1,2.11-4.5c24.38,11.45,49.06,29.07,73.73,52.6l-6.65-32.53a2,2,0,0,1,3.9-.79l7.23,35.35a2,2,0,0,1-.53,1.78q14,13.68,27.93,29.87,13.06,15.16,26.08,32.52L203,722.88a2,2,0,1,1,4,.5l-3.89,31.21a900.68,900.68,0,0,1,53.54,82.27l1.71,3c4.68,8.12,9.16,16.16,13.44,24,1.59,2.94,3.14,5.84,4.68,8.71C278.32,876,280.12,879.46,281.88,882.85Z" style="fill:#8dc63f"/><path d="M1301.42,900H124.2a5.63,5.63,0,0,1-3-10.51l65.92-38a6.09,6.09,0,0,1,3-.81H1235.5a6.09,6.09,0,0,1,3,.81l65.92,38A5.63,5.63,0,0,1,1301.42,900Z" style="fill:#9b9851"/><path d="M561.62,588.89l19.75-6.38,14.92-5.41h15.13a21.06,21.06,0,0,1,9.57,2.3l11.52,5.87a3.54,3.54,0,0,1,1.94,3.15h0a3.54,3.54,0,0,1-3.54,3.54h-.85l13.8,11.37a6.15,6.15,0,0,1,1.59,7.51h0l-7-2.2,5.21,10a2.88,2.88,0,0,1,.23,2h0a2.86,2.86,0,0,1-4.51,1.59l-12.49-9.44a7.68,7.68,0,0,0-4.61-1.54h0a7.65,7.65,0,0,1-5.09-1.95l-12.54-11.22-43,12.29Z" style="fill:#eeb375"/><polygon points="510.37 609.64 581.64 579.36 585.51 606.13 510.37 641.37 510.37 609.64" style="fill:#ba7c1b"/><rect x="277.33" y="849.46" width="31.12" height="16.59" transform="translate(585.77 1715.51) rotate(180)" style="fill:#58595b"/><rect x="409.4" y="849.46" width="31.12" height="16.59" transform="translate(849.93 1715.51) rotate(180)" style="fill:#58595b"/><path d="M509.69,848l34-106.53c6.29-19.7-7.72-40.05-27.57-40.05H302.18c-8.32,0-14.9,7.37-14.34,16.06l8.22,126.78c.51,7.89,6.78,14,14.34,14H496.06A14.44,14.44,0,0,0,509.69,848Z" style="fill:#a76759"/><path d="M253.51,434.05h53.68c48.42,1.13,49.28,22.32,48.42,25.65s28,171.16,33.43,226.74a13.72,13.72,0,0,1-13.57,15.06l-58.11.41a14.31,14.31,0,0,1-3.78-.51H277.33Z" style="fill:#a76759"/><path d="M476.27,701.4H334.41a2.91,2.91,0,0,1-2.2-4.8,13.66,13.66,0,0,0,3.15-10.18c-5.43-55.6-34.29-223.39-33.43-226.72s0-24.54-48.48-25.65A18.87,18.87,0,0,0,234,454.54l15,220.63,7.3,169.07c.51,7.89,6.78,14,14.34,14H456.24A14.45,14.45,0,0,0,469.87,848l34-106.53C510.12,721.75,496.11,701.4,476.27,701.4Z" style="fill:#b0766a"/><path d="M768.8,823.44l28-15.74c2.12-2.33,6.38-2,9.51.85l37.54,33.51c3.84,3.43,2.88,8.63-1.59,8.57l-42.47-.53a21.08,21.08,0,0,1-13.36-5.61h0C781.65,840.24,768.8,823.44,768.8,823.44Z" style="fill:#f7a67a"/><path d="M804.86,830.58l28-15.74c2.12-2.33,6.38-2,9.51.85l37.54,33.52c3.84,3.42,2.88,8.62-1.59,8.57l-42.47-.54a21,21,0,0,1-13.36-5.6h0C817.72,847.38,804.86,830.58,804.86,830.58Z" style="fill:#f7a67a"/><path d="M832.88,821s-9.76-7.67-65.23-5.07c-31,1.46,3.77-.62,3.77-.62,39-1.49,70.63-38,71.52-82.64h0a1,1,0,0,0-1.12-1.11c-7.58,1.33,14.81,0-100.9.34,0,0-50,15.76-67.19,25.16-30.71,16.82-73.26,29.23-63.26,66.48.92,3.41,1.92,6,3,7.47h0c11.43,15.35,37.31,26.53,72.78,28.72h0l159.77-2.51a.21.21,0,0,0,.16-.08S837.37,824.74,832.88,821Z" style="fill:#66c1ea"/><path d="M771.42,815.31s-34.78,2.08-3.77.62c55.47-2.6,65.23,5.07,65.23,5.07,1.14,1,2.56,3.75,4,7.4-7.88-2.16-19.84-4.17-32.28-1.5-21.47,4.62-52,1.5-77,1.5s-41.92-17,0-18.85,96.21,10.9,115.3-76.88h0C849,789.41,810.42,813.82,771.42,815.31Z" style="fill:#53b9e8"/><path d="M667.3,624.68l-7.64-3.08a8.69,8.69,0,0,1-5.37-6.89l-.06-.44a8.69,8.69,0,0,0-3.35-5.75l-10.36-7.87a2.1,2.1,0,0,0-3.23.91l-1.53,4L634.64,630l29,17.74Z" style="fill:#fab28f"/><polygon points="667.3 621.96 663.68 647.77 724.3 680.35 728.1 640.89 667.3 621.96" style="fill:#63d0df"/><path d="M662.2,631l-19-13.91-.6-4.39a11.1,11.1,0,0,0-4.54-7.53l-11.22-8a2.75,2.75,0,0,0-4.34,2.07h0a2.75,2.75,0,0,1-3.85,2.34l-15.85-7a2.23,2.23,0,0,0-3.11,2.34L600,599l-2.89-2.19a2.23,2.23,0,0,0-3.55,2.08l.75,5.54a19,19,0,0,0,5.34,10.82l13.28,10.34,21.71,6.78,23.46,21.5Z" style="fill:#ffbb87"/><path d="M803.2,549.49c-28.09-36.15-74.42,21.59-74.42,21.59-3.35,2.53-37.06,65.77-13.79,81a15.61,15.61,0,0,1,7.36,12.15l4.39,34a24.88,24.88,0,0,0,4.08,10.7L724.75,740c3.87,5.76,31.15-1.77,39-2.58L797.29,734a56.94,56.94,0,0,1,20.61,1.64l25.4,6.9c3.29.89,6.71-1.42,6.58-4.43C846.74,669.13,818.85,569.63,803.2,549.49Z" style="fill:#82dae6"/><path d="M783.91,540s-33.35-2.58-58.45,117.21L656,624.69l-6.88,28.76,77.78,37.37a18.65,18.65,0,0,0,21.27-10.66l48.71-110.65a27.57,27.57,0,0,0,1.76-17.82C797.15,545.64,793.28,539.67,783.91,540Z" style="fill:#82dae6"/><path d="M725.46,657.24,656,624.69l-4.91,20.52c3.2-7.22,15.06-4.44,22.85-3.17,23.17,3.78,22.93,16.45,43.88,21.11a10.76,10.76,0,0,0,12.62-7.37L744,591.47C737.71,607.72,731.36,629.1,725.46,657.24Z" style="fill:#92dee9"/><path d="M798.68,551.69c-1.14-4.51-3.59-9-8.64-10.81-7.13,11.91-15.33,31-22.49,61.41-17.19,73-20,63.49-24,52.19s-2.77,26.5-10.36,30.13-51.4-15.49-51.4-15.49l-1.15-2.88,46.32,24.58a18.65,18.65,0,0,0,21.27-10.66l48.71-110.65A27.57,27.57,0,0,0,798.68,551.69Z" style="fill:#63d0df"/><path d="M685.28,520.78c-16.29-11.46-36.12-14.22-34.15-25.14,0-.26,2.75-18,3.65-20.09,13.33-30.24,52.73-38,73.88-25.26,18.09,10.86,40.81,20.51,80.35,83.28a219.78,219.78,0,0,1,28.91,69.78L855,680.53c-22.11-3.79-51.41-8.11-67.11,4.92a41,41,0,0,1-10.22,6.46c-21.93,9.24-29-21.31-53.24-27.84l-30.83-18.58s1.65-32.34,3-59.1c1.51-29.59,16.26-33.42-2.79-58.74C691.62,524.75,688.25,522.88,685.28,520.78Z" style="fill:#d2e1ec"/><path d="M815.56,544.67q-1.08-1.95-2.2-3.89c-26.12-11.87-63.1-6.67-73.33,2-11.67,9.85-17.3,9.46-26.58-9-7.75-15.41-12-16.7-14.32,1.89,10.46,18.54-1.21,24.58-2.54,50.73-1.36,26.76-3,59.1-3,59.1l13.68,8.24a87.88,87.88,0,0,0,6.19-17.4c11.79-44.93,9.28-25.31,14.65-5.11,2.82,10.57.58,24.36-1.09,33.67a36,36,0,0,1,5.53,2.51c8.7-12.52,20.87-37.21,11.44-88.4C734.82,529.29,793.52,539.27,815.56,544.67Z" style="fill:#c7dae7"/><path d="M675,489a10.74,10.74,0,0,0-12.78,9.95c-.53,9.69,2.64,25.36,19.39,47.13A12.73,12.73,0,0,0,698,548.94c4.76-2.91,10.28-8.41,15-18.71,0,0,5.23-22.62-18.65-37.55Z" style="fill:#fab28f"/><path d="M653.23,482.83c-1,5.71-2.07,12.65-2.1,12.81-.94,5.24,3.14,8.6,9.43,11.94a7.2,7.2,0,0,1,1.69-8.68c6.26-5.93,57-1,57-1s-29.84-18.51-38.6-22S653.23,482.83,653.23,482.83Z" style="fill:#dee9f0"/><path d="M512.08,827.14,499.26,859c-.06,3.31,3.19,5.95,7.28,5.89l68.38-.72c5-.07,7.8-4.87,4.61-7.91l-49.8-28.88a18.75,18.75,0,0,0-13.17-4.77h0C510.36,822.66,512.08,827.14,512.08,827.14Z" style="fill:#f7a67a"/><path d="M493.88,853.9s36.06-3.56,64,6.47,78.74-5.64,78.74-5.64c-9.3,4.54-9.18-55.71-7.82-80.32,2.18-39.51-4.73-65.63-.8-98.59,2-16.8-3.94-33.55-15.63-44h0c-29.6-26.45-179.54-24.74-179.54-24.74l-75.83.14-5.23,29.55c-8.37,20.26-1.62,44.26,16,55.68l.81.52a72.3,72.3,0,0,0,47.86,11.11c35.9-4.38,98.31-3.17,104.12,12.06C528.43,736.82,493.88,853.9,493.88,853.9Z" style="fill:#48433f"/><path d="M406,650.3c-29.11,3.44-46.22-7.81-39.51,17C378.32,711.2,442,678.87,478.4,686.18s18.72,15.61,61.67-2.83,20.79-3.75,7.11,25.22c-16.31,34.53-21.38,38.18-10.82,35.09s25-27.19,19.13,0-53.32,80.54-33.64,66.84,11.06-16.34,19.69-13.7-22.36,38.15-21.2,43.42,19.95,7.92,49,23.38a92.56,92.56,0,0,1-11.45-3.23c-27.95-10-64-6.47-64-6.47s34.55-117.08,26.65-137.77c-5.81-15.23-68.22-16.44-104.12-12.06A72.3,72.3,0,0,1,368.55,693l-.81-.52c-17.58-11.42-24.33-35.42-16-55.68L357,607.21h.18L461.28,630S435.08,646.86,406,650.3Z" style="fill:#3e3935"/><path d="M552.14,596.05l19.75-6.38,14.93-5.4H602a21.08,21.08,0,0,1,9.57,2.29L623,592.43a3.55,3.55,0,0,1,1.93,3.16h0a3.53,3.53,0,0,1-3.54,3.53h-.85l13.81,11.37A6.17,6.17,0,0,1,636,618h0l-7-2.2,5.2,10a2.89,2.89,0,0,1,.24,2h0a2.88,2.88,0,0,1-4.52,1.6L617.39,620a7.62,7.62,0,0,0-4.6-1.54h0a7.67,7.67,0,0,1-5.1-2l-12.53-11.22-43,12.29Z" style="fill:#ffa987"/><path d="M441.42,500.92s35.65-2.78,61.77,116.92l74.38-33,7.18,28.73-83.34,37.85c-9.34,2.07-18.86-2.36-22.67-10.54l-51.4-110.42a25.92,25.92,0,0,1-1.77-17.82C427.24,506.6,431.41,500.61,441.42,500.92Z" style="fill:#c28a34"/><path d="M503.19,617.84l74.38-33,5.12,20.5c-3.38-7.21-16.06-4.36-24.4-3-24.78,3.92-24.6,16.6-47,21.38-5.87,1.26-11.73-1.93-13.45-7.3l-14-64.26C490.39,568.37,497.05,589.73,503.19,617.84Z" style="fill:#ca994e"/><path d="M425.57,512.67c1.24-4.52,3.88-9,9.3-10.86,7.54,11.87,16.19,30.91,23.67,61.3,17.93,72.9,21,63.41,25.36,52.08s2.8,26.5,10.9,30.09,55-15.81,55-15.81l1.24-2.89-49.64,24.87c-9.34,2.07-18.86-2.36-22.67-10.54l-51.4-110.42A25.92,25.92,0,0,1,425.57,512.67Z" style="fill:#ba7c1b"/><path d="M436.75,456.13c37.78-35,77.6,29.72,77.6,29.72,2.59,3.53,7.4,91.17-19.76,103.65a19.64,19.64,0,0,0-10.66,12.19l-13.87,37.38a32.93,32.93,0,0,1-7,11.23s-83-10.48-90-9.8l-30.94,4.71C363.14,567.77,415.05,476.25,436.75,456.13Z" style="fill:#c28a34"/><path d="M537.74,449.14a85.52,85.52,0,0,0,26.53-52.72c0-.31.07-.62.11-.94,3.9-31-64.46-62.23-91.25-26.64-33.64,44.69-25.11,33-59.61,68.72a112.16,112.16,0,0,0-26.39,44.54l-38.92,125C344.09,620,320.39,640.5,419.54,630c4.29-.45,35.75,19.72,39.43,21.44,21.58,10.11,26.57-25.72,49.48-34.06L538,603.07s-17.2-135-8-145.67A100.37,100.37,0,0,1,537.74,449.14Z" style="fill:#f3d78f"/><path d="M456.65,650.17c.49-4.37,1.89-10.79,4.63-20.16,10.53-36,21.6-35.11,22.65-28.32s14.59,42.57,15.06-6.91,16.55-103.59,5.88-115.39-24.48-19.94-11-44.18,15.79-36.08,59.41-34.77a29.79,29.79,0,0,1,10.06,1.83,85.08,85.08,0,0,1-25.62,46.87A102,102,0,0,0,530,457.4c-4,4.62-3,32.67-.6,62.93h0s-10.86-47.4-12.93-40.94a33.44,33.44,0,0,0-.88,6.54c-.94,13.59-.33,42.05.88,53.38,1.1,10.33,2.85,49.74,1.42,73.53l-9.39,4.55c-22.91,8.34-27.9,44.17-49.48,34.06C458.55,651.25,457.74,650.8,456.65,650.17Z" style="fill:#f2d383"/><path d="M553.15,400.44s16.59,21.27-18.62,64.37c-4.24,5.19-12.73,6.75-19,3.16-5.54-3.19-12-9.19-17.43-20.46,0,0,1.14-29.72,28.84-46Z" style="fill:#ffa987"/><path d="M1050,674.54l-47,40.78a10.91,10.91,0,0,0,.39,16.87l18.13,14.36L1063.05,724Z" style="fill:#b6a269"/><path d="M997.7,747.7l-3.22,4.81h0a6.84,6.84,0,0,1-4.19,7.75l-17.8,7.23L967,768.62a6.35,6.35,0,0,1-7.52-4.8l-2.26-10.53,6-11,26.41-10.88,13.95-7,15.12,15.2Z" style="fill:#f7a67a"/><path d="M1098.63,834.14l30.76-17c2.32-2.52,7-2.1,10.44.92l41.24,36.26c4.22,3.71,3.16,9.33-1.75,9.27l-46.65-.58a23.3,23.3,0,0,1-14.68-6.06h0C1112.76,852.32,1098.63,834.14,1098.63,834.14Z" style="fill:#f7a67a"/><path d="M1113.34,826s-11.71-7.91-77.7-5.94c-36.89,1.11,4.49-.58,4.49-.58,46.39-1.05,83.58-37.8,84.08-83.08v-1.34c-.11,0-16.53,1.82-92,10.05-40.56,4.42-146.88,26.81-141.5,78.35,0,0,6.32,37.45,48.57,40.1h.05l190.13-.61a.28.28,0,0,0,.2-.08S1118.74,829.85,1113.34,826Z" style="fill:#485956"/><path d="M1128.17,834.14l30.75-17c2.33-2.52,7-2.1,10.45.92l41.23,36.26c4.22,3.71,3.16,9.33-1.74,9.27L1162.2,863a23.27,23.27,0,0,1-14.67-6.06h0C1142.29,852.32,1128.17,834.14,1128.17,834.14Z" style="fill:#f7a67a"/><path d="M1146.23,829.39s-9.43-7.31-63-4.82c-30,1.38,3.64-.6,3.64-.6,37.7-1.42,68.29-36.22,69.14-78.68h0a1,1,0,0,0-1.07-1.06c-7.33,1.27,0,0-111.87.33,0,0-34.75,13.84-50.65,24-27.31,17.37-57.06,27.82-47.39,63.28a22.4,22.4,0,0,0,2.9,7.12h0c11,14.61,22.3,25.26,56.6,27.34h0L1159,863.87a.21.21,0,0,0,.16-.08S1150.58,833,1146.23,829.39Z" style="fill:#51625f"/><path d="M1086.82,824s-33.63,2-3.64.6c53.62-2.49,63,4.82,63,4.82,1.11.91,2.49,3.57,3.93,7.05-7.62-2.06-19.19-4-31.21-1.43-20.76,4.39-52.21-6.82-76.41-6.82s-60.49-7.68-20-9.45,114.93,10.13,133.38-73.45h0C1155.11,787.75,1124.52,822.55,1086.82,824Z" style="fill:#485956"/><polygon points="1105.53 474.39 1118.95 530.08 1066.56 530.08 1066.56 438.71 1105.53 438.71 1105.53 474.39" style="fill:#ffa987"/><path d="M1096.73,466.18s1.63.86,2.48,18.22c.32,6.5-16.62,22.36-25,22.43s-2.19,9.36-2.19,9.36,3.18,0,4.25,6.47c1.26,7.67,11.17,6.55,17,7.42h-26.72V461.44Z" style="fill:#f7a67a"/><path d="M1036.4,438.26v-8.84c0-8,6-15,14.64-16.93,17.65-3.94,46.07-8.58,55-.18,13.34,12.5,0,65.36,0,65.36l-7.34-6.63-44.24,11.44Z" style="fill:#414042"/><path d="M1036.4,438.26s-9.58,74,18.1,68.25,42.57-10.26,42.57-34c0,0,13.51-4.12,7.45-15.06-9.58-17.3-17,0-17,0v18.59H1080s.6-22-1.35-27a33.27,33.27,0,0,1-2.12-11.45c-.08-4.74-1.19-8.54-7.24-4.15-3.61,2.62-23.35,10.26-28.67-2.08S1036.4,438.26,1036.4,438.26Z" style="fill:#ffa987"/><path d="M1035.05,438.37s43.88-1.69,76.34,16.69c0,0,26.69-44-31.54-53.79-46.42-7.78-44.8,28.17-44.8,28.17Z" style="fill:#f1f2f2"/><path d="M1030.21,606.41c-1.38-28.06,7.15-55.79,34.06-79.94.55-.49,17.42,2.12,25.35,0l28-7.6s50.49,36.78,54.25,60.73l22.08,56.15c4.6,20.81,15.65,39.77-11.65,67.78l-24.2,11.44c.34,17.23.59,20.54.45,30.17H1032.24s1.77-39.9,2-73.77Z" style="fill:#bdac78"/><path d="M1044.36,744.11l-3.81,4.38h0a6.88,6.88,0,0,1-5.13,7.18l-18.59,5-5.63.45a6.3,6.3,0,0,1-6.85-5.66l-.9-10.73,7.33-10.2,27.58-7.61,14.75-5.3,13.07,16.91Z" style="fill:#f7a67a"/><path d="M1066.18,710.55l87.51-45.23-27.13-60.59s-17,3.32-10.86-8.29,2.5-25.13,10.54-14.65,26.51,75.56,37.15,83.4-16.36,11.36-24.26,16.66S1066.18,710.55,1066.18,710.55Z" style="fill:#c5b587"/><path d="M1150.93,724.87h0a7.32,7.32,0,0,1-2.58,12.11l-21.13,8.13h31.29c.14-9.63-.11-12.94-.45-30.17l-59.43,19.86Z" style="fill:#b6a269"/><path d="M1047.15,586.29l4,66.76,15.43-66.76c31.7-17.28,48.5-56,48.5-56s8.6-1.35,14.66-1.93c-7.06-5.82-12.14-9.52-12.14-9.52l-28,7.6c-7.93,2.15-24.8-.46-25.35,0-1.35,1.22-2.65,2.44-3.91,3.68C1036.88,557.44,1047.15,586.29,1047.15,586.29Z" style="fill:#c5b587"/><path d="M1064.27,526.47l-1,1c-14.81,22-13.77,40.37-13.77,40.37l3,51,7.12-30.81a57.42,57.42,0,0,1,17.57-29.5c15.86-14.36,24.17-33.51,24.17-33.51s9.07-3.2,8.12-4l-19.86,5.4C1081.69,528.59,1064.82,526,1064.27,526.47Z" style="fill:#b6a269"/></g></g></svg>