<svg xmlns="http://www.w3.org/2000/svg" xmlns:xlink="http://www.w3.org/1999/xlink"
    viewBox="0 0 1561.33 1723.89">
    <defs>
        <linearGradient id="linear-gradient" x1="297.39" y1="878.21" x2="792.4" y2="935.82"
            gradientUnits="userSpaceOnUse">
            <stop offset="0" stop-color="#fff"/>
            <stop offset="1" />
        </linearGradient>
        <linearGradient id="linear-gradient-2" x1="910.33" y1="667.72" x2="1471.48" y2="921.63"
            xlink:href="#linear-gradient" />
    </defs>
    <g style="isolation:isolate">
        <g id="Layer_2" data-name="Layer 2">
            <g id="Layer_1-2" data-name="Layer 1">
                <path
                    d="M1310.26,278.66C1226.69,150.45,1137.87,66,1042.4,25.07,946.94-15.19,857.77-6.72,772.1,48.73c-85,56.16-128.68,136.33-130.78,241.23q-3.68,156.81,121,349c82.52,128.2,171.34,212.61,267.51,252.52,81.12,34.26,207.71,13.07,254.91,59.34,43,42,50.71,91.83,40.22,140.57-33.22,154-285.69,350.36-386.4,447.13l-31.12,185.42h623.13l30.77-187.54H1251.86l119.25-133.5C1427.76,1340,1469,1281.7,1495.24,1227c65.74-132.8,47.21-312.92-61.89-415.7-128.68-121.14-241.28-47.33-354.58-125.38q-67.66-46.62-142.32-161.41c-49.3-77.34-79.38-142.68-90.22-197.43-9.44-54.74,1-91.82,32.52-113,30.08-19.78,68.19-14.49,114.35,17.3,45.81,32.14,93,85.83,142.67,161.76,49,75.93,78.33,142,88.82,196.37,6.29,36,3.85,64.63-7.34,85.47,70.28,7.07,136.72,25.08,192,66.4,14-34.26,21.33-72.05,22-113.73,2.1-104.89-38.46-220.74-121-348.94Z"
                    style="fill:#22a6e0" />
                <path
                    d="M313.32,1723.89v-73.46L642,1252.74l2.8-3.88c60.84-72.76,90.91-128.92,90.91-169.18,0-32.49-10.49-59-32.17-80.52-59.44-58.28-308.77-37.09-368.21-37.09H0V888.61L328.35,490.92l2.45-2.82c61.54-73.11,91.62-130,91.62-170.24,0-32.49-10.49-59-32.17-79.46-21-21.2-49.66-31.79-83.58-31.79-30.77,0-57.7,10.59-80.43,31.08-22.37,20.48-37.41,48.39-45.1,83.35L7.69,233.8C33.92,163.87,74.48,110.19,128.68,72c53.85-37.79,117.15-57.56,189.88-57.56q131.13,0,220.3,84.41c59.45,55.09,88.82,125,88.82,207.67,0,50.86-12.94,103.84-39.86,158.58S519.28,578.16,463.68,641L344.44,774.88c166.1,0,377.31-38.14,508.09,84.77C911.62,915.8,941.7,985,941.7,1068.38c0,50.86-13.29,103.84-40.57,158.58-26.22,54.74-67.49,113-123.79,175.89l-119.59,133.5h229L856,1723.89Z"
                    style="fill:#22a6e0;fill-rule:evenodd" />
                <path
                    d="M415.07,775.59H93.37L0,888.61v73.46H335.35c59.44,0,308.77-21.19,368.21,37.09,14.34,13.77,24.13,29.66,28.68,48h1.39c-26.22-153.28-159.45-271.6-318.56-271.6Z"
                    style="fill-rule:evenodd;mix-blend-mode:multiply;fill:url(#linear-gradient)" />
                <path
                    d="M923.86,504c-61.19,22.25-131.13,45.91-202.46,66.4,12.23,22.6,25.87,45.21,40.91,68.52,82.52,128.2,171.34,212.61,267.51,252.52,81.12,34.26,207.71,13.07,254.91,59.34,19.24,18.72,31.48,39.2,38.12,60.39,3.5-124.67-30.79-175-70-222.5-45.07-56.36-118.48-64.28-174.08-102.78q-67.66-46.62-142.32-161.41c-4.2-7.06-8.39-13.77-12.59-20.48Z"
                    style="fill-rule:evenodd;mix-blend-mode:multiply;fill:url(#linear-gradient-2)" />
            </g>
        </g>
    </g>
</svg>